<?xml version="1.0" encoding="utf-8"?>
<!-- Generator: Adobe Illustrator 21.0.0, SVG Export Plug-In . SVG Version: 6.00 Build 0)  -->
<svg version="1.1" id="Capa_1" xmlns="http://www.w3.org/2000/svg" xmlns:xlink="http://www.w3.org/1999/xlink" x="0px" y="0px"
	 viewBox="0 0 290 274" style="enable-background:new 0 0 290 274;" xml:space="preserve">
<style type="text/css">
	.st0{clip-path:url(#SVGID_2_);fill:#FFFFFF;}
	.st1{clip-path:url(#SVGID_2_);}
	.st2{fill:#229ED7;}
	.st3{fill:#272425;}
	.st4{fill:#CB2228;}
	.st5{opacity:0.1;clip-path:url(#SVGID_2_);}
	.st6{fill-rule:evenodd;clip-rule:evenodd;}
	.st7{opacity:0.15;clip-path:url(#SVGID_2_);}
	.st8{clip-path:url(#SVGID_4_);}
	.st9{opacity:0.1;clip-path:url(#SVGID_4_);}
	.st10{clip-path:url(#SVGID_6_);fill:#229ED7;}
	.st11{opacity:0.1;clip-path:url(#SVGID_6_);}
	.st12{fill:#FFFFFF;}
	.st13{fill:#262324;}
	.st14{opacity:0.15;}
	.st15{clip-path:url(#SVGID_8_);}
	.st16{fill:#333233;}
	.st17{fill:#1D8DC6;}
	.st18{fill:#221D1F;}
	.st19{fill-rule:evenodd;clip-rule:evenodd;fill:#329AC6;}
	.st20{fill-rule:evenodd;clip-rule:evenodd;fill:#1D8DC6;}
	.st21{opacity:0.1;}
	.st22{clip-path:url(#SVGID_10_);}
	.st23{opacity:0.25;}
	.st24{fill:#211915;}
	.st25{fill:#2B2A26;}
	.st26{fill:#E8DC3C;}
	.st27{fill:#E7DC3C;}
	.st28{fill:#E8DC3F;}
	.st29{fill:#E7DC42;}
	.st30{fill:#30302C;}
	.st31{fill:#E7DD43;}
	.st32{fill:#343430;}
	.st33{fill:#2E2E2B;}
	.st34{fill:#31312E;}
	.st35{fill:#2F2F2C;}
	.st36{fill:#30302D;}
	.st37{fill:#2E2D2A;}
	.st38{fill:#E7DD4D;}
	.st39{fill:#333230;}
	.st40{fill:#2B2A28;}
	.st41{fill:#363532;}
	.st42{fill:#E6DC57;}
	.st43{fill:#3A3936;}
	.st44{fill:#252523;}
	.st45{fill:#F6F6F4;}
	.st46{fill:#F5F5F2;}
	.st47{fill:#F2F2F0;}
	.st48{fill:#E1E2E0;}
	.st49{fill:#EEEEED;}
	.st50{fill:#DEDEDD;}
	.st51{fill:#E6E6E4;}
	.st52{clip-path:url(#SVGID_12_);}
	.st53{clip-path:url(#SVGID_14_);}
	.st54{fill:#484848;}
	.st55{fill:#FFE6A4;}
	.st56{fill:#6E1C2A;}
	.st57{fill:#551416;}
	.st58{fill:#F1CD33;}
	.st59{fill:#434244;}
	.st60{fill:#060609;}
	.st61{clip-path:url(#SVGID_16_);}
	.st62{fill:#0E0D0D;}
	.st63{fill:#ECD0C3;}
	.st64{clip-path:url(#SVGID_16_);fill:#0E0D0D;}
	.st65{opacity:0.14;}
	.st66{clip-path:url(#SVGID_18_);}
	.st67{clip-path:url(#SVGID_20_);}
	.st68{clip-path:url(#SVGID_22_);}
	.st69{clip-path:url(#SVGID_24_);}
	.st70{clip-path:url(#SVGID_24_);fill:#0E0D0D;}
	.st71{clip-path:url(#SVGID_26_);}
	.st72{fill:#AA6502;}
	.st73{fill:#E88F09;}
	.st74{opacity:0.3;}
	.st75{fill:none;}
	.st76{fill:#FFF8BB;}
	.st77{fill:#FFFCE6;}
	.st78{fill:#212F44;}
	.st79{fill:#081C35;}
	.st80{fill:#415C84;}
	.st81{fill:#547EAF;}
	.st82{fill:#00A79D;}
	.st83{fill:#00776B;}
	.st84{fill:#08F7E0;}
	.st85{fill:#71FFEE;}
	.st86{fill:#C64320;}
	.st87{fill:#F66E44;}
	.st88{fill:#020202;}
	.st89{clip-path:url(#SVGID_28_);}
	.st90{fill:#FFF2BE;}
	.st91{fill:#FFFCEE;}
	.st92{opacity:0.1;clip-path:url(#SVGID_26_);}
	.st93{clip-path:url(#SVGID_30_);}
	.st94{clip-path:url(#SVGID_32_);}
	.st95{opacity:0.1;clip-path:url(#SVGID_30_);}
	.st96{fill:#FC0202;}
	.st97{fill:#FEF6F6;}
	.st98{opacity:0.8;fill:none;stroke:#272425;stroke-miterlimit:10;}
	.st99{fill:none;stroke:#211915;stroke-width:3;stroke-miterlimit:10;}
	.st100{opacity:0.18;}
</style>
<g>
	<g>
		<g>
			<path class="st3" d="M255.2,13.9c-73.5,0-146.9,0-220.4,0c-13.3,0-20.7,7.4-20.7,20.8c0,52.8,0,105.6,0,158.4
				c0,13.8,7.3,21.1,21.1,21.1c17.2,0,34.3,0,51.5,0l13.6,0c-0.9,3-1.7,5.9-2.6,8.8c-0.3,0.9-0.6,2-0.8,2.8c-0.9,0.1-2,0.1-3.1,0.1
				c-9,0.4-13.9,5.5-14.1,14.3c0,1.8,0,3.6,0,5.4l0,0.9c0,8.1,5.5,13.6,13.6,13.6c17.1,0,34.3,0,51.4,0c17.2,0,34.4,0,51.5,0
				c8.1,0,13.6-5.4,13.7-13.4c0-1.4,0-2.9,0-4.3c0-0.9,0-1.8,0-2.7c0-7.8-5.3-13.3-13.2-13.8c-1.4-0.1-2.6-0.1-3.8,0
				c-1.2-3.9-2.3-7.8-3.5-11.7l13.6,0c17.3,0,34.6,0,51.9,0c13.2,0,20.8-7.6,20.8-20.7c0-52.9,0-105.9,0-158.8
				C275.9,21.5,268.3,13.9,255.2,13.9z M50.9,160.6V50.7h188v109.8H50.9z"/>
		</g>
		<g>
			<path class="st3" d="M168.4,109.5c2.7-2.1,5-5.3,5.5-9c0.7-5.6-3.7-11.2-8.2-13c-13.8-5.5-28.2-10.9-42.6-16.2
				c-3.9-1.4-10.1-0.9-13.9,2.8c-3.8,3.8-4.3,10-2.9,13.9c5.4,14.9,10.6,28.7,16,42.2c1.6,4.2,7.2,9.5,13.3,8.6c3.8-0.5,6.9-3,9-5.6
				c3.8,3.9,7.5,7.6,11.3,11.3c0.7,0.7,5.4,5.1,10.7,5.1c1.7,0,3.4-0.5,5.1-1.6c3.6-2.5,8.1-6.1,11.2-10.9
				c4.5-7.1-2.8-15.5-4.4-17.2C175.3,116.4,171.9,113,168.4,109.5z"/>
		</g>
	</g>
	<g>
		<g>
			<path class="st12" d="M178.4,201.9c2.8,9.4,5.3,18.2,8,26.9c0.2,0.7,1.6,1.5,2.5,1.6c2.5,0.2,5.1,0,7.6,0.1
				c3.3,0.2,5.2,1.8,5.2,5.3c0,2.3,0,4.6,0,6.9c-0.1,3.5-1.9,5.1-5.3,5.1c-34.3,0-68.6,0-102.9,0c-3.4,0-5.2-1.7-5.2-5.2
				c0-2,0-4.1,0-6.1c0.1-4.4,1.5-5.8,6-6c9.1-0.4,9.1-0.4,11.6-9c1.9-6.3,3.7-12.7,5.7-19.6c-1.9,0-3.4,0-4.8,0
				c-23.9,0-47.7,0-71.6,0c-9.2,0-12.7-3.5-12.7-12.7c0-52.8,0-105.6,0-158.4c0-8.7,3.6-12.4,12.3-12.4c73.5,0,146.9,0,220.4,0
				c8.6,0,12.3,3.7,12.3,12.4c0,52.9,0,105.9,0,158.8c0,8.6-3.7,12.3-12.4,12.3c-24,0-48,0-71.9,0
				C181.8,201.9,180.4,201.9,178.4,201.9z M42.5,165.2c68.5,0,136.7,0,204.8,0c0-42.4,0-84.5,0-126.7c-68.4,0-136.6,0-204.8,0
				C42.5,80.8,42.5,122.8,42.5,165.2z"/>
		</g>
		<g>
			<path class="st12" d="M153.4,102.6c6.7,6.7,13.1,12.8,19.1,19.2c1.8,1.9,4.1,5.7,3.4,6.9c-2.2,3.4-5.6,6.2-8.9,8.6
				c-0.7,0.5-3.7-1.3-5-2.6c-6.6-6.5-13.1-13.2-20.3-20.4c-1,3.4-1.4,6.2-2.6,8.5c-0.9,1.7-2.8,3.7-4.5,3.9
				c-1.3,0.2-3.7-1.8-4.4-3.4c-5.5-13.9-10.8-27.9-15.9-41.9c-0.5-1.5-0.1-4.1,0.9-5.1c1-1,3.6-1.4,5.1-0.9
				c14.2,5.2,28.3,10.6,42.4,16.1c1.4,0.6,3.1,2.9,3,4.1c-0.2,1.6-1.9,3.4-3.5,4.3C159.6,101.1,156.8,101.6,153.4,102.6z"/>
		</g>
	</g>
</g>
</svg>
