<?xml version="1.0" encoding="utf-8"?>
<!-- Generator: Adobe Illustrator 21.0.0, SVG Export Plug-In . SVG Version: 6.00 Build 0)  -->
<svg version="1.1" id="Capa_1" xmlns="http://www.w3.org/2000/svg" xmlns:xlink="http://www.w3.org/1999/xlink" x="0px" y="0px"
	 viewBox="0 0 290 264.7" style="enable-background:new 0 0 290 264.7;" xml:space="preserve">
<style type="text/css">
	.st0{clip-path:url(#SVGID_2_);fill:#FFFFFF;}
	.st1{clip-path:url(#SVGID_2_);}
	.st2{fill:#229ED7;}
	.st3{fill:#272425;}
	.st4{fill:#CB2228;}
	.st5{opacity:0.1;clip-path:url(#SVGID_2_);}
	.st6{fill-rule:evenodd;clip-rule:evenodd;}
	.st7{opacity:0.15;clip-path:url(#SVGID_2_);}
	.st8{clip-path:url(#SVGID_4_);}
	.st9{opacity:0.1;clip-path:url(#SVGID_4_);}
	.st10{clip-path:url(#SVGID_6_);fill:#229ED7;}
	.st11{opacity:0.1;clip-path:url(#SVGID_6_);}
	.st12{fill:#FFFFFF;}
	.st13{fill:#262324;}
	.st14{opacity:0.15;}
	.st15{clip-path:url(#SVGID_8_);}
	.st16{fill:#333233;}
	.st17{fill:#1D8DC6;}
	.st18{fill:#221D1F;}
	.st19{fill-rule:evenodd;clip-rule:evenodd;fill:#329AC6;}
	.st20{fill-rule:evenodd;clip-rule:evenodd;fill:#1D8DC6;}
	.st21{opacity:0.1;}
	.st22{clip-path:url(#SVGID_10_);}
	.st23{opacity:0.25;}
	.st24{fill:#211915;}
	.st25{fill:#2B2A26;}
	.st26{fill:#E8DC3C;}
	.st27{fill:#E7DC3C;}
	.st28{fill:#E8DC3F;}
	.st29{fill:#E7DC42;}
	.st30{fill:#30302C;}
	.st31{fill:#E7DD43;}
	.st32{fill:#343430;}
	.st33{fill:#2E2E2B;}
	.st34{fill:#31312E;}
	.st35{fill:#2F2F2C;}
	.st36{fill:#30302D;}
	.st37{fill:#2E2D2A;}
	.st38{fill:#E7DD4D;}
	.st39{fill:#333230;}
	.st40{fill:#2B2A28;}
	.st41{fill:#363532;}
	.st42{fill:#E6DC57;}
	.st43{fill:#3A3936;}
	.st44{fill:#252523;}
	.st45{fill:#F6F6F4;}
	.st46{fill:#F5F5F2;}
	.st47{fill:#F2F2F0;}
	.st48{fill:#E1E2E0;}
	.st49{fill:#EEEEED;}
	.st50{fill:#DEDEDD;}
	.st51{fill:#E6E6E4;}
	.st52{clip-path:url(#SVGID_12_);}
	.st53{clip-path:url(#SVGID_14_);}
	.st54{fill:#484848;}
	.st55{fill:#FFE6A4;}
	.st56{fill:#6E1C2A;}
	.st57{fill:#551416;}
	.st58{fill:#F1CD33;}
	.st59{fill:#434244;}
	.st60{fill:#060609;}
	.st61{clip-path:url(#SVGID_16_);}
	.st62{fill:#0E0D0D;}
	.st63{fill:#ECD0C3;}
	.st64{clip-path:url(#SVGID_16_);fill:#0E0D0D;}
	.st65{opacity:0.14;}
	.st66{clip-path:url(#SVGID_18_);}
	.st67{clip-path:url(#SVGID_20_);}
	.st68{clip-path:url(#SVGID_22_);}
	.st69{clip-path:url(#SVGID_24_);}
	.st70{clip-path:url(#SVGID_24_);fill:#0E0D0D;}
	.st71{clip-path:url(#SVGID_26_);}
	.st72{fill:#AA6502;}
	.st73{fill:#E88F09;}
	.st74{opacity:0.3;}
	.st75{fill:none;}
	.st76{fill:#FFF8BB;}
	.st77{fill:#FFFCE6;}
	.st78{fill:#212F44;}
	.st79{fill:#081C35;}
	.st80{fill:#415C84;}
	.st81{fill:#547EAF;}
	.st82{fill:#00A79D;}
	.st83{fill:#00776B;}
	.st84{fill:#08F7E0;}
	.st85{fill:#71FFEE;}
	.st86{fill:#C64320;}
	.st87{fill:#F66E44;}
	.st88{fill:#020202;}
	.st89{clip-path:url(#SVGID_28_);}
	.st90{fill:#FFF2BE;}
	.st91{fill:#FFFCEE;}
	.st92{opacity:0.1;clip-path:url(#SVGID_26_);}
	.st93{clip-path:url(#SVGID_30_);}
	.st94{clip-path:url(#SVGID_32_);}
	.st95{opacity:0.1;clip-path:url(#SVGID_30_);}
	.st96{fill:#FC0202;}
	.st97{fill:#FEF6F6;}
	.st98{opacity:0.8;fill:none;stroke:#272425;stroke-miterlimit:10;}
	.st99{fill:none;stroke:#211915;stroke-width:3;stroke-miterlimit:10;}
	.st100{opacity:0.18;}
</style>
<g>
	<g>
		<path class="st3" d="M272.8,181.3l0-7c0-12.6-8.2-20.9-20.9-21c-8.1-0.1-16.4-0.1-24.7,0c-12.9,0.1-20.9,8.3-20.9,21.2
			c0,5.3,0,10.7,0,16c0,1,0,2,0,3h-30.8c1.6-3.3,2.4-7.4,2.4-12.3c0-19.2,0-38.3,0-57.5c8.8,8.2,20.3,8.1,28.9-0.3
			c5.9-5.8,11.9-11.8,17.6-17.6c8.9-9.1,8.9-20.7,0-29.7c-20.9-20.9-42.8-42.9-65.1-65.2c-8.8-8.8-20.6-8.7-29.5,0.1
			c-23.8,23.8-45.1,45.1-65.1,65.2c-8.9,8.9-8.9,20.6,0.1,29.7c6.1,6.2,11.8,11.8,17.4,17.4c8.8,8.7,20.2,8.9,29.1,0.5
			c0,19.4,0,38.8,0,58.2c0,4.5,0.8,8.3,2.4,11.5H83.7c0-6.4,0-13,0-19.5c-0.1-12.3-8.4-20.7-20.7-20.8c-9.3-0.1-17.5-0.1-25,0
			c-12.6,0.2-20.8,8.4-20.8,21.1l0,3.4c0,15.9,0,32.4,0,48.6c0.1,19.6,14.3,33.8,33.9,33.8c31.3,0,62.6,0,93.9,0s62.6,0,93.9,0
			c19.2,0,33.8-14.4,33.9-33.4C272.9,211.6,272.8,196.2,272.8,181.3z"/>
	</g>
	<g>
		<g>
			<path class="st12" d="M70.6,199.6c49.8,0,99,0,148.7,0c0.1-1.3,0.2-2.6,0.2-3.8c0-9.4,0-18.9,0-28.3c0-5.8,2.2-8.1,8-8.1
				c8.1-0.1,16.2-0.1,24.4,0c5.4,0.1,7.9,2.6,7.9,7.9c0,17.4,0.1,34.9,0,52.3c-0.1,11.9-8.9,20.4-20.8,20.4c-62.6,0-125.2,0-187.7,0
				c-12.2,0-20.7-8.5-20.8-20.7c-0.1-17.3,0-34.6,0-51.9c0-5.5,2.3-7.9,7.8-8c8.2-0.1,16.5-0.1,24.7,0c5.2,0,7.7,2.5,7.7,7.7
				c0.1,9.4,0,18.9,0,28.3C70.6,196.7,70.6,198,70.6,199.6z"/>
		</g>
		<g>
			<path class="st12" d="M164.7,86.2c0,1.4,0,2.8,0,4.2c0,27.9,0,55.9,0,83.8c0,8-1.9,9.8-10,9.9c-7,0-14.1,0-21.1,0
				c-7.1,0-9.3-2.1-9.3-9.1c0-28.3,0-56.6,0-84.9c0-1.3,0-2.6,0-4.6c-1.4,1.2-2.2,1.9-3,2.7c-6.3,6.2-12.5,12.5-18.7,18.7
				c-3.8,3.8-7.4,3.8-11.2,0c-5.8-5.7-11.5-11.4-17.2-17.2c-3.9-3.9-3.9-7.4-0.1-11.2c21.7-21.7,43.4-43.4,65.1-65.1
				c3.6-3.6,7.3-3.7,10.9-0.1c21.7,21.7,43.4,43.4,65.1,65.1c3.8,3.9,3.8,7.3,0,11.2c-5.8,5.9-11.6,11.7-17.5,17.5
				c-3.6,3.6-7.2,3.5-10.9-0.1c-7-7-14-14-21-21C165.3,86,165,86.1,164.7,86.2z"/>
		</g>
	</g>
</g>
</svg>
