<?xml version="1.0" encoding="utf-8"?>
<!-- Generator: Adobe Illustrator 21.0.0, SVG Export Plug-In . SVG Version: 6.00 Build 0)  -->
<svg version="1.1" id="Capa_1" xmlns="http://www.w3.org/2000/svg" xmlns:xlink="http://www.w3.org/1999/xlink" x="0px" y="0px"
	 viewBox="0 0 290 264.7" style="enable-background:new 0 0 290 264.7;" xml:space="preserve">
<style type="text/css">
	.st0{clip-path:url(#SVGID_2_);fill:#FFFFFF;}
	.st1{clip-path:url(#SVGID_2_);}
	.st2{fill:#229ED7;}
	.st3{fill:#272425;}
	.st4{fill:#CB2228;}
	.st5{opacity:0.1;clip-path:url(#SVGID_2_);}
	.st6{fill-rule:evenodd;clip-rule:evenodd;}
	.st7{opacity:0.15;clip-path:url(#SVGID_2_);}
	.st8{clip-path:url(#SVGID_4_);}
	.st9{opacity:0.1;clip-path:url(#SVGID_4_);}
	.st10{clip-path:url(#SVGID_6_);fill:#229ED7;}
	.st11{opacity:0.1;clip-path:url(#SVGID_6_);}
	.st12{fill:#FFFFFF;}
	.st13{fill:#262324;}
	.st14{opacity:0.15;}
	.st15{clip-path:url(#SVGID_8_);}
	.st16{fill:#333233;}
	.st17{fill:#1D8DC6;}
	.st18{fill:#221D1F;}
	.st19{fill-rule:evenodd;clip-rule:evenodd;fill:#329AC6;}
	.st20{fill-rule:evenodd;clip-rule:evenodd;fill:#1D8DC6;}
	.st21{opacity:0.1;}
	.st22{clip-path:url(#SVGID_10_);}
	.st23{opacity:0.25;}
	.st24{fill:#211915;}
	.st25{fill:#2B2A26;}
	.st26{fill:#E8DC3C;}
	.st27{fill:#E7DC3C;}
	.st28{fill:#E8DC3F;}
	.st29{fill:#E7DC42;}
	.st30{fill:#30302C;}
	.st31{fill:#E7DD43;}
	.st32{fill:#343430;}
	.st33{fill:#2E2E2B;}
	.st34{fill:#31312E;}
	.st35{fill:#2F2F2C;}
	.st36{fill:#30302D;}
	.st37{fill:#2E2D2A;}
	.st38{fill:#E7DD4D;}
	.st39{fill:#333230;}
	.st40{fill:#2B2A28;}
	.st41{fill:#363532;}
	.st42{fill:#E6DC57;}
	.st43{fill:#3A3936;}
	.st44{fill:#252523;}
	.st45{fill:#F6F6F4;}
	.st46{fill:#F5F5F2;}
	.st47{fill:#F2F2F0;}
	.st48{fill:#E1E2E0;}
	.st49{fill:#EEEEED;}
	.st50{fill:#DEDEDD;}
	.st51{fill:#E6E6E4;}
	.st52{clip-path:url(#SVGID_12_);}
	.st53{clip-path:url(#SVGID_14_);}
	.st54{fill:#484848;}
	.st55{fill:#FFE6A4;}
	.st56{fill:#6E1C2A;}
	.st57{fill:#551416;}
	.st58{fill:#F1CD33;}
	.st59{fill:#434244;}
	.st60{fill:#060609;}
	.st61{clip-path:url(#SVGID_16_);}
	.st62{fill:#0E0D0D;}
	.st63{fill:#ECD0C3;}
	.st64{clip-path:url(#SVGID_16_);fill:#0E0D0D;}
	.st65{opacity:0.14;}
	.st66{clip-path:url(#SVGID_18_);}
	.st67{clip-path:url(#SVGID_20_);}
	.st68{clip-path:url(#SVGID_22_);}
	.st69{clip-path:url(#SVGID_24_);}
	.st70{clip-path:url(#SVGID_24_);fill:#0E0D0D;}
	.st71{clip-path:url(#SVGID_26_);}
	.st72{fill:#AA6502;}
	.st73{fill:#E88F09;}
	.st74{opacity:0.3;}
	.st75{fill:none;}
	.st76{fill:#FFF8BB;}
	.st77{fill:#FFFCE6;}
	.st78{fill:#212F44;}
	.st79{fill:#081C35;}
	.st80{fill:#415C84;}
	.st81{fill:#547EAF;}
	.st82{fill:#00A79D;}
	.st83{fill:#00776B;}
	.st84{fill:#08F7E0;}
	.st85{fill:#71FFEE;}
	.st86{fill:#C64320;}
	.st87{fill:#F66E44;}
	.st88{fill:#020202;}
	.st89{clip-path:url(#SVGID_28_);}
	.st90{fill:#FFF2BE;}
	.st91{fill:#FFFCEE;}
	.st92{opacity:0.1;clip-path:url(#SVGID_26_);}
	.st93{clip-path:url(#SVGID_30_);}
	.st94{clip-path:url(#SVGID_32_);}
	.st95{opacity:0.1;clip-path:url(#SVGID_30_);}
	.st96{fill:#FC0202;}
	.st97{fill:#FEF6F6;}
	.st98{opacity:0.8;fill:none;stroke:#272425;stroke-miterlimit:10;}
	.st99{fill:none;stroke:#211915;stroke-width:3;stroke-miterlimit:10;}
	.st100{opacity:0.18;}
</style>
<g>
	<g>
		<path class="st3" d="M221.1,32.5L221.1,32.5c0-17-11-28-28-28c-23.2,0-46.3,0-69.5,0l-26.5,0c-17.7,0-28.2,10.6-28.2,28.4l0,127.4
			c0,24.1,0,48.2,0,72.3c0,16.8,10.8,27.6,27.5,27.6l13.8,0c13.1,0,26.1,0,39.2,0c14.6,0,29.1,0,43.7,0c17.2,0,27.9-10.7,27.9-28
			C221.1,165.6,221.1,99.1,221.1,32.5z M119.6,27.5c0-1.4,1-2.6,2.3-2.8c-0.2,0.9-0.4,1.8-0.4,2.8c0,1,0.1,1.9,0.4,2.8
			C120.6,30.1,119.6,28.9,119.6,27.5z M133.3,30.3c0.2-0.9,0.4-1.8,0.4-2.8c0-1-0.1-1.9-0.4-2.8c0.3,0,0.5,0.1,0.7,0.3
			c-0.2,0.8-0.3,1.7-0.3,2.6c0,0.9,0.1,1.7,0.3,2.6C133.8,30.2,133.6,30.3,133.3,30.3z M145.1,30.4C145.1,30.4,145,30.4,145.1,30.4
			c-0.5,0-1-0.1-1.4-0.3c0.2-0.8,0.3-1.7,0.3-2.6c0-0.9-0.1-1.7-0.3-2.6c0.4-0.2,0.8-0.3,1.3-0.3c0,0,0.1,0,0.1,0
			c-0.2,0.9-0.4,1.9-0.4,2.9C144.7,28.5,144.9,29.5,145.1,30.4z M156,30.4c0,0-0.1,0-0.1,0c0.2-0.7,0.3-1.4,0.4-2.1
			c0,0.7,0.2,1.4,0.3,2C156.4,30.4,156.2,30.4,156,30.4z M156,24.7c0.2,0,0.4,0,0.6,0.1c-0.2,0.6-0.3,1.3-0.3,2
			c0-0.7-0.2-1.4-0.4-2.1C155.9,24.7,155.9,24.7,156,24.7z M167.4,24.7c1.6,0,2.9,1.3,2.9,2.9c0,1.6-1.3,2.9-2.9,2.9
			c-0.2,0-0.4,0-0.6-0.1c0.2-0.9,0.4-1.8,0.4-2.8c0-1-0.1-1.9-0.4-2.8C167,24.7,167.2,24.7,167.4,24.7z"/>
	</g>
	<g>
		<g>
			<path class="st12" d="M212.7,28.3c0-12.5-7.2-19.6-19.6-19.6c-32,0-63.9,0-95.9,0c-13.1,0-19.9,6.8-19.9,20.1
				c0,33.1,0,66.2,0,99.3c0,33.5,0,66.9,0,100.4c0,12.2,7,19.2,19.2,19.2c32.2,0,64.4,0,96.7,0c12.7,0,19.6-6.9,19.6-19.7
				C212.7,161.4,212.7,94.9,212.7,28.3z M167.4,20.5c1.6,0,2.9,1.3,2.9,2.9c0,1.6-1.3,2.9-2.9,2.9c-1.6,0-2.9-1.3-2.9-2.9
				C164.5,21.8,165.8,20.5,167.4,20.5z M156,20.5c1.6,0,2.9,1.3,2.9,2.9c0,1.6-1.3,2.9-2.9,2.9c-1.6,0-2.9-1.3-2.9-2.9
				C153.1,21.8,154.4,20.5,156,20.5z M145,20.5c1.6,0,2.9,1.3,2.9,2.9c0,1.6-1.3,2.9-2.9,2.9c-1.6,0-2.9-1.3-2.9-2.9
				C142.1,21.8,143.4,20.5,145,20.5z M132.8,20.5c1.6,0,2.9,1.3,2.9,2.9c0,1.6-1.3,2.9-2.9,2.9c-1.6,0-2.9-1.3-2.9-2.9
				C129.9,21.8,131.2,20.5,132.8,20.5z M122.5,20.5c1.6,0,2.9,1.3,2.9,2.9c0,1.6-1.3,2.9-2.9,2.9c-1.6,0-2.9-1.3-2.9-2.9
				C119.6,21.8,120.9,20.5,122.5,20.5z M162.4,223.1h-34.9c-2.3,0-4.2-1.9-4.2-4.2c0-2.3,1.9-4.2,4.2-4.2h34.9
				c2.3,0,4.2,1.9,4.2,4.2C166.7,221.2,164.8,223.1,162.4,223.1z M199.4,192.1c-36.1,0-72.3,0-108.7,0c0-51.2,0-102.5,0-154
				c36.2,0,72.3,0,108.7,0C199.4,89.5,199.4,140.7,199.4,192.1z"/>
		</g>
	</g>
	<rect x="95.1" y="42.2" class="st12" width="99.3" height="144.6"/>
	<g>
		<g>
			<g>
				<path class="st3" d="M156.2,140.8c-6.9,0-13.6,0-20.5,0c0-1.9,0.1-3.8,0-5.6c-0.1-1.1-0.3-2.3-0.9-3.2c-2-3.1-4.1-6.2-6.3-9.1
					c-7.4-9.9-6.3-22.8,2.9-30.7c6.5-5.7,14.2-7.1,22.3-4.1c8.1,3,12.9,9,14.4,17.4c1.1,6.1-0.4,11.7-4.1,16.8
					c-2.4,3.3-4.8,6.8-7,10.2c-0.5,0.7-0.7,1.7-0.7,2.6C156.2,136.8,156.2,138.7,156.2,140.8z"/>
			</g>
			<g>
				<path class="st3" d="M155.3,152.6c0.1,2.8-2,4.5-4,5.2c-0.5,0.2-1,0.6-1.2,1.1c-0.8,1.7-2.4,2.8-4.1,2.7c-1.9-0.1-3.1-1.1-4-2.7
					c-0.2-0.5-0.8-0.9-1.2-1.1c-2.5-0.8-4-2.6-4-5.2C142.9,152.6,149.1,152.6,155.3,152.6z"/>
			</g>
			<g>
				<path class="st3" d="M146,144.3c2.6,0,5.3,0,7.9,0c1.7,0,2.6,0.8,2.7,2.2c0,1.5-1,2.4-2.6,2.4c-5.3,0-10.5,0-15.8,0
					c-1.7,0-2.7-1-2.7-2.4c0-1.4,1-2.2,2.6-2.3C140.8,144.3,143.4,144.3,146,144.3z"/>
			</g>
			<g>
				<path class="st3" d="M142.9,74.9c0-1.1,0-2.2,0-3.3c0.1-2,1.3-3.3,3.1-3.4c1.8,0,3.1,1.3,3.2,3.3c0.1,2.3,0.1,4.6,0,6.8
					c-0.1,2-1.4,3.3-3.2,3.3c-1.7,0-3-1.3-3.1-3.2C142.9,77.2,142.9,76,142.9,74.9z"/>
			</g>
			<g>
				<path class="st3" d="M181,94.1c2.1,0,3.3,0.9,3.7,2.3c0.4,1.4-0.3,3-1.7,3.5c-2.5,0.9-5,1.7-7.6,2.5c-1.5,0.4-2.9-0.4-3.4-1.8
					c-0.6-1.3-0.2-3.1,1.1-3.7C175.9,95.8,178.8,94.9,181,94.1z"/>
			</g>
			<g>
				<path class="st3" d="M120.3,98.8c0,2.4-1.7,4.1-3.5,3.6c-2.7-0.7-5.3-1.5-7.9-2.5c-1.4-0.5-2-2.3-1.5-3.7c0.5-1.5,2-2.4,3.6-2
					c2.5,0.7,5,1.5,7.4,2.5C119.4,97.1,119.9,98.3,120.3,98.8z"/>
			</g>
			<g>
				<path class="st3" d="M131.3,84c0,1.6-0.7,2.6-1.9,3.1c-1.3,0.6-2.5,0.3-3.3-0.7c-1.7-2.1-3.3-4.3-4.8-6.6
					c-0.8-1.2-0.3-2.9,0.8-3.8c1.2-0.9,3-1,4,0.2c1.7,2.1,3.3,4.4,4.9,6.7C131.2,83.3,131.2,83.8,131.3,84z"/>
			</g>
			<g>
				<path class="st3" d="M160.8,83.8c0.1-0.3,0.3-1,0.7-1.6c1.3-1.8,2.6-3.6,3.9-5.4c1.2-1.6,3-1.9,4.5-0.9c1.4,1,1.7,2.9,0.6,4.5
					c-1.4,1.9-2.8,3.9-4.2,5.7c-0.8,1.1-2,1.5-3.4,1C161.6,86.6,160.8,85.7,160.8,83.8z"/>
			</g>
			<g>
				<path class="st3" d="M111,123.4c-2.1,0-3.3-0.9-3.6-2.3c-0.3-1.3,0.2-2.8,1.5-3.3c2.6-1,5.2-1.9,7.9-2.6
					c1.7-0.4,3.1,0.6,3.5,2.3c0.4,1.5-0.3,3-2,3.6C115.6,122,113,122.8,111,123.4z"/>
			</g>
			<g>
				<path class="st3" d="M181.5,123.4c-0.3-0.1-0.8-0.1-1.3-0.3c-2.1-0.7-4.2-1.3-6.2-2c-1.8-0.6-2.5-2.2-2-3.8
					c0.5-1.7,2-2.6,3.8-2.1c2.5,0.7,4.9,1.5,7.3,2.4c1.4,0.5,2.1,2.1,1.7,3.5C184.4,122.5,183.2,123.4,181.5,123.4z"/>
			</g>
			<g>
				<path class="st3" d="M120.9,138.8c0.1-0.3,0.3-1.1,0.7-1.6c1.2-1.8,2.5-3.6,3.8-5.3c1.3-1.7,3.1-2.1,4.6-1
					c1.5,1.1,1.7,3,0.4,4.8c-1.3,1.8-2.6,3.6-4,5.4c-0.9,1.1-2,1.6-3.5,1.1C121.7,141.5,120.9,140.6,120.9,138.8z"/>
			</g>
			<g>
				<path class="st3" d="M169.3,142c-1.3,0.6-2.5,0.3-3.3-0.7c-1.7-2.1-3.3-4.4-4.9-6.7c-0.8-1.2-0.2-2.9,0.9-3.8
					c1.2-0.9,2.9-1,3.8,0.2c1.8,2.2,3.4,4.6,5.1,6.9c0.2,0.3,0.2,0.8,0.3,1C171.2,140.5,170.5,141.4,169.3,142"/>
			</g>
		</g>
	</g>
</g>
</svg>
