<?xml version="1.0" encoding="utf-8"?>
<!-- Generator: Adobe Illustrator 21.0.0, SVG Export Plug-In . SVG Version: 6.00 Build 0)  -->
<svg version="1.1" id="Capa_1" xmlns="http://www.w3.org/2000/svg" xmlns:xlink="http://www.w3.org/1999/xlink" x="0px" y="0px"
	 viewBox="0 0 290 274" style="enable-background:new 0 0 290 274;" xml:space="preserve">
<style type="text/css">
	.st0{clip-path:url(#SVGID_2_);fill:#FFFFFF;}
	.st1{clip-path:url(#SVGID_2_);}
	.st2{fill:#229ED7;}
	.st3{fill:#272425;}
	.st4{fill:#CB2228;}
	.st5{opacity:0.1;clip-path:url(#SVGID_2_);}
	.st6{fill-rule:evenodd;clip-rule:evenodd;}
	.st7{opacity:0.15;clip-path:url(#SVGID_2_);}
	.st8{clip-path:url(#SVGID_4_);}
	.st9{opacity:0.1;clip-path:url(#SVGID_4_);}
	.st10{clip-path:url(#SVGID_6_);fill:#229ED7;}
	.st11{opacity:0.1;clip-path:url(#SVGID_6_);}
	.st12{fill:#FFFFFF;}
	.st13{fill:#262324;}
	.st14{opacity:0.15;}
	.st15{clip-path:url(#SVGID_8_);}
	.st16{fill:#333233;}
	.st17{fill:#1D8DC6;}
	.st18{fill:#221D1F;}
	.st19{fill-rule:evenodd;clip-rule:evenodd;fill:#329AC6;}
	.st20{fill-rule:evenodd;clip-rule:evenodd;fill:#1D8DC6;}
	.st21{opacity:0.1;}
	.st22{clip-path:url(#SVGID_10_);}
	.st23{opacity:0.25;}
	.st24{fill:#211915;}
	.st25{fill:#2B2A26;}
	.st26{fill:#E8DC3C;}
	.st27{fill:#E7DC3C;}
	.st28{fill:#E8DC3F;}
	.st29{fill:#E7DC42;}
	.st30{fill:#30302C;}
	.st31{fill:#E7DD43;}
	.st32{fill:#343430;}
	.st33{fill:#2E2E2B;}
	.st34{fill:#31312E;}
	.st35{fill:#2F2F2C;}
	.st36{fill:#30302D;}
	.st37{fill:#2E2D2A;}
	.st38{fill:#E7DD4D;}
	.st39{fill:#333230;}
	.st40{fill:#2B2A28;}
	.st41{fill:#363532;}
	.st42{fill:#E6DC57;}
	.st43{fill:#3A3936;}
	.st44{fill:#252523;}
	.st45{fill:#F6F6F4;}
	.st46{fill:#F5F5F2;}
	.st47{fill:#F2F2F0;}
	.st48{fill:#E1E2E0;}
	.st49{fill:#EEEEED;}
	.st50{fill:#DEDEDD;}
	.st51{fill:#E6E6E4;}
	.st52{clip-path:url(#SVGID_12_);}
	.st53{clip-path:url(#SVGID_14_);}
	.st54{fill:#484848;}
	.st55{fill:#FFE6A4;}
	.st56{fill:#6E1C2A;}
	.st57{fill:#551416;}
	.st58{fill:#F1CD33;}
	.st59{fill:#434244;}
	.st60{fill:#060609;}
	.st61{clip-path:url(#SVGID_16_);}
	.st62{fill:#0E0D0D;}
	.st63{fill:#ECD0C3;}
	.st64{clip-path:url(#SVGID_16_);fill:#0E0D0D;}
	.st65{opacity:0.14;}
	.st66{clip-path:url(#SVGID_18_);}
	.st67{clip-path:url(#SVGID_20_);}
	.st68{clip-path:url(#SVGID_22_);}
	.st69{clip-path:url(#SVGID_24_);}
	.st70{clip-path:url(#SVGID_24_);fill:#0E0D0D;}
	.st71{clip-path:url(#SVGID_26_);}
	.st72{fill:#AA6502;}
	.st73{fill:#E88F09;}
	.st74{opacity:0.3;}
	.st75{fill:none;}
	.st76{fill:#FFF8BB;}
	.st77{fill:#FFFCE6;}
	.st78{fill:#212F44;}
	.st79{fill:#081C35;}
	.st80{fill:#415C84;}
	.st81{fill:#547EAF;}
	.st82{fill:#00A79D;}
	.st83{fill:#00776B;}
	.st84{fill:#08F7E0;}
	.st85{fill:#71FFEE;}
	.st86{fill:#C64320;}
	.st87{fill:#F66E44;}
	.st88{fill:#020202;}
	.st89{clip-path:url(#SVGID_28_);}
	.st90{fill:#FFF2BE;}
	.st91{fill:#FFFCEE;}
	.st92{opacity:0.1;clip-path:url(#SVGID_26_);}
	.st93{clip-path:url(#SVGID_30_);}
	.st94{clip-path:url(#SVGID_32_);}
	.st95{opacity:0.1;clip-path:url(#SVGID_30_);}
	.st96{fill:#FC0202;}
	.st97{fill:#FEF6F6;}
	.st98{opacity:0.8;fill:none;stroke:#272425;stroke-miterlimit:10;}
	.st99{fill:none;stroke:#211915;stroke-width:3;stroke-miterlimit:10;}
	.st100{opacity:0.18;}
</style>
<g>
	<g>
		<g>
			<path class="st3" d="M199.5,228.4c0,5.1-0.3,10.2,0.1,15.2c0.3,3.5-1.3,4.9-4.1,6c-13,5.2-26.6,7.5-40.5,7.9
				c-20.1,0.7-39.6-2.5-58.7-8.6c-1.2-0.4-2.9-1.9-2.9-3c-0.1-11.5-0.6-23.1,0.4-34.5c1.5-18.7,15.4-33.4,34.4-35.3
				c12.6-1.3,25.6-1.1,38.1,0.3c18.7,2.2,32.4,18.6,33,37.4c0.2,4.8,0,9.6,0,14.4C199.4,228.4,199.5,228.4,199.5,228.4z"/>
			<path class="st3" d="M149.6,267c-18.4,0-36.7-3-56-9.1c-4.5-1.4-9.4-6.1-9.4-11.8c0-2.4-0.1-4.8-0.1-7.2
				c-0.1-9.2-0.3-18.6,0.5-28.1c1.9-23.5,19.5-41.5,42.7-43.8c13.2-1.3,26.7-1.2,40.1,0.4c22.7,2.6,40.5,22.6,41.3,46.4
				c0.1,3.5,0.1,6.9,0.1,10.3c0,1,0,1.9,0,2.9c0.1,0.5,0.1,1,0.1,1.5c0,1.6,0,3.1-0.1,4.7c-0.1,3.4-0.1,6.7,0.1,9.8
				c0.3,4.1-0.5,11.7-9.9,15.4c-13,5.2-27.3,8-43.7,8.6C153.4,267,151.5,267,149.6,267z M102.7,241.3c17.9,5.3,35,7.6,52,7
				c13.4-0.5,25-2.6,35.5-6.5c-0.1-3.1-0.1-6.1,0-9c0-1,0-1.9,0-2.9c-0.1-0.5-0.1-1-0.1-1.5c0-1.5,0-3.1,0-4.6c0-3.3,0.1-6.4,0-9.5
				c-0.5-14.6-11.1-26.9-24.8-28.4c-12.1-1.4-24.3-1.5-36.2-0.3c-14.1,1.4-24.8,12.4-26,26.8c-0.7,8.6-0.6,17.2-0.4,26.3
				C102.7,239.5,102.7,240.4,102.7,241.3z M102.8,246C102.8,246,102.8,246,102.8,246C102.8,246,102.8,246,102.8,246z"/>
		</g>
		<g>
			<path class="st3" d="M107.9,143.6c0.7,10.5,4.5,19.1,11.8,26.6c-11.8,4-20.8,11-27.1,21.3c-6.3,10.3-7.2,21.6-6.6,34.2
				c-7.7-1.1-14.9-1.7-21.9-3.1c-7.6-1.5-15.2-3.6-22.7-5.7c-1-0.3-2.5-1.6-2.5-2.5c0.1-12.6-0.7-25.3,0.8-37.8
				c2.3-18.9,19.3-32.8,38.3-33C87.9,143.5,97.8,143.6,107.9,143.6z"/>
			<path class="st3" d="M86,235c-0.4,0-0.8,0-1.3-0.1c-2.3-0.3-4.6-0.6-6.9-0.9c-5.3-0.7-10.4-1.3-15.5-2.3
				c-7.1-1.4-14-3.3-20.7-5.1l-2.7-0.7c-4.6-1.3-9.4-5.9-9.3-11.5c0-3.3,0-6.7-0.1-9.9c-0.1-9.4-0.2-19.2,0.9-28.9
				c2.8-23.3,23.2-41,47.5-41.2c6.8-0.1,13.8,0,20.5,0c3.1,0,6.3,0,9.4,0c4.9,0,9,3.8,9.3,8.7c0.6,8.3,3.5,14.9,9.2,20.7
				c2.2,2.3,3.1,5.6,2.4,8.7c-0.7,3.1-3,5.6-6.1,6.7c-9.8,3.4-17.1,9-22.1,17.3c-4.3,7.1-5.9,15.4-5.3,28.9c0.1,2.8-1,5.4-3,7.3
				C90.6,234.1,88.3,235,86,235z M48.3,209.1c6,1.6,11.8,3.2,17.6,4.3c3.5,0.7,7,1.2,10.8,1.7c0.4-9.3,2.4-19.2,8-28.4
				c5.2-8.5,12.1-15.2,20.5-20.1c-2.5-4.2-4.2-8.8-5.4-13.6c-0.5,0-1,0-1.4,0c-7,0-13.6,0-20.3,0c-14.7,0.1-27.5,11-29.1,24.8
				c-1,8.5-0.9,17.2-0.8,26.4C48.2,205.8,48.3,207.4,48.3,209.1z M48.3,214.4C48.3,214.4,48.3,214.4,48.3,214.4
				C48.3,214.4,48.3,214.4,48.3,214.4z M43.9,207.9L43.9,207.9C43.9,207.9,43.9,207.9,43.9,207.9z"/>
		</g>
		<g>
			<path class="st3" d="M206.8,225.4c2-26.5-8-45.4-33.3-55.3c6.8-7.3,11.1-15.9,11.4-26.6c12.9,0.8,25.7-1.8,38.1,1.9
				c16.8,5,27.8,20.5,28.1,39.2c0.1,9.2-0.1,18.4,0.1,27.5c0,2.6-0.9,3.9-3.2,4.9C235,222.6,221.5,224.9,206.8,225.4z"/>
			<path class="st3" d="M206.8,234.8c-2.5,0-4.9-1-6.7-2.8c-1.8-1.9-2.8-4.5-2.6-7.2c1.7-23.3-7-37.9-27.4-45.9
				c-2.9-1.1-5-3.6-5.7-6.6c-0.7-3,0.2-6.2,2.3-8.4c5.8-6.2,8.7-12.8,8.9-20.6c0.1-2.5,1.2-4.9,3.1-6.6c1.9-1.7,4.3-2.5,6.8-2.4
				c4.1,0.3,8.3,0.1,12.7,0c8.9-0.3,18-0.5,27.5,2.3c20.8,6.2,34.4,25,34.8,48c0.1,4.4,0,8.9,0,13.2c0,4.7,0,9.6,0.1,14.3
				c0.1,6.3-3,11.1-8.9,13.6c-12.9,5.5-27,8.4-44.4,9.1C207,234.8,206.9,234.8,206.8,234.8z M187.7,166.6
				c18.1,10.5,27.6,26.8,28.6,48.8c9.6-1,17.9-2.9,25.5-5.9c0-4,0-8,0-11.9c0-4.2,0-8.6,0-12.9c-0.2-14.7-8.6-26.6-21.4-30.4
				c-6.7-2-14-1.8-21.7-1.5c-1.8,0.1-3.7,0.1-5.6,0.1C192,157.8,190.2,162.3,187.7,166.6z"/>
		</g>
		<g>
			<path class="st3" d="M144.7,83.7c-18.7,0-33.6-15.1-33.5-33.8c0.1-18.6,15.4-33.8,33.9-33.6c18.6,0.2,33.6,15.3,33.5,34
				C178.6,68.9,163.6,83.7,144.7,83.7z"/>
			<path class="st3" d="M144.7,93C144.7,93,144.7,93,144.7,93c-11.5,0-22.3-4.5-30.4-12.6c-8.1-8.2-12.5-19-12.4-30.6
				c0.1-11.5,4.7-22.4,13-30.5c8.2-8.1,19-12.4,30.4-12.3C168.9,7.2,188,26.7,188,50.3c0,11.5-4.5,22.3-12.7,30.3
				C167.1,88.6,156.3,93,144.7,93z M144.8,25.6c-6.3,0-12.3,2.5-16.9,7c-4.7,4.6-7.3,10.8-7.4,17.3c0,6.6,2.5,12.7,7,17.3
				c4.6,4.6,10.7,7.1,17.2,7.1h0c0,0,0,0,0,0c13.8,0,24.6-10.6,24.6-24.1c0-13.5-10.9-24.5-24.3-24.7
				C145,25.6,144.9,25.6,144.8,25.6z"/>
		</g>
		<g>
			<path class="st3" d="M146.1,173.5c-17.4-0.2-30.9-14.2-30.7-31.8c0.2-16.8,14.5-30.5,31.4-30.3c17.2,0.2,31,14.3,30.7,31.4
				C177.3,160.1,163.3,173.7,146.1,173.5z"/>
			<path class="st3" d="M146.5,182.8c-0.2,0-0.3,0-0.5,0h0c-10.9-0.1-21.1-4.5-28.6-12.2c-7.5-7.7-11.5-18-11.3-29
				c0.3-21.9,18.3-39.5,40.4-39.5c0.2,0,0.3,0,0.5,0c10.8,0.1,20.9,4.5,28.5,12.3c7.5,7.7,11.6,17.9,11.4,28.7
				C186.5,165.1,168.5,182.8,146.5,182.8z M146.2,164.2c0.1,0,0.2,0,0.3,0c12,0,21.6-9.4,21.7-21.5c0.1-5.7-2.1-11.2-6.1-15.4
				c-4.1-4.2-9.5-6.5-15.4-6.6c-0.1,0-0.2,0-0.3,0c-11.7,0-21.6,9.6-21.8,21.1c-0.1,6,2.1,11.7,6.1,15.8
				C134.8,161.8,140.3,164.1,146.2,164.2L146.2,164.2z"/>
		</g>
		<g>
			<path class="st3" d="M91.6,142.2c-16.9-1-30.6-14.5-30.7-31.1c-0.1-17.6,13-31.4,30.3-31.7c16.9-0.4,31.1,12.9,31.6,29.5
				c0,1.6-0.8,3.8-1.9,4.9c-6,5.7-10,12.6-12,20.6c-0.3,1.3-1.6,3-2.8,3.5C101.3,139.5,96.4,140.8,91.6,142.2z"/>
			<path class="st3" d="M91.6,151.5c-0.2,0-0.3,0-0.5,0c-22-1.2-39.4-19-39.5-40.4C51.5,88.6,68.8,70.5,91,70
				c22.1-0.5,40.5,16.8,41.1,38.6c0.1,4.3-1.8,9-4.8,11.9c-4.7,4.5-7.8,9.8-9.4,16.2c-0.9,3.7-4,8.2-8.7,9.9
				c-3.7,1.3-7.4,2.4-11,3.4c-1.3,0.4-2.6,0.7-3.8,1.1C93.4,151.4,92.5,151.5,91.6,151.5z M91.9,88.6c-0.2,0-0.3,0-0.5,0
				c-12.1,0.3-21.2,9.9-21.1,22.4c0.1,11.1,8.9,20.4,20.4,21.8c0.8-0.2,1.5-0.4,2.3-0.7c2.6-0.7,5-1.4,7.4-2.2
				c2.5-8.4,6.9-15.7,13-21.9C112.5,97.1,103.2,88.6,91.9,88.6z M99.8,132C99.8,132,99.7,132,99.8,132C99.7,132,99.8,132,99.8,132z"
				/>
		</g>
		<g>
			<path class="st3" d="M197.8,141.4c-1.9-0.2-3.8-0.2-5.7-0.5c-4.6-0.7-7.6-2.4-8.5-7.9c-1.4-8.5-6.4-15.5-13.4-20.5
				c-2.9-2.1-3.4-4.1-2.9-7.2c2.2-14,14.7-25.2,29-25.8c15.1-0.6,28.5,9.1,31.8,23.3C232.9,122.8,218.3,141.3,197.8,141.4z"/>
			<path class="st3" d="M197.8,150.7c-0.3,0-0.6,0-0.8,0c-0.5,0-1.1-0.1-1.6-0.1c-1.4-0.1-3-0.2-4.7-0.5
				c-9.3-1.4-14.8-6.7-16.3-15.6c-1.2-7-5.9-11.8-9.7-14.5c-5.4-4-7.7-9.4-6.6-16.2c2.9-18.4,19.1-32.9,37.8-33.7
				c19.5-0.8,36.9,12,41.3,30.4c3,12.4,0.3,25.1-7.4,34.8C222.1,145,210.5,150.7,197.8,150.7C197.8,150.7,197.8,150.7,197.8,150.7z
				 M192.7,131.5c0.2,0,0.4,0.1,0.8,0.1c0.9,0.1,2,0.2,3.2,0.3c0.5,0,1,0.1,1.5,0.1c6.8-0.1,12.9-3.2,17-8.3
				c4.1-5.3,5.6-12.2,3.9-19c-2.3-9.8-11.8-16.6-22.4-16.1c-9.5,0.4-18,7.8-20,16.9c8.8,6.8,14.4,15.7,16.1,25.8
				C192.7,131.5,192.7,131.5,192.7,131.5z"/>
		</g>
		<g>
			<path class="st3" d="M129.8,107.7c-2.3-7.1-4.5-13.8-6.8-20.9c14.4,0,29.4,0,44.1,0c-2.3,6.6-4.5,12.8-6.8,19.5
				C150.2,102.7,139.6,102.9,129.8,107.7z"/>
			<path class="st3" d="M129.8,117.1c-1.2,0-2.5-0.2-3.6-0.7c-2.5-1.1-4.4-3.1-5.2-5.7l-6.8-20.9c-0.9-2.8-0.4-5.9,1.3-8.4
				c1.8-2.4,4.6-3.8,7.5-3.8h44.1c3,0,5.9,1.5,7.6,3.9c1.7,2.5,2.2,5.6,1.2,8.5l-6.8,19.5c-0.8,2.3-2.5,4.3-4.8,5.3
				c-2.2,1.1-4.8,1.2-7.2,0.4c-8-2.9-16-2.5-23.2,1C132.6,116.7,131.2,117.1,129.8,117.1z"/>
		</g>
	</g>
	<g>
		<g>
			<path class="st12" d="M199.5,224.3c0,5.1-0.3,10.2,0.1,15.2c0.3,3.5-1.3,4.9-4.1,6c-13,5.2-26.6,7.5-40.5,7.9
				c-20.1,0.7-39.6-2.5-58.7-8.6c-1.2-0.4-2.9-1.9-2.9-3c-0.1-11.5-0.6-23.1,0.4-34.5c1.5-18.7,15.4-33.4,34.4-35.3
				c12.6-1.3,25.6-1.1,38.1,0.3c18.7,2.2,32.4,18.6,33,37.4c0.2,4.8,0,9.6,0,14.4C199.4,224.3,199.5,224.3,199.5,224.3z"/>
		</g>
		<g>
			<path class="st12" d="M107.9,139.5c0.7,10.5,4.5,19.1,11.8,26.6c-11.8,4-20.8,11-27.1,21.3c-6.3,10.3-7.2,21.6-6.6,34.2
				c-7.7-1.1-14.9-1.7-21.9-3.1c-7.6-1.5-15.2-3.6-22.7-5.7c-1-0.3-2.5-1.6-2.5-2.5c0.1-12.6-0.7-25.3,0.8-37.8
				c2.3-18.9,19.3-32.8,38.3-33C87.9,139.4,97.8,139.5,107.9,139.5z"/>
		</g>
		<g>
			<path class="st12" d="M206.8,221.3c2-26.5-8-45.4-33.3-55.3c6.8-7.3,11.1-15.9,11.4-26.6c12.9,0.8,25.7-1.8,38.1,1.9
				c16.8,5,27.8,20.5,28.1,39.2c0.1,9.2-0.1,18.4,0.1,27.5c0,2.6-0.9,3.9-3.2,4.9C235,218.5,221.5,220.7,206.8,221.3z"/>
		</g>
		<g>
			<path class="st12" d="M144.7,77.4c-18.1,0-32.5-14.6-32.4-32.7c0.1-18,14.9-32.7,32.8-32.5c18,0.2,32.5,14.9,32.4,32.9
				C177.5,63.1,163,77.4,144.7,77.4z"/>
		</g>
		<g>
			<path class="st12" d="M146.1,165.4c-16.4-0.2-29-13.3-28.8-29.9c0.2-15.8,13.6-28.6,29.5-28.4c16.1,0.2,29.1,13.5,28.8,29.5
				C175.4,152.8,162.3,165.6,146.1,165.4z"/>
		</g>
		<g>
			<path class="st12" d="M91.7,133.1c-14.8-0.8-26.8-12.7-26.9-27.3C64.6,90.4,76.1,78.4,91.3,78c14.8-0.3,27.3,11.3,27.7,25.9
				c0,1.4-0.7,3.3-1.7,4.3c-5.3,5-8.8,11-10.6,18.1c-0.3,1.2-1.4,2.7-2.5,3C100.1,130.8,95.9,131.9,91.7,133.1z"/>
		</g>
		<g>
			<path class="st12" d="M198.9,129.6c-1.6-0.1-3.3-0.2-4.9-0.5c-3.9-0.6-6.5-2-7.3-6.8c-1.2-7.3-5.5-13.3-11.5-17.6
				c-2.5-1.8-2.9-3.6-2.5-6.2c1.9-12,12.6-21.7,24.9-22.2c13-0.5,24.5,7.9,27.4,20C229,113.5,216.5,129.5,198.9,129.6z"/>
		</g>
		<g>
			<path class="st12" d="M132.3,103.6c-1.9-7.1-3.7-13.8-5.7-20.9c12,0,24.5,0,36.7,0c-1.9,6.6-3.7,12.8-5.7,19.5
				C149.3,98.6,140.5,98.8,132.3,103.6z"/>
		</g>
	</g>
</g>
</svg>
