<?xml version="1.0" encoding="utf-8"?>
<!-- Generator: Adobe Illustrator 21.0.0, SVG Export Plug-In . SVG Version: 6.00 Build 0)  -->
<svg version="1.1" id="Capa_1" xmlns="http://www.w3.org/2000/svg" xmlns:xlink="http://www.w3.org/1999/xlink" x="0px" y="0px"
	 viewBox="0 0 290 264.7" style="enable-background:new 0 0 290 264.7;" xml:space="preserve">
<style type="text/css">
	.st0{clip-path:url(#SVGID_2_);fill:#FFFFFF;}
	.st1{clip-path:url(#SVGID_2_);}
	.st2{fill:#229ED7;}
	.st3{fill:#272425;}
	.st4{fill:#CB2228;}
	.st5{opacity:0.1;clip-path:url(#SVGID_2_);}
	.st6{fill-rule:evenodd;clip-rule:evenodd;}
	.st7{opacity:0.15;clip-path:url(#SVGID_2_);}
	.st8{clip-path:url(#SVGID_4_);}
	.st9{opacity:0.1;clip-path:url(#SVGID_4_);}
	.st10{clip-path:url(#SVGID_6_);fill:#229ED7;}
	.st11{opacity:0.1;clip-path:url(#SVGID_6_);}
	.st12{fill:#FFFFFF;}
	.st13{fill:#262324;}
	.st14{opacity:0.15;}
	.st15{clip-path:url(#SVGID_8_);}
	.st16{fill:#333233;}
	.st17{fill:#1D8DC6;}
	.st18{fill:#221D1F;}
	.st19{fill-rule:evenodd;clip-rule:evenodd;fill:#329AC6;}
	.st20{fill-rule:evenodd;clip-rule:evenodd;fill:#1D8DC6;}
	.st21{opacity:0.1;}
	.st22{clip-path:url(#SVGID_10_);}
	.st23{opacity:0.25;}
	.st24{fill:#211915;}
	.st25{fill:#2B2A26;}
	.st26{fill:#E8DC3C;}
	.st27{fill:#E7DC3C;}
	.st28{fill:#E8DC3F;}
	.st29{fill:#E7DC42;}
	.st30{fill:#30302C;}
	.st31{fill:#E7DD43;}
	.st32{fill:#343430;}
	.st33{fill:#2E2E2B;}
	.st34{fill:#31312E;}
	.st35{fill:#2F2F2C;}
	.st36{fill:#30302D;}
	.st37{fill:#2E2D2A;}
	.st38{fill:#E7DD4D;}
	.st39{fill:#333230;}
	.st40{fill:#2B2A28;}
	.st41{fill:#363532;}
	.st42{fill:#E6DC57;}
	.st43{fill:#3A3936;}
	.st44{fill:#252523;}
	.st45{fill:#F6F6F4;}
	.st46{fill:#F5F5F2;}
	.st47{fill:#F2F2F0;}
	.st48{fill:#E1E2E0;}
	.st49{fill:#EEEEED;}
	.st50{fill:#DEDEDD;}
	.st51{fill:#E6E6E4;}
	.st52{clip-path:url(#SVGID_12_);}
	.st53{clip-path:url(#SVGID_14_);}
	.st54{fill:#484848;}
	.st55{fill:#FFE6A4;}
	.st56{fill:#6E1C2A;}
	.st57{fill:#551416;}
	.st58{fill:#F1CD33;}
	.st59{fill:#434244;}
	.st60{fill:#060609;}
	.st61{clip-path:url(#SVGID_16_);}
	.st62{fill:#0E0D0D;}
	.st63{fill:#ECD0C3;}
	.st64{clip-path:url(#SVGID_16_);fill:#0E0D0D;}
	.st65{opacity:0.14;}
	.st66{clip-path:url(#SVGID_18_);}
	.st67{clip-path:url(#SVGID_20_);}
	.st68{clip-path:url(#SVGID_22_);}
	.st69{clip-path:url(#SVGID_24_);}
	.st70{clip-path:url(#SVGID_24_);fill:#0E0D0D;}
	.st71{clip-path:url(#SVGID_26_);}
	.st72{fill:#AA6502;}
	.st73{fill:#E88F09;}
	.st74{opacity:0.3;}
	.st75{fill:none;}
	.st76{fill:#FFF8BB;}
	.st77{fill:#FFFCE6;}
	.st78{fill:#212F44;}
	.st79{fill:#081C35;}
	.st80{fill:#415C84;}
	.st81{fill:#547EAF;}
	.st82{fill:#00A79D;}
	.st83{fill:#00776B;}
	.st84{fill:#08F7E0;}
	.st85{fill:#71FFEE;}
	.st86{fill:#C64320;}
	.st87{fill:#F66E44;}
	.st88{fill:#020202;}
	.st89{clip-path:url(#SVGID_28_);}
	.st90{fill:#FFF2BE;}
	.st91{fill:#FFFCEE;}
	.st92{opacity:0.1;clip-path:url(#SVGID_26_);}
	.st93{clip-path:url(#SVGID_30_);}
	.st94{clip-path:url(#SVGID_32_);}
	.st95{opacity:0.1;clip-path:url(#SVGID_30_);}
	.st96{fill:#FC0202;}
	.st97{fill:#FEF6F6;}
	.st98{opacity:0.8;fill:none;stroke:#272425;stroke-miterlimit:10;}
	.st99{fill:none;stroke:#211915;stroke-width:3;stroke-miterlimit:10;}
	.st100{opacity:0.18;}
</style>
<g>
	<defs>
		<rect id="SVGID_29_" x="-2.9" y="332.6" width="960" height="493.5"/>
	</defs>
	<clipPath id="SVGID_2_">
		<use xlink:href="#SVGID_29_"  style="overflow:visible;"/>
	</clipPath>
	<g class="st5">
		<g>
			<path class="st6" d="M286.6,261.9c-0.9-0.3-1.5-0.8-1.7-1.8c-0.3-1.1-0.3-2.2,0-3.3c0.2-0.9,0.7-1.3,1.5-1.7
				c1.8-0.9,4.8,0.2,5,3.3C291.4,260.7,289.4,262.7,286.6,261.9z"/>
		</g>
		<g>
			<path class="st6" d="M266,261.4c-1.3,0-2.4-1.2-2.4-2.5c0-1.3,1.1-2.5,2.4-2.5c1.4,0,2.6,1.3,2.5,2.7
				C268.5,260.3,267.3,261.4,266,261.4z"/>
		</g>
		<g>
			<path class="st6" d="M287.3,239c-1.1,0-2.1-1.1-2.1-2.2c0-1.2,1.1-2.3,2.3-2.3c1.3,0.1,2.2,1.2,2.1,2.5
				C289.4,238.1,288.4,239.1,287.3,239z"/>
		</g>
	</g>
</g>
<g>
	<g>
		<path class="st13" d="M257.2,40.6c0-2.9,0-5.9,0-8.8c0-14.3-8.9-21.1-17.6-21.6c-6.1-0.3-12.1-0.3-17.9-0.2
			c-2.3,0-4.6,0.1-6.9,0.1c-0.1,0-0.3,0-0.4,0c-3.6-5.8-9.9-9.2-18.1-9.2c-34.2,0-68.4,0-102.6,0c-8.2,0-14.5,3.3-18.1,9
			c-0.1,0-0.2,0-0.3,0l-6.5,0c-5,0-10,0-14.9,0c-12.6,0.1-21.1,8.5-21,21c0,3.4,0,6.8,0,10.1c0,13.5,0,27.5,0.7,41.3
			c0.8,16.5,7.9,30.2,20.5,39.6c7.4,5.5,16,8.9,25.3,9.9c0.4,0,0.9,0.1,1.3,0.1c0.6,0,1.2-0.1,1.8-0.2c2.3,4.6,5,9,8.1,13
			c6.2,8.2,13.9,14.8,22.5,19.5c-0.6,1.6-1,3.5-1,5.7c0,1.8,0,3.5,0,5.2c0,1.7,0,3.3,0,4.9c0,2,0.2,3.7,0.6,5.2c-6.3,0-12.7,0-19,0
			c-12.8,0-21.1,8.3-21.1,21.2c0,10.7,0,22.4,0,36.8c0,13,8.4,21.4,21.4,21.4c17.1,0,34.2,0,51.3,0s34.2,0,51.3,0
			c12.9,0,21.3-8.4,21.4-21.5c0-11.7,0-23.6,0-36.4c0-13.3-8.3-21.6-21.6-21.6c-6.2,0-12.4,0-18.6,0c0.4-1.4,0.6-2.9,0.6-4.5l0-1.8
			c0-2.9,0-5.9,0-8.9c0-2.2-0.4-4.1-1-5.7c8.5-4.6,16-11.2,22.1-19.3c3.2-4.3,6-8.8,8.4-13.6c0.6,0.1,1.2,0.2,1.8,0.2
			c0.4,0,0.8,0,1.2-0.1c21.7-2.1,39.1-17.3,44.2-38.8c1.5-6.1,2.3-12.8,2.4-19.9C257.4,62.1,257.3,51.2,257.2,40.6z"/>
		<g>
			<path class="st12" d="M84.2,52.2c0-11.5,0-23,0-34.5c0-6.4,3-9.4,9.4-9.4c34.2,0,68.4,0,102.6,0c6.3,0,9.4,3.1,9.4,9.5
				c0,21.8,0.2,43.7-0.1,65.5c-0.2,18.2-4.8,35.2-16,50c-22.9,30.4-66.5,30.2-89.6-0.4c-10.6-14-15-30.2-15.6-47.5
				C84,74.4,84.3,63.3,84.2,52.2C84.3,52.2,84.3,52.2,84.2,52.2z"/>
			<path class="st12" d="M145.1,192.8c17,0,34,0,50.9,0c6.6,0,9.6,3,9.6,9.6c0,12.1,0,24.2,0,36.3c0,6.3-3.1,9.5-9.4,9.5
				c-34.2,0-68.4,0-102.6,0c-6.2,0-9.4-3.2-9.4-9.5c0-12.2,0-24.5,0-36.7c0-6.2,3.1-9.2,9.2-9.2
				C110.6,192.8,127.9,192.8,145.1,192.8z"/>
			<path class="st12" d="M228.8,33.3c-4.8,0-9.2,0-14,0c0-5.3,0-10.3,0-15.7c8,0,16.1-0.3,24.1,0.1c4.1,0.2,6.3,4.1,6.3,9.7
				c0,13.6,0.2,27.2-0.1,40.8c-0.1,5.8-0.8,11.7-2.1,17.4c-3.9,16.6-17.1,28-33.6,29.6c1.2-5.4,2.4-10.7,3.8-15.9
				c0.2-0.7,0.9-1.5,1.6-1.8c9.3-4.2,13.4-12.1,13.9-21.5C229.3,62,228.8,47.9,228.8,33.3z"/>
			<path class="st12" d="M60.8,33c0,8.8-0.1,17.1,0,25.3c0.1,7.2,0,14.5,1,21.6c1.1,7.9,5.3,14.1,12.9,17.6c0.9,0.4,1.8,1.6,2.1,2.6
				c1.3,4.9,2.4,9.9,3.6,15.3c-7.3-0.8-13.7-3.3-19.4-7.6c-10.2-7.6-15.1-18.3-15.7-30.6c-0.8-16.9-0.6-33.9-0.7-50.9
				c0-6,3.2-8.9,9.1-9c7.1,0,14.2,0,21.4,0c0,5.4,0,10.3,0,15.7C70.6,33,66.1,33,60.8,33z"/>
			<path class="st12" d="M144.9,180.7c-5.4,0-10.7,0-16.1,0c-3.4,0-5.1-1.5-5-5c0.1-3.4,0-6.7,0-10.1c0.1-2.9,1.5-4.1,4.4-3.3
				c11.2,3.1,22.3,3.1,33.5,0c2.9-0.8,4.3,0.6,4.3,3.4c0,3.5,0,7,0,10.5c0,3.1-1.7,4.5-4.7,4.5C155.9,180.7,150.4,180.7,144.9,180.7
				z"/>
		</g>
	</g>
	<g>
		<path class="st13" d="M159.7,37.8c-8.2,31.1-13.6,59-16.1,83.7l-20.2,5.3l10.5-62.3l-8.2,1.7l2.6-15.2L159.7,37.8z"/>
		<path class="st13" d="M184.6,42.6c0.8,1.8,1.3,3.9,1.4,6.1c0.1,2.2-0.1,4.5-0.7,7.1c-0.9,4.4-2.7,8.4-5.3,12.2
			c-3.2,4.6-6.7,7-10.5,7.2c-3.3,0.2-5.7-1.5-7.3-5.1c-0.7-1.8-1.1-3.8-1.3-5.9c0-2.3,0.2-4.7,0.7-7.2c0.9-4.3,2.6-8.4,5.2-12.2
			c3.2-4.6,6.7-7.1,10.6-7.3C180.7,37.3,183.1,39,184.6,42.6z M171.4,53.5c-1.3,2.3-2.2,4.5-2.6,6.6c-0.2,1.2-0.3,2.2-0.2,3
			c0.1,1.3,0.4,2.3,1.1,3.1c0.8,0.8,1.8,1.2,3,1.2c1.7-0.1,3.2-1.1,4.5-3c1.1-1.5,1.8-3.2,2.2-5.2c0.4-2.4,0.4-4.7,0-6.8
			c-0.4-2.2-1.4-3.3-2.9-3.2C174.6,49.1,173,50.6,171.4,53.5z"/>
	</g>
</g>
</svg>
