<?xml version="1.0" encoding="utf-8"?>
<!-- Generator: Adobe Illustrator 21.0.0, SVG Export Plug-In . SVG Version: 6.00 Build 0)  -->
<svg version="1.1" id="Capa_1" xmlns="http://www.w3.org/2000/svg" xmlns:xlink="http://www.w3.org/1999/xlink" x="0px" y="0px"
	 viewBox="0 0 290 274" style="enable-background:new 0 0 290 274;" xml:space="preserve">
<style type="text/css">
	.st0{clip-path:url(#SVGID_2_);fill:#FFFFFF;}
	.st1{clip-path:url(#SVGID_2_);}
	.st2{fill:#229ED7;}
	.st3{fill:#272425;}
	.st4{fill:#CB2228;}
	.st5{opacity:0.1;clip-path:url(#SVGID_2_);}
	.st6{fill-rule:evenodd;clip-rule:evenodd;}
	.st7{opacity:0.15;clip-path:url(#SVGID_2_);}
	.st8{clip-path:url(#SVGID_4_);}
	.st9{opacity:0.1;clip-path:url(#SVGID_4_);}
	.st10{clip-path:url(#SVGID_6_);fill:#229ED7;}
	.st11{opacity:0.1;clip-path:url(#SVGID_6_);}
	.st12{fill:#FFFFFF;}
	.st13{fill:#262324;}
	.st14{opacity:0.15;}
	.st15{clip-path:url(#SVGID_8_);}
	.st16{fill:#333233;}
	.st17{fill:#1D8DC6;}
	.st18{fill:#221D1F;}
	.st19{fill-rule:evenodd;clip-rule:evenodd;fill:#329AC6;}
	.st20{fill-rule:evenodd;clip-rule:evenodd;fill:#1D8DC6;}
	.st21{opacity:0.1;}
	.st22{clip-path:url(#SVGID_10_);}
	.st23{opacity:0.25;}
	.st24{fill:#211915;}
	.st25{fill:#2B2A26;}
	.st26{fill:#E8DC3C;}
	.st27{fill:#E7DC3C;}
	.st28{fill:#E8DC3F;}
	.st29{fill:#E7DC42;}
	.st30{fill:#30302C;}
	.st31{fill:#E7DD43;}
	.st32{fill:#343430;}
	.st33{fill:#2E2E2B;}
	.st34{fill:#31312E;}
	.st35{fill:#2F2F2C;}
	.st36{fill:#30302D;}
	.st37{fill:#2E2D2A;}
	.st38{fill:#E7DD4D;}
	.st39{fill:#333230;}
	.st40{fill:#2B2A28;}
	.st41{fill:#363532;}
	.st42{fill:#E6DC57;}
	.st43{fill:#3A3936;}
	.st44{fill:#252523;}
	.st45{fill:#F6F6F4;}
	.st46{fill:#F5F5F2;}
	.st47{fill:#F2F2F0;}
	.st48{fill:#E1E2E0;}
	.st49{fill:#EEEEED;}
	.st50{fill:#DEDEDD;}
	.st51{fill:#E6E6E4;}
	.st52{clip-path:url(#SVGID_12_);}
	.st53{clip-path:url(#SVGID_14_);}
	.st54{fill:#484848;}
	.st55{fill:#FFE6A4;}
	.st56{fill:#6E1C2A;}
	.st57{fill:#551416;}
	.st58{fill:#F1CD33;}
	.st59{fill:#434244;}
	.st60{fill:#060609;}
	.st61{clip-path:url(#SVGID_16_);}
	.st62{fill:#0E0D0D;}
	.st63{fill:#ECD0C3;}
	.st64{clip-path:url(#SVGID_16_);fill:#0E0D0D;}
	.st65{opacity:0.14;}
	.st66{clip-path:url(#SVGID_18_);}
	.st67{clip-path:url(#SVGID_20_);}
	.st68{clip-path:url(#SVGID_22_);}
	.st69{clip-path:url(#SVGID_24_);}
	.st70{clip-path:url(#SVGID_24_);fill:#0E0D0D;}
	.st71{clip-path:url(#SVGID_26_);}
	.st72{fill:#AA6502;}
	.st73{fill:#E88F09;}
	.st74{opacity:0.3;}
	.st75{fill:none;}
	.st76{fill:#FFF8BB;}
	.st77{fill:#FFFCE6;}
	.st78{fill:#212F44;}
	.st79{fill:#081C35;}
	.st80{fill:#415C84;}
	.st81{fill:#547EAF;}
	.st82{fill:#00A79D;}
	.st83{fill:#00776B;}
	.st84{fill:#08F7E0;}
	.st85{fill:#71FFEE;}
	.st86{fill:#C64320;}
	.st87{fill:#F66E44;}
	.st88{fill:#020202;}
	.st89{clip-path:url(#SVGID_28_);}
	.st90{fill:#FFF2BE;}
	.st91{fill:#FFFCEE;}
	.st92{opacity:0.1;clip-path:url(#SVGID_26_);}
	.st93{clip-path:url(#SVGID_30_);}
	.st94{clip-path:url(#SVGID_32_);}
	.st95{opacity:0.1;clip-path:url(#SVGID_30_);}
	.st96{fill:#FC0202;}
	.st97{fill:#FEF6F6;}
	.st98{opacity:0.8;fill:none;stroke:#272425;stroke-miterlimit:10;}
	.st99{fill:none;stroke:#211915;stroke-width:3;stroke-miterlimit:10;}
	.st100{opacity:0.18;}
</style>
<g>
	<g>
		<path class="st3" d="M267.8,192.7l0-28c0-29.5,0-59.1,0-88.6c0-19.8-13-33.2-32.4-33.2c-63.7-0.1-122.9-0.1-181.1,0
			c-18.9,0-32.2,13.4-32.2,32.5c0,29.2,0,58.5,0,87.7l0,29.5c-9.6,1.2-16.7,9.1-16.9,18.7C5.1,221.7,12.6,230,23.1,231
			c1.2,0.1,2.3,0.1,3.4,0.1c0.4,0,0.8,0,1.2,0c0.3,0,0.6,0,0.9,0c77.6,0,155.2,0,232.8,0l0.9,0c1,0,2.1,0,3.3,0
			c10.9-0.6,18.9-8.5,19.1-19C284.9,202.3,277.6,194.2,267.8,192.7z"/>
	</g>
	<g>
		<g>
			<path class="st12" d="M94.8,106.5c-0.8,0-1.6,0.7-1.6,1.5c0,0.8,0.7,1.5,1.5,1.5c0.8,0,1.5-0.7,1.5-1.5
				C96.2,107.2,95.6,106.6,94.8,106.5z"/>
		</g>
		<g>
			<path class="st12" d="M109.4,106.5c-0.8,0-1.5,0.7-1.5,1.5c0,0.9,0.7,1.5,1.5,1.5c0.8,0,1.5-0.7,1.5-1.5
				C110.9,107.2,110.2,106.5,109.4,106.5z"/>
		</g>
		<g>
			<path class="st12" d="M264.9,198.9c-2.6-0.1-5.3,0-8.3,0c0-1.9,0-3.5,0-5.1c0-40.8,0-81.6,0-122.4c0-13.5-8-21.9-21.1-22
				c-60.4-0.1-120.7-0.1-181.1,0c-12.8,0-20.9,8.4-20.9,21.2c0,40.9,0,81.9,0,122.8c0,1.6,0,3.2,0,5.4c-3.4,0-6.3-0.2-9.2,0
				c-4.4,0.3-7.6,3.7-7.7,7.8c-0.1,4.4,3,7.8,7.6,8.2c1.5,0.1,2.9,0.1,4.4,0.1c77.6,0,155.2,0,232.8,0c1.2,0,2.4,0,3.6,0
				c5-0.3,8.4-3.5,8.4-7.9C273.5,202.6,269.9,199,264.9,198.9z M111.9,198.7c-12.9,0-25.4,0-38.2,0c0-7.2,0-14.2,0-21.4
				c12.7,0,25.3,0,38.2,0C111.9,184.4,111.9,191.4,111.9,198.7z M77.7,119.4c0-2.4,2-4,4.4-3.4c1.4,0.3,2.2,1.3,2.5,2.6
				c0.1,0.3,0.1,0.5,0.1,0.8c0,4.8,0,9.6,0,14.5c0,2-1.2,3.4-3,3.6c-2.3,0.2-3.9-1.2-4-3.5c0-0.1,0-0.1,0-0.2c0-2.4,0-4.7,0-7.1
				c0,0,0,0,0,0C77.7,124.3,77.6,121.8,77.7,119.4z M114.1,143c-0.9-0.1-1.7,0-2.7,0c0,0.4,0,0.7,0,1c0,2.3,0,4.5,0,6.8
				c0,2.2-1.4,3.6-3.4,3.7c-2.1,0-3.5-1.5-3.5-3.6c0-2.6,0-5.1,0-7.7c-1.6,0-3.1,0-4.7,0c0,0.4,0,0.9,0,1.3c0,2.2,0,4.3,0,6.5
				c0,2.1-1.5,3.6-3.5,3.5c-2,0-3.4-1.5-3.4-3.6c0-2.6,0-5.2,0-7.9c-1.2,0-2.3,0-3.3,0c-1.8,0-3.1-1.3-3.1-3c0-7.7,0-15.4,0-23.1
				c0-0.1,0-0.2,0.1-0.3c10.5,0,20.9,0,31.5,0c0,0.4,0,0.7,0,1c0,7.2-0.1,14.5,0,21.7C117.9,141.5,116.4,143.2,114.1,143z
				 M86.2,114.9c-0.2-6,2.9-10,8-12.8c-0.7-1.1-1.5-2.3-2.2-3.4c-0.1-0.2-0.3-0.4-0.4-0.6c0-0.3,0.1-0.5,0.1-0.8
				c0.3,0.1,0.7,0.1,0.8,0.2c0.8,1.1,1.4,2.2,2.2,3.3c0.2,0.3,0.4,0.5,0.6,0.8c4.5-1.7,9.1-1.8,13.7,0c0.9-1.3,1.7-2.6,2.5-3.9
				c0.2-0.3,0.5-0.9,0.9-0.4c0.2,0.2,0.2,0.8,0,1.1c-0.7,1.3-1.6,2.5-2.4,3.7c5,2.8,8.1,6.7,8,12.8
				C107.4,114.9,96.8,114.9,86.2,114.9z M124.2,137.3c-1.4,0.5-2.7,0.2-3.8-0.8c-0.8-0.8-1-1.7-1-2.8c0-2.3,0-4.6,0-7
				c0-2.5,0-4.9,0-7.4c0-1.9,1.2-3.1,3-3.4c1.6-0.3,3.2,0.7,3.7,2.3c0.1,0.4,0.2,0.9,0.2,1.4c0,4.7,0,9.5,0,14.2
				C126.4,135.6,125.7,136.8,124.2,137.3z M240.2,198.6c-37.4,0-74.5,0-111.7,0c0-2.4,0-4.6,0-7.2c1.8-0.1,3.5-0.2,5.2-0.2
				c29.6,0,59.2,0,88.7,0c7.8,0,10.4-2.5,10.4-10.3c0-32.4,0-64.8,0-97.2c0-7.9-2.6-10.6-10.6-10.6c-51.4,0-102.8,0-154.2,0
				c-8.2,0-10.7,2.5-10.7,10.9c0,36.5,0,73.1,0,109.6c0,1.6,0,3.2,0,5c-2.6,0-4.8,0-7.6,0c0-1.4,0-2.9,0-4.3c0-40.7,0-81.4,0-122.1
				c0-6,0.7-6.7,6.6-6.7c59.3,0,118.6,0,177.9,0c5.2,0,6.2,0.9,6.2,5.9c0,41.5,0,83,0,124.5C240.3,196.7,240.3,197.5,240.2,198.6z
				 M167.3,127.5c1.6-0.6,3.2-1.1,4.8-1.6c1-0.3,1.9,0.4,2.1,1.4c0.2,0.9-0.2,1.8-1.2,2.2c-1.6,0.6-3.2,1.1-4.4,1.5
				c-1.3,0-2-0.6-2.2-1.4C166.2,128.7,166.5,127.8,167.3,127.5z M166.4,114.4c0.3-0.9,1.2-1.5,2.2-1.2c1.5,0.4,3.1,0.9,4.5,1.5
				c0.5,0.2,0.9,1,1.1,1.3c0,1.5-1.1,2.5-2.1,2.2c-1.6-0.4-3.2-0.9-4.8-1.5C166.4,116.3,166.1,115.3,166.4,114.4z M188,99.4
				c0.1-1.2,0.8-2,1.9-2c1.1,0,1.9,0.8,1.9,2c0,1.4,0,2.8,0,4.1c0,1.2-0.9,2-1.9,2c-1,0-1.8-0.8-1.9-2c0-0.7,0-1.4,0-2.1
				C188,100.8,187.9,100.1,188,99.4z M194.5,109.4c4.9,1.8,7.8,5.5,8.7,10.6c0.6,3.7-0.3,7.1-2.5,10.2c-1.5,2-2.9,4.1-4.3,6.2
				c-0.3,0.4-0.4,1-0.4,1.6c-0.1,1.1,0,2.3,0,3.5c-4.2,0-8.3,0-12.5,0c0-1.2,0.1-2.3,0-3.4c-0.1-0.7-0.2-1.4-0.6-2
				c-1.2-1.9-2.5-3.7-3.8-5.5c-4.5-6-3.8-13.8,1.8-18.7C184.9,108.5,189.6,107.6,194.5,109.4z M204.7,104.8
				c-0.8,1.2-1.7,2.4-2.6,3.5c-0.5,0.7-1.2,0.9-2.1,0.6c-0.8-0.3-1.2-0.9-1.2-2c0.1-0.2,0.2-0.6,0.4-1c0.8-1.1,1.6-2.2,2.4-3.3
				c0.7-1,1.8-1.2,2.7-0.6C205.2,102.7,205.4,103.9,204.7,104.8z M205.1,140.4c0,1-0.4,1.5-1.2,1.9c-0.8,0.4-1.5,0.2-2-0.4
				c-1-1.3-2-2.7-3-4.1c-0.5-0.7-0.1-1.8,0.5-2.3c0.7-0.5,1.8-0.6,2.3,0.1c1.1,1.3,2.1,2.8,3.1,4.2
				C205.1,140,205.1,140.3,205.1,140.4z M194.7,146.5c-3.2,0-6.4,0-9.6,0c-1,0-1.6-0.6-1.6-1.5c0-0.9,0.6-1.4,1.6-1.4
				c1.6,0,3.2,0,4.8,0c1.6,0,3.2,0,4.8,0c1,0,1.6,0.5,1.6,1.4C196.3,145.9,195.7,146.5,194.7,146.5z M195.5,148.7
				c0.1,1.7-1.2,2.8-2.4,3.1c-0.3,0.1-0.6,0.4-0.8,0.6c-0.5,1-1.4,1.7-2.5,1.6c-1.1,0-1.9-0.7-2.4-1.7c-0.1-0.3-0.5-0.5-0.8-0.6
				c-1.5-0.5-2.4-1.6-2.4-3.1C188,148.7,191.7,148.7,195.5,148.7z M180.4,138.3c-0.8,1.1-1.6,2.2-2.4,3.3c-0.5,0.7-1.2,1-2.1,0.7
				c-0.8-0.3-1.2-0.9-1.3-2c0.1-0.2,0.2-0.6,0.4-1c0.8-1.1,1.5-2.2,2.3-3.2c0.8-1,1.9-1.3,2.8-0.6
				C181,136.1,181.1,137.3,180.4,138.3z M179.7,108.9c-0.8,0.3-1.5,0.2-2-0.4c-1-1.3-2-2.6-2.9-4c-0.5-0.7-0.2-1.8,0.5-2.3
				c0.7-0.6,1.8-0.6,2.4,0.1c1.1,1.3,2,2.7,3,4.1c0.2,0.2,0.2,0.6,0.2,0.7C180.9,108,180.5,108.6,179.7,108.9z M212.4,116.7
				c-1.5,0.6-3.1,1.1-4.6,1.5c-0.9,0.2-1.7-0.3-2.1-1.1c-0.3-0.8-0.1-1.9,0.7-2.2c1.7-0.7,3.4-1.2,4.8-1.7c1.3,0,2,0.6,2.2,1.4
				C213.6,115.4,213.2,116.4,212.4,116.7z M213.4,129.6c-0.2,0.8-0.9,1.4-2,1.4c-0.2,0-0.5-0.1-0.8-0.2c-1.3-0.4-2.5-0.8-3.8-1.2
				c-1.1-0.4-1.5-1.3-1.2-2.3c0.3-1,1.2-1.6,2.3-1.3c1.5,0.4,3,0.9,4.4,1.5C213.2,127.8,213.6,128.7,213.4,129.6z"/>
		</g>
	</g>
</g>
</svg>
