<?xml version="1.0" encoding="utf-8"?>
<!-- Generator: Adobe Illustrator 21.0.0, SVG Export Plug-In . SVG Version: 6.00 Build 0)  -->
<svg version="1.1" id="Capa_1" xmlns="http://www.w3.org/2000/svg" xmlns:xlink="http://www.w3.org/1999/xlink" x="0px" y="0px"
	 viewBox="0 0 290 264.7" style="enable-background:new 0 0 290 264.7;" xml:space="preserve">
<style type="text/css">
	.st0{clip-path:url(#SVGID_2_);fill:#FFFFFF;}
	.st1{clip-path:url(#SVGID_2_);}
	.st2{fill:#229ED7;}
	.st3{fill:#272425;}
	.st4{fill:#CB2228;}
	.st5{opacity:0.1;clip-path:url(#SVGID_2_);}
	.st6{fill-rule:evenodd;clip-rule:evenodd;}
	.st7{opacity:0.15;clip-path:url(#SVGID_2_);}
	.st8{clip-path:url(#SVGID_4_);}
	.st9{opacity:0.1;clip-path:url(#SVGID_4_);}
	.st10{clip-path:url(#SVGID_6_);fill:#229ED7;}
	.st11{opacity:0.1;clip-path:url(#SVGID_6_);}
	.st12{fill:#FFFFFF;}
	.st13{fill:#262324;}
	.st14{opacity:0.15;}
	.st15{clip-path:url(#SVGID_8_);}
	.st16{fill:#333233;}
	.st17{fill:#1D8DC6;}
	.st18{fill:#221D1F;}
	.st19{fill-rule:evenodd;clip-rule:evenodd;fill:#329AC6;}
	.st20{fill-rule:evenodd;clip-rule:evenodd;fill:#1D8DC6;}
	.st21{opacity:0.1;}
	.st22{clip-path:url(#SVGID_10_);}
	.st23{opacity:0.25;}
	.st24{fill:#211915;}
	.st25{fill:#2B2A26;}
	.st26{fill:#E8DC3C;}
	.st27{fill:#E7DC3C;}
	.st28{fill:#E8DC3F;}
	.st29{fill:#E7DC42;}
	.st30{fill:#30302C;}
	.st31{fill:#E7DD43;}
	.st32{fill:#343430;}
	.st33{fill:#2E2E2B;}
	.st34{fill:#31312E;}
	.st35{fill:#2F2F2C;}
	.st36{fill:#30302D;}
	.st37{fill:#2E2D2A;}
	.st38{fill:#E7DD4D;}
	.st39{fill:#333230;}
	.st40{fill:#2B2A28;}
	.st41{fill:#363532;}
	.st42{fill:#E6DC57;}
	.st43{fill:#3A3936;}
	.st44{fill:#252523;}
	.st45{fill:#F6F6F4;}
	.st46{fill:#F5F5F2;}
	.st47{fill:#F2F2F0;}
	.st48{fill:#E1E2E0;}
	.st49{fill:#EEEEED;}
	.st50{fill:#DEDEDD;}
	.st51{fill:#E6E6E4;}
	.st52{clip-path:url(#SVGID_12_);}
	.st53{clip-path:url(#SVGID_14_);}
	.st54{fill:#484848;}
	.st55{fill:#FFE6A4;}
	.st56{fill:#6E1C2A;}
	.st57{fill:#551416;}
	.st58{fill:#F1CD33;}
	.st59{fill:#434244;}
	.st60{fill:#060609;}
	.st61{clip-path:url(#SVGID_16_);}
	.st62{fill:#0E0D0D;}
	.st63{fill:#ECD0C3;}
	.st64{clip-path:url(#SVGID_16_);fill:#0E0D0D;}
	.st65{opacity:0.14;}
	.st66{clip-path:url(#SVGID_18_);}
	.st67{clip-path:url(#SVGID_20_);}
	.st68{clip-path:url(#SVGID_22_);}
	.st69{clip-path:url(#SVGID_24_);}
	.st70{clip-path:url(#SVGID_24_);fill:#0E0D0D;}
	.st71{clip-path:url(#SVGID_26_);}
	.st72{fill:#AA6502;}
	.st73{fill:#E88F09;}
	.st74{opacity:0.3;}
	.st75{fill:none;}
	.st76{fill:#FFF8BB;}
	.st77{fill:#FFFCE6;}
	.st78{fill:#212F44;}
	.st79{fill:#081C35;}
	.st80{fill:#415C84;}
	.st81{fill:#547EAF;}
	.st82{fill:#00A79D;}
	.st83{fill:#00776B;}
	.st84{fill:#08F7E0;}
	.st85{fill:#71FFEE;}
	.st86{fill:#C64320;}
	.st87{fill:#F66E44;}
	.st88{fill:#020202;}
	.st89{clip-path:url(#SVGID_28_);}
	.st90{fill:#FFF2BE;}
	.st91{fill:#FFFCEE;}
	.st92{opacity:0.1;clip-path:url(#SVGID_26_);}
	.st93{clip-path:url(#SVGID_30_);}
	.st94{clip-path:url(#SVGID_32_);}
	.st95{opacity:0.1;clip-path:url(#SVGID_30_);}
	.st96{fill:#FC0202;}
	.st97{fill:#FEF6F6;}
	.st98{opacity:0.8;fill:none;stroke:#272425;stroke-miterlimit:10;}
	.st99{fill:none;stroke:#211915;stroke-width:3;stroke-miterlimit:10;}
	.st100{opacity:0.18;}
</style>
<g>
	<g>
		<path class="st3" d="M287,60.1c-1.3-7.5-6.2-13.5-13.1-16.1c-7-2.6-14.7-1.2-20.7,3.8c-3.4,2.8-7.1,6-11.3,9.5
			c0.6-2.5,0.8-5.1,0.8-7.6c0-19.5-15.7-35.4-35.1-35.4c-19.5,0-35.4,15.8-35.4,35.2c0,8.8,3.1,17.2,8.8,23.6
			c-0.4,0-0.8,0.1-1.1,0.1c-0.7-2.6-2.3-4.8-4.7-6.1c-0.3-0.2-0.9-0.5-1.8-0.9c-14-5.6-29.3-7-45.5-4c-11.4,2.1-21.6,6.6-31.5,11
			l-0.1,0.1c-3,1.3-5.9,2.6-8.9,4c-13.1,5.9-25.5,11.5-38.7,15.2c-12.4,3.4-23.9,4.4-35.1,2.9c-3.1-0.4-6.2,0.7-8.4,2.9
			c-2.2,2.3-3.1,5.4-2.5,8.5c0.1,0.3,0.1,0.5,0.1,0.8c0.1,0.7,0.2,1.4,0.4,2.2c3.3,14.1,8.9,27.4,16.5,39.3
			c10.4,16.4,24,28.6,40.3,36.2c0.1,0,0.2,0.1,0.2,0.1c-8.9,8.5-17.8,17.1-26.7,25.6c-9.3,9-9.9,23.2-1.3,32.4
			c4.3,4.6,10.1,7.1,16.5,7.1c5.7,0,11.2-2.1,15.7-5.9l12.2-10.5c10.2-8.8,20.3-17.6,30.5-26.3c-2.3,3.5-3.6,7.4-3.8,11.6
			c-0.4,9.5,4.8,18.2,13.3,22.1c3.2,1.5,6.6,2.3,10,2.3c5.9,0,11.6-2.4,16.1-6.7c12.4-12.1,23.7-23.1,34.5-33.8
			c9.5-9.4,10-23.3,1.2-33.7c-4.5-5.3-9-10.7-13.5-16.1l0.4-0.3c14.9-12,29.7-23.9,44.5-35.8c6-1,12-1.9,17.9-2.9l9.1-1.4
			c3.7-0.6,8.9-1.4,13.4-5.7c4-3.8,7.9-7.5,11.9-11.2l0.8-0.7c6-5.7,12.1-11.4,18.1-17.1C286,73.3,288.2,66.9,287,60.1z"/>
	</g>
	<g>
		<g>
			<path class="st12" d="M151.1,146.1c6.7,8,13.3,16,19.9,23.8c5.4,6.5,5.3,14.6-0.6,20.5C159,201.7,147.5,213,136,224.2
				c-4.3,4.1-9.9,5-15.1,2.5c-4.9-2.3-7.9-7.2-7.6-12.9c0.1-3.4,1.6-6.2,3.8-8.7c6.7-7.4,13.4-14.7,20-22.1c0.7-0.8,1.2-1.6,2-2.6
				c-2.9-3-5.6-5.8-8.4-8.7c-4.9-5.1-9.9-10.1-14.7-15.2c-4.8-5.1-7.8-11.1-7.4-18.2c0.5-8.2,4.2-14.9,10.4-20.1
				c12.6-10.5,25.4-20.7,38.2-30.9c6-4.7,12.7-8.3,20.2-9.8c4.3-0.9,8.8-1,13.2-1.3c10.4-0.8,20.8-1.6,31.2-2.4
				c2.4-0.2,4.7-0.5,7.1-0.5c2,0,3.4-0.8,4.8-2c8.6-7.3,17.2-14.7,25.9-21.9c6.8-5.7,16.4-2.2,17.8,6.4c0.6,3.6-0.5,6.8-3.1,9.3
				c-10.2,9.7-20.5,19.4-30.7,29.1c-2.3,2.2-5.3,2.7-8.3,3.1c-9.3,1.5-18.7,2.9-28,4.5c-0.9,0.1-1.9,0.5-2.6,1.1
				C186.9,117.2,169.2,131.6,151.1,146.1z"/>
		</g>
		<g>
			<path class="st12" d="M12.4,99.2C26,101,38.8,99.5,51.5,96c17-4.7,32.8-12.5,48.9-19.6c9.5-4.2,19.1-8.4,29.4-10.4
				c13.6-2.5,27-1.8,40,3.4c0.3,0.1,0.5,0.3,0.7,0.4c-3.5,1.3-7.1,2.1-10.3,3.8c-5.2,2.8-10.5,5.6-15.1,9.2
				c-12.4,9.6-24.5,19.5-36.5,29.6c-8,6.7-12.9,15.5-12.7,26.2c0.1,3.6-1.1,5.5-3.4,7.7c-8.3,7.8-16.5,15.7-24.7,23.6
				c-1.1,1.1-2,1.3-3.5,0.6c-15.4-7.1-27.1-18.3-36.2-32.5C21,126.7,16,114.6,12.9,101.7C12.7,100.9,12.6,100.2,12.4,99.2z"/>
		</g>
		<g>
			<path class="st12" d="M105,150.4c4.5,9.7,13.1,15.6,19.6,23.4c-5.9,5.1-11.7,10.3-17.6,15.4c-16.3,14.1-32.5,28.1-48.8,42.1
				c-5.7,4.9-13.7,4.7-18.6-0.5c-5-5.3-4.6-13.4,0.9-18.7c13.1-12.6,26.2-25.1,39.2-37.6c7.4-7.1,14.8-14.2,22.3-21.3
				C102.9,152.4,103.8,151.5,105,150.4z"/>
		</g>
		<g>
			<path class="st12" d="M233,43.8c0,14.1-11.6,25.6-25.5,25.5C193.3,69.1,182,57.8,182,43.6c0-14.2,11.4-25.5,25.7-25.5
				C221.8,18.2,233.1,29.6,233,43.8z"/>
		</g>
	</g>
</g>
</svg>
