<?xml version="1.0" encoding="utf-8"?>
<!-- Generator: Adobe Illustrator 21.0.0, SVG Export Plug-In . SVG Version: 6.00 Build 0)  -->
<svg version="1.1" id="Capa_1" xmlns="http://www.w3.org/2000/svg" xmlns:xlink="http://www.w3.org/1999/xlink" x="0px" y="0px"
	 viewBox="0 0 290 264.7" style="enable-background:new 0 0 290 264.7;" xml:space="preserve">
<style type="text/css">
	.st0{clip-path:url(#SVGID_2_);fill:#FFFFFF;}
	.st1{clip-path:url(#SVGID_2_);}
	.st2{fill:#229ED7;}
	.st3{fill:#272425;}
	.st4{fill:#CB2228;}
	.st5{opacity:0.1;clip-path:url(#SVGID_2_);}
	.st6{fill-rule:evenodd;clip-rule:evenodd;}
	.st7{opacity:0.15;clip-path:url(#SVGID_2_);}
	.st8{clip-path:url(#SVGID_4_);}
	.st9{opacity:0.1;clip-path:url(#SVGID_4_);}
	.st10{clip-path:url(#SVGID_6_);fill:#229ED7;}
	.st11{opacity:0.1;clip-path:url(#SVGID_6_);}
	.st12{fill:#FFFFFF;}
	.st13{fill:#262324;}
	.st14{opacity:0.15;}
	.st15{clip-path:url(#SVGID_8_);}
	.st16{fill:#333233;}
	.st17{fill:#1D8DC6;}
	.st18{fill:#221D1F;}
	.st19{fill-rule:evenodd;clip-rule:evenodd;fill:#329AC6;}
	.st20{fill-rule:evenodd;clip-rule:evenodd;fill:#1D8DC6;}
	.st21{opacity:0.1;}
	.st22{clip-path:url(#SVGID_10_);}
	.st23{opacity:0.25;}
	.st24{fill:#211915;}
	.st25{fill:#2B2A26;}
	.st26{fill:#E8DC3C;}
	.st27{fill:#E7DC3C;}
	.st28{fill:#E8DC3F;}
	.st29{fill:#E7DC42;}
	.st30{fill:#30302C;}
	.st31{fill:#E7DD43;}
	.st32{fill:#343430;}
	.st33{fill:#2E2E2B;}
	.st34{fill:#31312E;}
	.st35{fill:#2F2F2C;}
	.st36{fill:#30302D;}
	.st37{fill:#2E2D2A;}
	.st38{fill:#E7DD4D;}
	.st39{fill:#333230;}
	.st40{fill:#2B2A28;}
	.st41{fill:#363532;}
	.st42{fill:#E6DC57;}
	.st43{fill:#3A3936;}
	.st44{fill:#252523;}
	.st45{fill:#F6F6F4;}
	.st46{fill:#F5F5F2;}
	.st47{fill:#F2F2F0;}
	.st48{fill:#E1E2E0;}
	.st49{fill:#EEEEED;}
	.st50{fill:#DEDEDD;}
	.st51{fill:#E6E6E4;}
	.st52{clip-path:url(#SVGID_12_);}
	.st53{clip-path:url(#SVGID_14_);}
	.st54{fill:#484848;}
	.st55{fill:#FFE6A4;}
	.st56{fill:#6E1C2A;}
	.st57{fill:#551416;}
	.st58{fill:#F1CD33;}
	.st59{fill:#434244;}
	.st60{fill:#060609;}
	.st61{clip-path:url(#SVGID_16_);}
	.st62{fill:#0E0D0D;}
	.st63{fill:#ECD0C3;}
	.st64{clip-path:url(#SVGID_16_);fill:#0E0D0D;}
	.st65{opacity:0.14;}
	.st66{clip-path:url(#SVGID_18_);}
	.st67{clip-path:url(#SVGID_20_);}
	.st68{clip-path:url(#SVGID_22_);}
	.st69{clip-path:url(#SVGID_24_);}
	.st70{clip-path:url(#SVGID_24_);fill:#0E0D0D;}
	.st71{clip-path:url(#SVGID_26_);}
	.st72{fill:#AA6502;}
	.st73{fill:#E88F09;}
	.st74{opacity:0.3;}
	.st75{fill:none;}
	.st76{fill:#FFF8BB;}
	.st77{fill:#FFFCE6;}
	.st78{fill:#212F44;}
	.st79{fill:#081C35;}
	.st80{fill:#415C84;}
	.st81{fill:#547EAF;}
	.st82{fill:#00A79D;}
	.st83{fill:#00776B;}
	.st84{fill:#08F7E0;}
	.st85{fill:#71FFEE;}
	.st86{fill:#C64320;}
	.st87{fill:#F66E44;}
	.st88{fill:#020202;}
	.st89{clip-path:url(#SVGID_28_);}
	.st90{fill:#FFF2BE;}
	.st91{fill:#FFFCEE;}
	.st92{opacity:0.1;clip-path:url(#SVGID_26_);}
	.st93{clip-path:url(#SVGID_30_);}
	.st94{clip-path:url(#SVGID_32_);}
	.st95{opacity:0.1;clip-path:url(#SVGID_30_);}
	.st96{fill:#FC0202;}
	.st97{fill:#FEF6F6;}
	.st98{opacity:0.8;fill:none;stroke:#272425;stroke-miterlimit:10;}
	.st99{fill:none;stroke:#211915;stroke-width:3;stroke-miterlimit:10;}
	.st100{opacity:0.18;}
</style>
<g>
	<defs>
		<rect id="SVGID_29_" x="-304.3" y="332.6" width="960" height="493.5"/>
	</defs>
	<clipPath id="SVGID_2_">
		<use xlink:href="#SVGID_29_"  style="overflow:visible;"/>
	</clipPath>
	<g class="st1">
		<g>
			<path class="st12" d="M531.9,243.8c0.5-6.7,2.8,114.8,118.8,32.3c-9.6,1.1-24.9,149,126.2,90.5c-0.9-2.2-137.6,119.4-2.7,181.7
				c-2.2,0.8-148.8,36.4-47.1,162.4c-7.4,12.8-97.1-111.7-166.3,18c-7-4.8-67.2-121.6-140.2-4.3c11.8-2-45.8-137.2-162.5-19.9
				c-3.9-3.5,65.4-128.8-63.3-105c-4.8-5.7,182.9-85.4,31.3-176.3c-1.3-9.5,139.8,9.3,77.9-111.8c5.2,0.5,153,87.6,113.9-60.8
				C418,250.5,521.4,384.9,531.9,243.8z"/>
			<g>
				<path d="M257.7,705.7c-0.1-0.1-0.3-0.1-0.4-0.2c-1.3-1.2-0.7-3.2,2.7-12.7c7.9-22.4,26.5-74.8-9.3-90.3
					c-12.8-5.6-31.4-6.1-55.5-1.7c-0.5,0.1-1-0.1-1.3-0.5c-0.3-0.4-0.5-0.9-0.4-1.4c0.3-1.8,3.4-3.9,13.3-10.3
					c25.5-16.3,78.5-50.3,77.3-92.5c-0.7-24.8-20.4-49-58.5-71.8c-0.4-0.2-0.6-0.6-0.7-1c-0.1-0.6,0.1-1.2,0.5-1.7
					c1.5-1.9,6-2.5,16.2-3.6c21.8-2.5,58.3-6.7,71.8-31.8c9.4-17.4,5.9-42.3-10.4-74.1c-0.2-0.4-0.2-1,0.1-1.4
					c0.3-0.4,0.8-0.6,1.3-0.6c0.3,0,0.8,0.2,1.9,0.6c1.2,0.5,2.9,1.3,5.1,2.4c4,1.9,9.4,4.5,15.8,7.3c40.5,17.7,68.7,20.3,83.7,7.8
					c14.3-11.9,16.4-37.9,6-77.3c-0.2-0.6,0.1-1.3,0.7-1.6c0.6-0.3,1.3-0.1,1.7,0.4c0.3,0.4,31.5,40.6,60.8,53.4c0,0,0,0,0,0
					c11.1,4.8,20.6,5.1,28.1,0.7c12.6-7.3,20.1-27.5,22.6-60.1c0-0.3,0.1-1,0.7-1.3c0.4-0.2,0.9-0.3,1.3-0.1
					c0.8,0.3,0.8,0.8,1.1,2.6c3.6,28.4,14.7,48,31.5,55.3c20.3,8.9,48.9,0.4,84.9-25.2c0.6-0.4,1.4-0.3,1.9,0.2
					c0.5,0.5,0.5,1.4,0,1.9c-2.6,2.6-7,26.3-2.1,50c3.3,15.9,11.9,37,34.3,46.8c21.9,9.5,52.8,6.8,91.8-8.2c0.4-0.2,1-0.6,1.8-0.3
					c0.3,0.1,0.6,0.4,0.8,0.8c0.3,0.7-0.1,1.5-0.8,1.8l-0.4,0.2c-3.1,2.1-19.2,16.4-34.3,37.4c-13.3,18.5-28.6,46.3-26.3,74.1
					c2.3,28,22,50.7,58.4,67.5c0.5,0.2,0.8,0.7,0.8,1.3c0,0.5-0.4,1-0.9,1.2c-0.1,0-0.4,0.1-0.9,0.3c-15.2,4.3-65.7,21.3-78.3,61.5
					c-8.7,27.7,2.3,60.9,32.7,98.5c0.4,0.4,0.4,1.1,0.1,1.5c-0.7,1.3-2.3,2.4-5.9,0.8h0c-3.4-1.5-8.2-5.1-14.4-9.7
					c-10.1-7.6-24-17.9-39.7-24.7c-19-8.3-35.9-9.6-51.9-4c-20.3,7.1-38.6,25.8-54.4,55.4c-0.2,0.3-0.5,0.6-0.9,0.7
					c-0.4,0.1-0.8,0-1.1-0.2c-1.1-0.7-2.5-2.7-5.7-7.2c-8.2-11.4-25.2-35.1-47.2-44.7c-28.6-12.5-56.7,2.6-83.6,44.6
					c-0.4,2.5-1.7,3.1-2.6,3.2c-0.5,0.1-1.1-0.1-1.4-0.6c-0.3-0.5-0.3-1,0-1.5c0.4-0.7,0.9-1.4,1.3-2.1c0.5-9.3-15.2-44.2-46.8-58
					c-23.3-10.1-62.1-11.1-114.8,41.9C258.8,705.9,258.2,706,257.7,705.7z M251.8,599.9c38.1,16.6,19,70.7,10.8,93.8
					c-0.8,2.4-1.7,4.8-2.3,6.7c52.2-51,91.2-49.6,114.8-39.3c29.8,13,45.5,43.3,48.1,56.8c27.1-41,55.7-55.3,85-42.5
					c22.7,9.9,40.1,34,48.4,45.6c1.5,2.1,2.9,4,3.9,5.3c16-29.3,34.5-47.8,55-55c16.4-5.8,34.6-4.4,54,4c16,7,30,17.4,40.3,25.1
					c6,4.5,10.7,8,13.8,9.3c0,0,0,0,0,0c0.5,0.2,1,0.4,1.5,0.5c-30.2-37.9-41-71.4-32.1-99.7c12.4-39.3,59.4-57,77.5-62.5
					c-35.3-17.1-54.4-40.1-56.7-68.3c-3.8-46.3,38.7-93.1,55.7-108.8c-36.3,12.8-65.3,14.6-86.5,5.4c-23.5-10.3-32.6-32.2-36-48.8
					c-3.8-18.4-2.2-38.1,0.5-47.4c-34.9,23.9-63,31.5-83.5,22.6c-15.7-6.9-26.8-23.8-31.6-48.2c-3.3,27.4-11,44.8-22.9,51.7
					c-8.3,4.8-18.6,4.6-30.6-0.6c0,0,0,0,0,0c-24-10.5-48.5-38-57.9-49.3c8.9,37.1,6.1,62-8.4,74c-15.9,13.2-45,10.7-86.6-7.5
					c-6.5-2.8-11.9-5.4-15.9-7.3c-1.1-0.5-2.2-1-3-1.5c15.3,31.1,18.2,55.8,8.8,73.4c-14.2,26.3-51.6,30.6-73.9,33.2
					c-5.4,0.6-11.4,1.3-13.5,2.2c38.1,23.2,57.8,47.8,58.5,73.3c1.3,43.7-52.6,78.3-78.5,94.9c-3.8,2.4-7.5,4.8-9.8,6.5
					C221.3,593.6,239.2,594.5,251.8,599.9z"/>
			</g>
		</g>
	</g>
	<g class="st5">
		<g>
			<path class="st6" d="M161.2,262c-3.4,0.2-7.1-2.9-6.5-6.5c-0.5-3.5,3.1-6.5,6.3-6.4c3.9,0.2,6.3,2,6.3,6.3
				C167.2,260,165,261.8,161.2,262z"/>
		</g>
		<g>
			<path class="st6" d="M139.2,262.4c-3.6-0.2-6.6-3.1-6.6-6.7c0-3.3,3.3-6.2,6.8-6.2c3.1,0.1,6.1,3.2,6.1,6.3
				C145.7,258.5,142.8,262.7,139.2,262.4z"/>
		</g>
		<g>
			<path class="st6" d="M183,261.5c-4,0.3-6.4-3.9-6.4-6.5c0-2.6,2.4-6.5,6-6.4c3.5-0.1,6.7,2.9,6.8,6.3
				C189.5,258.3,186.5,261.3,183,261.5z"/>
		</g>
		<g>
			<path class="st6" d="M117.4,262.7c-3.3-0.1-6.3-3.1-6.4-6.5c-0.1-3.2,3.2-6.3,6.5-6.3c3.1,0,6.2,3,6.2,6
				C123.8,259.5,120.7,262.8,117.4,262.7z"/>
		</g>
		<g>
			<path class="st6" d="M204.8,261c-3.2,0.1-6.2-2.9-6.3-6.1c-0.1-3.2,2.9-6.4,6.1-6.4c3.4,0,6.4,3,6.5,6.3
				C211,257.9,208.1,260.8,204.8,261z"/>
		</g>
		<g>
			<path class="st6" d="M95.4,262.9c-3,0-5.8-3.2-5.9-6.6c-0.1-2.4,3.4-5.7,5.9-5.7c3.7,0.1,6.5,3.5,6.4,6
				C101.6,260.1,98.8,262.9,95.4,262.9z"/>
		</g>
		<g>
			<path class="st6" d="M226.5,260.4c-3.4,0-6.3-2.8-6.3-6.1c0-3.2,2.9-6,6.1-6c3.1-0.1,6,3,6,6.1
				C232.4,257.4,229.5,260.4,226.5,260.4z"/>
		</g>
		<g>
			<path class="st6" d="M72.6,262.8c-1.2-0.2-2.5-0.7-3.1-1.7c-0.8-1.3-1.5-2.7-1.4-3.9c0.2-4.1,2.8-6,5.8-5.8
				c2,0.1,3.5,1.1,4.7,2.6c0.8,0.9,1.1,2,1,3.1C79.5,260.7,76.3,263.5,72.6,262.8z"/>
		</g>
		<g>
			<path class="st6" d="M163.1,239c-2.2,1-4.8,0.6-6.5-1.2c-1.7-1.8-2.2-3.9-1.4-6.2c0.2-0.5,0.4-0.9,0.7-1.3
				c1.6-1.8,4.7-2.6,6.9-1.7c2.9,1.3,3.6,2.1,3.8,5.1C166.5,236.1,165.3,237.9,163.1,239z"/>
		</g>
		<g>
			<path class="st6" d="M248.3,259.7c-2.8,0-5.9-2.1-5.9-5.8c0-3.6,3.2-5.8,6-5.7c3.1,0,5.6,2.7,5.4,5.9
				C253.5,257.3,251.6,259.7,248.3,259.7z"/>
		</g>
		<g>
			<path class="st6" d="M139.8,239.7c-2.4,0.2-4.3-0.5-5.7-2.5c-1.3-1.9-1.3-3.9-0.3-6c0.2-0.4,0.5-0.9,0.9-1.1
				c1.1-0.6,2.2-1.2,3.3-1.4c3.4-0.7,6.3,1.7,6.3,5.5c-0.1,0.3-0.1,1-0.3,1.6C143.1,237.8,142.1,239.5,139.8,239.7z"/>
		</g>
		<g>
			<path class="st6" d="M182.3,239.1c-2.9,0-5.3-2.8-5.4-6c0-2.6,2.6-5.4,5.5-5.2c3.1,0.2,5.7,2.5,5.7,5.3
				C188.2,236.4,185.5,239.1,182.3,239.1z"/>
		</g>
		<g>
			<path class="st6" d="M49.3,262.1c-2.2-1.3-3.3-3.8-2.7-6.2c0.2-0.8,0.6-1.4,1.2-2c2.1-2.3,6.3-2.4,8.5,0c0.2,0.2,0.5,0.4,0.8,0.7
				c0,1.4,0,2.9,0,4.3c0,1.1-0.5,1.8-1.3,2.5C54,263.1,51.4,263.4,49.3,262.1z"/>
		</g>
		<g>
			<path class="st6" d="M116.9,240c-2.2-0.2-3.8-1.2-4.8-3.2c-1-2.1-0.8-4.1,0.6-6c0.2-0.3,0.5-0.7,0.9-0.8c1.9-0.7,3.7-1.4,5.8-0.4
				c1.1,0.5,2,1.1,2.4,2.2c0.3,0.8,0.5,1.7,0.6,2.2c-0.1,0.7-0.1,1-0.1,1.4C121.8,238,119.3,240.2,116.9,240z"/>
		</g>
		<g>
			<path class="st6" d="M204.2,238.6c-2.7,0-5.3-2.7-5.3-5.6c-0.1-2.6,2.5-5.3,5.2-5.4c2.4-0.1,5.9,2.2,5.7,5.1
				C209.8,235.9,207.2,238.6,204.2,238.6z"/>
		</g>
		<g>
			<path class="st6" d="M270,258.9c-3.4-0.1-5.5-2.8-5.5-5.3c0.1-3.3,2.8-5.3,5.5-5.3c2.9,0,5.5,2.4,5.6,5.2
				C275.7,256.4,273.1,258.9,270,258.9z"/>
		</g>
		<g>
			<path class="st6" d="M96.2,240.1c-3.4,0.8-6.5-2.6-6.1-6c0.3-2.7,2.1-4.3,4.8-4.3c0.2,0,0.3,0,0.2,0c0.8,0.1,1.4,0.1,1.9,0.2
				c0.5,0.1,1,0.2,1.3,0.5c1.8,1.5,2.4,3.4,1.9,5.6C99.8,238.2,98.4,239.5,96.2,240.1z"/>
		</g>
		<g>
			<path class="st6" d="M226.2,237.9c-3,0-5.4-2.3-5.5-5.3c-0.1-2.6,2.5-5,5.3-5.1c2.4-0.1,5,2.5,5,4.9
				C231.2,235.3,228.8,237.9,226.2,237.9z"/>
		</g>
		<g>
			<path class="st6" d="M71.6,240c-1-0.4-2-0.8-2.4-1.9c-0.6-1.7-0.8-3.4-0.2-5.2c0.4-1.1,0.9-1.9,1.9-2.3c0.7-0.3,1.5-0.5,2-0.6
				c2.6,0.1,4.2,1.2,5.1,3.2c0.9,2,0.5,3.8-0.9,5.4C75.9,240.1,73.5,240.7,71.6,240z"/>
		</g>
		<g>
			<path class="st6" d="M250.6,236.3c-2.8,1.8-6.2,0.2-7.3-2.4c-0.5-1.1-0.7-2.4-0.1-3.5c1-1.9,2.6-3.1,4.8-3
				c2.8,0.2,4.7,1.6,4.6,4.8c0,0.5-0.2,1-0.2,1.4C252.3,234.9,251.6,235.7,250.6,236.3z"/>
		</g>
		<g>
			<path class="st6" d="M30.2,262.8c-2-0.1-3.9-1.5-4.6-3.4c-0.5-1.3-0.4-2.5,0-3.8c0.4-1.1,1.4-1.5,2.3-2c0.3-0.1,0.6-0.3,0.9-0.4
				c2.9-1,6.4,1.1,6.1,4.9c0-0.1,0,0.3-0.1,0.7C34.3,261,32.1,262.9,30.2,262.8z"/>
		</g>
		<g>
			<path class="st6" d="M160.2,216.7c-2.5,0-4.8-1.8-4.9-4.9c0.2-2.7,2.1-4.9,5-4.8c2.8,0.1,4.9,2.3,4.8,5
				C165,214.6,162.8,216.7,160.2,216.7z"/>
		</g>
		<g>
			<path class="st6" d="M140.1,216.8c-3.2,1-6.4-1.3-6.3-4.9c0-1.8,1-3.3,2.9-4.1c1.8-0.8,3.5-0.5,5,0.7c0.4,0.3,0.7,0.7,0.8,1.2
				c0.3,1.4,0.6,2.8,0.2,4.3C142.3,215.5,141.5,216.3,140.1,216.8z"/>
		</g>
		<g>
			<path class="st6" d="M51.7,240.3c-2.6,0-4.8-2.1-4.8-4.8c0-2.6,2.1-4.7,4.8-4.7c2.6,0,4.6,2,4.7,4.6
				C56.5,238.1,54.3,240.3,51.7,240.3z"/>
		</g>
		<g>
			<path class="st6" d="M291.9,258c-2.3,0.1-4.6-2.1-4.7-4.5c-0.1-2.5,2.1-5,4.5-5c2.7,0,5.1,2.2,5.1,4.8
				C296.8,255.5,294.5,257.8,291.9,258z"/>
		</g>
		<g>
			<path class="st6" d="M180.9,216.2c-0.6-0.1-1.3-0.4-1.7-0.9c-0.6-0.9-1.2-1.9-1.5-3c-0.5-1.7,0.4-3.1,1.3-4.5
				c0.7-0.9,1.7-1.1,2.8-1.2c2,0,3.5,0.8,4.4,2.5c1,1.8,0.8,3.6-0.4,5.2C184.6,216,182.8,216.6,180.9,216.2z"/>
		</g>
		<g>
			<path class="st6" d="M116.7,217.4c-2.5,0-4.6-2.1-4.7-4.6c-0.1-2.7,2-4.8,4.7-4.8c2.2,0,4.3,2.3,4.3,4.7
				C121,215.1,118.9,217.4,116.7,217.4z"/>
		</g>
		<g>
			<path class="st6" d="M270.1,236.2c-2,0.2-3.9-0.9-4.7-2.7c-0.5-1.1-0.7-2.2-0.2-3.3c0.9-1.7,2.3-2.7,4.2-2.8c0.3,0,0.5,0,0.8,0
				c2.5,0.3,4.4,2.8,4,5.1C273.8,234.4,272.1,235.9,270.1,236.2z"/>
		</g>
		<g>
			<path class="st6" d="M205.5,215.4c-1.5,0.7-3,0.5-4.6-1c-1.5-1.4-1.7-3.8-0.7-5.6c0.9-1.7,2.9-2.6,4.7-2.2c2,0.5,3.4,2.2,3.4,4.4
				C208.3,213,207.3,214.5,205.5,215.4z"/>
		</g>
		<g>
			<path class="st6" d="M96.1,217.3c-1.8,0.6-3.4,0-4.6-1.7c-1.4-2-0.8-4.6,1.2-6.2c1.8-1.5,4.2-0.6,5.4,0.8c0.7,0.8,1,1.8,1,2.9
				C99.1,215,97.9,216.7,96.1,217.3z"/>
		</g>
		<g>
			<path class="st6" d="M226,215.1c-2.4,0.1-4.5-1.9-4.6-4.4c0-2.1,1.6-4.4,4.8-4.5c0.3,0.1,1,0.2,1.5,0.6c1.8,1.5,2.6,3.5,1.6,5.8
				C228.6,214,227.7,215.1,226,215.1z"/>
		</g>
		<g>
			<path class="st6" d="M8.9,262.4c-1.8,0.3-3.1-0.6-4.1-2c-0.9-1.4-0.9-2.9-0.2-4.4c0.7-1.4,1.9-1.9,3.3-1.9c0.2,0,0.3,0,0.6,0
				c0.8,0.2,1.8-0.1,2.6,0.6c1.3,1.3,1.7,2.9,1.1,4.7C11.9,261.1,10.7,262.1,8.9,262.4z"/>
		</g>
		<g>
			<path class="st6" d="M30.1,240.1c-2.1,0.1-3.9-1.4-4.3-3.5c-0.4-1.9,0.8-3.9,2.7-4.6c1.4-0.5,3.4-0.1,4,0.9
				c0.5,0.9,0.8,1.9,1.2,2.8c-0.2,0.8-0.4,1.5-0.7,2.2C32.6,239.4,31.6,240.1,30.1,240.1z"/>
		</g>
		<g>
			<path class="st6" d="M72.3,217.5c-2.1-0.3-3.1-1.6-3.2-4.3c0-0.5,0-1.5,0.6-2.3c1.1-1.4,3.3-1.9,5-1c1.8,0.9,2.6,3.1,1.9,5
				C76,216.7,74.2,217.8,72.3,217.5z"/>
		</g>
		<g>
			<path class="st6" d="M247.7,214.3c-2.2,0-4-1.7-4-3.9c0-2.2,1.7-4,3.9-4.1c2.2-0.1,4,1.8,4.1,3.9
				C251.6,212.4,249.8,214.3,247.7,214.3z"/>
		</g>
		<g>
			<path class="st6" d="M291.4,235.2c-2.2,0-3.4-1.3-3.5-4c-0.1-1.9,1.3-3.6,3.4-3.6c2.1,0,4.1,1.8,4.1,3.6
				C295.4,233.4,293.5,235.2,291.4,235.2z"/>
		</g>
		<g>
			<path class="st6" d="M51.3,217.4c-2,0-3.5-1.5-3.5-3.5c0-2,1.5-3.6,3.5-3.6c1.9,0,3.5,1.6,3.5,3.5
				C54.8,215.8,53.3,217.4,51.3,217.4z"/>
		</g>
		<g>
			<path class="st6" d="M161,193.2c-0.9,0.2-1.7,0.1-2.6-0.1c-1.2-0.2-1.8-0.9-2.1-2c-0.3-1.4,0-2.7,1.2-3.7
				c1.1-0.9,2.5-1.2,3.8-0.5c1.3,0.7,2,1.7,2.1,3C163.4,191.8,162.6,192.7,161,193.2z"/>
		</g>
		<g>
			<path class="st6" d="M269.1,213.4c-1.9-0.1-3.3-1.6-3.3-3.5c0-2,1.6-3.5,3.6-3.4c1.9,0.1,3.3,1.6,3.3,3.4
				C272.7,211.9,271,213.4,269.1,213.4z"/>
		</g>
		<g>
			<path class="st6" d="M140,193.2c-1.5,0.6-2.8,0.4-4.2-0.3c-0.3-0.2-0.7-0.5-0.8-0.8c-1.2-2.4,0.6-5.1,3.2-5.1
				c2.2,0,3.8,1.9,3.5,4C141.5,192.1,141,192.8,140,193.2z"/>
		</g>
		<g>
			<path class="st6" d="M181.5,193c-2.5,0.1-2.3-0.4-2.9-2.3c-0.2-0.8-0.1-1.6,0.2-2.4c0.4-1.3,1.1-1.9,2.3-2c2-0.2,3.8,1.3,3.9,3.3
				C185.2,191.8,183.9,193,181.5,193z"/>
		</g>
		<g>
			<path class="st6" d="M8,239.7c-1.7,0-3.2-1.6-3.2-3.3c0-1.6,1.6-3.4,3.2-3.4c1.6,0,3.1,1.6,3.1,3.4C11.1,238.2,9.7,239.7,8,239.7
				z"/>
		</g>
		<g>
			<path class="st6" d="M203.5,192.8c-1.6,0-3.1-1.6-3.1-3.3c0-1.8,1.5-3.3,3.1-3.4c1.6,0,3.1,1.6,3.2,3.3
				C206.6,191.1,205.1,192.8,203.5,192.8z"/>
		</g>
		<g>
			<path class="st6" d="M116.4,193.8c-1.8,0-3.3-1.2-3.3-2.8c0-2,1.5-3.5,3.5-3.5c1.5,0,2.7,1.6,2.8,3.4
				C119.3,192.6,118,193.8,116.4,193.8z"/>
		</g>
		<g>
			<path class="st6" d="M226.7,191.6c-2,0.9-4.3-0.6-4.3-2.8c0-1.6,1.4-2.9,3-2.9c1.6,0,2.5,1,2.5,2.8c0,0.1,0,0.2,0,0.4
				C228.1,190.1,227.9,191.1,226.7,191.6z"/>
		</g>
		<g>
			<path class="st6" d="M94.5,193.9c-1.3,0.1-2.7-1.2-2.7-2.5c0-1.5,1.3-3,2.6-3c1.7,0,3,1.4,3,3.1
				C97.3,192.7,95.9,193.8,94.5,193.9z"/>
		</g>
		<g>
			<path class="st6" d="M29.5,216.9c-1.5,0-2.6-1.1-2.7-2.5c-0.1-1.5,1.1-2.9,2.6-2.9c1.6-0.1,2.8,1.1,2.9,2.7
				C32.3,215.7,31.1,216.9,29.5,216.9z"/>
		</g>
		<g>
			<path class="st6" d="M290,212c-0.9-0.3-1.2-0.9-1.3-2.1c0-0.2,0-0.3,0-0.5c0-0.8-0.1-1.6,0.8-2.2c1.2-0.7,2.7-0.5,3.5,0.5
				c0.9,1.1,0.9,2.5-0.1,3.5C292.2,212.1,291,212.4,290,212z"/>
		</g>
		<g>
			<path class="st6" d="M247.3,191c-1.3,0.1-2.5-1-2.7-2.3c-0.1-1.3,1.1-2.7,2.5-2.7c1.3,0,2.5,1.2,2.6,2.4
				C249.8,189.7,248.6,191,247.3,191z"/>
		</g>
		<g>
			<path class="st6" d="M72.5,193.7c-0.3-0.1-0.7-0.1-1.2-0.3c-1.1-0.4-1.5-1.5-1.1-2.6c0.5-1.2,1.8-1.8,3-1.5
				c1.1,0.3,1.9,1.5,1.8,2.6C74.9,192.8,73.9,193.6,72.5,193.7z"/>
		</g>
		<g>
			<path class="st6" d="M50.6,193.5c-0.9-0.1-1.7-0.7-1.8-1.3c0-1.1,0.9-2,2-1.9c1,0.1,1.8,0.9,1.8,1.9
				C52.6,192.9,51.6,193.5,50.6,193.5z"/>
		</g>
		<g>
			<path class="st6" d="M268.9,189.9c-0.9,0-1.9-0.9-1.9-1.8c0-0.9,0.9-1.7,1.7-1.7c0.9,0,1.6,0.8,1.7,1.7
				C270.5,189,269.8,189.9,268.9,189.9z"/>
		</g>
		<g>
			<path class="st6" d="M7.5,216.3c-0.8,0-1.4-0.7-1.5-1.6c0-0.9,0.8-1.8,1.6-1.7c0.7,0.1,1.4,0.9,1.3,1.7
				C9,215.5,8.3,216.3,7.5,216.3z"/>
		</g>
		<g>
			<path class="st6" d="M159.5,169.6c-0.9,0.1-1.9-0.7-1.8-1.5c0.1-0.7,0.8-1.4,1.7-1.4c0.8,0,1.6,0.6,1.7,1.4
				C161.1,168.8,160.4,169.6,159.5,169.6z"/>
		</g>
		<g>
			<path class="st6" d="M181.4,169.2c-0.7,0.1-1.6-0.3-1.8-0.9c-0.1-0.1-0.1-0.3-0.1-0.5c0.1-0.9,0.9-1.6,1.8-1.6
				c0.9,0,1.7,0.9,1.7,1.7c0,0.1,0,0.2-0.1,0.2C182.6,168.9,182,169.2,181.4,169.2z"/>
		</g>
		<g>
			<path class="st6" d="M137.7,170.1c-0.8,0-1.6-0.8-1.6-1.5c0-0.8,0.8-1.4,1.7-1.4c0.9,0,1.6,0.7,1.6,1.5
				C139.4,169.4,138.6,170.1,137.7,170.1z"/>
		</g>
		<g>
			<path class="st6" d="M116.5,170.1c-0.8,0.3-1.7-0.2-1.8-1c-0.1-0.6,0.3-1.1,1.1-1.3c0.3-0.1,0.7-0.1,0.9,0c0.4,0.2,0.6,0.7,1,1.1
				C117.3,169.4,116.9,169.9,116.5,170.1z"/>
		</g>
		<g>
			<path class="st6" d="M203.2,168.7c-0.9,0-1.3-0.3-1.4-0.9c-0.1-0.6,0.3-1.1,1-1.1c0.9-0.1,1.5,0.4,1.5,1.1
				C204.3,168.4,203.9,168.7,203.2,168.7z"/>
		</g>
	</g>
</g>
<g>
	<g>
		<path class="st13" d="M257.2,40.6c0-2.9,0-5.9,0-8.8c0-14.3-8.9-21.1-17.6-21.6c-6.1-0.3-12.1-0.3-17.9-0.2
			c-2.3,0-4.6,0.1-6.9,0.1c-0.1,0-0.3,0-0.4,0c-3.6-5.8-9.9-9.2-18.1-9.2c-34.2,0-68.4,0-102.6,0c-8.2,0-14.5,3.3-18.1,9
			c-0.1,0-0.2,0-0.3,0l-6.5,0c-5,0-10,0-14.9,0c-12.6,0.1-21.1,8.5-21,21c0,3.4,0,6.8,0,10.1c0,13.5,0,27.5,0.7,41.3
			c0.8,16.5,7.9,30.2,20.5,39.6c7.4,5.5,16,8.9,25.3,9.9c0.4,0,0.9,0.1,1.3,0.1c0.6,0,1.2-0.1,1.8-0.2c2.3,4.6,5,9,8.1,13
			c6.2,8.2,13.9,14.8,22.5,19.5c-0.6,1.6-1,3.5-1,5.7c0,1.8,0,3.5,0,5.2c0,1.7,0,3.3,0,4.9c0,2,0.2,3.7,0.6,5.2c-6.3,0-12.7,0-19,0
			c-12.8,0-21.1,8.3-21.1,21.2c0,10.7,0,22.4,0,36.8c0,13,8.4,21.4,21.4,21.4c17.1,0,34.2,0,51.3,0s34.2,0,51.3,0
			c12.9,0,21.3-8.4,21.4-21.5c0-11.7,0-23.6,0-36.4c0-13.3-8.3-21.6-21.6-21.6c-6.2,0-12.4,0-18.6,0c0.4-1.4,0.6-2.9,0.6-4.5l0-1.8
			c0-2.9,0-5.9,0-8.9c0-2.2-0.4-4.1-1-5.7c8.5-4.6,16-11.2,22.1-19.3c3.2-4.3,6-8.8,8.4-13.6c0.6,0.1,1.2,0.2,1.8,0.2
			c0.4,0,0.8,0,1.2-0.1c21.7-2.1,39.1-17.3,44.2-38.8c1.5-6.1,2.3-12.8,2.4-19.9C257.4,62.1,257.3,51.2,257.2,40.6z"/>
		<g>
			<path class="st12" d="M84.2,52.2c0-11.5,0-23,0-34.5c0-6.4,3-9.4,9.4-9.4c34.2,0,68.4,0,102.6,0c6.3,0,9.4,3.1,9.4,9.5
				c0,21.8,0.2,43.7-0.1,65.5c-0.2,18.2-4.8,35.2-16,50c-22.9,30.4-66.5,30.2-89.6-0.4c-10.6-14-15-30.2-15.6-47.5
				C84,74.4,84.3,63.3,84.2,52.2C84.3,52.2,84.3,52.2,84.2,52.2z"/>
			<path class="st12" d="M145.1,192.8c17,0,34,0,50.9,0c6.6,0,9.6,3,9.6,9.6c0,12.1,0,24.2,0,36.3c0,6.3-3.1,9.5-9.4,9.5
				c-34.2,0-68.4,0-102.6,0c-6.2,0-9.4-3.2-9.4-9.5c0-12.2,0-24.5,0-36.7c0-6.2,3.1-9.2,9.2-9.2
				C110.6,192.8,127.9,192.8,145.1,192.8z"/>
			<path class="st12" d="M228.8,33.3c-4.8,0-9.2,0-14,0c0-5.3,0-10.3,0-15.7c8,0,16.1-0.3,24.1,0.1c4.1,0.2,6.3,4.1,6.3,9.7
				c0,13.6,0.2,27.2-0.1,40.8c-0.1,5.8-0.8,11.7-2.1,17.4c-3.9,16.6-17.1,28-33.6,29.6c1.2-5.4,2.4-10.7,3.8-15.9
				c0.2-0.7,0.9-1.5,1.6-1.8c9.3-4.2,13.4-12.1,13.9-21.5C229.3,62,228.8,47.9,228.8,33.3z"/>
			<path class="st12" d="M60.8,33c0,8.8-0.1,17.1,0,25.3c0.1,7.2,0,14.5,1,21.6c1.1,7.9,5.3,14.1,12.9,17.6c0.9,0.4,1.8,1.6,2.1,2.6
				c1.3,4.9,2.4,9.9,3.6,15.3c-7.3-0.8-13.7-3.3-19.4-7.6c-10.2-7.6-15.1-18.3-15.7-30.6c-0.8-16.9-0.6-33.9-0.7-50.9
				c0-6,3.2-8.9,9.1-9c7.1,0,14.2,0,21.4,0c0,5.4,0,10.3,0,15.7C70.6,33,66.1,33,60.8,33z"/>
			<path class="st12" d="M144.9,180.7c-5.4,0-10.7,0-16.1,0c-3.4,0-5.1-1.5-5-5c0.1-3.4,0-6.7,0-10.1c0.1-2.9,1.5-4.1,4.4-3.3
				c11.2,3.1,22.3,3.1,33.5,0c2.9-0.8,4.3,0.6,4.3,3.4c0,3.5,0,7,0,10.5c0,3.1-1.7,4.5-4.7,4.5C155.9,180.7,150.4,180.7,144.9,180.7
				z"/>
		</g>
	</g>
	<g>
		<path class="st13" d="M185.2,48.4c0.7,1.5,1.1,3.3,1.2,5.2c0.1,1.9-0.1,3.9-0.6,6c-0.8,3.7-2.3,7.2-4.5,10.4c-2.7,3.9-5.7,6-9,6.1
			c-2.8,0.1-4.9-1.3-6.2-4.4c-0.6-1.5-1-3.2-1.1-5.1c0-1.9,0.2-4,0.6-6.1c0.8-3.7,2.3-7.2,4.5-10.4c2.7-4,5.7-6,9-6.2
			C181.9,43.9,183.9,45.4,185.2,48.4z M173.9,57.7c-1.1,2-1.9,3.9-2.3,5.6c-0.2,1-0.3,1.9-0.2,2.5c0.1,1.1,0.4,2,0.9,2.6
			c0.7,0.7,1.5,1,2.6,1c1.5-0.1,2.7-0.9,3.8-2.5c0.9-1.3,1.5-2.8,1.9-4.5c0.4-2,0.4-4,0-5.8c-0.4-1.9-1.2-2.8-2.5-2.7
			C176.7,54,175.3,55.2,173.9,57.7z"/>
		<g>
			<path class="st13" d="M116.7,69.2c3-14.5,8.7-23.5,17.1-27.1c2.4-1,4.8-1.5,7.1-1.5c4.9,0,9.2,1.7,13.1,5.1
				c4.9,4.4,7.4,9.6,7.5,15.6c-0.1,5.8-2.6,11.4-7.6,16.9c-3.6,4.2-9.1,7.8-16.3,11c-5.4,2.5-8.9,4.9-10.5,7.3l25.4-1.6l-2.2,18.3
				l-42.6,2.2c-0.2-1.5-0.3-2.9-0.2-4.1c-0.1-6.4,1.2-11.9,3.9-16.6c2.9-5.6,9.9-11.2,20.8-17.1c5.9-3.1,9.4-6.2,10.5-9.3
				c0.5-1.6,0.8-3,0.8-4.2c0-3.3-1.4-4.9-4.2-4.9c-2.7,0-4.2,2.3-4.5,6.8L116.7,69.2z"/>
		</g>
	</g>
</g>
</svg>
