<?xml version="1.0" encoding="utf-8"?>
<!-- Generator: Adobe Illustrator 21.0.0, SVG Export Plug-In . SVG Version: 6.00 Build 0)  -->
<svg version="1.1" id="Capa_1" xmlns="http://www.w3.org/2000/svg" xmlns:xlink="http://www.w3.org/1999/xlink" x="0px" y="0px"
	 viewBox="0 0 727.4 1039.8" style="enable-background:new 0 0 727.4 1039.8;" xml:space="preserve">
<style type="text/css">
	.st0{fill:#FFFFFF;}
	.st1{fill:#272425;}
	.st2{opacity:0.43;}
	.st3{clip-path:url(#SVGID_2_);}
	.st4{opacity:0.4;}
	.st5{fill:#211915;}
	.st6{clip-path:url(#SVGID_4_);}
	.st7{opacity:0.2;}
	.st8{fill:#CB2228;}
	.st9{fill:#E2A16C;}
</style>
<title>premios</title>
<g>
	<g id="Capa_1_1_">
		
			<image style="overflow:visible;opacity:0.75;enable-background:new    ;" width="1531" height="649" xlink:href="94D8FBC1.png"  transform="matrix(0.39 0 0 0.39 72.78 782.57)">
		</image>
		<polygon class="st0" points="161.7,799.1 620.4,807.7 625.5,960.9 90.6,993.9 		"/>
		<path class="st1" d="M158.7,797.9l0.8-2.3l460.9,8.6l3.1,0.1l5.3,159.9L85.7,997.8L158.7,797.9z M612.4,813.2l-448.5-8.5
			l-63.9,182.5l514.8-32.1L612.4,813.2z"/>
		<path class="st1" d="M186.5,864.3c0.1-0.9,0.1-1.8,0.1-2.6c0-0.6,0-1.2,0-1.9l0.2-3.4c0-0.7,0-1.3,0-1.8v-0.8c0-0.3,0-0.6,0-0.9
			c-0.1-0.8,0.1-1.5,0.3-2.2c0.2-0.7,0.6-1.4,1.3-1.8c1-0.5,2.2-0.4,3.2,0.2c1,0.6,1.8,1.3,2.5,2.3l1.1,1.4c0.4,0.4,0.7,0.9,1.2,1.3
			l2.7,2.2c0.9,0.8,1.7,1.5,2.4,2.2c0.4,0.5,0.9,0.9,1.4,1.3l4.1,3.7c0.4,0.5,0.9,0.9,1.5,1.2c0-0.4,0-0.9,0-1.5v-3c0-0.6,0-1,0-1.4
			l-0.3-8.8c0-0.9,0.2-1.9,0.8-2.6c0.3-0.5,0.8-0.8,1.3-1.1c0.5-0.3,1.1-0.1,1.4,0.3c0.8,1,1.2,2.1,1.2,3.3l0.5,4
			c0.2,1.3,0.3,2.7,0.3,4v2.1c0,0.8,0,1.5,0,2.1c0.1,1.5,0.2,2.8,0.3,4c0,0.3,0,0.7,0,1.2v2.7v1.2l0.1,2.4c0,0.5,0,0.9-0.1,1.3
			c-0.1,0.5-0.3,1.1-0.6,1.6c-0.2,0.5-0.6,1-1.1,1.2c-1.1,0.4-2.1-0.1-2.9-1.5l-0.9-1.5c-0.3-0.7-0.6-1.2-0.8-1.5
			c-0.2-0.4-0.4-0.8-0.7-1.2l-0.9-1.2c-0.8-1-1.6-1.9-2.5-2.8l-3.5-3.4l-0.3-0.3l-1.6-1.4c-0.9-0.8-1.8-1.6-2.8-2.3l-0.6-0.5
			l-0.7-0.6c-0.7-0.5-1.2-0.9-1.5-1.1l-0.7,5.3c-0.1,1.1-0.2,2.5-0.4,4l-0.6,5.4c0,0.2,0,0.4,0,0.6v0.6c0,0.4-0.1,0.8-0.1,1.3
			l-0.1,0.8c-0.1,0.3-0.1,0.6-0.3,0.9c-0.4,0.9-1.3,1.4-2.2,1.3c-0.8,0-1.5-0.4-1.9-1c-0.5-0.9-0.6-1.9-0.4-2.9l0.4-3.7
			c0.2-1.5,0.3-2.8,0.4-3.7C186.4,866,186.5,865.1,186.5,864.3z"/>
		<path class="st1" d="M219.3,852.2c0.1-0.8,0.2-1.5,0.5-2.3c0.5-2,1.2-3,2.1-3c0.5,0,0.9,0.2,1.3,0.6c0.6,0.6,1,1.4,1.2,2.3
			c0.2,0.8,0.2,1.7,0.1,2.6c-0.1,0.9-0.2,2-0.2,3.3v1.7c0,0.7,0,1.2,0,1.7c0,0.3,0,0.6,0,0.9v0.9c0,0.9,0,1.9,0.1,3l0.6,6
			c0.1,1.1,0.2,2.1,0.2,3l0.1,1.7c0,0.8-0.2,1.7-0.8,2.3c-0.3,0.5-1,0.7-1.6,0.5c-0.6-0.3-1.1-0.7-1.5-1.3c-0.8-1-1.3-2.1-1.5-3.3
			c-0.3-1.3-0.4-2.5-0.4-3.8l0.1-2.2c0-0.5,0-1.3,0-2.4c0-0.8,0-1.6,0-2.6l-0.2-5.2c0-1,0-1.8,0-2.6
			C219.3,853.3,219.3,852.8,219.3,852.2z"/>
		<path class="st1" d="M230.7,864.3c0.1-0.9,0.1-1.8,0.1-2.6c0-0.6,0-1.2,0-1.9l0.2-3.4c0-0.7,0-1.3,0-1.8v-0.8c0-0.3,0-0.6,0-0.9
			c-0.1-0.8,0.1-1.5,0.3-2.2c0.2-0.7,0.6-1.4,1.3-1.8c1-0.5,2.2-0.4,3.2,0.2c1,0.6,1.8,1.3,2.5,2.3l1.1,1.4c0.4,0.5,0.8,0.9,1.2,1.3
			l2.6,2.2c0.9,0.8,1.7,1.5,2.4,2.2c0.4,0.5,0.9,0.9,1.4,1.3l4.1,3.7c0.4,0.5,0.9,0.9,1.5,1.2c0-0.4,0-0.9,0-1.5v-3c0-0.6,0-1,0-1.4
			l-0.3-8.8c0-0.9,0.2-1.9,0.8-2.6c0.3-0.5,0.8-0.8,1.3-1.1c0.5-0.3,1.1-0.1,1.4,0.3c0.8,1,1.2,2.1,1.2,3.3l0.5,4
			c0.2,1.3,0.3,2.7,0.3,4v2.1c0,0.8,0,1.5,0,2.1c0.1,1.5,0.2,2.8,0.3,4c0,0.3,0,0.7,0,1.2v2.7v1.2l0.1,2.4c0,0.5,0,0.9-0.1,1.3
			c-0.1,0.5-0.3,1.1-0.6,1.6c-0.2,0.5-0.6,1-1.1,1.2c-1.1,0.4-2.1-0.1-2.9-1.5l-0.9-1.5c-0.3-0.7-0.6-1.2-0.8-1.5
			c-0.2-0.4-0.4-0.8-0.8-1.2l-0.9-1.2c-0.8-1-1.6-1.9-2.5-2.8l-3.5-3.4l-0.3-0.3l-1.5-1.5c-0.9-0.8-1.8-1.6-2.8-2.3l-0.6-0.5
			l-0.8-0.6c-0.7-0.5-1.2-0.9-1.5-1.1l-0.7,5.3c-0.1,1.1-0.2,2.5-0.4,4l-0.6,5.4c0,0.2,0,0.4,0,0.6v0.6c0,0.4-0.1,0.8-0.1,1.3
			l-0.1,0.8c-0.1,0.3-0.1,0.6-0.3,0.9c-0.4,0.9-1.3,1.4-2.2,1.3c-0.8,0-1.5-0.4-1.9-1c-0.5-0.9-0.6-1.9-0.4-2.9l0.4-3.7
			c0.2-1.5,0.3-2.8,0.4-3.7C230.5,865.9,230.6,865,230.7,864.3z M241.9,838.1c0.4,0.1,0.9,0.4,1.2,0.7l1,1c0.3,0.4,0.6,0.7,1,1
			c0.4,0.3,0.9,0.4,1.4,0.5c1,0.2,2-0.2,2.7-0.9c0.3-0.3,0.5-0.6,0.6-1c0-0.1,0-0.2,0-0.3c0-0.1,0-0.2-0.1-0.3l-0.1-0.3
			c0-0.1,0-0.2,0-0.3c0.1-0.4,0.5-0.7,0.9-0.7c0.4-0.1,0.9-0.1,1.3,0c0.9,0.2,1.5,0.8,1.7,1.7c0.2,1,0,2-0.6,2.8
			c-0.5,0.9-1.2,1.6-2,2.2c-1.3,0.8-2.8,1.2-4.4,1.2c-0.8,0-1.6-0.1-2.4-0.4c-0.9-0.3-1.7-0.8-2.4-1.5c-0.5-0.6-1.4-1-2.2-0.8
			c-0.8,0.2-1.3,0.8-1.4,1.9c0,0.4-0.3,0.8-0.6,0.9c-0.5,0.2-1,0.2-1.5,0.1c-0.9-0.2-1.6-1.1-1.5-2c0-0.4,0.1-0.9,0.3-1.3
			c0.8-1.6,2.1-2.8,3.7-3.5C239.5,838,240.7,837.8,241.9,838.1z"/>
		<path class="st1" d="M293.7,857.5c0.5,1.5,0.8,3,0.8,4.6c0,0.7-0.1,1.3-0.2,2c-0.2,1-0.4,1.9-0.7,2.8c-0.3,0.9-0.9,1.7-1.5,2.4
			c-0.4,0.4-0.8,0.8-1.3,1.1l-2.6,1.8c-0.1,0.1-0.2,0.1-0.2,0.2c-0.2,0.1-0.3,0.2-0.5,0.3c-0.6,0.5-1.3,0.9-2,1.3
			c-3.1,1.8-6.6,2.9-10.1,3.1c-1.3-0.1-2.6-0.3-3.8-0.7c-1.3-0.3-2.5-0.8-3.6-1.5c-3.8-2.6-6.1-6.9-6-11.5c0-1.7,0.4-3.4,1.1-4.9
			l1.1-2.2c0.4-0.7,0.8-1.4,1.4-2c0.5-0.6,1.1-1.1,1.8-1.6c0.6-0.4,1.2-0.8,2-1.3c2.2-1.3,4.7-2.1,7.3-2.4l1.1-0.1
			c0.1,0,0.3,0,0.4,0c0.5,0,1,0,1.5,0l3.8,0.5c1.2,0,2.3,0.2,3.5,0.4c0.8,0.2,1.6,0.4,2.4,0.8c0.8,0.3,1.5,0.8,2,1.4
			c0.6,0.9,1.2,1.8,1.5,2.8c0.2,0.4,0.4,0.9,0.6,1.5c0.1,0.1,0.1,0.2,0.1,0.4L293.7,857.5z M287.1,866.3c1.2-1,1.9-2.6,1.8-4.1
			c0-1-0.2-1.9-0.5-2.8l-0.4-0.9c-0.1-0.3-0.2-0.6-0.4-0.9c-0.3-0.6-0.6-1.2-1.1-1.7c-0.5-0.4-1-0.7-1.6-0.8l-1.8-0.4
			c-0.6-0.2-1.2-0.3-1.9-0.3c-0.3,0-0.7,0-1,0h-0.9c-1.3-0.1-2.5,0-3.8,0.2c-1.2,0.2-2.4,0.5-3.5,1.1c-1.1,0.5-2.1,1.4-2.8,2.4
			c-1.2,1.6-1.8,3.5-1.9,5.5c0,1.7,0.8,3.3,2,4.4c1,1.1,2.2,2.1,3.4,3c0.7,0.5,1.6,0.7,2.5,0.7c0.9,0,1.8-0.1,2.6-0.3
			c1.9-0.3,3.8-0.9,5.4-1.9c0.7-0.4,1.4-0.9,2-1.4L287.1,866.3z"/>
		<path class="st1" d="M306.2,857.3l-1,1.6c-0.5,0.8-0.8,1.7-0.7,2.6c0.8,0.6,1.8,0.9,2.8,0.8c0.5,0,1.1,0,1.6-0.1
			c1.1-0.2,2.1-0.3,3-0.3c1.2-0.1,2.3-0.1,3.4-0.1c1.5,0,2.9,0.1,4.4,0.3c1.4,0.2,2.7,0.5,4,1c2.4,0.8,4.2,2.7,4.8,5.2
			c0.3,1.8-0.2,3.6-1.4,5c-1.1,1.6-2.6,2.8-4.4,3.6c-0.9,0.4-1.9,0.8-2.8,1c-0.4,0.1-0.9,0.3-1.5,0.4l-1.5,0.4
			c-2.1,0.3-4.2,0.5-6.3,0.4c-2,0.1-3.9-0.1-5.9-0.6c-1.9-0.4-3.8-1.2-5.4-2.4c-0.8-0.4-1.4-1.3-1.4-2.2c0-0.6,0.4-1.2,1-1.4
			c0.4-0.2,0.9-0.3,1.3-0.3c0.7,0,1.4,0.2,2,0.4l1,0.3c0.3,0.1,0.7,0.1,1,0.2c0.9,0.1,1.9,0.2,3,0.2l4.8,0.1c1.1,0,2,0,2.7,0
			c0.8,0,1.6-0.1,2.4-0.3c1.3-0.2,2.5-0.6,3.6-1.2c1.6-0.7,2.3-1.5,2.3-2.1c0-0.7-0.6-1.2-1.7-1.7c-1.1-0.4-2.2-0.6-3.3-0.6
			c-0.6-0.1-1.2-0.1-1.9-0.1h-1.5c-0.9,0-1.9,0-2.8,0l-4.2,0.3c-0.2,0-0.3,0-0.5,0c-0.8,0.1-1.3,0.1-1.7,0.2c-0.2,0-0.5,0.1-0.7,0.2
			h-0.1c-0.1,0-0.1,0-0.2,0l-0.3,0.1c-0.5,0.1-1,0.2-1.5,0.1c-1.6-0.2-3.2-0.9-4.3-2.1c-0.6-0.7-0.8-1.5-0.7-2.4
			c0-0.7,0.1-1.3,0.3-1.9c0.3-0.8,0.7-1.6,1.2-2.3l0.5-0.9c0-0.1,0.1-0.2,0.2-0.3c0.3-0.5,0.5-0.9,0.6-1.2c1.4-2.6,3-5.1,4.8-7.5
			c0.2-0.2,0.5-0.6,0.9-1c0.4-0.4,0.9-0.9,1.5-1.4c1.1-1,2.4-1.8,3.9-2.2c1-0.3,2-0.3,2.9,0c0.9,0.7,1.5,1.6,1.8,2.7l0.8,2.6
			c0.2,0.7,0.5,1.7,0.7,2.7c0.2,0.7,0.2,1.4,0.2,2.1c0.2,1.1-0.5,2.1-1.6,2.3c-0.1,0-0.1,0-0.2,0c-1,0.1-1.9-0.7-2.8-2.4
			c-0.2-0.3-0.3-0.7-0.4-1c-0.1-0.2-0.1-0.3-0.1-0.5l-0.4-1.3c-0.1-0.3-0.2-0.6-0.3-0.8c-0.2-0.4-0.8-0.1-1.9,0.7
			c-0.8,0.7-1.6,1.4-2.2,2.3C307.5,855.1,306.9,856.1,306.2,857.3z"/>
		<path class="st1" d="M373.7,853c-0.6,1.2-1.4,2.4-2.2,3.5l-2.9,3.6c-0.6,0.7-1.1,1.4-1.5,1.9c-0.5,0.7-1,1.3-1.4,1.9
			c-1,1.5-2.1,3-3.3,4.6l-4.8,6.7l-0.6,0.7c-0.2,0.3-0.5,0.6-0.8,0.8c-0.5,0.5-1.1,0.9-1.8,0.9c-0.5,0-0.9-0.2-1.2-0.6
			c-0.3-0.4-0.5-0.8-0.4-1.3c0-0.4,0.1-0.9,0.2-1.3l0.3-1.2c0.2-0.6,0.6-1.3,0.9-1.9c0.1-0.2,0.2-0.3,0.3-0.5l0.8-1.3
			c0.6-0.9,1.3-2,2-3.1l2.2-3c-1.7-1-3.4-2.2-4.9-3.5c-2.3-2-4.4-4.3-6-6.8l-0.5-0.8c-0.2-0.2-0.4-0.5-0.5-0.7
			c-0.3-0.5-0.5-1.1-0.5-1.7c0-1.6,0.6-2.3,1.7-2.4c0.6,0,1.1,0.2,1.6,0.6l0.6,0.6c0.1,0.1,0.2,0.2,0.3,0.3l2.8,3.1
			c0.8,0.9,1.8,1.8,2.8,2.7c0.8,0.7,1.9,1.5,3.1,2.5c0.3,0.2,0.7,0.6,1.3,1l1.3,1l4.1-5.2c0.7-0.9,1.4-1.8,2-2.6l2.4-3.3l0.6-0.7
			c0.4-0.4,1-0.7,1.5-0.7c1.3,0,1.9,0.8,1.7,2.4C374.7,850.5,374.3,851.8,373.7,853z"/>
		<path class="st1" d="M396.4,864.3c0.1-0.9,0.1-1.8,0.1-2.6c0-0.6,0-1.2,0-1.9l0.2-3.4c0-0.7,0-1.3,0-1.8v-0.8c0-0.3,0-0.6,0-0.9
			c-0.1-0.8,0.1-1.5,0.3-2.2c0.2-0.7,0.6-1.4,1.3-1.8c1-0.5,2.2-0.4,3.2,0.2c1,0.6,1.8,1.3,2.5,2.3l1.1,1.4c0.4,0.4,0.7,0.9,1.2,1.3
			l2.6,2.2c0.9,0.8,1.7,1.5,2.4,2.2c0.4,0.5,0.9,0.9,1.4,1.3l4.1,3.7c0.4,0.5,0.9,0.9,1.5,1.2c0-0.4,0-0.9,0-1.5v-3c0-0.6,0-1,0-1.4
			l-0.3-8.8c0-0.9,0.2-1.9,0.8-2.6c0.3-0.5,0.8-0.8,1.3-1.1c0.5-0.3,1.1-0.1,1.4,0.3c0.8,1,1.2,2.1,1.2,3.3l0.5,4
			c0.2,1.3,0.3,2.7,0.3,4v2.1c0,0.8,0,1.5,0,2.1c0.1,1.5,0.2,2.8,0.3,4c0,0.3,0,0.7,0,1.2v2.7v1.2l0.1,2.4c0,0.5,0,0.9-0.1,1.3
			c-0.1,0.5-0.3,1.1-0.6,1.6c-0.2,0.5-0.6,1-1.1,1.2c-1.1,0.4-2.1-0.1-2.9-1.5l-0.9-1.5c-0.3-0.7-0.6-1.2-0.8-1.5
			c-0.2-0.4-0.4-0.8-0.8-1.2l-0.9-1.2c-0.8-1-1.6-1.9-2.5-2.8l-3.5-3.4l-0.3-0.3l-1.5-1.5c-0.9-0.8-1.8-1.6-2.8-2.3l-0.6-0.5
			l-0.8-0.6c-0.7-0.5-1.2-0.9-1.5-1.1l-0.7,5.3c-0.1,1.1-0.2,2.5-0.4,4l-0.6,5.4c0,0.2,0,0.4,0,0.6v0.6c0,0.4-0.1,0.8-0.1,1.3
			L400,876c-0.1,0.3-0.1,0.6-0.3,0.9c-0.4,0.9-1.3,1.4-2.2,1.3c-0.8,0-1.5-0.4-1.9-1c-0.5-0.9-0.6-1.9-0.4-2.9l0.4-3.7
			c0.2-1.5,0.3-2.8,0.4-3.7C396.2,865.9,396.3,865,396.4,864.3z"/>
		<path class="st1" d="M428.8,852.2c0.1-0.8,0.2-1.5,0.5-2.3c0.5-2,1.2-3,2.1-3c0.5,0,0.9,0.2,1.3,0.6c0.6,0.6,1,1.4,1.2,2.3
			c0.2,0.8,0.2,1.7,0.1,2.6c-0.1,0.9-0.2,2-0.2,3.3v1.7c0,0.7,0,1.2,0,1.7c0,0.3,0,0.6,0,0.9v0.9c0,0.9,0,1.9,0.1,3l0.6,6
			c0.1,1.1,0.2,2.1,0.2,3l0.1,1.7c0,0.8-0.2,1.7-0.8,2.3c-0.3,0.5-1,0.7-1.6,0.5c-0.6-0.3-1.1-0.7-1.5-1.3c-0.8-1-1.3-2.1-1.5-3.3
			c-0.3-1.3-0.4-2.5-0.4-3.8l0.1-2.2c0-0.5,0-1.3,0-2.4c0-0.8,0-1.6,0-2.6l-0.2-5.2c0-1,0-1.8,0-2.6
			C428.8,853.3,428.7,852.8,428.8,852.2z"/>
		<path class="st1" d="M440.2,864.3c0.1-0.9,0.1-1.8,0.1-2.6c0-0.6,0-1.2,0-1.9l0.2-3.4c0-0.7,0-1.3,0-1.8v-0.8c0-0.3,0-0.6,0-0.9
			c-0.1-0.8,0.1-1.5,0.3-2.2c0.2-0.7,0.6-1.4,1.3-1.8c1-0.5,2.2-0.4,3.2,0.2c1,0.6,1.8,1.3,2.5,2.3l1.1,1.4c0.4,0.5,0.8,0.9,1.2,1.3
			l2.6,2.2c0.9,0.8,1.7,1.5,2.4,2.2c0.4,0.5,0.9,0.9,1.4,1.3l4.1,3.7c0.4,0.5,0.9,0.9,1.5,1.2c0-0.4,0-0.9,0-1.5v-3c0-0.6,0-1,0-1.4
			l-0.3-8.8c0-0.9,0.2-1.9,0.8-2.6c0.3-0.5,0.8-0.8,1.3-1.1c0.5-0.3,1.1-0.1,1.4,0.3c0.8,1,1.2,2.1,1.2,3.3l0.5,4
			c0.2,1.3,0.3,2.7,0.3,4v2.1c0,0.8,0,1.5,0,2.1c0.1,1.5,0.2,2.8,0.3,4c0,0.3,0,0.7,0,1.2v2.7v1.2l0.1,2.4c0,0.5,0,0.9-0.1,1.3
			c-0.1,0.5-0.3,1.1-0.6,1.6c-0.2,0.5-0.6,1-1.1,1.2c-1.1,0.4-2.1-0.1-2.9-1.5l-0.9-1.5c-0.3-0.7-0.6-1.2-0.8-1.5
			c-0.2-0.4-0.4-0.8-0.7-1.2l-0.9-1.2c-0.8-1-1.6-1.9-2.5-2.8l-3.5-3.4l-0.3-0.3l-1.5-1.5c-0.9-0.8-1.8-1.6-2.8-2.3l-0.6-0.5
			l-0.7-0.6c-0.7-0.5-1.2-0.9-1.5-1.1l-0.7,5.3c-0.1,1.1-0.2,2.5-0.4,4l-0.6,5.4c0,0.2,0,0.4,0,0.6v0.6c0,0.4-0.1,0.8-0.1,1.3
			l-0.1,0.8c-0.1,0.3-0.1,0.6-0.3,0.9c-0.4,0.9-1.3,1.4-2.2,1.3c-0.8,0-1.5-0.4-1.9-1c-0.5-0.9-0.6-1.9-0.4-2.9l0.4-3.7
			c0.2-1.5,0.3-2.8,0.4-3.7C440.1,865.9,440.2,865,440.2,864.3z M451.4,838.1c0.4,0.1,0.9,0.4,1.2,0.7l1,1c0.3,0.4,0.6,0.7,1,1
			c0.4,0.3,0.9,0.4,1.4,0.5c1,0.2,2-0.2,2.7-0.9c0.3-0.3,0.5-0.6,0.6-1c0-0.1,0-0.2,0-0.3c0-0.1,0-0.2-0.1-0.3l-0.1-0.3
			c0-0.1,0-0.2,0-0.3c0.1-0.4,0.5-0.7,0.9-0.7c0.4-0.1,0.9-0.1,1.3,0c0.9,0.2,1.5,0.8,1.7,1.7c0.2,1,0,2-0.6,2.8
			c-0.5,0.9-1.2,1.6-2,2.2c-1.3,0.8-2.8,1.2-4.4,1.2c-0.8,0-1.6-0.1-2.4-0.4c-0.9-0.3-1.7-0.8-2.4-1.5c-0.6-0.6-1.4-1-2.2-0.8
			c-0.8,0.2-1.3,0.8-1.4,1.9c0,0.4-0.2,0.8-0.6,0.9c-0.5,0.2-1,0.2-1.5,0.1c-0.9-0.2-1.6-1.1-1.5-2c0-0.4,0.1-0.9,0.3-1.3
			c0.8-1.6,2.1-2.8,3.7-3.5C449,838,450.2,837.8,451.4,838.1z"/>
		<path class="st1" d="M499.9,876.7c-0.7-0.1-1.3-0.5-1.6-1.2l-0.3-0.4c-0.1-0.1-0.1-0.3-0.2-0.5l-0.1-0.2c0-0.1-0.1-0.2-0.1-0.2
			l-0.2-0.4c-0.5-0.8-1-1.7-1.4-2.6c-0.1-0.1-0.1-0.2-0.2-0.3l-0.5-1l-0.7-1.3c-1.2,0.5-2.5,1-3.7,1.3c-1.3,0.3-2.6,0.7-4.1,0.9
			c-1.9,0.4-3.9,0.7-5.9,0.7H479c-0.7,0-1.2,0-1.7,0c-0.7,1.2-1.2,2.3-1.7,3.4c-0.5,1.1-0.8,1.8-0.9,2.3c-0.2,0.7-0.7,1.3-1.4,1.7
			c-0.7,0.3-1.4,0.1-1.9-0.5c-0.3-0.4-0.5-0.8-0.5-1.3c0-0.5,0-1,0-1.4c0.1-1.1,0.3-2.1,0.6-3.1c0.2-0.5,0.3-1,0.6-1.5l0.6-1.4
			c0.4-0.9,0.9-2,1.6-3.3l0.9-1.6c0.3-0.6,0.6-1.2,0.8-1.6c0.4-0.9,0.9-1.8,1.5-2.7l0.8-1.3c0.3-0.4,0.6-0.9,0.8-1.3
			c1.5-2.5,3.2-5.2,5.1-8c0.4-0.7,0.9-1.3,1.5-1.9c0.6-0.5,1.4-0.8,2.2-0.7c0.8,0.1,1.6,0.6,2.1,1.3c0.3,0.3,0.5,0.7,0.7,1.1
			l2.6,4.8c0.6,1.2,1.2,2.5,1.7,3.8c0.2,0.5,0.4,1,0.7,1.4l0.8,1.4c0.6,1.1,1,1.9,1.3,2.5c0.7,1.3,1.3,2.7,2,4.4
			c0.4,1.2,0.9,2.4,1.4,3.6c0.4,0.8,0.6,1.6,0.6,2.4C502.2,875.8,501.5,876.8,499.9,876.7z M490,865c0.9-0.2,1.7-0.5,2.5-0.8
			l-0.8-1.6c-0.6-1.3-1.3-2.5-2-3.8c-0.7-1.1-1.5-2.3-2.4-3.7c-0.8,0.7-1.5,1.6-2.1,2.5l-1.8,2.8c-1.2,2-2.3,3.9-3.3,5.8
			c0.7,0,1.4,0,2.1-0.1c0.3-0.1,0.8-0.1,1.3-0.2l1.3-0.1c1.1-0.1,1.9-0.2,2.6-0.4C488.2,865.4,489.1,865.2,490,865z"/>
		<path class="st1" d="M513.1,857.3l-1,1.6c-0.5,0.8-0.8,1.7-0.8,2.6c0.8,0.6,1.8,0.9,2.8,0.8c0.5,0,1.1,0,1.6-0.1
			c1.1-0.2,2.1-0.3,3-0.3c1.2-0.1,2.3-0.1,3.3-0.1c1.5,0,2.9,0.1,4.4,0.3c1.4,0.2,2.7,0.5,4,1c2.4,0.8,4.2,2.7,4.8,5.2
			c0.3,1.8-0.2,3.6-1.4,5c-1.1,1.6-2.6,2.8-4.4,3.6c-0.9,0.4-1.9,0.7-2.8,1c-0.4,0.1-0.9,0.3-1.5,0.4l-1.5,0.4
			c-2.1,0.3-4.2,0.5-6.3,0.4c-2,0.1-3.9-0.1-5.9-0.6c-1.9-0.4-3.8-1.2-5.4-2.4c-0.8-0.4-1.4-1.3-1.4-2.2c0-0.6,0.4-1.2,1-1.4
			c0.4-0.2,0.9-0.3,1.3-0.3c0.7,0,1.4,0.2,2,0.4l1,0.3c0.3,0.1,0.7,0.1,1,0.2c0.9,0.1,1.9,0.2,3,0.2l4.8,0.1c1.1,0,2,0,2.7,0
			c0.8,0,1.6-0.1,2.4-0.3c1.3-0.2,2.5-0.6,3.6-1.2c1.6-0.7,2.3-1.5,2.3-2.1c0-0.7-0.6-1.2-1.7-1.7c-1.1-0.4-2.2-0.5-3.3-0.6
			c-0.6-0.1-1.2-0.1-1.9-0.1h-1.5c-0.9,0-1.9,0-2.8,0l-4.2,0.3c-0.2,0-0.3,0-0.5,0c-0.8,0.1-1.3,0.1-1.7,0.2c-0.2,0-0.5,0.1-0.7,0.2
			h-0.1c-0.1,0-0.1,0-0.2,0l-0.3,0.1c-0.5,0.1-1,0.2-1.5,0.1c-1.6-0.2-3.2-0.9-4.3-2.1c-0.6-0.7-0.8-1.5-0.7-2.4
			c0-0.7,0.1-1.3,0.3-1.9c0.3-0.8,0.7-1.6,1.2-2.3l0.5-0.9c0-0.1,0.1-0.2,0.2-0.3c0.3-0.5,0.5-0.8,0.6-1.2c1.4-2.6,3-5.1,4.8-7.5
			c0.2-0.2,0.5-0.6,0.9-1c0.4-0.4,0.9-0.9,1.5-1.4c1.1-1,2.4-1.8,3.9-2.2c1-0.3,2-0.3,2.9,0c0.9,0.7,1.5,1.6,1.8,2.7l0.8,2.6
			c0.2,0.7,0.5,1.7,0.7,2.7c0.2,0.7,0.2,1.4,0.2,2.1c0.2,1.1-0.5,2.1-1.6,2.3c-0.1,0-0.1,0-0.2,0c-1,0.1-1.9-0.7-2.8-2.4
			c-0.2-0.3-0.3-0.7-0.4-1c-0.1-0.2-0.1-0.3-0.1-0.5l-0.4-1.3c-0.1-0.3-0.2-0.6-0.3-0.8c-0.2-0.4-0.8-0.1-1.9,0.7
			c-0.8,0.7-1.6,1.4-2.2,2.3C514.4,855.1,513.8,856.1,513.1,857.3z"/>
		<path class="st1" d="M192.3,910.8c0,0.7-0.1,1.3-0.1,2l-0.3,2.1c-0.3,2-1.1,3.9-2.3,5.5c-1.1,1.7-2.5,3.2-4,4.5
			c-0.8,0.7-1.8,1.5-3.1,2.4c-0.9,0.7-2,1.4-3.3,2.2c-2.7,1.7-5.8,2.9-8.9,3.5c-1.2,0.3-2.4,0.4-3.6,0.5c-0.6,0-1.3-0.1-1.9-0.2
			c-0.7-0.2-1.3-0.8-1.5-1.5c-0.2-0.8-0.4-1.6-0.3-2.4v-1.6c0-0.6,0-1.1,0-1.3c-0.1-1.2-0.1-2.1-0.1-2.7l0.1-5.1
			c0-1.6-0.1-3.2-0.3-4.8c-0.2-1-0.4-1.9-0.8-2.8l-0.5-1.3l-0.4-1.3c-0.2-0.9,0-1.9,0.6-2.6c0.7-0.6,1.6-1.1,2.5-1.3
			c2.5-0.6,5-1,7.5-1.2c2.9-0.3,5.4-0.4,7.7-0.4h1.5c0.6,0,1.1,0,1.5,0c1.2,0,2.3,0.1,3.3,0.2c1.9,0.2,3.7,1.2,4.9,2.7
			C191.7,907.2,192.3,909,192.3,910.8z M186.8,911.7c0-0.4-0.1-0.9-0.2-1.3c-0.4-1.1-1.4-1.8-3.1-2.1c-0.7-0.1-1.5-0.2-2.2-0.1
			l-4-0.1c-1.1,0-2.1,0-3.1,0c-0.9,0-1.7,0.1-2.6,0.2l-2.5,0.3c-0.2,0-0.3,0-0.5,0.1l-1.5,0.3c0.3,1,0.5,1.7,0.6,2.3l0.2,1.1
			c0,0.3,0,0.7,0,1.2v1.3c0,0.7,0,1.5,0,2.4v4.1c0,0.6,0,1.1,0,1.7c0,0.5,0,0.9,0,1.4v1.4c0,0.5,0,1,0.1,1.5c0.4,0,0.9,0,1.3-0.1
			l1-0.2c0.1,0,0.2,0,0.3,0c1.4-0.3,2.8-0.7,4.1-1.3c1.4-0.7,2.8-1.5,4.1-2.5c2.4-1.6,4.4-3.6,6.1-5.9c0.7-1.1,1.2-2.3,1.5-3.5
			C186.7,913.2,186.8,912.4,186.8,911.7L186.8,911.7z"/>
		<path class="st1" d="M217.9,931.7c-1.2,0.2-2.6,0.5-4.2,0.7l-4.3,0.6c-1.7,0.2-3.1,0.4-4.3,0.7c-1.5,0.3-3.1,0.4-4.6,0.3
			c-1,0-2-0.4-2.6-1.2c-0.6-0.9-1-1.9-1.2-2.9c-0.1-0.4-0.2-0.9-0.3-1.5l-0.2-1.6c-0.2-1.6-0.4-3.2-0.4-4.8c0-1.5,0-3.1,0.1-4.8
			l0.3-7.1l0.2-1.6c0-0.2,0-0.4,0-0.6c0-1.2,0.4-2.3,1.1-3.3c0.4-0.4,0.9-0.6,1.4-0.7l1.7-0.1c1.8-0.2,3.5-0.3,5.4-0.4
			c2.5-0.1,5-0.1,7.5,0c0.3,0,0.7,0,1,0h2c0.3,0,0.7,0,1,0l1.6,0.1c0.5,0,1.1,0.1,1.6,0.3c0.5,0.2,0.9,0.4,1.3,0.8
			c0.4,0.3,0.4,0.9,0.2,1.3l-0.8,1.2c-0.2,0.4-0.6,0.7-1,0.8c-0.8,0.2-1.7,0.2-2.6,0.2h-1.3c-0.4,0-0.8,0-1.3,0l-4.8,0.2
			c-1.6,0.1-3.1,0.3-4.7,0.5l-1.3,0.2c-0.4,0-0.8,0.1-1.3,0.2c-0.8,0.2-1.5,0.8-1.7,1.6c-0.2,0.9-0.3,1.7-0.4,2.6c0,0.6,0,1.4,0,2.6
			h0.5c0.2,0,0.3,0,0.5,0c1.3-0.2,2.5-0.4,3.5-0.5l6.8-0.6c0.9-0.1,1.7,0,2.6,0.1c0.9,0.1,1.7,0.4,2.4,0.9c0.7,0.6,0.7,1.3-0.2,2
			c-0.4,0.3-0.8,0.5-1.2,0.7c-0.3,0.2-0.7,0.3-1,0.4c-0.5,0.1-1,0.2-1.5,0.3l-1.1,0.1c-0.1,0-0.2,0-0.4,0l-6.6,0.9
			c-0.7,0.1-1.4,0.3-2.2,0.5c-0.6,0.2-1.3,0.4-2.1,0.7v5.7c0,0.2,0.1,0.4,0.1,0.7c0,0.2,0.1,0.4,0.3,0.5c0.5,0.3,1,0.4,1.5,0.3
			l8.8-1.1l0.7-0.1c0.1,0,0.2,0,0.2,0c0.7-0.1,1.3-0.2,2-0.2l5-0.3l0.6-0.1c0.6-0.1,1.2,0,1.9,0.1c1.1,0.2,1.6,0.8,1.4,1.8
			c-0.2,0.9-0.8,1.6-1.6,1.8C220.8,931,219.4,931.4,217.9,931.7z"/>
		<path class="st1" d="M266.2,932.2c-0.2,0.1-0.4,0.1-0.6,0.2h-0.3c-0.1,0-0.2,0-0.4,0l-4.2,0.7c-1,0.2-2.1,0.4-3.3,0.5
			c-1,0.1-2,0.2-3.3,0.4l-6.6,0.6c-1,0.1-2,0-2.9-0.3c-1.2-0.4-1.9-1.1-1.9-2c0-0.6,0.4-1.1,0.9-1.3c0.3-0.1,0.5-0.3,0.8-0.4
			l0.7-0.3c0.6-0.2,1.3-0.4,2-0.5c0.5-0.1,1.2-0.2,2-0.3c0.6-0.1,1.4-0.2,2.3-0.3l2.4-0.4c0.1-0.7,0.1-1.3,0-2c0-0.6,0-1.3,0-2
			l0.1-4.1c0-0.8,0-1.4,0-2c0-0.7,0-1.5,0.1-2.3c0-0.6,0.1-1.4,0.2-2.2l0.5-4.5c-0.4,0.4-0.9,0.7-1.4,1l-0.4,0.2l-4.2,2.7
			c-0.9,0.6-1.9,0.9-3,1c-1.1,0-1.6-0.6-1.4-1.9c0.2-1.1,0.8-2.2,1.6-2.9c0.4-0.4,0.9-0.8,1.4-1.1l1.4-1c0.7-0.5,1.6-1.2,2.7-2.1
			l1-0.8c0.1-0.1,0.2-0.2,0.3-0.3l1.4-1.1c0.6-0.4,1.2-0.8,1.9-1.2c0.6-0.3,1.4-0.5,2.1-0.6c0.5,0,0.9,0.1,1.4,0.3
			c0.8,0.4,1.2,1.1,1,2.3c-0.1,0.7-0.2,1.4-0.2,2.2l-0.2,2.2c-0.1,0.8-0.2,1.6-0.2,2.6l-0.1,2.6c0,0.5-0.1,1.1-0.2,1.9v0.4
			c0,0.1,0,0.3,0,0.4l-0.3,4.4v3.4c0,0.5,0,1.2-0.1,2v1c0,0.4,0,0.7,0,1h1.4l2.9-0.1h2.1c0.2,0,0.4,0,0.6,0c0.4,0.1,0.8,0.4,1,0.7
			c0.6,0.7,0.7,1.6,0.3,2.5C267.2,931.8,266.7,932.1,266.2,932.2z"/>
		<path class="st1" d="M300.8,914.8c-0.1,2.8-0.8,5.4-2.2,7.8c-0.9,1.6-1.9,3.1-3.2,4.5c-1.2,1.4-2.7,2.5-4.3,3.4
			c-1.6,0.7-3.4,1.2-5.2,1.3c-1.9,0.3-3.9,0.5-5.8,0.5c-0.7,0-1.2,0-1.5,0c-3.1-0.4-5.9-1.9-7.9-4.2c-2.2-2.2-3.4-5.2-3.4-8.3
			c0-0.6,0-1.1,0.1-1.7c0.9-5.3,3.5-9.2,7.9-11.6c3.4-1.8,7.9-2.7,13.6-2.7c2.8,0,4.8,0.4,5.9,1.2
			C298.9,907.4,300.8,910.7,300.8,914.8z M294.9,916.7c0-0.7-0.1-1.4-0.3-2.1c-0.1-0.4-0.2-0.7-0.3-1.1c-0.1-0.3-0.2-0.7-0.3-1.1
			c-0.4-1.3-1.5-2.3-2.8-2.7c-0.3-0.1-0.6-0.2-1-0.3l-1-0.1c-1.2,0-2.4,0-3.6,0.1c-1.2,0-2.4,0.2-3.5,0.4c-0.4,0.1-0.8,0.2-1.1,0.4
			l-1.1,0.4c-0.7,0.2-1.4,0.5-2.1,0.8c-0.7,0.3-1.3,0.7-1.9,1.2c-2,1.7-3.1,4.4-2.6,7c0.2,1.4,0.6,2.7,1.2,4
			c0.5,1.2,1.5,2.1,2.7,2.6c1.4,0.4,2.8,0.7,4.2,0.6c2.2,0,4.4-0.3,6.5-1.1c0.8-0.3,1.6-0.7,2.4-1.1c0.8-0.4,1.4-1,2-1.6
			c0.8-1.2,1.5-2.4,2.1-3.7C294.7,918.5,294.9,917.6,294.9,916.7L294.9,916.7z"/>
		<path class="st1" d="M349.6,932.5c-0.7-0.1-1.3-0.5-1.6-1.2l-0.3-0.4c-0.1-0.1-0.1-0.3-0.2-0.5l-0.1-0.2c0-0.1-0.1-0.2-0.1-0.2
			l-0.2-0.4c-0.5-0.8-1-1.7-1.4-2.6c-0.1-0.1-0.1-0.2-0.2-0.3l-0.5-1l-0.7-1.3c-1.2,0.5-2.5,1-3.7,1.3c-1.3,0.3-2.6,0.7-4.1,0.9
			c-1.9,0.4-3.9,0.7-5.9,0.7h-1.7c-0.7,0-1.3,0-1.7,0c-0.7,1.2-1.2,2.3-1.7,3.4s-0.8,1.8-0.9,2.3c-0.2,0.7-0.7,1.4-1.4,1.7
			c-0.7,0.3-1.4,0.1-1.9-0.5c-0.3-0.4-0.5-0.8-0.5-1.3c0-0.5,0-1,0-1.4c0.1-1.1,0.3-2.1,0.6-3.1c0.2-0.5,0.3-1,0.6-1.5l0.6-1.4
			c0.4-0.9,0.9-2,1.6-3.3l0.9-1.6c0.3-0.6,0.6-1.2,0.8-1.6c0.4-0.9,0.9-1.8,1.5-2.7l0.8-1.3c0.3-0.4,0.6-0.9,0.8-1.3
			c1.5-2.5,3.2-5.2,5.1-8c0.4-0.7,0.9-1.3,1.5-1.9c0.6-0.5,1.4-0.8,2.2-0.7c0.8,0.1,1.6,0.6,2.1,1.3c0.3,0.3,0.5,0.7,0.7,1.1
			l2.6,4.8c0.7,1.2,1.2,2.5,1.7,3.8c0.2,0.5,0.4,1,0.7,1.4l0.8,1.4c0.6,1.1,1,1.9,1.3,2.5c0.7,1.3,1.3,2.7,2,4.4
			c0.4,1.2,0.9,2.4,1.4,3.6c0.4,0.8,0.6,1.6,0.6,2.4C352,931.6,351.3,932.6,349.6,932.5z M339.7,920.8c0.9-0.2,1.7-0.5,2.5-0.8
			l-0.8-1.6c-0.6-1.3-1.3-2.5-2-3.8c-0.7-1.1-1.5-2.3-2.4-3.7c-0.8,0.7-1.5,1.6-2.1,2.5l-1.8,2.8c-1.2,2-2.3,3.9-3.3,5.8
			c0.7,0,1.4,0,2.1-0.1c0.3-0.1,0.8-0.1,1.3-0.2l1.3-0.1c1.1-0.1,1.9-0.2,2.6-0.4C338,921.2,338.9,921,339.7,920.8z"/>
		<path class="st1" d="M394.1,932.2c-0.2,0.1-0.4,0.1-0.6,0.2h-0.3c-0.1,0-0.2,0-0.4,0l-4.2,0.7c-1,0.2-2.1,0.4-3.3,0.5
			c-1,0.1-2,0.2-3.3,0.4l-6.6,0.6c-1,0.1-2,0-2.9-0.3c-1.2-0.4-1.9-1.1-1.9-2c0-0.6,0.4-1.1,0.9-1.3c0.3-0.1,0.5-0.3,0.8-0.4
			l0.7-0.3c0.6-0.2,1.3-0.4,2-0.5c0.5-0.1,1.2-0.2,2-0.3c0.6-0.1,1.4-0.2,2.3-0.3l2.4-0.4c0.1-0.7,0.1-1.3,0-2c0-0.6,0-1.3,0-2
			l0.1-4.1c0-0.8,0-1.4,0-2c0-0.7,0-1.5,0.1-2.3c0-0.6,0.1-1.4,0.2-2.2l0.5-4.5c-0.4,0.4-0.9,0.7-1.4,1l-0.4,0.2l-4.2,2.7
			c-0.9,0.6-1.9,0.9-3,1c-1.1,0-1.6-0.6-1.4-1.9c0.2-1.1,0.8-2.2,1.6-2.9c0.4-0.4,0.9-0.8,1.4-1.1l1.4-1c0.7-0.5,1.6-1.2,2.7-2.1
			l1-0.8c0.1-0.1,0.2-0.2,0.3-0.3l1.4-1.1c0.6-0.5,1.2-0.8,1.9-1.2c0.6-0.3,1.4-0.5,2.1-0.6c0.5,0,0.9,0.1,1.4,0.3
			c0.8,0.4,1.2,1.1,1,2.3c-0.1,0.7-0.2,1.4-0.2,2.2l-0.2,2.2c-0.1,0.8-0.2,1.6-0.2,2.6l-0.1,2.6c0,0.5-0.1,1.1-0.2,1.9v0.4
			c0,0.1,0,0.3,0,0.4l-0.3,4.4v3.4c0,0.5,0,1.2-0.1,2v1c0,0.4,0,0.7,0,1h1.4l2.9-0.1h2.1c0.2,0,0.4,0,0.6,0c0.4,0.1,0.8,0.4,1,0.7
			c0.6,0.7,0.7,1.6,0.3,2.5C395.1,931.8,394.7,932.1,394.1,932.2z"/>
		<path class="st1" d="M421.2,922.4c-0.3,0.1-0.6,0.2-0.8,0.2l-0.8,0.2l0.2,2.7c0.1,0.7,0.1,1.2,0.1,1.7c0,1-0.1,2-0.5,3l-0.6,2
			c-0.3,0.6-0.8,1.1-1.4,1.3c-0.6,0.2-1.1-0.2-1.7-1c-0.4-0.6-0.7-1.3-0.8-2c-0.1-0.7-0.1-1.3-0.1-2l0.1-2c0-0.6,0-1.4-0.1-2.6
			c-1.5,0.3-3,0.5-4.6,0.7c-1.5,0.2-3.1,0.3-4.6,0.3h-4.1c-1.1,0-2.1-0.2-3.1-0.5l-1.4-0.3c-0.4-0.1-0.9-0.3-1.2-0.7
			c-0.6-0.7-0.9-1.6-0.7-2.5c0.1-0.5,0.1-1.1,0.2-1.7l0.6-4.9c0-0.4,0.1-0.7,0.1-1.1c0.2-1.5,0.5-2.9,0.9-4.3l0.4-1.3
			c0.2-0.5,0.3-0.9,0.6-1.4c0.4-0.9,1-1.6,1.7-2.1c0.4-0.3,1-0.4,1.5-0.4c1.6,0,2.3,0.6,2,1.9c-0.2,0.9-0.5,2-0.8,3.3l-1.3,5.2
			l-0.5,3.1v0.7c0,0.2,0,0.4,0.1,0.5c0.2,0.4,0.5,0.6,0.9,0.7l1.2,0.1c1.5,0.2,2.9,0.2,4.4,0.2c1,0,2.1-0.1,3.1-0.2
			c0.8-0.1,1.8-0.3,3.1-0.5l0.5-0.1c0.2-0.1,0.3-0.1,0.5-0.1l-0.2-3.3c-0.1-1.2-0.2-2.3-0.3-3.3l-0.1-0.8c0-0.1,0-0.2,0-0.3
			l-0.1-0.5c0-0.2-0.1-0.3-0.1-0.5c-0.1-0.7-0.2-1.3-0.2-2c0-0.7,0-1.2,0-1.7c0-0.6,0.1-1.2,0.2-1.8c0.2-1.2,0.9-2.1,2-2.7
			c0.7-0.3,1.5,0.1,2.1,1.2c0.2,0.3,0.4,0.7,0.5,1.1l0.2,1c0,0.1,0,0.2,0,0.3c0.1,0.7,0.2,1.6,0.2,2.6c0.1,0.6,0.1,1.5,0.2,2.6
			c0.1,1.2,0.1,2,0.1,2.6c0.1,1,0.2,1.8,0.3,2.6c0,0.1,0,0.2,0,0.4l0.1,0.8c0,0.1,0,0.2,0,0.4c0.2,0,0.3,0,0.5-0.1l1.1-0.2
			c0.2-0.1,0.4-0.1,0.6-0.1c0.4,0,0.8,0,1.2,0.1c0.4,0.1,0.8,0.2,1.2,0.5c0.4,0.3,0.7,0.8,0.6,1.3c-0.1,1.1-0.7,2-1.6,2.6
			C422.3,922,421.7,922.2,421.2,922.4z"/>
		<path class="st1" d="M472.6,932.5c-0.7-0.1-1.3-0.5-1.6-1.2l-0.3-0.4c-0.1-0.1-0.1-0.3-0.2-0.5l-0.1-0.2c0-0.1-0.1-0.2-0.1-0.2
			l-0.2-0.4c-0.5-0.8-1-1.7-1.4-2.6c-0.1-0.1-0.1-0.2-0.2-0.3l-0.5-1l-0.7-1.3c-1.2,0.5-2.5,1-3.7,1.3c-1.3,0.3-2.6,0.7-4.1,0.9
			c-1.9,0.4-3.9,0.7-5.9,0.7h-1.7c-0.7,0-1.3,0-1.7,0c-0.7,1.2-1.2,2.3-1.7,3.4c-0.5,1.1-0.8,1.8-0.9,2.3c-0.2,0.7-0.7,1.4-1.4,1.7
			c-0.7,0.3-1.4,0.1-1.9-0.5c-0.3-0.4-0.5-0.8-0.5-1.3c0-0.5,0-1,0-1.4c0.1-1.1,0.3-2.1,0.6-3.1c0.2-0.5,0.3-1,0.6-1.5l0.6-1.4
			c0.4-0.9,0.9-2,1.6-3.3l0.9-1.6c0.3-0.6,0.6-1.2,0.8-1.6c0.4-0.9,0.9-1.8,1.5-2.7l0.8-1.3c0.3-0.4,0.6-0.9,0.8-1.3
			c1.5-2.5,3.2-5.2,5.1-8c0.4-0.7,0.9-1.3,1.5-1.9c0.6-0.5,1.4-0.8,2.2-0.7c0.8,0.1,1.6,0.6,2.1,1.3c0.3,0.3,0.5,0.7,0.7,1.1
			l2.6,4.8c0.7,1.2,1.2,2.5,1.7,3.8c0.2,0.5,0.4,1,0.7,1.4l0.8,1.4c0.6,1.1,1,1.9,1.3,2.5c0.7,1.3,1.3,2.7,2,4.4
			c0.4,1.2,0.9,2.4,1.4,3.6c0.4,0.8,0.6,1.6,0.6,2.4C474.9,931.6,474.2,932.6,472.6,932.5z M462.7,920.8c0.9-0.2,1.7-0.5,2.5-0.8
			l-0.8-1.6c-0.6-1.3-1.3-2.5-2-3.8c-0.7-1.1-1.5-2.3-2.4-3.7c-0.8,0.7-1.5,1.6-2.1,2.5l-1.8,2.8c-1.2,2-2.3,3.9-3.3,5.8
			c0.7,0,1.4,0,2.1-0.1c0.3-0.1,0.8-0.1,1.3-0.2l1.3-0.1c1.1-0.1,1.9-0.2,2.6-0.4C461,921.2,461.8,921,462.7,920.8z"/>
		<path class="st1" d="M478.9,920.1c0.1-0.9,0.1-1.8,0.1-2.6c0-0.6,0-1.2,0-1.9l0.2-3.4c0-0.7,0-1.3,0-1.8v-0.8c0-0.3,0-0.6,0-0.9
			c-0.1-0.8,0.1-1.5,0.3-2.2c0.2-0.7,0.6-1.4,1.3-1.8c1-0.5,2.2-0.4,3.2,0.2c1,0.6,1.8,1.3,2.5,2.3l1.1,1.4c0.4,0.4,0.7,0.9,1.2,1.3
			l2.6,2.2c0.9,0.8,1.7,1.5,2.4,2.2c0.4,0.5,0.9,0.9,1.4,1.3l4.1,3.7c0.4,0.5,0.9,0.9,1.5,1.2c0-0.4,0-0.9,0-1.5v-3c0-0.6,0-1,0-1.4
			l-0.3-8.8c0-0.9,0.2-1.9,0.8-2.6c0.3-0.5,0.8-0.8,1.3-1.1c0.5-0.3,1.1-0.1,1.4,0.3c0.8,1,1.2,2.1,1.2,3.3l0.5,4
			c0.2,1.3,0.3,2.7,0.3,4v2.1c0,0.8,0,1.5,0,2.1c0.1,1.5,0.2,2.8,0.3,4c0,0.3,0,0.7,0,1.2v2.7v1.2l0.1,2.4c0,0.5,0,0.9-0.1,1.3
			c-0.1,0.5-0.3,1.1-0.6,1.6c-0.2,0.5-0.6,1-1.1,1.2c-1.1,0.4-2.1-0.1-2.9-1.5l-0.9-1.5c-0.3-0.7-0.6-1.2-0.8-1.5
			c-0.2-0.4-0.4-0.8-0.8-1.2l-0.9-1.2c-0.8-1-1.6-1.9-2.5-2.8l-3.5-3.4l-0.3-0.3l-1.5-1.5c-0.9-0.8-1.8-1.6-2.8-2.3l-0.6-0.5
			l-0.8-0.6c-0.7-0.5-1.2-0.9-1.5-1.1l-0.7,5.3c-0.1,1.1-0.2,2.5-0.4,4l-0.6,5.4c0,0.2,0,0.4,0,0.6v0.6c0,0.4-0.1,0.8-0.1,1.3
			l-0.1,0.8c-0.1,0.3-0.1,0.6-0.3,0.9c-0.4,0.9-1.3,1.4-2.2,1.3c-0.8,0-1.5-0.4-1.9-1c-0.5-0.9-0.6-1.9-0.4-2.9l0.4-3.7
			c0.2-1.5,0.3-2.8,0.4-3.7S478.8,920.9,478.9,920.1z M490.1,893.9c0.4,0.1,0.9,0.4,1.2,0.7l1,1c0.3,0.4,0.6,0.7,1,1
			c0.4,0.3,0.9,0.4,1.4,0.5c1,0.2,2-0.2,2.7-0.9c0.3-0.3,0.5-0.6,0.6-1c0-0.1,0-0.2,0-0.3c0-0.1,0-0.2-0.1-0.3l-0.1-0.3
			c0-0.1,0-0.2,0-0.3c0.1-0.4,0.5-0.7,0.9-0.7c0.4-0.1,0.9-0.1,1.3,0c0.9,0.2,1.5,0.8,1.7,1.7c0.2,1,0,2-0.6,2.8
			c-0.5,0.9-1.2,1.6-2,2.2c-1.3,0.8-2.8,1.2-4.4,1.2c-0.8,0-1.6-0.1-2.4-0.4c-0.9-0.3-1.7-0.8-2.4-1.5c-0.5-0.6-1.4-1-2.2-0.8
			c-0.8,0.2-1.3,0.8-1.4,1.9c0,0.4-0.3,0.8-0.6,0.9c-0.5,0.2-1,0.2-1.5,0.1c-0.9-0.2-1.6-1.1-1.5-2c0-0.4,0.1-0.9,0.3-1.3
			c0.8-1.6,2.1-2.8,3.7-3.5C487.7,893.9,488.9,893.7,490.1,893.9z"/>
		<path class="st1" d="M541.9,913.3c0.5,1.5,0.8,3,0.8,4.6c0,0.7-0.1,1.3-0.2,2c-0.2,1-0.4,1.9-0.7,2.8c-0.3,0.9-0.9,1.7-1.5,2.4
			c-0.4,0.4-0.8,0.8-1.3,1.1l-2.7,1.8c-0.1,0.1-0.2,0.1-0.2,0.2c-0.2,0.1-0.3,0.2-0.5,0.3c-0.6,0.5-1.3,0.9-2,1.3
			c-3.1,1.8-6.6,2.9-10.1,3.1c-1.3-0.1-2.6-0.3-3.8-0.7c-1.3-0.3-2.5-0.8-3.6-1.5c-3.8-2.6-6.1-6.9-6-11.5c0-1.7,0.4-3.4,1.1-4.9
			l1.1-2.2c0.4-0.7,0.8-1.4,1.4-2c0.5-0.6,1.1-1.1,1.8-1.6c0.6-0.4,1.2-0.8,2-1.3c2.2-1.3,4.7-2.1,7.3-2.4l1.1-0.1
			c0.1,0,0.3,0,0.4,0c0.5,0,1,0,1.5,0l3.8,0.5c1.2,0,2.3,0.2,3.5,0.4c0.8,0.2,1.6,0.4,2.4,0.8c0.8,0.3,1.5,0.8,2,1.4
			c0.6,0.9,1.2,1.8,1.5,2.8c0.2,0.4,0.4,0.9,0.6,1.5c0.1,0.1,0.1,0.2,0.1,0.4L541.9,913.3z M535.3,922.1c1.2-1,1.9-2.6,1.8-4.1
			c0-1-0.2-1.9-0.5-2.8l-0.4-0.9c-0.1-0.3-0.2-0.6-0.4-0.9c-0.3-0.6-0.6-1.2-1.1-1.7c-0.5-0.4-1-0.7-1.6-0.8l-1.8-0.4
			c-0.6-0.2-1.2-0.3-1.9-0.3c-0.3,0-0.7,0-1,0h-0.9c-1.3-0.1-2.5,0-3.8,0.2c-1.2,0.2-2.4,0.5-3.5,1.1c-1.1,0.5-2.1,1.4-2.8,2.4
			c-1.2,1.6-1.8,3.5-1.9,5.5c0,1.7,0.8,3.3,2,4.4c1,1.1,2.2,2.1,3.4,3c0.7,0.5,1.6,0.7,2.5,0.7c0.9,0,1.8-0.1,2.7-0.3
			c1.9-0.3,3.8-0.9,5.4-1.9c0.7-0.4,1.4-0.9,2-1.4L535.3,922.1z"/>
		<path class="st1" d="M554.4,913.1l-1,1.6c-0.5,0.8-0.8,1.7-0.8,2.6c0.8,0.6,1.8,0.9,2.8,0.8c0.5,0,1.1,0,1.6-0.1
			c1.1-0.2,2.1-0.3,3-0.3c1.2-0.1,2.3-0.1,3.3-0.1c1.5,0,2.9,0.1,4.4,0.3c1.4,0.2,2.7,0.5,4,1c2.4,0.8,4.2,2.7,4.8,5.2
			c0.3,1.8-0.2,3.6-1.4,5c-1.1,1.6-2.6,2.8-4.4,3.6c-0.9,0.4-1.9,0.7-2.8,1c-0.4,0.1-0.9,0.3-1.5,0.4l-1.5,0.4
			c-2.1,0.3-4.2,0.5-6.3,0.4c-2,0.1-3.9-0.1-5.9-0.6c-1.9-0.4-3.8-1.2-5.4-2.4c-0.8-0.4-1.4-1.3-1.4-2.2c0-0.6,0.4-1.2,1-1.4
			c0.4-0.2,0.9-0.3,1.3-0.3c0.7,0,1.4,0.2,2,0.4l1,0.3c0.3,0.1,0.7,0.1,1,0.2c0.9,0.1,1.9,0.2,3,0.2l4.8,0.1c1.1,0,2,0,2.7,0
			c0.8,0,1.6-0.1,2.4-0.3c1.3-0.2,2.5-0.6,3.6-1.2c1.6-0.7,2.3-1.5,2.3-2.1s-0.6-1.2-1.7-1.6c-1.1-0.4-2.2-0.5-3.3-0.6
			c-0.6-0.1-1.2-0.1-1.9-0.1h-1.5c-0.9,0-1.9,0-2.8,0l-4.2,0.3c-0.2,0-0.3,0-0.5,0c-0.8,0.1-1.3,0.1-1.7,0.2c-0.2,0-0.5,0.1-0.7,0.2
			h-0.1c-0.1,0-0.1,0-0.2,0l-0.3,0.1c-0.5,0.1-1,0.2-1.5,0.1c-1.6-0.2-3.2-0.9-4.3-2.1c-0.6-0.7-0.8-1.5-0.7-2.4
			c0-0.7,0.1-1.3,0.3-1.9c0.3-0.8,0.7-1.6,1.2-2.3l0.5-0.9c0-0.1,0.1-0.2,0.2-0.3c0.3-0.5,0.5-0.8,0.7-1.2c1.4-2.6,3-5.1,4.8-7.5
			c0.2-0.2,0.5-0.6,0.9-1c0.4-0.4,0.9-0.9,1.5-1.4c1.1-1,2.4-1.8,3.9-2.2c1-0.3,2-0.3,2.9,0c0.9,0.7,1.5,1.6,1.8,2.7l0.8,2.6
			c0.2,0.7,0.5,1.7,0.7,2.7c0.2,0.7,0.2,1.4,0.2,2.1c0.2,1.1-0.5,2.1-1.6,2.3c-0.1,0-0.1,0-0.2,0c-1,0.1-1.9-0.7-2.8-2.4
			c-0.2-0.3-0.3-0.7-0.4-1c-0.1-0.2-0.1-0.3-0.1-0.5l-0.4-1.3c-0.1-0.3-0.2-0.6-0.3-0.8c-0.2-0.4-0.8-0.1-1.9,0.7
			c-0.8,0.7-1.6,1.4-2.2,2.3C555.7,911,555.1,912,554.4,913.1z"/>
		<g class="st2">
			<g>
				<defs>
					<rect id="SVGID_1_" x="182" y="94.7" width="465.4" height="668.3"/>
				</defs>
				<clipPath id="SVGID_2_">
					<use xlink:href="#SVGID_1_"  style="overflow:visible;"/>
				</clipPath>
				<g class="st3">
					<g class="st4">
						<polygon class="st5" points="407.4,707.2 407.4,707.2 374.3,40.3 440.5,40.3 						"/>
						<polyline class="st5" points="440.5,40.3 407.8,709.8 407.8,709.8 374.3,40.3 						"/>
						<polyline class="st5" points="272.4,56.8 408.7,712.2 408.7,712.2 208.4,74.4 						"/>
						<polyline class="st5" points="114.1,117.6 410.3,714.3 410.3,714.3 56.8,151.7 						"/>
						<polyline class="st5" points="-23.5,218.6 412.3,715.9 412.3,715.9 -70.3,266.9 						"/>
						<polyline class="st5" points="-131.1,352.9 414.6,716.9 414.6,716.9 -164.2,412 						"/>
						<polyline class="st5" points="-201.3,511.3 417.2,717.3 417.2,717.3 -218.5,577.3 						"/>
						<polyline class="st5" points="-229.4,683.1 419.7,716.9 419.7,716.9 -229.4,751.4 						"/>
						<polyline class="st5" points="-213.4,856.5 422,715.9 422,715.9 -196.3,922.5 						"/>
						<polyline class="st5" points="-154.5,1019.8 424,714.3 424,714.3 -121.4,1078.9 						"/>
						<polyline class="st5" points="-56.6,1161.7 425.6,712.2 425.6,712.2 -9.7,1210 						"/>
						<polyline class="st5" points="73.6,1272.7 426.6,709.8 426.6,709.8 131,1306.9 						"/>
						<polyline class="st5" points="227.2,1345.2 426.9,707.2 426.9,707.2 291.2,1362.8 						"/>
						<polyline class="st5" points="393.8,1374.1 426.6,704.6 426.6,704.6 460,1374.1 						"/>
						<polyline class="st5" points="561.9,1357.6 425.6,702.2 425.6,702.2 625.9,1339.9 						"/>
						<polyline class="st5" points="720.2,1296.8 424,700.1 424,700.1 777.5,1262.7 						"/>
						<polyline class="st5" points="857.8,1195.8 422,698.5 422,698.5 904.7,1147.5 						"/>
						<polyline class="st5" points="965.4,1061.5 419.7,697.5 419.7,697.5 998.5,1002.4 						"/>
						<polyline class="st5" points="1035.6,903.1 417.2,697.1 417.2,697.1 1052.8,837.1 						"/>
						<polyline class="st5" points="1063.7,731.3 414.6,697.5 414.6,697.5 1063.7,663 						"/>
						<polyline class="st5" points="1047.7,557.9 412.3,698.5 412.3,698.5 1030.6,491.9 						"/>
						<polyline class="st5" points="988.8,394.6 410.3,700.1 410.3,700.1 955.7,335.5 						"/>
						<polyline class="st5" points="890.9,252.7 408.7,702.2 408.7,702.2 844.1,204.4 						"/>
						<polyline class="st5" points="760.7,141.7 407.8,704.6 407.8,704.6 703.3,107.5 						"/>
						<polyline class="st5" points="607.1,69.3 407.4,707.2 407.4,707.2 543.1,51.6 						"/>
					</g>
				</g>
			</g>
		</g>
		<polygon class="st0" points="651.7,762.9 94.7,763 56.9,27.5 676,39.7 		"/>
		<path class="st1" d="M88.6,769.4L50.1,21l632.5,12.4l-24.6,736L88.6,769.4z M63.7,34.1l37.2,722.4h544.7L669.3,46L63.7,34.1z"/>
		<g class="st2">
			<g>
				<defs>
					<polygon id="SVGID_3_" points="643.5,756.2 84,756.2 56.9,27.5 676,39.7 					"/>
				</defs>
				<clipPath id="SVGID_4_">
					<use xlink:href="#SVGID_3_"  style="overflow:visible;"/>
				</clipPath>
				<g class="st6">
					<g class="st7">
						<polygon class="st5" points="352.3,718.3 352.3,718.3 312.5,-48.6 392.1,-48.6 						"/>
						<polyline class="st5" points="392.1,-48.6 352.7,721.3 352.7,721.3 312.5,-48.6 						"/>
						<polyline class="st5" points="189.9,-29.6 353.8,724.1 353.8,724.1 113,-9.3 						"/>
						<polyline class="st5" points="-0.3,40.3 355.7,726.5 355.7,726.5 -69.3,79.6 						"/>
						<polyline class="st5" points="-165.8,156.4 358.1,728.3 358.1,728.3 -222.1,212 						"/>
						<polyline class="st5" points="-295.1,310.9 360.9,729.5 360.9,729.5 -335,378.9 						"/>
						<polyline class="st5" points="-379.6,493.1 364,729.9 364,729.9 -400.2,568.9 						"/>
						<polyline class="st5" points="-413.3,690.6 367,729.5 367,729.5 -413.3,769.2 						"/>
						<polyline class="st5" points="-394.1,890.1 369.8,728.3 369.8,728.3 -373.5,965.9 						"/>
						<polyline class="st5" points="-323.2,1077.8 372.3,726.5 372.3,726.5 -283.4,1145.8 						"/>
						<polyline class="st5" points="-205.5,1241 374.1,724.1 374.1,724.1 -149.3,1296.6 						"/>
						<polyline class="st5" points="-49,1368.7 375.3,721.3 375.3,721.3 19.9,1407.9 						"/>
						<polyline class="st5" points="135.6,1452 375.7,718.3 375.7,718.3 212.5,1472.3 						"/>
						<polyline class="st5" points="335.9,1485.3 375.3,715.4 375.3,715.4 415.5,1485.3 						"/>
						<polyline class="st5" points="538,1466.3 374.1,712.6 374.1,712.6 614.9,1446 						"/>
						<polyline class="st5" points="728.3,1396.4 372.3,710.2 372.3,710.2 797.2,1357.1 						"/>
						<polyline class="st5" points="893.7,1280.2 369.8,708.3 369.8,708.3 950,1224.7 						"/>
						<polyline class="st5" points="1023.1,1125.8 367,707.2 367,707.2 1062.9,1057.8 						"/>
						<polyline class="st5" points="1107.5,943.6 364,706.8 364,706.8 1128.1,867.8 						"/>
						<polyline class="st5" points="1141.3,746.1 360.9,707.2 360.9,707.2 1141.3,667.5 						"/>
						<polyline class="st5" points="1122,546.6 358.1,708.3 358.1,708.3 1101.4,470.8 						"/>
						<polyline class="st5" points="1051.2,358.9 355.7,710.2 355.7,710.2 1011.4,290.9 						"/>
						<polyline class="st5" points="933.5,195.6 353.8,712.6 353.8,712.6 877.2,140.1 						"/>
						<polyline class="st5" points="776.9,68 352.6,715.4 352.6,715.4 708,28.8 						"/>
						<polyline class="st5" points="592.3,-15.3 352.3,718.3 352.3,718.3 515.4,-35.6 						"/>
					</g>
				</g>
			</g>
		</g>
		<path class="st8" d="M187.8,538.3c0,0-39.1-112.2,19.9-167.1h95c0,0-3.4,66.5,90.3,80.1c0,0,14.9,57.7-124.2,61.1
			C268.8,512.3,220.1,520.2,187.8,538.3z"/>
		<path class="st8" d="M440.4,555.7c0,0-36.6-132.3,38.7-173.7l39.4,4.8c0,0,32.5,101.1,96.4,94.3c0,0,3.4,50.2-99.8,46.1
			C515.1,527.2,471.6,528.5,440.4,555.7z"/>
		<path class="st8" d="M272,375.8c-9.2,0.9-14.6-4.9-20-10.1c-6.3-6.2-9.5-14.2-10.9-22.8c-0.2-1.3,0.1-3-1.5-3.4
			c-2.2-0.4-2.4,1.6-2.8,3c-1,3.2-1.8,6.5-2.8,9.8c-4.7,16.8-13.6,21.4-31.1,15.6c6.9-8.3,10.1-18.4,15-27.6
			c4.1-7.7,12.3-10.9,18.3-16.4c2.7-2.5,8.5-1.4,10.6,2.8c1.9,3.7,4.6,5.7,7.7,8c4.5,3.3,6.9,8.1,8.3,13.5
			C265.3,357.5,265.7,367.4,272,375.8z"/>
		<path class="st8" d="M524.4,409.4c-16.8,5.1-22.4,1.2-27.2-14c-1-3.3-0.3-8.8-4.1-9c-3.1-0.1-2.3,5.5-3.3,8.5
			c-3,8.9-14,22.1-24.5,21.3c3.5-6.3,5.3-13,6.4-20.2c0.8-5.4,2.6-11.2,8.4-14.6c2.5-1.5,4.1-4.5,6.1-7c3.4-4.1,7.7-4.4,11.4-1.5
			c6.8,5.3,14,10.3,16.9,19.2C516.6,398.4,520,404.3,524.4,409.4z"/>
		<path class="st9" d="M149.9,418.1l-1.7-1.5C149.4,416.5,149.8,417.2,149.9,418.1z"/>
		<path class="st1" d="M148.6,416.7L148.6,416.7c-0.1-0.1-0.2-0.1-0.3,0L148.6,416.7z"/>
		<path class="st1" d="M653.9,667.9h-69.3c-1.3-0.2-2.3-1.2-2.7-2.5c-3.4-9.4-11.6-11.3-20.3-11.6c-6.2-0.2-11.9,0.7-16.4-6.1
			c-2.5-3.7-9-4.8-13.7-6.9c-1.4-0.6-3.2-0.5-3.7-2.5c-3.5-16.5-5.1-33.1-3.3-49.9c0.3-2.8,0.7-5.3-0.4-7.9
			c-2.1-5.3-2.1-9.5,4.6-11.2c3.2-0.9,1.9-3.5,1.4-5.6c-2-10.4-4.1-20.8-4.9-31.4c-1.1-9.8-2.2-19.7-3.4-29.5
			c-0.3-1.7-0.3-3.5,0.1-5.2c3.4-1.9,12.4-7.9,11-17.8c2-1.7,4.2-3.2,6.5-4.5c7.2-4.6,12.5-8.7,19.6-13.4c2.7-2.7,7.2-6,9.9-8.6
			c4.8-4.5,7-9.1,1-14.4l-17.3-19.4l-17.8-17.6l-20.3-18.7c-4.5-3-5.8-9.6-12.5-10.7c-1.5-0.2,0.7-3.5,3.1-4.1
			c7.1-1.5,21-8.6,21.6-8.8c12.6-9.6,23.2-20.8,27.8-36.4c0.7-2.3,1.9-2.9,4.4-2.9c13.2,0,21.2-10.5,17.8-23.2
			c-1.6-6-1.6-6,1.4-12.8c4.1,9.4,8.9,17.8,17.1,23.5c14.5,6.2,30.8,1.9,37.2-9.9c-15.9-0.5-19.2-6-20-22.4
			c-0.4-8.5,1.1-16.5,3.2-24.5c2.5-9.8,5.4-19.5,7.1-29.5c1.9-12-0.4-23.2-5-34.2c-7.7-12.4-17.8-21.5-32.5-24.6
			c-12-1.2-23.3,0.8-33.4,7.9c-12.3,8.7-17.3,20.2-13,35.7c-6.2-1.8-31-6.4-37.2-6.2c-6.6,0.2-40,1.8-51.1,6.9
			c4-11.9,1.7-21.7-5.3-30.6c-7.6-7.3-16.5-12.5-27-13.9c-0.4-0.1-6.9-0.6-9.7-0.4c-22.8,1.1-34.7,17.6-41.1,38.2
			c-1.2,8.7-1.1,17.6,0.3,26.3c4,16.8,10.9,32.9,10.1,50.6c-0.2,5.4-1.9,10.3-4.2,15.4c-4,8.9-13,4.6-16,6.3c1,3.2,4.1,4.4,6.4,6.4
			c8.7,7.6,20.1,8,30.9,2.2c9.8-7.1,14.7-17.4,18.5-28.5c3.5,5.8,3.4,7.5-0.7,12.1c-4.3,4.9-5.1,12.3-2.6,18.4
			c0.1,0.3,0.3,0.7,0.5,1c1,2.1,2.5,4,4.3,5.6c0.7,0.6,1.5,1.2,2.3,1.7l0,0c5.7,5,10.6,4.7,13.9,3.3c2.5,1.9,4.1,5.2,5.2,9.6
			c1.4,5.7,6,10,9.3,14.7c6.2,5.8,13,11.1,20.3,15.6c5,2,9.9,4.1,14.9,6c1.7,0.7,3.3,1.2,3.1,3.6c-0.3,3.1-13.3,9.4-16.8,10.6
			c-7.8,2.7-20.3,16.4-21.5,16.4c-4.6,3.2-17.5,14.3-19.7,16.2c-7.3,6.4-14.9,12.4-22.4,18.5l0,0c-0.3,0.2-0.5,0.4-0.8,0.6
			c-0.2,0.2-0.3,0.3-0.4,0.5c-1.3,2.1,1.2,4.3,1.2,4.3l2.9,3.3c3.4,4.6,36.7,31.4,40.9,34.4c1.2,0.9,2.9,2.2,3,3.4
			c0.8,6.3,2.6,11.6,8.9,14.8c2.2,1.1,0.8,4.6,0.5,7c-2.3,16.7-5,33.3-6.2,50.2c-0.4,3.1-0.4,6.3-1.1,9.4c-1.3,5.1-1.2,9.3,4.6,11.4
			c2.4,0.9,1.7,2.8,1.1,4.6c-1.8,5.3-1,10.5-0.7,16c0.8,15.2-0.1,30.5-3.9,45.3c-1.1,4.3-7.9,5.8-12.3,7.8c-3,1.3-5.5,1.8-7.2,5.1
			s-5.3,3.6-8.9,3.3c-5.9-0.5-11.8-0.1-17.3,2.4c-2.5,1.1-5.6,2.5-6.1,5c-1.1,5-3.8,6.2-7.1,6.5H389c-10.5,0-21-0.1-31.4,0h-6.4
			c-2-0.1-3.2-0.8-4.1-3.9c-2.7-9.2-11.1-11.1-19.3-12.3c-3.5-0.5-7.2-0.1-10.8-0.1c-4.3,0-8-1-10-5.4c-0.4-1-1.3-2.6-1.9-2.5
			c-7,0.2-10.5-6.7-16.6-8c-1.4-0.2-2.5-1.2-2.9-2.5c-4.4-13.1-4.5-26.7-5.1-40.2c-0.2-3.9,3.3-3.9,5.6-4.8
			c8.9-3.3,8.7-3.2,6.4-11.8c-5.5-21-12.2-95.6-13-109.9c0-0.9,0.1-2.3,0.6-2.5c7.1-3.8,9-10.5,10.8-17.6c0.6-2.4,4.6-4.1,7.2-5.8
			c10.2-6.8,20.9-12.8,29.9-21.2l15.5-19c2-4.2-1.7-5.9-3.7-8.4c-4.4-3.6-16.6-13.5-17.8-15.6c-0.8-1-0.4-2,0.1-3
			c1.2-4.8-25.7-20.2-35.4-27c-8.6-5.6-18.5-9.1-25.7-16.9c-2-1.9-4.5-3.1-7.2-3.3c-3.3-0.2-4.2-1.3-4-4.4c0.2-2.7,0.5-4.8,3.8-5.2
			c8.8-1.2,16.9-4.7,24.9-8.3c9.9-6.1,18.3-14.4,24.6-24.1c3.5-7.5,7.4-14.9,9.1-23c0.4-1.6,0.7-3,3-2.4c7.1,1.9,12.5-1.6,17.5-6
			c7.9-11.9,6.9-23.3-1.3-31.3c-1.7-1.5-4-2.3-6.3-2.1c-7.5,0.7-6.2-3.3-5.3-8.1c2.2-11.6,2.8-23.3,0.7-35
			c-3.5-19.7-18.4-33.1-38.1-35.7c-1.4-0.2,4.2-3.1,12.9-1.8c-3-4.4-7.7-5-11.9-5c-2.9,0-5.8,1.6-8.1,3.4c-0.9,0.6-1.7,2.2-2.5,1.4
			c-1.3-1.2,5.1-9.1,8.4-11.1c1.4-1.1,2.7-2.2,3.9-3.4c1.6-1.8-14.2,2-17.3,8.7c-1.5,3.2-2.2,1.8-3.6,0.3
			c-6.4-6.9-14.7-7.5-25.1-7.8c7,4.9,13.5,7.5,17.7,13.8c-5.8-1.6-32.5-11.9-44-5.5c3.6,0.1,7.6,1.5,13.2,4.6
			c-10.9-1.4-21.2-1-31.5-0.7c-15.1,2.3-28.3,8.3-39,19.3c-5.1,7-9,14.6-10.7,23.1c-0.4,1.9-2.7,5.1,2.5,4.9
			c2.5-0.1,1.2,2.5,1.1,3.7c-0.9,9.3,0.7,18.6,4.6,27.1c0.7,1.6,2.2,3.5-0.2,4.6c-8.9,4.2-9.8,12.2-10,20.6
			c1.5,8.3,5.5,16.2,13.7,18c6.3,1.4,9,2.3,10.5,9.2c4.9,22.9,21.9,35.3,41.9,44.5c2.9,1.3,5.9,2.3,8.8,3.4l8.6,1.9
			c3.4,0.8,2.6,3.8,3,6c0.6,3.3-21.3,21-28.9,27.4c-6.7,6.4-13.1,13.2-20.7,18.8c-2.7,2.6-5.3,5.4-8.1,7.9c-4,3.7-8.2,7.2-10.5,12.3
			c-3.7,4.2-7.1,8.7-11.1,12.5c-5.1,4.7-6.1,9.2-1.2,14.4c0.8,0.1,1.2,0.6,1.4,1.5v-0.3c8.8,8.9,19.2,15.4,29.5,22.2
			c2.2,1.5,4.3,3.2,6.6,4.6c3.9,2.4,7.4,4.7,8,10c0.6,2.7,2.3,4.9,4.6,6.3c5.6,3,5.2,7.7,4.8,12.7c-0.5,7.4-2.5,15.2-1.1,22.3
			c2.8,13.7-2.6,26-4.1,39c-1.6,13.8-4.7,27.5-9.3,40.6c-1.6,4.5-1.2,7.5,3.8,8.5c9.5,2,10.9,8,10.2,16.8c-0.8,10.7-2.3,21.4-4.3,32
			c-0.1,0.8-0.8,2.3-1.1,2.3c-6.3,0-9.1,7.4-15.5,7.2c-2.1-0.2-4.1,1-5,2.9c-2.3,6.1-7,6.7-12.6,6.4c-5.9-0.5-11.8,0.3-17.3,2.2
			c-5.2,1.9-9.1,4.9-10.9,10.3c-0.8,2.3-1.7,3.6-4,3.9H90.6c-17.1-0.1,4.9,38.1,4.9,38.1h558.1L653.9,667.9z M217.9,340.3
			c4.1-7.7,12.3-10.9,18.3-16.4c2.7-2.5,8.5-1.4,10.6,2.8c1.9,3.7,4.6,5.7,7.7,8c4.5,3.3,6.9,8.1,8.3,13.5
			c2.5,9.3,2.8,19.2,9.2,27.6c-9.2,0.9-14.6-4.9-20-10.1c-6.3-6.2-9.5-14.2-10.9-22.8c-0.2-1.3,0.1-3-1.5-3.4
			c-2.2-0.4-2.4,1.6-2.8,3c-1,3.2-1.8,6.5-2.8,9.8c-4.7,16.8-13.6,21.4-31.1,15.6C209.8,359.6,213,349.5,217.9,340.3z M195.7,435.1
			c-2.2,2.3-4.2-2-5.9-3.7c-6.6-6.6-12.9-13.4-19.1-20.3c-1.2-1.4-5.3-2.9-1.7-5.7c2.4-2,4.7-5.1,8.7-2.3c2.7,1.9,6,3,8.9,4.8
			c3.1,1.9,4.9,1,6.6-1.9c2.6-4.4,5.5-8.7,8.9-14c2.3,11.8,0.7,22.6,1.8,33.4C204.6,431.3,198.6,432.1,195.7,435.1L195.7,435.1z
			 M267.4,666.6c-0.1,0.7-0.6,1.2-1.3,1.2h-29.7h-16.4c-1.8,0-3.5,0.1-3.9-2.6c-1.6-11.2-9.5-22.1-1.9-33.8
			c-2.6-12.3,5.7-22.1,7.4-33.5c0.2-1.5-0.3-4,2.8-3.4l9.3,0.8l6.9-45.4c0.2-1.6,0.6-3.1,1.2-4.5c2.2,4.5,1.5,9.5,2,14.2
			c1.2,10.1,2.8,20.1,2.6,30.3c-0.1,5.8,3.2,6.8,7.7,5.5c5.9-1.6,8.6,0.2,9.3,6.3c0.6,3.8,1.8,7.5,3.4,10.9c4.5,10.5,4.7,22,5.9,33
			C273.3,652.1,268.7,659.4,267.4,666.6z M277.2,421.1c0.4-13.9-0.6-27.9,2-42.4c5.8,4.1,9.6,9.9,13.7,15.1c3.4,4.3,8.3,9,12.4,5.1
			c5.2-5.1,6.2-9,11.3-5.4c2.2,1.5,4.9,2.3,5.7,3.9l-9.1,10.5c-6.8,6.7-13.5,13.6-20.6,20c-1.7,1.6-3.8,5.9-6.2,3.4
			C283.3,428.2,277,428,277.2,421.1L277.2,421.1z M471.6,395.9c0.8-5.4,2.6-11.2,8.4-14.6c2.5-1.5,4.1-4.5,6.1-7
			c3.4-4.1,7.7-4.4,11.4-1.5c6.8,5.3,14,10.3,16.9,19.2c2.2,6.4,5.5,12.2,9.9,17.3c-16.8,5.1-22.4,1.2-27.2-14c-1-3.3-0.3-8.8-4.1-9
			c-3.1-0.1-2.3,5.5-3.3,8.5c-3,8.9-14,22.1-24.5,21.3C468.8,409.8,470.6,403.1,471.6,395.9L471.6,395.9z M456.7,464.4
			c-2.5,1.1-5.4,0.6-7.5-1.2c-4.6-4-17.4-16.5-19.3-18.6c-8.7-9.6-8.9-9.8,2.1-17c4.4-2.9,22.7-17.9,25.4-16.5
			c3.9,2,1.8,9.3,2.1,14.4c0.7,10.6,0.6,21.2,1.5,31.8C461.4,462.3,460,462.8,456.7,464.4L456.7,464.4z M517.6,646.4
			c-2.3,4.8-6.7,14.8-7.7,21.2c-0.4,0.1-0.8,0.2-1.3,0.2h-3.9c-1,0-2.2-0.1-3.5-0.2c-9.5,0-18.9,0.1-28.4,0.1c-0.3,0-0.6,0-0.8,0.1
			c-1.3-6.4-4.6-14.1-7.1-19.1c-0.5-3.1-0.4-6.3,0.2-9.3c2.2-11.6,6.4-22.5,8.6-34c0.7-4.2,0.4-8.6-1.1-12.6
			c-1.8-5.5,2.5-12.6,8.3-14.3c4.3-0.6,8.7-0.9,13-0.9c11.5,0.8,12.9,4.1,15.1,10.2c1.3,5.6-2.7,10.7-1.5,16.2c0.9,4.2,2,8.2,3,12.4
			l3.2,9.1C515.8,629.1,517.7,639.4,517.6,646.4L517.6,646.4z M520.3,461.4c1.6-15,1.6-30.1,1.5-46.6c9.8,10.8,20.6,18.4,31,26.4
			c2.7,2,1,3.4-0.3,4.9c-6.5,7-13,13.9-19.6,20.7c-1.5,1.6-3.2,5.1-5.7,2.8S519.7,466.8,520.3,461.4L520.3,461.4z"/>
	</g>
</g>
</svg>
