<?xml version="1.0" encoding="utf-8"?>
<!-- Generator: Adobe Illustrator 21.0.0, SVG Export Plug-In . SVG Version: 6.00 Build 0)  -->
<svg version="1.1" id="Capa_1" xmlns="http://www.w3.org/2000/svg" xmlns:xlink="http://www.w3.org/1999/xlink" x="0px" y="0px"
	 viewBox="0 0 727.4 1039.8" style="enable-background:new 0 0 727.4 1039.8;" xml:space="preserve">
<style type="text/css">
	.st0{fill:#FFFFFF;}
	.st1{fill:#272425;}
	.st2{opacity:0.43;}
	.st3{clip-path:url(#SVGID_2_);}
	.st4{opacity:0.4;}
	.st5{fill:#211915;}
	.st6{clip-path:url(#SVGID_4_);}
	.st7{opacity:0.2;}
	.st8{fill:#262324;}
	.st9{fill:#CB2228;}
</style>
<title>premios</title>
<g>
	<g id="Capa_1_1_">
		
			<image style="overflow:visible;opacity:0.75;enable-background:new    ;" width="1530" height="650" xlink:href="4BEA4B7E.png"  transform="matrix(0.3802 0 0 0.3794 71.54 783.97)">
		</image>
		<polygon class="st0" points="160.2,800.3 616.3,808.9 621.4,961.2 89.5,994.1 		"/>
		<path class="st1" d="M157.2,799.1l0.8-2.3l458.3,8.6l3.1,0.1l5.3,159L84.6,997.9L157.2,799.1z M608.4,814.3l-446-8.4L98.9,987.4
			l511.9-32L608.4,814.3z"/>
		<g class="st2">
			<g>
				<defs>
					<rect id="SVGID_1_" x="180.4" y="99.8" width="462.8" height="664.5"/>
				</defs>
				<clipPath id="SVGID_2_">
					<use xlink:href="#SVGID_1_"  style="overflow:visible;"/>
				</clipPath>
				<g class="st3">
					<g class="st4">
						<polygon class="st5" points="404.5,708.9 404.5,708.9 371.6,45.7 437.5,45.7 						"/>
						<polyline class="st5" points="437.5,45.7 404.9,711.5 404.9,711.5 371.6,45.7 						"/>
						<polyline class="st5" points="270.3,62.1 405.8,713.9 405.8,713.9 206.7,79.7 						"/>
						<polyline class="st5" points="112.9,122.6 407.4,716 407.4,716 55.8,156.6 						"/>
						<polyline class="st5" points="-24,223 409.4,717.6 409.4,717.6 -70.5,271 						"/>
						<polyline class="st5" points="-131,356.6 411.7,718.6 411.7,718.6 -163.9,415.4 						"/>
						<polyline class="st5" points="-200.8,514.1 414.2,718.9 414.2,718.9 -217.9,579.7 						"/>
						<polyline class="st5" points="-228.7,685 416.7,718.6 416.7,718.6 -228.7,752.9 						"/>
						<polyline class="st5" points="-212.8,857.4 419.1,717.6 419.1,717.6 -195.8,923 						"/>
						<polyline class="st5" points="-154.2,1019.8 421.1,716 421.1,716 -121.3,1078.6 						"/>
						<polyline class="st5" points="-56.8,1160.9 422.6,713.9 422.6,713.9 -10.3,1208.9 						"/>
						<polyline class="st5" points="72.6,1271.3 423.6,711.5 423.6,711.5 129.6,1305.2 						"/>
						<polyline class="st5" points="225.4,1343.3 423.9,708.9 423.9,708.9 289,1360.9 						"/>
						<polyline class="st5" points="391,1372.1 423.6,706.3 423.6,706.3 456.8,1372.1 						"/>
						<polyline class="st5" points="558.2,1355.7 422.6,703.9 422.6,703.9 621.8,1338.1 						"/>
						<polyline class="st5" points="715.6,1295.3 421.1,701.8 421.1,701.8 772.6,1261.3 						"/>
						<polyline class="st5" points="852.4,1194.8 419.1,700.3 419.1,700.3 899,1146.8 						"/>
						<polyline class="st5" points="959.4,1061.3 416.7,699.3 416.7,699.3 992.3,1002.5 						"/>
						<polyline class="st5" points="1029.2,903.7 414.2,698.9 414.2,698.9 1046.3,838.1 						"/>
						<polyline class="st5" points="1057.2,732.9 411.7,699.3 411.7,699.3 1057.2,665 						"/>
						<polyline class="st5" points="1041.3,560.4 409.4,700.3 409.4,700.3 1024.2,494.8 						"/>
						<polyline class="st5" points="982.7,398.1 407.4,701.8 407.4,701.8 949.7,339.3 						"/>
						<polyline class="st5" points="885.3,256.9 405.8,703.9 405.8,703.9 838.7,208.9 						"/>
						<polyline class="st5" points="755.8,146.6 404.9,706.3 404.9,706.3 698.8,112.6 						"/>
						<polyline class="st5" points="603.1,74.5 404.5,708.9 404.5,708.9 539.5,57 						"/>
					</g>
				</g>
			</g>
		</g>
		<polygon class="st0" points="647.5,764.3 93.6,764.4 56,33.1 671.6,45.1 		"/>
		<path class="st1" d="M87.5,770.8L49.2,26.5l629,12.3l-24.5,731.9L87.5,770.8z M62.7,39.6l37,718.4h541.6l23.7-706.6L62.7,39.6z"/>
		<g class="st2">
			<g>
				<defs>
					<polygon id="SVGID_3_" points="639.3,757.6 82.9,757.6 56,33.1 671.6,45.2 					"/>
				</defs>
				<clipPath id="SVGID_4_">
					<use xlink:href="#SVGID_3_"  style="overflow:visible;"/>
				</clipPath>
				<g class="st6">
					<g class="st7">
						<polygon class="st5" points="349.7,720 349.7,720 310.1,-42.6 389.3,-42.6 						"/>
						<polyline class="st5" points="389.3,-42.6 350.1,723 350.1,723 310.1,-42.6 						"/>
						<polyline class="st5" points="188.3,-23.8 351.3,725.8 351.3,725.8 111.8,-3.6 						"/>
						<polyline class="st5" points="-1,45.8 353.1,728.1 353.1,728.1 -69.5,84.8 						"/>
						<polyline class="st5" points="-165.5,161.2 355.5,730 355.5,730 -221.5,216.5 						"/>
						<polyline class="st5" points="-294.1,314.8 358.3,731.1 358.3,731.1 -333.7,382.4 						"/>
						<polyline class="st5" points="-378.1,496 361.3,731.5 361.3,731.5 -398.5,571.4 						"/>
						<polyline class="st5" points="-411.6,692.4 364.3,731.1 364.3,731.1 -411.6,770.5 						"/>
						<polyline class="st5" points="-392.5,890.8 367.1,730 367.1,730 -372,966.2 						"/>
						<polyline class="st5" points="-322,1077.4 369.6,728.1 369.6,728.1 -282.5,1145.1 						"/>
						<polyline class="st5" points="-205,1239.8 371.4,725.8 371.4,725.8 -149,1295 						"/>
						<polyline class="st5" points="-49.3,1366.7 372.6,723 372.6,723 19.2,1405.7 						"/>
						<polyline class="st5" points="134.3,1449.5 373,720 373,720 210.7,1469.7 						"/>
						<polyline class="st5" points="333.4,1482.6 372.6,717 372.6,717 412.5,1482.7 						"/>
						<polyline class="st5" points="534.4,1463.8 371.4,714.3 371.4,714.3 610.8,1443.6 						"/>
						<polyline class="st5" points="723.6,1394.3 369.6,711.9 369.6,711.9 792.2,1355.2 						"/>
						<polyline class="st5" points="888.1,1278.8 367.1,710 367.1,710 944.1,1223.6 						"/>
						<polyline class="st5" points="1016.8,1125.2 364.3,708.9 364.3,708.9 1056.3,1057.6 						"/>
						<polyline class="st5" points="1100.7,944 361.3,708.5 361.3,708.5 1121.2,868.6 						"/>
						<polyline class="st5" points="1134.3,747.6 358.3,708.9 358.3,708.9 1134.3,669.5 						"/>
						<polyline class="st5" points="1115.2,549.3 355.5,710.1 355.5,710.1 1094.7,473.8 						"/>
						<polyline class="st5" points="1044.7,362.6 353.1,711.9 353.1,711.9 1005.1,294.9 						"/>
						<polyline class="st5" points="927.6,200.2 351.2,714.3 351.2,714.3 871.7,145 						"/>
						<polyline class="st5" points="772,73.3 350.1,717 350.1,717 703.5,34.3 						"/>
						<polyline class="st5" points="588.4,-9.5 349.7,720 349.7,720 511.9,-29.7 						"/>
					</g>
				</g>
			</g>
		</g>
		<path class="st1" d="M271.3,851l-4.2,0.6L264,852c0.2,0.8,0.3,1.6,0.3,2.4l0.2,4.3c0,0.1,0,0.2,0,0.3c0.1,0.8,0.1,1.6,0,2.5
			c-0.2,2.2-0.5,4.3-1.1,6.5c-0.4,1.6-0.9,3.1-1.5,4.6c-0.7,1.5-1.6,2.9-2.8,4.1c-1,1-2.1,1.7-3.4,2.2c-1.3,0.6-2.7,0.9-4.1,0.8
			c-2.5-0.1-4.7-1.6-5.7-3.8c-0.4-1-0.6-2.2-0.6-3.3c0-0.6,0-1.3,0.1-2.2l0.1-1.1c0-0.2,0-0.4,0-0.6c0-0.2,0-0.4,0-0.6l0.1-1.5
			c0-0.7,0.1-1.3,0.2-2c0.4-1.5,1.2-2.1,2.4-1.6c0.8,0.3,1.3,1.1,1.5,2.5c0.1,0.6,0.2,1.3,0.2,1.9v2c0,1.2,0.1,2.3,0.5,3.5
			c0.3,0.9,1.2,1.4,2.1,1.1c0,0,0,0,0.1,0c2-0.5,3.7-1.7,4.7-3.5c0.6-1,1-2.1,1.2-3.3l0.3-1.8c0.1-0.5,0.1-1,0.2-1.7l0.1-0.9v-0.9
			c0-0.7,0-1.7-0.1-2.9c0-0.1,0-0.2,0-0.3l-0.4-5.7c-0.6,0.1-1.5,0.2-2.7,0.4c-0.9,0.1-2,0.3-3.1,0.5l-3.2,0.6l-1.8,0.5
			c-0.6,0.2-1.2,0.3-1.8,0.3c-1.3,0.1-2-0.4-2.2-1.3c0-0.5,0.2-1,0.5-1.3c0.1-0.2,0.3-0.4,0.5-0.7l0.2-0.3c0.1-0.1,0.1-0.1,0.2-0.2
			c0.8-0.9,1.9-1.5,3-1.9c0.6-0.2,1.2-0.4,1.8-0.5c0.5-0.1,1-0.3,1.7-0.4c1.5-0.3,3-0.5,4.4-0.7c1.3-0.1,2.8-0.2,4.5-0.3l3.5-0.3
			c1.6-0.1,2.8-0.2,3.5-0.2h2c0.6,0,1.2,0.1,1.8,0.3c0.8,0.2,1.5,0.7,2,1.3c0.5,0.7,0.2,1.3-0.7,2
			C272.2,850.6,271.7,850.8,271.3,851z"/>
		<path class="st1" d="M307.6,858.3c0.5,1.5,0.8,3,0.8,4.6c0,0.7-0.1,1.3-0.2,2c-0.2,0.9-0.4,1.9-0.7,2.8c-0.3,0.9-0.9,1.7-1.5,2.3
			c-0.4,0.4-0.8,0.8-1.3,1.1l-2.6,1.8c-0.1,0-0.2,0.1-0.2,0.2c-0.2,0.1-0.3,0.2-0.5,0.3c-0.6,0.5-1.3,0.9-2,1.3
			c-3.1,1.8-6.5,2.9-10.1,3.1c-1.3-0.1-2.5-0.3-3.8-0.7c-1.3-0.3-2.5-0.8-3.6-1.5c-3.8-2.5-6.1-6.8-6-11.4c0-1.7,0.4-3.4,1.1-4.9
			l1.1-2.2c0.4-0.7,0.8-1.4,1.4-2c0.5-0.6,1.1-1.1,1.8-1.6c0.6-0.4,1.2-0.8,2-1.3c2.2-1.3,4.7-2.1,7.2-2.4l1.1-0.1
			c0.1,0,0.3,0,0.4,0c0.5,0,1,0,1.5,0l3.8,0.5c1.2,0,2.3,0.2,3.5,0.4c0.8,0.1,1.6,0.3,2.3,0.6c0.8,0.3,1.5,0.8,2,1.4
			c0.6,0.9,1.2,1.8,1.5,2.8c0.2,0.4,0.4,0.9,0.6,1.5c0.1,0.1,0.1,0.2,0.1,0.4L307.6,858.3z M301,867c1.2-1,1.9-2.6,1.8-4.1
			c0-1-0.2-1.9-0.5-2.8l-0.4-0.9c-0.1-0.3-0.2-0.6-0.4-0.9c-0.3-0.6-0.6-1.2-1.1-1.7c-0.5-0.4-1-0.7-1.6-0.8l-1.8-0.4
			c-0.6-0.2-1.2-0.3-1.9-0.3c-0.3,0-0.7,0-1,0h-0.9c-1.3-0.1-2.5,0-3.8,0.2c-1.2,0.2-2.4,0.5-3.5,1.1c-1.1,0.5-2.1,1.3-2.8,2.4
			c-1.2,1.6-1.8,3.5-1.9,5.5c0,1.7,0.7,3.3,2,4.4c1,1.1,2.2,2.1,3.4,3c0.7,0.5,1.6,0.7,2.5,0.7c0.9,0,1.8-0.1,2.6-0.3
			c1.9-0.3,3.7-0.9,5.4-1.9c0.7-0.4,1.4-0.9,2-1.4L301,867z M296.9,838.7l-0.7,1.5c-0.2,0.4-0.4,0.8-0.6,1.3l-0.5,1.3
			c-0.2,0.4-0.4,0.9-0.6,1.3c-0.2,0.4-0.4,0.9-0.7,1.3c-0.6,0.9-1.7,1.2-2.7,0.7c-0.4-0.2-0.7-0.6-0.7-1.1c-0.1-0.4-0.1-0.9,0-1.3
			c0.1-0.6,0.2-1.2,0.4-1.8c0.2-0.6,0.4-1.3,0.6-1.9l0.4-1.2c0.2-0.4,0.3-0.8,0.6-1.2c0.5-0.9,1.3-1.5,2.3-1.6
			c1.3-0.1,2.1,0.3,2.4,1.2C297.2,837.7,297.1,838.2,296.9,838.7L296.9,838.7z"/>
		<path class="st1" d="M311.8,855.2c-0.2-1.1-0.4-2.1-0.5-3.2c0-0.4,0-0.9,0-1.3c0.1-0.4,0.3-0.8,0.6-1.1c0.5-0.3,1.1-0.5,1.7-0.5
			c0.5,0,0.9,0.1,1.3,0.4c0.5,0.6,0.9,1.3,1.2,2c0.1,0.5,0.3,1,0.5,1.7l0.6,1.7c0.9,3.1,1.9,6.2,3,9.2l0.8,2.1
			c0.3,0.8,0.6,1.5,0.9,2.1l1.3,2.3l0.6,0.9c0.1-0.2,0.2-0.4,0.3-0.7l0.8-1.7c0.1-0.1,0.1-0.3,0.2-0.4l0.9-1.8
			c0.4-0.7,0.7-1.3,0.9-1.8l4.2-9.4c0.4-0.8,0.8-1.7,1.2-2.5c0.3-0.5,0.5-1,0.7-1.5c0-0.1,0.1-0.1,0.1-0.2l0.2-0.6
			c0.2-0.3,0.3-0.5,0.4-0.7c0-0.1,0.1-0.2,0.1-0.3l0.1-0.3c0.1-0.2,0.2-0.4,0.3-0.6c0.2-0.4,0.4-0.7,0.7-1.1c0.5-0.7,1.4-1,2.2-1
			c0.8-0.1,1.6,0.5,1.7,1.3c0,0.1,0,0.2,0,0.4c0,0.6-0.1,1.1-0.3,1.7l-0.5,1.4l-0.5,1.3c0,0.1,0,0.1-0.1,0.2c-0.4,1.3-0.8,2.3-1.1,3
			l-2.3,5.8c-0.5,1.1-0.9,2.1-1.3,2.9c-0.5,1-0.9,1.9-1.3,2.7c-0.3,0.6-0.6,1.3-1,2.2l-0.9,2.2c-0.2,0.5-0.4,1.1-0.8,1.8l-0.9,1.8
			l-0.5,1.2c-0.1,0.4-0.4,0.7-0.6,1c-0.6,0.7-1.5,1-2.4,1c-0.8-0.1-1.5-0.4-2.1-0.9c-0.3-0.2-0.6-0.5-0.8-0.8l-0.4-0.4l-0.4-0.5
			c-0.7-0.9-1.3-1.8-1.9-2.7l-0.8-1.4c-0.1-0.2-0.2-0.5-0.4-0.7c-0.1-0.1-0.2-0.2-0.2-0.3l-0.2-0.4c-0.3-0.5-0.6-1.2-1-2.1l-0.4-1.1
			c-0.1-0.4-0.3-0.8-0.4-1.1c-0.6-1.4-1.1-2.8-1.5-4.3c-0.1-0.7-0.3-1.3-0.6-2c-0.1-0.1-0.1-0.3-0.2-0.5l-0.5-1.5
			C312.3,857.1,312,856,311.8,855.2z"/>
		<path class="st1" d="M364.5,876.6c-1.2,0.2-2.6,0.5-4.2,0.7l-4.3,0.6c-1.7,0.2-3.1,0.4-4.3,0.7c-1.5,0.3-3.1,0.4-4.6,0.3
			c-1,0-2-0.4-2.6-1.2c-0.6-0.9-1-1.9-1.2-2.9c-0.1-0.4-0.2-0.9-0.3-1.5l-0.2-1.6c-0.2-1.6-0.4-3.2-0.4-4.8c0-1.5,0-3.1,0.1-4.8
			l0.3-7l0.2-1.6c0-0.2,0-0.4,0-0.6c0-1.2,0.4-2.3,1.1-3.3c0.4-0.4,0.9-0.6,1.4-0.7l1.7-0.1c1.8-0.2,3.5-0.3,5.3-0.4
			c2.5-0.1,5-0.1,7.5,0c0.3,0,0.7,0,1,0h2c0.3,0,0.7,0,1,0l1.6,0.1c0.5,0,1.1,0.1,1.6,0.3c0.5,0.2,0.9,0.4,1.3,0.8
			c0.4,0.3,0.5,0.9,0.2,1.3l-0.8,1.2c-0.2,0.4-0.6,0.7-1,0.8c-0.8,0.2-1.7,0.2-2.5,0.2H363c-0.4,0-0.8,0-1.3,0l-4.8,0.2
			c-1.6,0.1-3.1,0.3-4.7,0.5L351,854c-0.4,0-0.8,0.1-1.3,0.2c-0.8,0.2-1.5,0.8-1.7,1.6c-0.2,0.9-0.3,1.7-0.4,2.6c0,0.6,0,1.4,0,2.5
			h0.5c0.2,0,0.3,0,0.5,0c1.3-0.2,2.5-0.4,3.5-0.5l6.8-0.6c0.9-0.1,1.7,0,2.5,0.1c0.9,0.1,1.7,0.4,2.4,0.9c0.7,0.6,0.7,1.2-0.2,2
			c-0.4,0.3-0.8,0.5-1.2,0.7c-0.3,0.2-0.7,0.3-1,0.4c-0.5,0.1-1,0.2-1.5,0.3l-1.1,0.1c-0.1,0-0.2,0-0.4,0l-6.6,0.9
			c-0.7,0.1-1.4,0.3-2.2,0.5c-0.6,0.2-1.3,0.4-2.1,0.7v5.7c0,0.2,0.1,0.4,0.1,0.7c0,0.2,0.1,0.4,0.3,0.5c0.5,0.3,1,0.4,1.5,0.3
			l8.8-1.1l0.7-0.1c0.1,0,0.2,0,0.2,0c0.7-0.1,1.3-0.2,2-0.2l5-0.3l0.6-0.1c0.6-0.1,1.2,0,1.9,0.1c1.1,0.2,1.6,0.8,1.4,1.8
			c-0.2,0.9-0.8,1.6-1.6,1.8C367.3,876,365.9,876.3,364.5,876.6z"/>
		<path class="st1" d="M374.6,865.1c0.1-0.9,0.1-1.8,0.1-2.6c0-0.6,0-1.2,0-1.9l0.2-3.4c0-0.7,0-1.3,0-1.8v-0.8c0-0.3,0-0.6,0-0.9
			c-0.1-0.8,0.1-1.5,0.3-2.2c0.2-0.7,0.6-1.4,1.3-1.8c1-0.5,2.2-0.4,3.1,0.2c1,0.6,1.8,1.3,2.5,2.3l1.1,1.4c0.4,0.4,0.7,0.9,1.2,1.3
			l2.6,2.2c0.9,0.8,1.7,1.6,2.4,2.2c0.4,0.5,0.9,0.9,1.4,1.3l4.1,3.7c0.4,0.5,0.9,0.9,1.5,1.2c0-0.4,0-0.9,0-1.5v-3c0-0.6,0-1,0-1.4
			l-0.3-8.8c0-0.9,0.2-1.8,0.8-2.6c0.3-0.5,0.8-0.8,1.3-1.1c0.5-0.3,1.1-0.2,1.4,0.3c0.8,0.9,1.2,2.1,1.2,3.3l0.5,4
			c0.2,1.3,0.3,2.7,0.3,4v2.1c0,0.8,0,1.5,0,2.1c0.1,1.5,0.2,2.8,0.3,4c0,0.3,0,0.7,0,1.2v2.7v1.3l0.1,2.4c0,0.5,0,0.9-0.1,1.3
			c-0.1,0.5-0.3,1.1-0.6,1.6c-0.2,0.5-0.6,1-1.1,1.2c-1.1,0.4-2.1-0.1-2.9-1.5l-0.9-1.5c-0.3-0.7-0.6-1.2-0.8-1.5
			c-0.2-0.4-0.4-0.8-0.7-1.2l-0.9-1.2c-0.8-1-1.6-1.9-2.5-2.8l-3.5-3.4l-0.3-0.3l-1.5-1.6c-0.9-0.8-1.8-1.6-2.8-2.3l-0.6-0.5
			l-0.7-0.6c-0.7-0.5-1.2-0.9-1.5-1.1l-0.7,5.2c-0.1,1.1-0.2,2.5-0.4,3.9l-0.6,5.4c0,0.2,0,0.4,0,0.6v0.6c0,0.4-0.1,0.8-0.1,1.3
			l-0.1,0.8c-0.1,0.3-0.1,0.6-0.3,0.9c-0.4,0.9-1.3,1.4-2.2,1.3c-0.8,0-1.5-0.4-1.9-1c-0.5-0.9-0.6-1.9-0.4-2.9l0.4-3.7
			c0.2-1.5,0.3-2.8,0.4-3.7C374.4,866.7,374.5,865.9,374.6,865.1z"/>
		<path class="st1" d="M428.3,876.6c-1.2,0.2-2.6,0.5-4.2,0.7l-4.3,0.6c-1.7,0.2-3.1,0.4-4.3,0.7c-1.5,0.3-3.1,0.4-4.6,0.3
			c-1,0-2-0.4-2.6-1.2c-0.6-0.9-1-1.9-1.2-2.9c-0.1-0.4-0.2-0.9-0.3-1.5l-0.2-1.6c-0.2-1.6-0.4-3.2-0.4-4.8c0-1.5,0-3.1,0.1-4.8
			l0.3-7l0.2-1.6c0-0.2,0-0.4,0-0.6c0-1.2,0.4-2.3,1.1-3.3c0.4-0.4,0.9-0.6,1.4-0.7l1.7-0.1c1.8-0.2,3.5-0.3,5.3-0.4
			c2.5-0.1,5-0.1,7.5,0c0.3,0,0.7,0,1,0h2c0.3,0,0.7,0,1,0l1.6,0.1c0.5,0,1.1,0.1,1.6,0.3c0.5,0.2,0.9,0.4,1.3,0.8
			c0.4,0.3,0.5,0.9,0.2,1.3l-0.8,1.2c-0.2,0.4-0.6,0.7-1,0.8c-0.8,0.2-1.7,0.2-2.5,0.2h-1.3c-0.4,0-0.8,0-1.3,0l-4.8,0.2
			c-1.6,0.1-3.1,0.3-4.7,0.5l-1.3,0.2c-0.4,0-0.8,0.1-1.3,0.2c-0.8,0.2-1.5,0.8-1.7,1.6c-0.2,0.9-0.3,1.7-0.4,2.6c0,0.6,0,1.4,0,2.5
			h0.5c0.2,0,0.3,0,0.5,0c1.3-0.2,2.5-0.4,3.5-0.5l6.8-0.6c0.9-0.1,1.7,0,2.5,0.1c0.9,0.1,1.7,0.4,2.4,0.9c0.7,0.6,0.7,1.2-0.2,2
			c-0.4,0.3-0.8,0.5-1.2,0.7c-0.3,0.2-0.7,0.3-1,0.4c-0.5,0.1-1,0.2-1.5,0.3l-1.1,0.1c-0.1,0-0.2,0-0.4,0l-6.6,0.9
			c-0.7,0.1-1.4,0.3-2.2,0.5c-0.6,0.2-1.3,0.4-2.1,0.7v5.7c0,0.2,0.1,0.4,0.1,0.7c0,0.2,0.1,0.4,0.3,0.5c0.5,0.3,1,0.4,1.5,0.3
			l8.8-1.1l0.7-0.1c0.1,0,0.2,0,0.2,0c0.7-0.1,1.3-0.2,2-0.2l5-0.3l0.6-0.1c0.6-0.1,1.2,0,1.9,0.1c1.1,0.2,1.6,0.8,1.4,1.8
			c-0.2,0.9-0.8,1.6-1.6,1.8C431.2,875.9,429.8,876.3,428.3,876.6z"/>
		<path class="st1" d="M445.3,858.1l-1,1.6c-0.5,0.8-0.8,1.7-0.7,2.6c0.8,0.6,1.8,0.9,2.8,0.8c0.6,0,1.1-0.1,1.7-0.2
			c1.1-0.2,2.1-0.3,3-0.3c1.2-0.1,2.3-0.1,3.3-0.1c1.5,0,2.9,0.1,4.4,0.3c1.3,0.2,2.7,0.5,3.9,1c2.4,0.8,4.1,2.7,4.7,5.2
			c0.3,1.8-0.2,3.6-1.4,5c-1.1,1.6-2.6,2.8-4.4,3.6c-0.9,0.4-1.9,0.7-2.8,1c-0.4,0.1-0.9,0.3-1.5,0.4l-1.5,0.4
			c-2.1,0.3-4.2,0.5-6.3,0.4c-2,0.1-3.9-0.1-5.8-0.6c-1.9-0.4-3.8-1.2-5.4-2.4c-0.8-0.4-1.4-1.3-1.4-2.2c0-0.6,0.4-1.2,1-1.4
			c0.4-0.2,0.9-0.3,1.3-0.3c0.7,0,1.4,0.2,2,0.4l1,0.3c0.3,0.1,0.7,0.1,1,0.2c0.9,0.1,1.9,0.2,3,0.2l4.8,0.1c1.1,0,2,0,2.7,0
			c0.8,0,1.6-0.1,2.4-0.3c1.3-0.2,2.5-0.6,3.6-1.2c1.5-0.7,2.3-1.4,2.3-2.1c0-0.7-0.6-1.2-1.7-1.6c-1.1-0.4-2.2-0.6-3.3-0.6
			c-0.6-0.1-1.2-0.1-1.9-0.1h-1.5c-0.9,0-1.9,0-2.8,0l-4.2,0.3c-0.2,0-0.3,0-0.5,0c-0.8,0.1-1.3,0.1-1.7,0.2c-0.2,0-0.5,0.1-0.7,0.2
			h-0.1c-0.1,0-0.1,0-0.2,0l-0.3,0.1c-0.5,0.1-1,0.1-1.5,0.1c-1.6-0.2-3.1-0.9-4.3-2.1c-0.6-0.7-0.8-1.5-0.7-2.4
			c0-0.6,0.1-1.3,0.3-1.9c0.3-0.8,0.7-1.6,1.2-2.3l0.5-0.9c0-0.1,0.1-0.2,0.2-0.3c0.3-0.5,0.5-0.9,0.6-1.2c1.4-2.6,3-5.1,4.8-7.5
			c0.2-0.2,0.5-0.6,0.9-1c0.4-0.4,0.9-0.9,1.5-1.4c1.1-1,2.4-1.8,3.9-2.2c1-0.3,2-0.3,2.9,0c0.9,0.7,1.5,1.6,1.8,2.7l0.8,2.6
			c0.2,0.7,0.5,1.7,0.7,2.7c0.2,0.7,0.2,1.4,0.2,2.1c0.2,1.1-0.6,2.1-1.7,2.3c-0.1,0-0.1,0-0.2,0c-1,0.1-1.9-0.7-2.8-2.4
			c-0.2-0.3-0.3-0.7-0.4-1c-0.1-0.1-0.1-0.3-0.1-0.5l-0.4-1.3c-0.1-0.3-0.2-0.6-0.3-0.8c-0.2-0.4-0.8-0.1-1.9,0.7
			c-0.8,0.7-1.6,1.4-2.2,2.3C446.6,856,446,857,445.3,858.1z"/>
		<path class="st1" d="M187.5,911.4c0,0.7-0.1,1.3-0.1,2l-0.3,2.1c-0.3,2-1.1,3.9-2.3,5.5c-1.1,1.7-2.5,3.2-4,4.5
			c-0.8,0.7-1.8,1.5-3.1,2.4c-0.9,0.7-2,1.4-3.3,2.2c-2.7,1.7-5.8,2.9-8.9,3.5c-1.2,0.3-2.4,0.4-3.6,0.5c-0.6,0-1.3-0.1-1.9-0.2
			c-0.7-0.2-1.3-0.8-1.5-1.5c-0.2-0.8-0.4-1.6-0.3-2.4v-1.6c0-0.6,0-1.1,0-1.3c-0.1-1.2-0.1-2.1-0.1-2.7l0.1-5.1
			c0-1.6-0.1-3.2-0.3-4.8c-0.2-1-0.4-1.9-0.8-2.8l-0.5-1.3l-0.4-1.3c-0.2-0.9,0-1.9,0.6-2.5c0.7-0.6,1.6-1.1,2.5-1.3
			c2.5-0.6,5-1,7.5-1.2c2.8-0.3,5.4-0.4,7.7-0.4h1.5c0.6,0,1.1,0,1.5,0c1.2,0,2.3,0.1,3.3,0.2c1.9,0.2,3.7,1.2,4.9,2.7
			C186.9,907.9,187.5,909.6,187.5,911.4z M182,912.3c0-0.4-0.1-0.9-0.2-1.3c-0.4-1.1-1.4-1.8-3.1-2.1c-0.7-0.1-1.5-0.2-2.2-0.1
			l-4-0.1c-1.1,0-2.1,0-3.1,0c-0.9,0-1.7,0.1-2.6,0.2l-2.5,0.3c-0.2,0-0.3,0-0.5,0.1l-1.5,0.3c0.3,1,0.5,1.7,0.6,2.3l0.2,1.1
			c0,0.3,0,0.7,0,1.2v1.3c0,0.7,0,1.5,0,2.4v4.1c0,0.6,0,1.1,0,1.7c0,0.5,0,0.9,0,1.4v1.4c0,0.5,0,1,0.1,1.5c0.4,0,0.9,0,1.3-0.1
			l1-0.2c0.1,0,0.2,0,0.3,0c1.4-0.3,2.8-0.7,4.1-1.3c1.4-0.7,2.8-1.5,4.1-2.5c2.4-1.6,4.4-3.6,6.1-5.9c0.7-1.1,1.2-2.2,1.5-3.5
			C181.9,913.8,182,913.1,182,912.3L182,912.3z"/>
		<path class="st1" d="M213.1,932.3c-1.2,0.2-2.6,0.5-4.2,0.7l-4.3,0.6c-1.7,0.2-3.1,0.4-4.3,0.7c-1.5,0.3-3.1,0.4-4.6,0.3
			c-1,0-2-0.4-2.6-1.2c-0.6-0.9-1-1.9-1.2-2.9c-0.1-0.4-0.2-0.9-0.3-1.5l-0.2-1.6c-0.2-1.6-0.4-3.2-0.4-4.8c0-1.5,0-3.1,0.1-4.8
			l0.3-7l0.2-1.6c0-0.2,0-0.4,0-0.6c0-1.2,0.4-2.3,1.1-3.3c0.4-0.4,0.9-0.6,1.4-0.7l1.7-0.1c1.8-0.2,3.5-0.3,5.3-0.4
			c2.5-0.1,5-0.1,7.5,0c0.3,0,0.7,0,1,0h1.9c0.3,0,0.7,0,1,0l1.6,0.1c0.5,0,1.1,0.1,1.6,0.3c0.5,0.2,0.9,0.4,1.3,0.8
			c0.4,0.3,0.5,0.9,0.2,1.3l-0.8,1.2c-0.2,0.4-0.6,0.7-1,0.8c-0.8,0.2-1.7,0.2-2.6,0.2h-1.3c-0.4,0-0.8,0-1.3,0l-4.8,0.2
			c-1.6,0.1-3.1,0.3-4.7,0.5l-1.3,0.2c-0.4,0-0.8,0.1-1.3,0.2c-0.8,0.2-1.5,0.8-1.7,1.6c-0.2,0.9-0.3,1.7-0.4,2.6c0,0.6,0,1.4,0,2.5
			h0.5c0.2,0,0.3,0,0.5,0c1.3-0.2,2.5-0.4,3.5-0.5l6.8-0.6c0.9-0.1,1.7,0,2.6,0.1c0.9,0.1,1.7,0.4,2.4,0.9c0.7,0.6,0.7,1.2-0.2,2
			c-0.4,0.3-0.8,0.5-1.2,0.7c-0.3,0.2-0.7,0.3-1,0.4c-0.5,0.1-1,0.2-1.5,0.3l-1.1,0.1c-0.1,0-0.2,0-0.4,0l-6.6,0.9
			c-0.7,0.1-1.4,0.3-2.2,0.5c-0.6,0.2-1.3,0.4-2.1,0.7v5.7c0,0.2,0.1,0.4,0.1,0.7c0,0.2,0.1,0.4,0.3,0.5c0.5,0.3,1,0.4,1.5,0.3
			l8.8-1.1l0.7-0.1c0.1,0,0.2,0,0.2,0c0.7-0.1,1.3-0.2,2-0.2l5-0.3l0.6-0.1c0.6-0.1,1.2,0,1.9,0.1c1.1,0.2,1.6,0.8,1.4,1.8
			c-0.2,0.9-0.8,1.6-1.6,1.8C215.9,931.6,214.5,932,213.1,932.3z"/>
		<path class="st1" d="M261.2,932.8c-0.2,0.1-0.4,0.1-0.6,0.2h-0.3c-0.1,0-0.2,0-0.4,0l-4.2,0.7c-1,0.2-2.1,0.4-3.3,0.5
			c-1,0.1-2,0.2-3.3,0.4l-6.5,0.6c-1,0.1-1.9,0-2.9-0.3c-1.2-0.4-1.9-1.1-1.9-2c0-0.6,0.4-1.1,0.9-1.3c0.3-0.1,0.5-0.3,0.8-0.4
			l0.7-0.3c0.6-0.2,1.3-0.4,1.9-0.5c0.5-0.1,1.2-0.2,1.9-0.3c0.6-0.1,1.4-0.2,2.3-0.3l2.4-0.4c0.1-0.6,0.1-1.3,0-2c0-0.6,0-1.2,0-2
			l0.1-4.1c0-0.8,0-1.4,0-2c0-0.7,0-1.5,0.1-2.3c0-0.6,0.1-1.4,0.2-2.2l0.5-4.5c-0.4,0.4-0.9,0.7-1.4,1l-0.4,0.2l-4.2,2.6
			c-0.9,0.6-1.9,0.9-3,1c-1.1,0-1.6-0.6-1.4-1.9c0.2-1.1,0.8-2.2,1.6-2.9c0.4-0.4,0.9-0.8,1.4-1.1l1.4-1c0.7-0.5,1.6-1.2,2.7-2.1
			l1-0.8c0.1-0.1,0.2-0.2,0.3-0.3l1.4-1.1c0.6-0.4,1.2-0.8,1.9-1.2c0.6-0.3,1.4-0.5,2.1-0.6c0.5,0,0.9,0.1,1.4,0.3
			c0.8,0.4,1.2,1.1,1,2.3c-0.1,0.7-0.2,1.4-0.2,2.2l-0.2,2.2c-0.1,0.8-0.2,1.6-0.2,2.6l-0.1,2.6c0,0.5-0.1,1.1-0.2,1.8v0.4
			c0,0.1,0,0.3,0,0.4l-0.3,4.4v3.4c0,0.5,0,1.1-0.1,2v1c0,0.4,0,0.7,0,1h1.4l2.9-0.1h2.1c0.2,0,0.4,0,0.6,0c0.4,0.1,0.8,0.4,1,0.7
			c0.6,0.7,0.7,1.6,0.3,2.5C262.1,932.4,261.7,932.7,261.2,932.8z"/>
		<path class="st1" d="M280,903.4l3.2-0.1c0.7,0,1.5-0.1,2.4-0.2l2.4-0.3c0.6-0.1,1.2,0.1,1.6,0.6c0.4,0.5,0.6,1.1,0.4,1.7
			c-0.3,1.2-1.3,2-2.9,2.6c-0.7,0.2-1.4,0.4-2.1,0.5l-4.1,0.5c-0.8,0.1-1.5,0.2-2.1,0.2l-3.9,0.2c-0.4,0-0.7,0.1-1.1,0.2
			c-0.3,0.1-0.5,0.1-0.6,0.2c-0.4,1-0.7,2-0.7,3.1v1.4l0.1,1.3c0,0.8,0.3,1.2,0.8,1.3c0.6,0,1.3,0,2.1,0l5-0.2c1,0,1.8,0,2.4,0
			c0.6,0,1.2,0,1.6,0c1.6,0,3.1,0.4,4.5,1c1.4,0.7,2.5,1.8,3.1,3.3c0.5,1.1,0.7,2.2,0.7,3.4c0,2.8-1.4,5.4-3.8,6.9
			c-1.1,0.8-2.2,1.4-3.5,1.8c-1.2,0.4-2.5,0.8-3.8,1c-2.1,0.3-4.3,0.5-6.5,0.5c-0.4,0-0.8,0-1.3,0h-1.3c-1.7,0-3.4-0.5-4.9-1.3
			c-1.5-0.8-2.6-2.2-2.9-3.8c-0.3-1.4,0.4-2.2,2.1-2.4c0.7,0,1.3,0.2,1.9,0.6c0.1,0.1,0.3,0.2,0.4,0.3l1.3,0.9
			c1.5,0.8,3.1,1.2,4.7,1.1c0.7,0,1.3-0.1,2-0.1l2.5-0.3l1.7-0.3c0.8-0.2,1.7-0.4,2.5-0.7c2-0.6,3.2-1.5,3.7-2.5
			c0.6-1.4,0-2.5-1.9-3.3c-0.8-0.3-1.6-0.5-2.4-0.6c-0.7-0.1-1.4-0.2-2.1-0.2c-0.3,0-0.7,0-1.1,0H279c-1.5,0-3,0.1-4.5,0.2
			c-1.3,0.1-2.7,0.3-4,0.7c-0.6,0.2-1.2,0.2-1.8,0.1c-0.6-0.1-1.1-0.6-1.3-1.2c-0.2-0.7-0.2-1.4-0.1-2.1l0.2-1.6c0-0.2,0-0.3,0-0.5
			l0.1-3.7c0-0.8,0-1.6-0.1-2.4c-0.1-0.3-0.1-0.6-0.2-0.8l-0.1-0.5c-0.1-0.2-0.1-0.3-0.1-0.5c-0.2-0.6-0.3-1.3-0.3-1.9
			c0-0.5,0.1-1,0.4-1.5c0.4-0.6,1.1-1,1.8-1.1c0.9-0.2,1.8-0.4,2.8-0.5l1.5-0.1c0.4,0,0.9,0,1.4,0h1.2c0.3,0,0.7,0,1,0L280,903.4z"
			/>
		<path class="st1" d="M340.9,933.1c-0.7-0.1-1.3-0.5-1.6-1.2l-0.3-0.4c-0.1-0.1-0.1-0.3-0.2-0.5l-0.1-0.2c0-0.1-0.1-0.2-0.1-0.2
			l-0.2-0.4c-0.5-0.8-1-1.7-1.4-2.5c-0.1-0.1-0.1-0.2-0.2-0.3l-0.5-1l-0.7-1.3c-1.2,0.5-2.4,1-3.7,1.3c-1.3,0.3-2.6,0.6-4.1,0.9
			c-1.9,0.4-3.9,0.7-5.8,0.7h-1.7c-0.7,0-1.2,0-1.7,0c-0.7,1.2-1.2,2.3-1.7,3.4c-0.5,1.1-0.8,1.8-0.9,2.3c-0.2,0.7-0.7,1.3-1.4,1.7
			c-0.7,0.3-1.4,0.1-1.9-0.5c-0.3-0.4-0.5-0.8-0.5-1.3c0-0.5,0-1,0-1.4c0.1-1.1,0.3-2.1,0.6-3.1c0.1-0.5,0.3-1,0.6-1.5l0.6-1.4
			c0.4-0.9,0.9-2,1.6-3.3l0.9-1.6c0.3-0.6,0.6-1.2,0.8-1.6c0.4-0.9,0.9-1.8,1.5-2.7l0.8-1.3c0.3-0.4,0.6-0.9,0.8-1.3
			c1.5-2.5,3.2-5.2,5.1-8c0.4-0.7,0.9-1.3,1.5-1.9c0.6-0.5,1.4-0.8,2.2-0.7c0.8,0.1,1.6,0.6,2.1,1.3c0.3,0.3,0.5,0.7,0.7,1.1
			l2.6,4.7c0.6,1.2,1.2,2.5,1.7,3.8c0.2,0.5,0.4,1,0.7,1.4l0.8,1.4c0.6,1.1,1,1.9,1.3,2.5c0.7,1.3,1.3,2.7,2,4.4
			c0.4,1.2,0.9,2.4,1.4,3.6c0.4,0.8,0.6,1.6,0.6,2.4C343.2,932.2,342.5,933.2,340.9,933.1z M331,921.5c0.9-0.2,1.7-0.5,2.5-0.8
			l-0.8-1.6c-0.6-1.3-1.3-2.5-2-3.8c-0.7-1.1-1.5-2.3-2.4-3.7c-0.8,0.7-1.5,1.5-2.1,2.5l-1.8,2.8c-1.2,2-2.3,3.9-3.3,5.8
			c0.7,0,1.4,0,2.1-0.1c0.3-0.1,0.8-0.1,1.3-0.2l1.3-0.1c1.1-0.1,1.9-0.2,2.6-0.4C329.3,921.8,330.1,921.7,331,921.5z"/>
		<path class="st1" d="M385.3,932.8c-0.2,0.1-0.4,0.1-0.6,0.2h-0.3c-0.1,0-0.2,0-0.4,0l-4.2,0.7c-1,0.2-2.1,0.4-3.3,0.5
			c-1,0.1-2,0.2-3.3,0.4l-6.5,0.6c-1,0.1-1.9,0-2.9-0.3c-1.2-0.4-1.9-1.1-1.9-2c0-0.6,0.4-1.1,0.9-1.3c0.3-0.1,0.5-0.3,0.8-0.4
			l0.7-0.3c0.6-0.2,1.3-0.4,2-0.5c0.5-0.1,1.2-0.2,2-0.3c0.6-0.1,1.4-0.2,2.3-0.3l2.4-0.4c0.1-0.6,0.1-1.3,0-2c0-0.6,0-1.2,0-2
			l0.1-4.1c0-0.8,0-1.4,0-2c0-0.7,0-1.5,0.1-2.3c0-0.6,0.1-1.4,0.2-2.2l0.5-4.5c-0.4,0.4-0.9,0.7-1.4,1l-0.4,0.2l-4.2,2.6
			c-0.9,0.6-1.9,0.9-3,1c-1.1,0-1.6-0.6-1.4-1.9c0.2-1.1,0.8-2.2,1.6-2.9c0.4-0.4,0.9-0.8,1.4-1.1l1.4-1c0.7-0.5,1.6-1.2,2.7-2.1
			l1-0.8c0.1-0.1,0.2-0.2,0.3-0.3l1.4-1.1c0.6-0.4,1.2-0.8,1.9-1.2c0.6-0.3,1.4-0.5,2.1-0.6c0.5,0,0.9,0.1,1.4,0.3
			c0.8,0.4,1.2,1.1,1,2.3c-0.1,0.7-0.2,1.4-0.2,2.2l-0.2,2.2c-0.1,0.8-0.2,1.6-0.2,2.6l-0.1,2.6c0,0.5-0.1,1.1-0.2,1.8v0.4
			c0,0.1,0,0.3,0,0.4l-0.3,4.4v3.4c0,0.5,0,1.1-0.1,2v1c0,0.4,0,0.7,0,1h1.4l2.9-0.1h2.1c0.2,0,0.4,0,0.6,0c0.4,0.1,0.8,0.4,1,0.7
			c0.6,0.7,0.7,1.6,0.3,2.5C386.2,932.4,385.8,932.7,385.3,932.8z"/>
		<path class="st1" d="M420.1,923.5c0,1.1-0.2,2.1-0.6,3.1c-0.6,1.4-1.6,2.6-2.8,3.6c-1.2,1-2.5,1.8-3.9,2.3c-1.5,0.6-3,1.1-4.6,1.3
			c-1.3,0.2-2.9,0.5-4.6,0.7c-1.2,0.1-2.3,0.2-3.5,0.2c-2.3,0-4.6-0.4-6.7-1.3c-1.3-0.4-2.5-1.3-3.4-2.4c-0.6-0.9-1-1.9-1.1-3
			c-0.2-1.9,0.4-3.7,1.6-5.2c1.4-1.5,3-2.8,4.8-3.8l-0.5-0.2l-1.8-0.4c-0.9-0.2-1.7-0.7-2.3-1.3c-1.2-1.1-1.9-2.7-1.9-4.3
			c0.1-1.5,0.6-3,1.6-4.1c0.9-1.2,1.9-2.3,3.1-3.2c0.9-0.6,1.9-1.1,2.9-1.5c0.5-0.2,1-0.4,1.5-0.5l1.6-0.4c0.9-0.2,1.8-0.4,2.6-0.5
			l2.7-0.2c0.8,0,1.6,0,2.4,0l2.4,0.3c2.1,0.2,4,1.2,5.4,2.7c0.8,1,1.3,2.3,1.3,3.6c0,1-0.2,2-0.6,2.9c-0.4,0.9-0.9,1.8-1.5,2.6
			l-0.4,0.5l-0.4,0.3l-0.1,0.1c-0.3,0.3-0.6,0.6-0.9,1c1,0,2.1,0.2,3.1,0.5c1,0.3,2,0.7,2.8,1.3c0.9,0.6,1.4,1.5,1.6,2.5
			C420.1,921.7,420.1,922.6,420.1,923.5z M414.5,925.2c0.5-0.6,0.4-1.5-0.1-2.1c-1-0.9-2.2-1.4-3.6-1.4l-3.1-0.4
			c-0.4-0.1-0.9-0.1-1.4-0.1h-0.7c-0.2,0-0.5,0-0.7,0c-0.9-0.1-1.8,0-2.7,0.3c-0.9,0.3-1.8,0.6-2.6,1c-0.5,0.2-1,0.5-1.4,0.8
			c-0.2,0.1-0.4,0.3-0.6,0.4l-0.8,0.5c-0.1,0.1-0.2,0.1-0.3,0.2c-0.1,0.1-0.3,0.1-0.4,0.2c-0.3,0.2-0.5,0.4-0.8,0.6
			c-0.5,0.4-0.8,0.9-1,1.5c-0.3,0.8,0.1,1.6,0.8,1.9c0,0,0,0,0.1,0c0.5,0.2,0.9,0.3,1.4,0.4l4.2,0.5c1.1,0,2.3,0,3.4-0.1
			c0.5,0,1.1-0.1,1.7-0.2l1.7-0.2c1.9-0.3,3.7-1,5.3-2C413.5,926.6,414.1,926,414.5,925.2L414.5,925.2z M397,914.8
			c0.8,0.3,1.6,0.5,2.4,0.7l4.6,0.8c0.2-0.1,0.4-0.1,0.6-0.2l3.2-1.8c0.7-0.4,1.4-1,2-1.6c0.6-0.6,1-1.3,1.1-2.2
			c0.1-1.1-0.6-2-1.6-2.3c-0.7-0.2-1.4-0.4-2.2-0.4c-0.3,0-0.6,0-0.8,0h-0.8c-3-0.1-5.9,0.6-8.6,2c-0.7,0.4-1.3,0.9-1.8,1.6
			c-0.6,0.9-0.6,1.6-0.1,2.2C395.5,914.2,396.2,914.6,397,914.8z"/>
		<path class="st1" d="M468.9,933.1c-0.7-0.1-1.3-0.5-1.6-1.2l-0.3-0.4c-0.1-0.1-0.1-0.3-0.2-0.5l-0.1-0.2c0-0.1-0.1-0.2-0.1-0.2
			l-0.2-0.4c-0.5-0.8-1-1.7-1.4-2.5c-0.1-0.1-0.1-0.2-0.2-0.3l-0.5-1l-0.7-1.3c-1.2,0.5-2.4,1-3.7,1.3c-1.3,0.3-2.6,0.6-4.1,0.9
			c-1.9,0.4-3.9,0.7-5.8,0.7h-1.7c-0.7,0-1.2,0-1.7,0c-0.7,1.2-1.2,2.3-1.7,3.4s-0.8,1.8-0.9,2.3c-0.2,0.7-0.7,1.3-1.4,1.7
			c-0.7,0.3-1.4,0.1-1.9-0.5c-0.3-0.4-0.5-0.8-0.5-1.3c0-0.5,0-1,0-1.4c0.1-1.1,0.3-2.1,0.6-3.1c0.1-0.5,0.3-1,0.6-1.5l0.6-1.4
			c0.4-0.9,0.9-2,1.6-3.3l0.9-1.6c0.3-0.6,0.6-1.2,0.8-1.6c0.4-0.9,0.9-1.8,1.5-2.7l0.8-1.3c0.3-0.4,0.6-0.9,0.8-1.3
			c1.5-2.5,3.2-5.2,5.1-8c0.4-0.7,0.9-1.3,1.5-1.9c0.6-0.5,1.4-0.8,2.2-0.7c0.8,0.1,1.6,0.6,2.1,1.3c0.3,0.3,0.5,0.7,0.7,1.1
			l2.6,4.7c0.6,1.2,1.2,2.5,1.7,3.8c0.2,0.5,0.4,1,0.7,1.4l0.8,1.4c0.6,1.1,1,1.9,1.3,2.5c0.7,1.3,1.3,2.7,2,4.4
			c0.4,1.2,0.9,2.4,1.4,3.6c0.4,0.8,0.6,1.6,0.6,2.4C471.3,932.2,470.5,933.2,468.9,933.1z M459,921.5c0.9-0.2,1.7-0.5,2.5-0.8
			l-0.8-1.6c-0.6-1.3-1.3-2.5-2-3.8c-0.7-1.1-1.5-2.3-2.4-3.7c-0.8,0.7-1.5,1.5-2.1,2.5l-1.8,2.8c-1.2,2-2.3,3.9-3.3,5.8
			c0.7,0,1.4,0,2.1-0.1c0.3-0.1,0.8-0.1,1.3-0.2l1.3-0.1c1.1-0.1,1.9-0.2,2.6-0.4C457.3,921.8,458.2,921.7,459,921.5L459,921.5z"/>
		<path class="st1" d="M475.2,920.8c0.1-0.9,0.1-1.8,0.1-2.6c0-0.6,0-1.2,0-1.9l0.2-3.4c0-0.7,0-1.3,0-1.8v-0.8c0-0.3,0-0.6,0-0.9
			c-0.1-0.8,0.1-1.5,0.3-2.2c0.2-0.7,0.6-1.4,1.3-1.8c1-0.5,2.2-0.4,3.1,0.2c1,0.6,1.8,1.3,2.5,2.3l1.1,1.4c0.4,0.4,0.7,0.9,1.2,1.3
			l2.6,2.2c0.9,0.8,1.7,1.5,2.4,2.2c0.4,0.5,0.9,0.9,1.4,1.3l4.1,3.7c0.4,0.5,0.9,0.9,1.5,1.2c0-0.4,0-0.9,0-1.5v-3c0-0.6,0-1,0-1.4
			l-0.3-8.8c0-0.9,0.2-1.8,0.8-2.6c0.3-0.4,0.8-0.8,1.3-1.1c0.5-0.3,1.1-0.2,1.4,0.3c0.8,0.9,1.2,2.1,1.2,3.3l0.5,4
			c0.2,1.3,0.3,2.7,0.3,4v2.1c0,0.8,0,1.5,0,2.1c0.1,1.5,0.2,2.8,0.3,4c0,0.3,0,0.7,0,1.2v2.7v1.2l0.1,2.4c0,0.5,0,0.9-0.1,1.3
			c-0.1,0.5-0.3,1.1-0.6,1.6c-0.2,0.5-0.6,1-1.1,1.2c-1.1,0.4-2.1-0.1-2.9-1.5l-0.9-1.5c-0.3-0.7-0.6-1.2-0.8-1.5
			c-0.2-0.4-0.4-0.8-0.7-1.2l-0.9-1.2c-0.8-1-1.6-1.9-2.5-2.8l-3.4-3.3l-0.3-0.3l-1.5-1.5c-0.9-0.8-1.8-1.6-2.8-2.3l-0.6-0.5
			l-0.7-0.6c-0.7-0.5-1.2-0.9-1.5-1.1l-0.7,5.2c-0.1,1.1-0.2,2.5-0.4,3.9l-0.6,5.4c0,0.2,0,0.4,0,0.6v0.6c0,0.4-0.1,0.8-0.1,1.3
			l-0.1,0.8c-0.1,0.3-0.1,0.6-0.3,0.9c-0.4,0.9-1.3,1.4-2.2,1.3c-0.8,0-1.5-0.4-1.9-1c-0.5-0.9-0.6-1.9-0.4-2.9l0.4-3.7
			c0.2-1.5,0.3-2.8,0.4-3.7C475.1,922.4,475.2,921.6,475.2,920.8z M486.4,894.7c0.4,0.1,0.9,0.4,1.2,0.7l1,1c0.3,0.4,0.6,0.7,1,1
			c0.4,0.3,0.9,0.4,1.4,0.5c1,0.2,2-0.2,2.7-0.9c0.3-0.3,0.5-0.6,0.6-1c0-0.1,0-0.2,0-0.3c0-0.1,0-0.2-0.1-0.3l-0.1-0.3
			c0-0.1,0-0.2,0-0.3c0.1-0.4,0.5-0.7,0.9-0.7c0.4-0.1,0.9-0.1,1.3,0c0.9,0.2,1.5,0.8,1.7,1.7c0.2,1,0,2-0.6,2.8
			c-0.5,0.9-1.2,1.6-2,2.2c-1.3,0.8-2.8,1.2-4.4,1.2c-0.8,0-1.6-0.1-2.4-0.4c-0.9-0.3-1.7-0.8-2.4-1.5c-0.5-0.6-1.4-1-2.2-0.8
			c-0.8,0.2-1.3,0.8-1.4,1.9c0,0.4-0.2,0.8-0.6,0.9c-0.5,0.2-1,0.2-1.5,0.1c-0.9-0.2-1.5-1.1-1.5-2c0-0.4,0.1-0.9,0.3-1.3
			c0.8-1.6,2.1-2.8,3.7-3.5C484,894.6,485.2,894.4,486.4,894.7z"/>
		<path class="st1" d="M538,914c0.5,1.5,0.8,3,0.8,4.6c0,0.7-0.1,1.3-0.2,2c-0.2,0.9-0.4,1.9-0.7,2.8c-0.3,0.9-0.9,1.7-1.5,2.4
			c-0.4,0.4-0.8,0.8-1.3,1.1l-2.6,1.8c-0.1,0-0.2,0.1-0.2,0.2c-0.2,0.1-0.3,0.2-0.5,0.3c-0.6,0.5-1.3,0.9-2,1.3
			c-3.1,1.8-6.5,2.9-10.1,3.1c-1.3-0.1-2.5-0.3-3.8-0.7c-1.3-0.3-2.5-0.8-3.6-1.5c-3.8-2.5-6.1-6.8-6-11.4c0-1.7,0.4-3.4,1.1-4.9
			l1.1-2.2c0.4-0.7,0.8-1.4,1.4-2c0.5-0.6,1.1-1.1,1.8-1.6c0.6-0.4,1.2-0.8,2-1.3c2.2-1.3,4.7-2.1,7.2-2.4l1.1-0.1
			c0.1,0,0.3,0,0.4,0c0.5,0,1,0,1.5,0l3.8,0.5c1.2,0,2.3,0.2,3.5,0.4c0.8,0.2,1.6,0.4,2.4,0.7c0.8,0.3,1.5,0.8,2,1.4
			c0.6,0.9,1.2,1.8,1.5,2.8c0.2,0.4,0.4,0.9,0.6,1.5c0.1,0.1,0.1,0.2,0.1,0.4L538,914z M531.4,922.7c1.2-1,1.9-2.6,1.8-4.1
			c0-1-0.2-1.9-0.5-2.8l-0.4-0.9c-0.1-0.3-0.2-0.6-0.4-0.9c-0.3-0.6-0.6-1.2-1.1-1.7c-0.5-0.4-1-0.7-1.6-0.8l-1.8-0.4
			c-0.6-0.2-1.2-0.3-1.8-0.3c-0.3,0-0.7,0-1,0h-0.9c-1.3-0.1-2.5,0-3.8,0.2c-1.2,0.2-2.4,0.5-3.5,1.1c-1.1,0.5-2.1,1.3-2.8,2.4
			c-1.2,1.6-1.8,3.5-1.9,5.5c0,1.7,0.7,3.3,1.9,4.4c1,1.1,2.2,2.1,3.4,3c0.7,0.5,1.6,0.7,2.5,0.7c0.9,0,1.8-0.1,2.6-0.3
			c1.9-0.3,3.7-0.9,5.4-1.9c0.7-0.4,1.4-0.9,2-1.4L531.4,922.7z"/>
		<path class="st1" d="M550.5,913.8l-1,1.6c-0.5,0.8-0.8,1.7-0.7,2.6c0.8,0.6,1.8,0.9,2.8,0.8c0.5,0,1.1,0,1.6-0.1
			c1.1-0.2,2.1-0.3,3-0.3c1.2-0.1,2.3-0.1,3.3-0.1c1.5,0,2.9,0.1,4.4,0.3c1.3,0.2,2.7,0.5,3.9,1c2.4,0.8,4.1,2.7,4.7,5.2
			c0.3,1.8-0.2,3.6-1.4,5c-1.1,1.6-2.6,2.8-4.4,3.6c-0.9,0.4-1.9,0.7-2.8,1c-0.4,0.1-0.9,0.3-1.5,0.4L561,935
			c-2.1,0.3-4.2,0.5-6.3,0.4c-2,0.1-3.9-0.1-5.8-0.6c-1.9-0.4-3.8-1.2-5.4-2.4c-0.8-0.4-1.4-1.3-1.4-2.2c0-0.6,0.4-1.2,1-1.4
			c0.4-0.2,0.9-0.3,1.3-0.3c0.7,0,1.4,0.2,2,0.4l1,0.3c0.3,0.1,0.7,0.1,1,0.2c0.9,0.1,1.9,0.2,3,0.2l4.8,0.1c1.1,0,2,0,2.7,0
			c0.8,0,1.6-0.1,2.4-0.3c1.3-0.2,2.5-0.6,3.6-1.2c1.5-0.7,2.3-1.5,2.3-2.1c0-0.7-0.6-1.2-1.7-1.6c-1.1-0.4-2.2-0.6-3.3-0.6
			c-0.6-0.1-1.2-0.1-1.9-0.1h-1.5c-0.9,0-1.9,0-2.8,0l-4.2,0.3c-0.2,0-0.3,0-0.5,0c-0.8,0.1-1.3,0.1-1.7,0.2c-0.2,0-0.5,0.1-0.7,0.2
			h-0.1c-0.1,0-0.1,0-0.2,0l-0.3,0.1c-0.5,0.1-1,0.1-1.5,0.1c-1.6-0.2-3.1-0.9-4.3-2.1c-0.6-0.7-0.8-1.5-0.7-2.4
			c0-0.6,0.1-1.3,0.3-1.9c0.3-0.8,0.7-1.6,1.2-2.3l0.5-0.9c0-0.1,0.1-0.2,0.2-0.3c0.3-0.5,0.5-0.9,0.7-1.2c1.4-2.6,3-5.1,4.8-7.5
			c0.2-0.2,0.5-0.6,0.9-1c0.4-0.4,0.9-0.9,1.5-1.4c1.1-1,2.4-1.8,3.9-2.2c1-0.3,2-0.3,2.9,0c0.9,0.7,1.5,1.6,1.8,2.7l0.8,2.6
			c0.2,0.7,0.5,1.7,0.7,2.7c0.2,0.7,0.2,1.4,0.2,2.1c0.2,1.1-0.6,2.1-1.7,2.3c-0.1,0-0.1,0-0.2,0c-1,0.1-1.9-0.7-2.8-2.4
			c-0.2-0.3-0.3-0.7-0.4-1c-0.1-0.1-0.1-0.3-0.1-0.5l-0.4-1.3c-0.1-0.3-0.2-0.6-0.3-0.8c-0.2-0.4-0.8-0.1-1.9,0.7
			c-0.8,0.7-1.6,1.4-2.2,2.3C551.8,911.6,551.2,912.6,550.5,913.8z"/>
		<polygon class="st8" points="92.3,738.4 648.3,738.4 649.6,702.3 89.5,702.3 		"/>
		<path class="st9" d="M369.5,460.4c-1.6-19.3-4.3-38.5-6.9-57.7c-3.6-26.2-15.3-51.9-24.3-76.9c-2.5-7-66.5,1.7-98.9,3.8
			c-5.5-0.4-11.9-0.9-18.8-1.5c-3.9-3.5-47.1-24-74.1-4.6c-3.4,0.4-5.6,1.1-6,2.3c-0.6,1.8-1.3,3.5-1.9,5.3
			c-6.1,7.6-10.6,18.5-12.6,33.7c-4.3,12.5-8,25.1-9.8,37.9c-2.6,19.2-5.4,38.4-6.9,57.7c-2.7,32.8-2.4,65.7-1.4,98.5
			c0.5,18,2.4,35.9,5.5,53.5c0.5,3.1,0.6,6.6,5.2,7.9c10.6,3,36.6-4.9,40-5.1c8.7-0.5,17.4-1.2,26.1-1.9c1.6-0.1,27.8-1.4,54.7-2.5
			c26.9,1.1,53,2.4,54.7,2.5c8.7,0.7,17.4,1.4,26.1,1.9c3.5,0.2,29.5,8,40,5.1c4.6-1.3,4.7-4.8,5.2-7.9c3.1-17.7,5-35.6,5.6-53.5
			C372,526.1,372.2,493.3,369.5,460.4z"/>
		<path class="st8" d="M290.4,276.5l0.1,0.4l-0.6-0.4c-6.5-3.8-24.3,0.1-37.4,3.8v-5.2c6.3-0.8,16.7-3.4,24.1-11.8
			c5.5-6.2,10-15.8,13.4-24.5c1.2-0.6,3-0.5,5.5,0.8c3,1.5,5.4-2.2,6.5-5c2-4.9,2.7-10.1,2.2-15.4c-0.6-5.1-2.3-8.7-6.4-9.9
			c1.3-8.7,1.5-15.2,1.1-20.1c0.4-0.9,0.9-1.8,1.3-2.7c2.9-5.9,6-11.8,9.1-17.6c9.1-17.5,7.1-34-4.3-49.7c-1.4-1.9-2.4-5.5-4.9-5.1
			c-3.6,0.6-1.7,4.6-2.6,7c-0.7,2-1.2,4.2-2.4,8.3c-2.9-16.2-5.9-30.3-20.2-39.9c-0.2,8.4,0.1,15.2-5.3,21.2
			c-5.9-8.8-11.7-16.8-20.2-22.3c-3.3-2.1-4.9-1.5-5.7,2.1c-2.4,11.2-5.4,14.5-16.4,15.5c-14.5,1.3-25.9,7-33,21.5
			c-0.9-6.1-3-4.6-5.8-2.3c-8.2,6.8-12.5,16.1-15.7,26.1c-1.9-1.4-0.4-3.4-2.9-4.1c-5,19.2-9.3,38.2,2.8,56.5c0.3,0.5,0.6,1,1,1.5
			c0.2,1.2,0.3,2.3,0.5,3.6c0.3,2,0.7,4.1,1.1,6.3c-5.5-0.4-7.6,2.2-8,9.2c-0.3,6.4,1.4,12.7,5,18c1.8,2.7,4.5,5,7.5,2.3
			c1.8-1.6,3.1-2.1,4.2-1.8c1.7,3.2,3.7,6.3,6,9.1c6.4,10.3,16.3,17.2,26,24.3c1.3,1,2.7,1.8,4.2,2.4l0.2,1.5
			c-12.9-3.6-29.7-7.1-36-3.4l-0.6,0.4l0.1-0.4c0,0-64.6,35.1-63.3,101.9c0,0.7,0,1.4,0,2.1l0.1,0.3c0.1,1.2,0.1,2.4,0.2,3.6
			c0,0,2.5,6.2,6.7,15.1c0.6,1.5,1.2,3.1,1.9,4.7l0,0c2.8,7.7,8.6,13.3,14.9,18.3c11.3,9.1,24.4,15.4,38.1,20.3
			c3.5,1.2,7,1.7,9.9,0.1l-4.6,20.7c-2.1,8.5-4.4,16.9-6.8,25.4c-6.1,22.2-6.4,44,5.9,64.8c5.1,8.7,8.7,17,2.6,26.4
			c-0.2,0.3-0.4,0.6-0.6,0.8c-0.3,0.4-0.5,0.7-0.6,1.2c-8.3,16.9,6.8,73.3,6.8,73.3c0.1,1.2,0.4,2.2,0.5,3.2
			c0.4,4.4,0.1,8.8-0.8,13.1c0,0,0.1,8.4-16.6,12.9c0,0-38.1,4.4-25.7,22.5c0,0,9.3,4.2,51.4,0.3c0,0,19.6,2.3,17-10
			c0,0-3-17.4-0.5-50.9c0.3-3.4,2.3-10.8,2.9-12.8c6.6-21.4,10.6-32.5,10.9-38.3c0.2-1.2,0.2-2.4,0-3.6c0-0.3-0.1-0.6-0.1-0.9l0,0
			c-1.2-7.3-3.6-14.3-7.2-20.8c-3.1-5.8-2.5-11.2,1.5-16.4c1.7-2.3,3-4.8,3.8-7.5l0,0c0.4-1.4,0.8-2.9,1-4.4c0.3-2,0.7-4,1-6
			c2.2-11.5,5.6-30.2,7.6-43.7c1.3,22.6,8.8,50.8,10.6,59.1c1.4,5.5,0.6,11.3-2.2,16.3c-5,9.9-10.4,20.1-7.2,32.3
			c0.1,0,11.9,31,11.9,31c10.2,31.8,1.6,65,1.6,65c-2.8,14.6,17.8,12.2,17.8,12.2c42.1,3.9,50.7-2.6,50.7-2.6
			c12.4-18.1-25.7-22.5-25.7-22.5c-16.7-4.5-16.6-12.9-16.6-12.9c-2.8-14.5,2.8-55.3,2.8-55.3c2.4-19.4-1.9-32.3-1.9-32.3
			s-0.4-19,3.6-25.2c8.2-12.6,11.4-26.1,11.4-40.8c0-21.9-6.1-49.8-11.4-72.9c13.6-4,26.7-9.3,38.3-17.5
			c6.8-4.7,13.3-10.1,16.7-17.9l0,0c6.6-13.2,10.9-23.8,10.9-23.8C358.9,313.7,290.4,276.5,290.4,276.5z M183.4,415.8
			c-5.4,4.8-7,1.6-8.7-2.8c-3.8-9.4-6.4-19.2-12.5-27.5c-0.6-0.9-1.2-1.8-1.9-2.7c5.4-5.8,9.6-10.6,12.7-14.7l5.5-5.4
			c1.4,2.7,2.9,5.3,4.3,8c5.4,8.8,5.7,18.8,6.7,28.5c0.2,2.2,0.1,8.6,0.4,15.1C187.4,414.1,185,414.5,183.4,415.8L183.4,415.8z
			 M312.9,383.4c-0.9,1-1.7,2.1-2.6,3.1c-6.9,8.2-10.3,18.2-14.9,27.6c-2.1,4.4-4,7.6-9.2,2.3c-1.6-1.7-4.5-2.2-7.6-2
			c2.8-12.7,5.6-33.2,9.2-39.2c4.5-8.7,5.6-17.2,7.2-28.4c3.2,4.2,6.1,8,8.9,11.6c3.8,5.9,7.9,11.6,12.3,17c0.6,1.1,1.4,2.1,2.3,2.9
			C316.4,379.9,314.6,381.6,312.9,383.4z"/>
		<path class="st9" d="M619.8,455c-1.5-23.8-9-62.5-13.8-85.9c-0.1,4.5-32.7-18.5-33-20.1c-20.3,19.8-99.3,14-111.5,7.4
			c-2.9,6.6-36.2,31.1-36.3,25.8c-4.8,23.4-6.9,47.2-8.3,71c-2.8,43.7-2.3,87.6,1.5,131.2c1.2,13.2,1.8,26.6,4.9,39.6
			c1.1,4.8,2.7,5.1,7,3.8c12.7-3.8,25.7-6.9,38.4-10.6l0,0c0,0,50.4-5.2,99.3,1.7v0.2l0,0c12.8,3.7,25.7,6.8,38.4,10.6
			c4.3,1.3,5.9,1,7-3.8c3.1-13,3.7-26.4,4.8-39.6C622.1,542.5,622.6,498.7,619.8,455z"/>
		<path class="st8" d="M596,693c-5.7-0.6-11.2-1.7-16.7-3.2l-0.5-0.1l-1.3-0.3c-3.7-1-7.2-2.4-10.5-4.4l-0.5-0.3
			c-0.4-0.2-0.7-0.5-1-0.7c-4.8-3.8-5.8-9.9-6-12.5c-0.2-5.6,0-11.2,0.7-16.8c2.4-12.6,3.9-25.4,4.3-38.3c0.1-2.6,0.7-5.2,0.7-7.8
			c0-5.5-0.8-11.1-1.4-16.6c-0.7-7.5-2.1-15.1,2-21.9c2-3.5,3.3-7.3,4-11.3c5.7-27.4,5.8-54.8,2.2-82.3c-0.2-2.1-0.5-4.3-0.9-6.5
			c-0.3-1.7-0.5-3.5-0.8-5.2c-0.2-1.3-0.6-2.6-1.2-3.8c-1.3-5.1-2.9-10.3-4.6-15.3l0,0c0,0,29.3-26.5,37.7-41.6
			c0.1,0,7-14.1,6.4-21.8c-2.4-30.3-18.5-56.1-28.5-84l-1.2-2.2c-0.8-1-1.7-2-2.8-2.8c6.2,0.2,12.4-0.4,18.5-1.8
			c7.4-35.7-1.2-129.7-11.2-147.2c-18.5-32.2-59.4-50.8-109.1-38.5c-22.6,5.6-14.3,24.5-14.3,24.5s-13.6,1.1-18.9,10.5
			c-5.4,9.6-10.6,33.8-14.1,69.9s3.6,72.1,3.6,72.1s17.6,7.8,45.3,3.2c0,0-0.6-3.2-1.5-8.3c9.7-1.5,21.4-1.9,30.7-0.4l0.3,3.8H503
			c-12.4,1.2-25.8,4.8-33.8,7.2c-1.5-0.4-9.6,4.5-10.8,5.6c-19.6,15.6-26.2,55.3-26.2,55.3l0,0c-3,11-5.3,22.2-6.8,33.5
			c0,0.8,0.1,1.5,0.1,2.3c-2,15.8,28.9,47.4,40.7,58.8c-1.7,5.1-5.6,18.4-5.5,21.1c-0.5,2.4-0.8,4.5-1,6.2c-0.2,0.8-0.4,1.7-0.4,2.5
			c0,0.7-0.1,1.5-0.1,2.2v0.1l0,0c-2,34.9,3.4,68.3,21.9,98.8c1.7,2.5,2.2,5.6,1.3,8.5c-1.6,6.2-2.9,14.8-2.6,33
			c0.1,10.5,1.1,21,3,31.4c0,0.1,0,0.3,0,0.4c0.8,6.4,2.4,18.7,2.2,23.3c-0.2,2.6-1.1,8.7-6,12.5c-0.3,0.2-0.7,0.5-1,0.7l-0.5,0.3
			c-3.3,2-6.8,3.5-10.5,4.5l-1.3,0.3l-0.5,0.1c-5.5,1.5-11.1,2.6-16.7,3.2c-4.8,0.6-7.2,5.4-7.2,8.9c0,3.9,2.7,4.4,5.4,4.9
			c14.7,2.4,29-3.3,43.7-2.6c13.8,0.7,11.2-5.7,10.9-13.1c-0.1-1.5-0.2-3.2-0.3-4.8c0.1-8,2.2-22.7,3-28.3c2.5-14,8.8-41.7,9.1-41.8
			c0.9-2.5,3.6-27.6-2.2-36.6c-2.5-3.9-2.3-8-1.7-12.3c3.9-27,5.4-54.2,5.9-81.5c0-0.6,0-1.2,0.1-1.8l1.9-0.3
			c-0.1,1.3,0,2.6,0.2,3.9c4.1,26.4,10.2,52.5,18,78.1c2.2,7.1,3,13.3-0.3,20.2c-3.1,6.6-5.2,13.9-4.8,21.3
			c0.2,3.2,7.9,37.1,10.3,51c0,0,3,18,3.2,28c-0.1,1.7-0.2,3.3-0.3,4.8c-0.4,7.4-2.9,13.8,10.9,13.1c14.7-0.7,29,5,43.7,2.6
			c2.6-0.4,5.4-1,5.4-4.9C603.2,698.5,600.8,693.7,596,693z M463.3,212L463.3,212L463.3,212c0,0.2,0.1,0.5,0.1,0.7L463.3,212z
			 M481.6,411.8L481.6,411.8c-3,4.5-5.7,9.3-8.1,14.1c-5.2-13-18.8-38.7-19.5-40.2c-1.1-2.2-2.5-4.3-4-6.3
			c5.8-5.9,8.9-15.8,11.8-22.4c12.4,6.6,17.3,17.9,21.4,29.6C486.2,394.9,485.6,404.1,481.6,411.8L481.6,411.8z M532.6,281.2
			l-0.3-6.6c0.6,0,1.6,0,2.8-0.1c6.6,0.9,13.2,2.2,19.7,3.9c-0.3,0.5-0.6,1.1-1,1.6c-0.9,1.4-2,2.6-3.1,3.8
			C543.2,282.4,536.3,281.6,532.6,281.2L532.6,281.2z M550.9,414.7c-13.9-25.4,2.6-43.9,21.3-62c1.5,7.2,4.9,13.9,10,19.2
			c3.1,3.3,3.9,6,0.5,9.6c-1.2,1.4-15.9,31.1-22.3,47.4C558.4,426.1,553.5,418.7,550.9,414.7L550.9,414.7z"/>
	</g>
</g>
</svg>
