<svg id="Capa_1" xmlns="http://www.w3.org/2000/svg" viewBox="0 0 290 264.7"><style>.st0{fill:#fff}.st0,.st1{clip-path:url(#SVGID_2_)}.st2{fill:#229ed7}.st3{fill:#272425}.st4{fill:#cb2228}.st5{opacity:.1;clip-path:url(#SVGID_2_)}.st6{fill-rule:evenodd;clip-rule:evenodd}.st7{opacity:.15;clip-path:url(#SVGID_2_)}.st8,.st9{clip-path:url(#SVGID_4_)}.st9{opacity:.1}.st10,.st11{clip-path:url(#SVGID_6_)}.st10{fill:#229ed7}.st11{opacity:.1}.st12{fill:#fff}.st13{fill:#262324}.st14{opacity:.15}.st15{clip-path:url(#SVGID_8_)}.st16{fill:#333233}.st17{fill:#1d8dc6}.st18{fill:#221d1f}.st19,.st20{fill-rule:evenodd;clip-rule:evenodd;fill:#329ac6}.st20{fill:#1d8dc6}.st21{opacity:.1}.st22{clip-path:url(#SVGID_10_)}.st23{opacity:.25}.st24{fill:#211915}.st25{fill:#2b2a26}.st26{fill:#e8dc3c}.st27{fill:#e7dc3c}.st28{fill:#e8dc3f}.st29{fill:#e7dc42}.st30{fill:#30302c}.st31{fill:#e7dd43}.st32{fill:#343430}.st33{fill:#2e2e2b}.st34{fill:#31312e}.st35{fill:#2f2f2c}.st36{fill:#30302d}.st37{fill:#2e2d2a}.st38{fill:#e7dd4d}.st39{fill:#333230}.st40{fill:#2b2a28}.st41{fill:#363532}.st42{fill:#e6dc57}.st43{fill:#3a3936}.st44{fill:#252523}.st45{fill:#f6f6f4}.st46{fill:#f5f5f2}.st47{fill:#f2f2f0}.st48{fill:#e1e2e0}.st49{fill:#eeeeed}.st50{fill:#dededd}.st51{fill:#e6e6e4}.st52{clip-path:url(#SVGID_12_)}.st53{clip-path:url(#SVGID_14_)}.st54{fill:#484848}.st55{fill:#ffe6a4}.st56{fill:#6e1c2a}.st57{fill:#551416}.st58{fill:#f1cd33}.st59{fill:#434244}.st60{fill:#060609}.st61{clip-path:url(#SVGID_16_)}.st62{fill:#0e0d0d}.st63{fill:#ecd0c3}.st64{clip-path:url(#SVGID_16_);fill:#0e0d0d}.st65{opacity:.14}.st66{clip-path:url(#SVGID_18_)}.st67{clip-path:url(#SVGID_20_)}.st68{clip-path:url(#SVGID_22_)}.st69,.st70{clip-path:url(#SVGID_24_)}.st70{fill:#0e0d0d}.st71{clip-path:url(#SVGID_26_)}.st72{fill:#aa6502}.st73{fill:#e88f09}.st74{opacity:.3}.st75{fill:none}.st76{fill:#fff8bb}.st77{fill:#fffce6}.st78{fill:#212f44}.st79{fill:#081c35}.st80{fill:#415c84}.st81{fill:#547eaf}.st82{fill:#00a79d}.st83{fill:#00776b}.st84{fill:#08f7e0}.st85{fill:#71ffee}.st86{fill:#c64320}.st87{fill:#f66e44}.st88{fill:#020202}.st89{clip-path:url(#SVGID_28_)}.st90{fill:#fff2be}.st91{fill:#fffcee}.st92{opacity:.1;clip-path:url(#SVGID_26_)}.st93{clip-path:url(#SVGID_30_)}.st94{clip-path:url(#SVGID_32_)}.st95{opacity:.1;clip-path:url(#SVGID_30_)}.st96{fill:#fc0202}.st97{fill:#fef6f6}.st98,.st99{fill:none;stroke-miterlimit:10}.st98{opacity:.8;stroke:#272425}.st99{stroke:#211915;stroke-width:3}.st100{opacity:.18}</style><path class="st3" d="M272.8 181.3v-7c0-12.6-8.2-20.9-20.9-21-8.1-.1-16.4-.1-24.7 0-12.9.1-20.9 8.3-20.9 21.2v19h-30.8c1.6-3.3 2.4-7.4 2.4-12.3v-57.5c8.8 8.2 20.3 8.1 28.9-.3 5.9-5.8 11.9-11.8 17.6-17.6 8.9-9.1 8.9-20.7 0-29.7-20.9-20.9-42.8-42.9-65.1-65.2-8.8-8.8-20.6-8.7-29.5.1C106 34.8 84.7 56.1 64.7 76.2c-8.9 8.9-8.9 20.6.1 29.7 6.1 6.2 11.8 11.8 17.4 17.4 8.8 8.7 20.2 8.9 29.1.5V182c0 4.5.8 8.3 2.4 11.5h-30V174c-.1-12.3-8.4-20.7-20.7-20.8-9.3-.1-17.5-.1-25 0-12.6.2-20.8 8.4-20.8 21.1v52c.1 19.6 14.3 33.8 33.9 33.8h187.8c19.2 0 33.8-14.4 33.9-33.4.1-15.1 0-30.5 0-45.4z"/><path class="st12" d="M70.6 199.6h148.7c.1-1.3.2-2.6.2-3.8v-28.3c0-5.8 2.2-8.1 8-8.1 8.1-.1 16.2-.1 24.4 0 5.4.1 7.9 2.6 7.9 7.9 0 17.4.1 34.9 0 52.3-.1 11.9-8.9 20.4-20.8 20.4H51.3c-12.2 0-20.7-8.5-20.8-20.7-.1-17.3 0-34.6 0-51.9 0-5.5 2.3-7.9 7.8-8 8.2-.1 16.5-.1 24.7 0 5.2 0 7.7 2.5 7.7 7.7.1 9.4 0 18.9 0 28.3-.1 1.3-.1 2.6-.1 4.2z"/><path class="st12" d="M164.7 86.2v88c0 8-1.9 9.8-10 9.9h-21.1c-7.1 0-9.3-2.1-9.3-9.1V85.5c-1.4 1.2-2.2 1.9-3 2.7-6.3 6.2-12.5 12.5-18.7 18.7-3.8 3.8-7.4 3.8-11.2 0-5.8-5.7-11.5-11.4-17.2-17.2-3.9-3.9-3.9-7.4-.1-11.2l65.1-65.1c3.6-3.6 7.3-3.7 10.9-.1l65.1 65.1c3.8 3.9 3.8 7.3 0 11.2-5.8 5.9-11.6 11.7-17.5 17.5-3.6 3.6-7.2 3.5-10.9-.1l-21-21c-.5 0-.8.1-1.1.2z"/></svg>