<svg id="Capa_1" xmlns="http://www.w3.org/2000/svg" viewBox="0 0 290 274"><style>.st0{fill:#fff}.st0,.st1{clip-path:url(#SVGID_2_)}.st2{fill:#229ed7}.st3{fill:#272425}.st4{fill:#cb2228}.st5{opacity:.1;clip-path:url(#SVGID_2_)}.st6{fill-rule:evenodd;clip-rule:evenodd}.st7{opacity:.15;clip-path:url(#SVGID_2_)}.st8,.st9{clip-path:url(#SVGID_4_)}.st9{opacity:.1}.st10,.st11{clip-path:url(#SVGID_6_)}.st10{fill:#229ed7}.st11{opacity:.1}.st12{fill:#fff}.st13{fill:#262324}.st14{opacity:.15}.st15{clip-path:url(#SVGID_8_)}.st16{fill:#333233}.st17{fill:#1d8dc6}.st18{fill:#221d1f}.st19,.st20{fill-rule:evenodd;clip-rule:evenodd;fill:#329ac6}.st20{fill:#1d8dc6}.st21{opacity:.1}.st22{clip-path:url(#SVGID_10_)}.st23{opacity:.25}.st24{fill:#211915}.st25{fill:#2b2a26}.st26{fill:#e8dc3c}.st27{fill:#e7dc3c}.st28{fill:#e8dc3f}.st29{fill:#e7dc42}.st30{fill:#30302c}.st31{fill:#e7dd43}.st32{fill:#343430}.st33{fill:#2e2e2b}.st34{fill:#31312e}.st35{fill:#2f2f2c}.st36{fill:#30302d}.st37{fill:#2e2d2a}.st38{fill:#e7dd4d}.st39{fill:#333230}.st40{fill:#2b2a28}.st41{fill:#363532}.st42{fill:#e6dc57}.st43{fill:#3a3936}.st44{fill:#252523}.st45{fill:#f6f6f4}.st46{fill:#f5f5f2}.st47{fill:#f2f2f0}.st48{fill:#e1e2e0}.st49{fill:#eeeeed}.st50{fill:#dededd}.st51{fill:#e6e6e4}.st52{clip-path:url(#SVGID_12_)}.st53{clip-path:url(#SVGID_14_)}.st54{fill:#484848}.st55{fill:#ffe6a4}.st56{fill:#6e1c2a}.st57{fill:#551416}.st58{fill:#f1cd33}.st59{fill:#434244}.st60{fill:#060609}.st61{clip-path:url(#SVGID_16_)}.st62{fill:#0e0d0d}.st63{fill:#ecd0c3}.st64{clip-path:url(#SVGID_16_);fill:#0e0d0d}.st65{opacity:.14}.st66{clip-path:url(#SVGID_18_)}.st67{clip-path:url(#SVGID_20_)}.st68{clip-path:url(#SVGID_22_)}.st69,.st70{clip-path:url(#SVGID_24_)}.st70{fill:#0e0d0d}.st71{clip-path:url(#SVGID_26_)}.st72{fill:#aa6502}.st73{fill:#e88f09}.st74{opacity:.3}.st75{fill:none}.st76{fill:#fff8bb}.st77{fill:#fffce6}.st78{fill:#212f44}.st79{fill:#081c35}.st80{fill:#415c84}.st81{fill:#547eaf}.st82{fill:#00a79d}.st83{fill:#00776b}.st84{fill:#08f7e0}.st85{fill:#71ffee}.st86{fill:#c64320}.st87{fill:#f66e44}.st88{fill:#020202}.st89{clip-path:url(#SVGID_28_)}.st90{fill:#fff2be}.st91{fill:#fffcee}.st92{opacity:.1;clip-path:url(#SVGID_26_)}.st93{clip-path:url(#SVGID_30_)}.st94{clip-path:url(#SVGID_32_)}.st95{opacity:.1;clip-path:url(#SVGID_30_)}.st96{fill:#fc0202}.st97{fill:#fef6f6}.st98,.st99{fill:none;stroke-miterlimit:10}.st98{opacity:.8;stroke:#272425}.st99{stroke:#211915;stroke-width:3}.st100{opacity:.18}</style><path class="st3" d="M199.5 228.4c0 5.1-.3 10.2.1 15.2.3 3.5-1.3 4.9-4.1 6-13 5.2-26.6 7.5-40.5 7.9-20.1.7-39.6-2.5-58.7-8.6-1.2-.4-2.9-1.9-2.9-3-.1-11.5-.6-23.1.4-34.5 1.5-18.7 15.4-33.4 34.4-35.3 12.6-1.3 25.6-1.1 38.1.3 18.7 2.2 32.4 18.6 33 37.4.2 4.8 0 9.6 0 14.4.1.2.2.2.2.2z"/><path class="st3" d="M149.6 267c-18.4 0-36.7-3-56-9.1-4.5-1.4-9.4-6.1-9.4-11.8 0-2.4-.1-4.8-.1-7.2-.1-9.2-.3-18.6.5-28.1 1.9-23.5 19.5-41.5 42.7-43.8 13.2-1.3 26.7-1.2 40.1.4 22.7 2.6 40.5 22.6 41.3 46.4.1 3.5.1 6.9.1 10.3v2.9c.1.5.1 1 .1 1.5 0 1.6 0 3.1-.1 4.7-.1 3.4-.1 6.7.1 9.8.3 4.1-.5 11.7-9.9 15.4-13 5.2-27.3 8-43.7 8.6h-5.7zm-46.9-25.7c17.9 5.3 35 7.6 52 7 13.4-.5 25-2.6 35.5-6.5a135 135 0 0 1 0-9v-2.9c-.1-.5-.1-1-.1-1.5v-4.6c0-3.3.1-6.4 0-9.5-.5-14.6-11.1-26.9-24.8-28.4-12.1-1.4-24.3-1.5-36.2-.3-14.1 1.4-24.8 12.4-26 26.8-.7 8.6-.6 17.2-.4 26.3v2.6zm.1 4.7z"/><path class="st3" d="M107.9 143.6c.7 10.5 4.5 19.1 11.8 26.6-11.8 4-20.8 11-27.1 21.3-6.3 10.3-7.2 21.6-6.6 34.2-7.7-1.1-14.9-1.7-21.9-3.1-7.6-1.5-15.2-3.6-22.7-5.7-1-.3-2.5-1.6-2.5-2.5.1-12.6-.7-25.3.8-37.8 2.3-18.9 19.3-32.8 38.3-33 9.9-.1 19.8 0 29.9 0z"/><path class="st3" d="M86 235c-.4 0-.8 0-1.3-.1l-6.9-.9c-5.3-.7-10.4-1.3-15.5-2.3-7.1-1.4-14-3.3-20.7-5.1l-2.7-.7c-4.6-1.3-9.4-5.9-9.3-11.5 0-3.3 0-6.7-.1-9.9-.1-9.4-.2-19.2.9-28.9 2.8-23.3 23.2-41 47.5-41.2 6.8-.1 13.8 0 20.5 0h9.4c4.9 0 9 3.8 9.3 8.7.6 8.3 3.5 14.9 9.2 20.7 2.2 2.3 3.1 5.6 2.4 8.7-.7 3.1-3 5.6-6.1 6.7-9.8 3.4-17.1 9-22.1 17.3-4.3 7.1-5.9 15.4-5.3 28.9.1 2.8-1 5.4-3 7.3-1.6 1.4-3.9 2.3-6.2 2.3zm-37.7-25.9c6 1.6 11.8 3.2 17.6 4.3 3.5.7 7 1.2 10.8 1.7.4-9.3 2.4-19.2 8-28.4 5.2-8.5 12.1-15.2 20.5-20.1-2.5-4.2-4.2-8.8-5.4-13.6H78.1c-14.7.1-27.5 11-29.1 24.8-1 8.5-.9 17.2-.8 26.4 0 1.6.1 3.2.1 4.9zm0 5.3zm-4.4-6.5zm162.9 17.5c2-26.5-8-45.4-33.3-55.3 6.8-7.3 11.1-15.9 11.4-26.6 12.9.8 25.7-1.8 38.1 1.9 16.8 5 27.8 20.5 28.1 39.2.1 9.2-.1 18.4.1 27.5 0 2.6-.9 3.9-3.2 4.9-13 5.6-26.5 7.9-41.2 8.4z"/><path class="st3" d="M206.8 234.8c-2.5 0-4.9-1-6.7-2.8-1.8-1.9-2.8-4.5-2.6-7.2 1.7-23.3-7-37.9-27.4-45.9-2.9-1.1-5-3.6-5.7-6.6-.7-3 .2-6.2 2.3-8.4 5.8-6.2 8.7-12.8 8.9-20.6.1-2.5 1.2-4.9 3.1-6.6 1.9-1.7 4.3-2.5 6.8-2.4 4.1.3 8.3.1 12.7 0 8.9-.3 18-.5 27.5 2.3 20.8 6.2 34.4 25 34.8 48 .1 4.4 0 8.9 0 13.2 0 4.7 0 9.6.1 14.3.1 6.3-3 11.1-8.9 13.6-12.9 5.5-27 8.4-44.4 9.1h-.5zm-19.1-68.2c18.1 10.5 27.6 26.8 28.6 48.8 9.6-1 17.9-2.9 25.5-5.9v-24.8c-.2-14.7-8.6-26.6-21.4-30.4-6.7-2-14-1.8-21.7-1.5-1.8.1-3.7.1-5.6.1-1.1 4.9-2.9 9.4-5.4 13.7zm-43-82.9c-18.7 0-33.6-15.1-33.5-33.8.1-18.6 15.4-33.8 33.9-33.6 18.6.2 33.6 15.3 33.5 34 0 18.6-15 33.4-33.9 33.4z"/><path class="st3" d="M144.7 93c-11.5 0-22.3-4.5-30.4-12.6-8.1-8.2-12.5-19-12.4-30.6.1-11.5 4.7-22.4 13-30.5 8.2-8.1 19-12.4 30.4-12.3 23.6.2 42.7 19.7 42.7 43.3 0 11.5-4.5 22.3-12.7 30.3S156.3 93 144.7 93zm.1-67.4c-6.3 0-12.3 2.5-16.9 7-4.7 4.6-7.3 10.8-7.4 17.3 0 6.6 2.5 12.7 7 17.3 4.6 4.6 10.7 7.1 17.2 7.1 13.8 0 24.6-10.6 24.6-24.1 0-13.5-10.9-24.5-24.3-24.7 0 .1-.1.1-.2.1zm1.3 147.9c-17.4-.2-30.9-14.2-30.7-31.8.2-16.8 14.5-30.5 31.4-30.3 17.2.2 31 14.3 30.7 31.4-.2 17.3-14.2 30.9-31.4 30.7z"/><path class="st3" d="M146.5 182.8h-.5c-10.9-.1-21.1-4.5-28.6-12.2-7.5-7.7-11.5-18-11.3-29 .3-21.9 18.3-39.5 40.4-39.5h.5c10.8.1 20.9 4.5 28.5 12.3 7.5 7.7 11.6 17.9 11.4 28.7-.4 22-18.4 39.7-40.4 39.7zm-.3-18.6h.3c12 0 21.6-9.4 21.7-21.5.1-5.7-2.1-11.2-6.1-15.4-4.1-4.2-9.5-6.5-15.4-6.6h-.3c-11.7 0-21.6 9.6-21.8 21.1-.1 6 2.1 11.7 6.1 15.8 4.1 4.2 9.6 6.5 15.5 6.6z"/><path class="st3" d="M91.6 142.2c-16.9-1-30.6-14.5-30.7-31.1-.1-17.6 13-31.4 30.3-31.7 16.9-.4 31.1 12.9 31.6 29.5 0 1.6-.8 3.8-1.9 4.9-6 5.7-10 12.6-12 20.6-.3 1.3-1.6 3-2.8 3.5-4.8 1.6-9.7 2.9-14.5 4.3z"/><path class="st3" d="M91.6 151.5h-.5c-22-1.2-39.4-19-39.5-40.4C51.5 88.6 68.8 70.5 91 70c22.1-.5 40.5 16.8 41.1 38.6.1 4.3-1.8 9-4.8 11.9-4.7 4.5-7.8 9.8-9.4 16.2-.9 3.7-4 8.2-8.7 9.9-3.7 1.3-7.4 2.4-11 3.4-1.3.4-2.6.7-3.8 1.1-1 .3-1.9.4-2.8.4zm.3-62.9h-.5c-12.1.3-21.2 9.9-21.1 22.4.1 11.1 8.9 20.4 20.4 21.8.8-.2 1.5-.4 2.3-.7 2.6-.7 5-1.4 7.4-2.2 2.5-8.4 6.9-15.7 13-21.9-.9-10.9-10.2-19.4-21.5-19.4zm7.9 43.4s-.1 0 0 0c-.1 0 0 0 0 0zm98 9.4c-1.9-.2-3.8-.2-5.7-.5-4.6-.7-7.6-2.4-8.5-7.9-1.4-8.5-6.4-15.5-13.4-20.5-2.9-2.1-3.4-4.1-2.9-7.2 2.2-14 14.7-25.2 29-25.8 15.1-.6 28.5 9.1 31.8 23.3 4.8 20-9.8 38.5-30.3 38.6z"/><path class="st3" d="M197.8 150.7h-.8c-.5 0-1.1-.1-1.6-.1-1.4-.1-3-.2-4.7-.5-9.3-1.4-14.8-6.7-16.3-15.6-1.2-7-5.9-11.8-9.7-14.5-5.4-4-7.7-9.4-6.6-16.2 2.9-18.4 19.1-32.9 37.8-33.7 19.5-.8 36.9 12 41.3 30.4 3 12.4.3 25.1-7.4 34.8-7.7 9.7-19.3 15.4-32 15.4zm-5.1-19.2c.2 0 .4.1.8.1.9.1 2 .2 3.2.3.5 0 1 .1 1.5.1 6.8-.1 12.9-3.2 17-8.3 4.1-5.3 5.6-12.2 3.9-19-2.3-9.8-11.8-16.6-22.4-16.1-9.5.4-18 7.8-20 16.9 8.8 6.8 14.4 15.7 16.1 25.8l-.1.2z"/><path class="st3" d="M129.8 107.7c-2.3-7.1-4.5-13.8-6.8-20.9h44.1c-2.3 6.6-4.5 12.8-6.8 19.5-10.1-3.6-20.7-3.4-30.5 1.4z"/><path class="st3" d="M129.8 117.1c-1.2 0-2.5-.2-3.6-.7-2.5-1.1-4.4-3.1-5.2-5.7l-6.8-20.9c-.9-2.8-.4-5.9 1.3-8.4 1.8-2.4 4.6-3.8 7.5-3.8h44.1c3 0 5.9 1.5 7.6 3.9 1.7 2.5 2.2 5.6 1.2 8.5l-6.8 19.5c-.8 2.3-2.5 4.3-4.8 5.3-2.2 1.1-4.8 1.2-7.2.4-8-2.9-16-2.5-23.2 1-1.3.5-2.7.9-4.1.9z"/><path class="st12" d="M199.5 224.3c0 5.1-.3 10.2.1 15.2.3 3.5-1.3 4.9-4.1 6-13 5.2-26.6 7.5-40.5 7.9-20.1.7-39.6-2.5-58.7-8.6-1.2-.4-2.9-1.9-2.9-3-.1-11.5-.6-23.1.4-34.5 1.5-18.7 15.4-33.4 34.4-35.3 12.6-1.3 25.6-1.1 38.1.3 18.7 2.2 32.4 18.6 33 37.4.2 4.8 0 9.6 0 14.4.1.2.2.2.2.2z"/><path class="st12" d="M107.9 139.5c.7 10.5 4.5 19.1 11.8 26.6-11.8 4-20.8 11-27.1 21.3-6.3 10.3-7.2 21.6-6.6 34.2-7.7-1.1-14.9-1.7-21.9-3.1-7.6-1.5-15.2-3.6-22.7-5.7-1-.3-2.5-1.6-2.5-2.5.1-12.6-.7-25.3.8-37.8 2.3-18.9 19.3-32.8 38.3-33 9.9-.1 19.8 0 29.9 0zm98.9 81.8c2-26.5-8-45.4-33.3-55.3 6.8-7.3 11.1-15.9 11.4-26.6 12.9.8 25.7-1.8 38.1 1.9 16.8 5 27.8 20.5 28.1 39.2.1 9.2-.1 18.4.1 27.5 0 2.6-.9 3.9-3.2 4.9-13 5.6-26.5 7.8-41.2 8.4zM144.7 77.4c-18.1 0-32.5-14.6-32.4-32.7.1-18 14.9-32.7 32.8-32.5 18 .2 32.5 14.9 32.4 32.9 0 18-14.5 32.3-32.8 32.3zm1.4 88c-16.4-.2-29-13.3-28.8-29.9.2-15.8 13.6-28.6 29.5-28.4 16.1.2 29.1 13.5 28.8 29.5-.2 16.2-13.3 29-29.5 28.8zm-54.4-32.3c-14.8-.8-26.8-12.7-26.9-27.3-.2-15.4 11.3-27.4 26.5-27.8 14.8-.3 27.3 11.3 27.7 25.9 0 1.4-.7 3.3-1.7 4.3-5.3 5-8.8 11-10.6 18.1-.3 1.2-1.4 2.7-2.5 3-4.1 1.5-8.3 2.6-12.5 3.8zm107.2-3.5c-1.6-.1-3.3-.2-4.9-.5-3.9-.6-6.5-2-7.3-6.8-1.2-7.3-5.5-13.3-11.5-17.6-2.5-1.8-2.9-3.6-2.5-6.2 1.9-12 12.6-21.7 24.9-22.2 13-.5 24.5 7.9 27.4 20 4 17.2-8.5 33.2-26.1 33.3zm-66.6-26c-1.9-7.1-3.7-13.8-5.7-20.9h36.7c-1.9 6.6-3.7 12.8-5.7 19.5-8.3-3.6-17.1-3.4-25.3 1.4z"/></svg>