<svg id="Capa_1" xmlns="http://www.w3.org/2000/svg" xmlns:xlink="http://www.w3.org/1999/xlink" viewBox="0 0 290 264.7"><style>.st0{fill:#fff}.st0,.st1{clip-path:url(#SVGID_2_)}.st2{fill:#229ed7}.st3{fill:#272425}.st4{fill:#cb2228}.st5{opacity:.1;clip-path:url(#SVGID_2_)}.st6{fill-rule:evenodd;clip-rule:evenodd}.st7{opacity:.15;clip-path:url(#SVGID_2_)}.st8,.st9{clip-path:url(#SVGID_4_)}.st9{opacity:.1}.st10,.st11{clip-path:url(#SVGID_6_)}.st10{fill:#229ed7}.st11{opacity:.1}.st12{fill:#fff}.st13{fill:#262324}.st14{opacity:.15}.st15{clip-path:url(#SVGID_8_)}.st16{fill:#333233}.st17{fill:#1d8dc6}.st18{fill:#221d1f}.st19,.st20{fill-rule:evenodd;clip-rule:evenodd;fill:#329ac6}.st20{fill:#1d8dc6}.st21{opacity:.1}.st22{clip-path:url(#SVGID_10_)}.st23{opacity:.25}.st24{fill:#211915}.st25{fill:#2b2a26}.st26{fill:#e8dc3c}.st27{fill:#e7dc3c}.st28{fill:#e8dc3f}.st29{fill:#e7dc42}.st30{fill:#30302c}.st31{fill:#e7dd43}.st32{fill:#343430}.st33{fill:#2e2e2b}.st34{fill:#31312e}.st35{fill:#2f2f2c}.st36{fill:#30302d}.st37{fill:#2e2d2a}.st38{fill:#e7dd4d}.st39{fill:#333230}.st40{fill:#2b2a28}.st41{fill:#363532}.st42{fill:#e6dc57}.st43{fill:#3a3936}.st44{fill:#252523}.st45{fill:#f6f6f4}.st46{fill:#f5f5f2}.st47{fill:#f2f2f0}.st48{fill:#e1e2e0}.st49{fill:#eeeeed}.st50{fill:#dededd}.st51{fill:#e6e6e4}.st52{clip-path:url(#SVGID_12_)}.st53{clip-path:url(#SVGID_14_)}.st54{fill:#484848}.st55{fill:#ffe6a4}.st56{fill:#6e1c2a}.st57{fill:#551416}.st58{fill:#f1cd33}.st59{fill:#434244}.st60{fill:#060609}.st61{clip-path:url(#SVGID_16_)}.st62{fill:#0e0d0d}.st63{fill:#ecd0c3}.st64{clip-path:url(#SVGID_16_);fill:#0e0d0d}.st65{opacity:.14}.st66{clip-path:url(#SVGID_18_)}.st67{clip-path:url(#SVGID_20_)}.st68{clip-path:url(#SVGID_22_)}.st69,.st70{clip-path:url(#SVGID_24_)}.st70{fill:#0e0d0d}.st71{clip-path:url(#SVGID_26_)}.st72{fill:#aa6502}.st73{fill:#e88f09}.st74{opacity:.3}.st75{fill:none}.st76{fill:#fff8bb}.st77{fill:#fffce6}.st78{fill:#212f44}.st79{fill:#081c35}.st80{fill:#415c84}.st81{fill:#547eaf}.st82{fill:#00a79d}.st83{fill:#00776b}.st84{fill:#08f7e0}.st85{fill:#71ffee}.st86{fill:#c64320}.st87{fill:#f66e44}.st88{fill:#020202}.st89{clip-path:url(#SVGID_28_)}.st90{fill:#fff2be}.st91{fill:#fffcee}.st92{opacity:.1;clip-path:url(#SVGID_26_)}.st93{clip-path:url(#SVGID_30_)}.st94{clip-path:url(#SVGID_32_)}.st95{opacity:.1;clip-path:url(#SVGID_30_)}.st96{fill:#fc0202}.st97{fill:#fef6f6}.st98,.st99{fill:none;stroke-miterlimit:10}.st98{opacity:.8;stroke:#272425}.st99{stroke:#211915;stroke-width:3}.st100{opacity:.18}</style><defs><path id="SVGID_29_" d="M-608.3 332.6h960v493.5h-960z"/></defs><clipPath id="SVGID_2_"><use xlink:href="#SVGID_29_" overflow="visible"/></clipPath><g class="st1"><path class="st12" d="M227.9 243.8c.5-6.7 2.8 114.8 118.8 32.3-9.6 1.1-24.9 149 126.2 90.5-.9-2.2-137.6 119.4-2.7 181.7-2.2.8-148.8 36.4-47.1 162.4-7.4 12.8-97.1-111.7-166.3 18-7-4.8-67.2-121.6-140.2-4.3 11.8-2-45.8-137.2-162.5-19.9-3.9-3.5 65.4-128.8-63.3-105-4.8-5.7 182.9-85.4 31.3-176.3-1.3-9.5 139.8 9.3 77.9-111.8 5.2.5 153 87.6 113.9-60.8.1-.1 103.5 134.3 114-6.8z"/><path d="M-46.3 705.7c-.1-.1-.3-.1-.4-.2-1.3-1.2-.7-3.2 2.7-12.7 7.9-22.4 26.5-74.8-9.3-90.3-12.8-5.6-31.4-6.1-55.5-1.7-.5.1-1-.1-1.3-.5-.3-.4-.5-.9-.4-1.4.3-1.8 3.4-3.9 13.3-10.3 25.5-16.3 78.5-50.3 77.3-92.5-.7-24.8-20.4-49-58.5-71.8-.4-.2-.6-.6-.7-1-.1-.6.1-1.2.5-1.7 1.5-1.9 6-2.5 16.2-3.6 21.8-2.5 58.3-6.7 71.8-31.8 9.4-17.4 5.9-42.3-10.4-74.1-.2-.4-.2-1 .1-1.4.3-.4.8-.6 1.3-.6.3 0 .8.2 1.9.6 1.2.5 2.9 1.3 5.1 2.4 4 1.9 9.4 4.5 15.8 7.3 40.5 17.7 68.7 20.3 83.7 7.8 14.3-11.9 16.4-37.9 6-77.3-.2-.6.1-1.3.7-1.6.6-.3 1.3-.1 1.7.4.3.4 31.5 40.6 60.8 53.4 11.1 4.8 20.6 5.1 28.1.7 12.6-7.3 20.1-27.5 22.6-60.1 0-.3.1-1 .7-1.3.4-.2.9-.3 1.3-.1.8.3.8.8 1.1 2.6 3.6 28.4 14.7 48 31.5 55.3 20.3 8.9 48.9.4 84.9-25.2.6-.4 1.4-.3 1.9.2s.5 1.4 0 1.9c-2.6 2.6-7 26.3-2.1 50 3.3 15.9 11.9 37 34.3 46.8 21.9 9.5 52.8 6.8 91.8-8.2.4-.2 1-.6 1.8-.3.3.1.6.4.8.8.3.7-.1 1.5-.8 1.8l-.4.2c-3.1 2.1-19.2 16.4-34.3 37.4-13.3 18.5-28.6 46.3-26.3 74.1 2.3 28 22 50.7 58.4 67.5.5.2.8.7.8 1.3 0 .5-.4 1-.9 1.2-.1 0-.4.1-.9.3-15.2 4.3-65.7 21.3-78.3 61.5-8.7 27.7 2.3 60.9 32.7 98.5.4.4.4 1.1.1 1.5-.7 1.3-2.3 2.4-5.9.8-3.4-1.5-8.2-5.1-14.4-9.7-10.1-7.6-24-17.9-39.7-24.7-19-8.3-35.9-9.6-51.9-4-20.3 7.1-38.6 25.8-54.4 55.4-.2.3-.5.6-.9.7-.4.1-.8 0-1.1-.2-1.1-.7-2.5-2.7-5.7-7.2-8.2-11.4-25.2-35.1-47.2-44.7-28.6-12.5-56.7 2.6-83.6 44.6-.4 2.5-1.7 3.1-2.6 3.2-.5.1-1.1-.1-1.4-.6-.3-.5-.3-1 0-1.5.4-.7.9-1.4 1.3-2.1.5-9.3-15.2-44.2-46.8-58-23.3-10.1-62.1-11.1-114.8 41.9-1 .5-1.6.6-2.1.3zm-5.9-105.8c38.1 16.6 19 70.7 10.8 93.8-.8 2.4-1.7 4.8-2.3 6.7 52.2-51 91.2-49.6 114.8-39.3 29.8 13 45.5 43.3 48.1 56.8 27.1-41 55.7-55.3 85-42.5 22.7 9.9 40.1 34 48.4 45.6 1.5 2.1 2.9 4 3.9 5.3 16-29.3 34.5-47.8 55-55 16.4-5.8 34.6-4.4 54 4 16 7 30 17.4 40.3 25.1 6 4.5 10.7 8 13.8 9.3.5.2 1 .4 1.5.5-30.2-37.9-41-71.4-32.1-99.7 12.4-39.3 59.4-57 77.5-62.5-35.3-17.1-54.4-40.1-56.7-68.3-3.8-46.3 38.7-93.1 55.7-108.8-36.3 12.8-65.3 14.6-86.5 5.4-23.5-10.3-32.6-32.2-36-48.8-3.8-18.4-2.2-38.1.5-47.4-34.9 23.9-63 31.5-83.5 22.6-15.7-6.9-26.8-23.8-31.6-48.2-3.3 27.4-11 44.8-22.9 51.7-8.3 4.8-18.6 4.6-30.6-.6-24-10.5-48.5-38-57.9-49.3 8.9 37.1 6.1 62-8.4 74-15.9 13.2-45 10.7-86.6-7.5-6.5-2.8-11.9-5.4-15.9-7.3-1.1-.5-2.2-1-3-1.5 15.3 31.1 18.2 55.8 8.8 73.4C-2.3 413.7-39.7 418-62 420.6c-5.4.6-11.4 1.3-13.5 2.2 38.1 23.2 57.8 47.8 58.5 73.3 1.3 43.7-52.6 78.3-78.5 94.9-3.8 2.4-7.5 4.8-9.8 6.5 22.6-3.9 40.5-3 53.1 2.4z"/></g><g class="st5"><path class="st6" d="M9.8 256.9c-1.9.1-4.1-1.9-4.1-3.7-.1-2.5 2-4.3 3.9-4.5 2.1-.2 4.2 1.9 4.3 4.1.1 1.9-2 4-4.1 4.1zm21.9-1.3c-1.7 0-3.5-1.5-3.6-2.9 0-2 1.4-3.5 3.5-3.6 1.8 0 3 1.3 3.1 3.3 0 1.6-1.4 3.1-3 3.2zM9.4 234c-1.6 0-3-1.5-3-3.1 0-1.4 1.4-2.7 2.8-2.8 1.4-.1 3.1 1.4 3.2 2.7.1 1.6-1.5 3.2-3 3.2zm44.1 20.2c-1.6 0-2.4-.6-2.5-2 0-1.2 1.1-2.3 2.3-2.3 1.3 0 2.3 1 2.3 2.3 0 1.3-.7 2-2.1 2zm-22.3-21.7c-1.1 0-2-1-2-2 .1-.8 1.1-1.6 2.1-1.6s2 .9 2 1.7c0 1-1 1.9-2.1 1.9zM8.9 210.6c-.8-.1-1.4-.9-1.3-1.7.1-.9.8-1.6 1.6-1.5.8.1 1.4.9 1.4 1.7-.2.9-.9 1.6-1.7 1.5z"/></g><path class="st13" d="M257.2 40.6v-8.8c0-14.3-8.9-21.1-17.6-21.6-6.1-.3-12.1-.3-17.9-.2-2.3 0-4.6.1-6.9.1h-.4c-3.6-5.8-9.9-9.2-18.1-9.2H93.7c-8.2 0-14.5 3.3-18.1 9H53.9c-12.6.1-21.1 8.5-21 21V41c0 13.5 0 27.5.7 41.3.8 16.5 7.9 30.2 20.5 39.6 7.4 5.5 16 8.9 25.3 9.9.4 0 .9.1 1.3.1.6 0 1.2-.1 1.8-.2 2.3 4.6 5 9 8.1 13 6.2 8.2 13.9 14.8 22.5 19.5-.6 1.6-1 3.5-1 5.7V180c0 2 .2 3.7.6 5.2h-19c-12.8 0-21.1 8.3-21.1 21.2v36.8c0 13 8.4 21.4 21.4 21.4h102.6c12.9 0 21.3-8.4 21.4-21.5v-36.4c0-13.3-8.3-21.6-21.6-21.6h-18.6c.4-1.4.6-2.9.6-4.5v-10.7c0-2.2-.4-4.1-1-5.7 8.5-4.6 16-11.2 22.1-19.3 3.2-4.3 6-8.8 8.4-13.6.6.1 1.2.2 1.8.2.4 0 .8 0 1.2-.1 21.7-2.1 39.1-17.3 44.2-38.8 1.5-6.1 2.3-12.8 2.4-19.9l-.3-32.1z"/><path class="st12" d="M84.2 52.2V17.7c0-6.4 3-9.4 9.4-9.4h102.6c6.3 0 9.4 3.1 9.4 9.5 0 21.8.2 43.7-.1 65.5-.2 18.2-4.8 35.2-16 50-22.9 30.4-66.5 30.2-89.6-.4-10.6-14-15-30.2-15.6-47.5-.3-11 0-22.1-.1-33.2.1 0 .1 0 0 0zm60.9 140.6H196c6.6 0 9.6 3 9.6 9.6v36.3c0 6.3-3.1 9.5-9.4 9.5H93.6c-6.2 0-9.4-3.2-9.4-9.5V202c0-6.2 3.1-9.2 9.2-9.2h51.7zm83.7-159.5h-14V17.6c8 0 16.1-.3 24.1.1 4.1.2 6.3 4.1 6.3 9.7 0 13.6.2 27.2-.1 40.8-.1 5.8-.8 11.7-2.1 17.4-3.9 16.6-17.1 28-33.6 29.6 1.2-5.4 2.4-10.7 3.8-15.9.2-.7.9-1.5 1.6-1.8 9.3-4.2 13.4-12.1 13.9-21.5.6-14 .1-28.1.1-42.7zm-168-.3c0 8.8-.1 17.1 0 25.3.1 7.2 0 14.5 1 21.6 1.1 7.9 5.3 14.1 12.9 17.6.9.4 1.8 1.6 2.1 2.6 1.3 4.9 2.4 9.9 3.6 15.3-7.3-.8-13.7-3.3-19.4-7.6-10.2-7.6-15.1-18.3-15.7-30.6-.8-16.9-.6-33.9-.7-50.9 0-6 3.2-8.9 9.1-9h21.4V33H60.8z"/><path class="st12" d="M144.9 180.7h-16.1c-3.4 0-5.1-1.5-5-5 .1-3.4 0-6.7 0-10.1.1-2.9 1.5-4.1 4.4-3.3 11.2 3.1 22.3 3.1 33.5 0 2.9-.8 4.3.6 4.3 3.4v10.5c0 3.1-1.7 4.5-4.7 4.5h-16.4z"/><path class="st13" d="M183.4 44.8c.7 1.5 1.1 3.3 1.2 5.2.1 1.9-.1 3.9-.6 6-.8 3.7-2.3 7.2-4.5 10.4-2.7 3.9-5.7 6-9 6.1-2.8.1-4.9-1.3-6.2-4.4-.6-1.5-1-3.2-1.1-5.1 0-1.9.2-4 .6-6.1.8-3.7 2.3-7.2 4.5-10.4 2.7-4 5.7-6 9-6.2 2.7 0 4.8 1.5 6.1 4.5zM172 54.1c-1.1 2-1.9 3.9-2.3 5.6-.2 1-.3 1.9-.2 2.5.1 1.1.4 2 .9 2.6.7.7 1.5 1 2.6 1 1.5-.1 2.7-.9 3.8-2.5.9-1.3 1.5-2.8 1.9-4.5.4-2 .4-4 0-5.8-.4-1.9-1.2-2.8-2.5-2.7-1.4.1-2.8 1.3-4.2 3.8zm-28.2 19c11.6 1.8 17.4 6.4 17.3 13.7 0 6.2-3.8 12.5-11.4 18.9-7.5 6.3-14.7 9.2-21.7 8.6-8-.7-12.2-6.5-12.6-17.4l17.1-2.4c-.3.7-.4 1.4-.4 2 0 1 .5 1.6 1.6 1.6l1.5-.2c2.7-.8 4.8-2.1 6.1-3.9.5-.7.8-1.3 1-2.1 0-2.8-3-4.2-9-4.2-3.2 0-7.6.4-13.2 1.2l3.2-15.7 16.1-10.9c-1.6.1-2.9.3-3.9.4l-3.8.4c-2.8.3-5.4.6-7.6.9l1.1-17.6 37.3-2.2c-.8 4.6-1.9 11.5-3.2 20.8-3.8 1.3-8.9 4-15.5 8.1z"/></svg>