<svg id="Capa_1" xmlns="http://www.w3.org/2000/svg" viewBox="0 0 290 274"><style>.st0{fill:#fff}.st0,.st1{clip-path:url(#SVGID_2_)}.st2{fill:#229ed7}.st3{fill:#272425}.st4{fill:#cb2228}.st5{opacity:.1;clip-path:url(#SVGID_2_)}.st6{fill-rule:evenodd;clip-rule:evenodd}.st7{opacity:.15;clip-path:url(#SVGID_2_)}.st8,.st9{clip-path:url(#SVGID_4_)}.st9{opacity:.1}.st10,.st11{clip-path:url(#SVGID_6_)}.st10{fill:#229ed7}.st11{opacity:.1}.st12{fill:#fff}.st13{fill:#262324}.st14{opacity:.15}.st15{clip-path:url(#SVGID_8_)}.st16{fill:#333233}.st17{fill:#1d8dc6}.st18{fill:#221d1f}.st19,.st20{fill-rule:evenodd;clip-rule:evenodd;fill:#329ac6}.st20{fill:#1d8dc6}.st21{opacity:.1}.st22{clip-path:url(#SVGID_10_)}.st23{opacity:.25}.st24{fill:#211915}.st25{fill:#2b2a26}.st26{fill:#e8dc3c}.st27{fill:#e7dc3c}.st28{fill:#e8dc3f}.st29{fill:#e7dc42}.st30{fill:#30302c}.st31{fill:#e7dd43}.st32{fill:#343430}.st33{fill:#2e2e2b}.st34{fill:#31312e}.st35{fill:#2f2f2c}.st36{fill:#30302d}.st37{fill:#2e2d2a}.st38{fill:#e7dd4d}.st39{fill:#333230}.st40{fill:#2b2a28}.st41{fill:#363532}.st42{fill:#e6dc57}.st43{fill:#3a3936}.st44{fill:#252523}.st45{fill:#f6f6f4}.st46{fill:#f5f5f2}.st47{fill:#f2f2f0}.st48{fill:#e1e2e0}.st49{fill:#eeeeed}.st50{fill:#dededd}.st51{fill:#e6e6e4}.st52{clip-path:url(#SVGID_12_)}.st53{clip-path:url(#SVGID_14_)}.st54{fill:#484848}.st55{fill:#ffe6a4}.st56{fill:#6e1c2a}.st57{fill:#551416}.st58{fill:#f1cd33}.st59{fill:#434244}.st60{fill:#060609}.st61{clip-path:url(#SVGID_16_)}.st62{fill:#0e0d0d}.st63{fill:#ecd0c3}.st64{clip-path:url(#SVGID_16_);fill:#0e0d0d}.st65{opacity:.14}.st66{clip-path:url(#SVGID_18_)}.st67{clip-path:url(#SVGID_20_)}.st68{clip-path:url(#SVGID_22_)}.st69,.st70{clip-path:url(#SVGID_24_)}.st70{fill:#0e0d0d}.st71{clip-path:url(#SVGID_26_)}.st72{fill:#aa6502}.st73{fill:#e88f09}.st74{opacity:.3}.st75{fill:none}.st76{fill:#fff8bb}.st77{fill:#fffce6}.st78{fill:#212f44}.st79{fill:#081c35}.st80{fill:#415c84}.st81{fill:#547eaf}.st82{fill:#00a79d}.st83{fill:#00776b}.st84{fill:#08f7e0}.st85{fill:#71ffee}.st86{fill:#c64320}.st87{fill:#f66e44}.st88{fill:#020202}.st89{clip-path:url(#SVGID_28_)}.st90{fill:#fff2be}.st91{fill:#fffcee}.st92{opacity:.1;clip-path:url(#SVGID_26_)}.st93{clip-path:url(#SVGID_30_)}.st94{clip-path:url(#SVGID_32_)}.st95{opacity:.1;clip-path:url(#SVGID_30_)}.st96{fill:#fc0202}.st97{fill:#fef6f6}.st98,.st99{fill:none;stroke-miterlimit:10}.st98{opacity:.8;stroke:#272425}.st99{stroke:#211915;stroke-width:3}.st100{opacity:.18}</style><path class="st3" d="M255.2 13.9H34.8c-13.3 0-20.7 7.4-20.7 20.8v158.4c0 13.8 7.3 21.1 21.1 21.1h65.1c-.9 3-1.7 5.9-2.6 8.8-.3.9-.6 2-.8 2.8-.9.1-2 .1-3.1.1-9 .4-13.9 5.5-14.1 14.3v6.3c0 8.1 5.5 13.6 13.6 13.6h102.9c8.1 0 13.6-5.4 13.7-13.4v-7c0-7.8-5.3-13.3-13.2-13.8-1.4-.1-2.6-.1-3.8 0-1.2-3.9-2.3-7.8-3.5-11.7h65.5c13.2 0 20.8-7.6 20.8-20.7V34.7c.2-13.2-7.4-20.8-20.5-20.8zM50.9 160.6V50.7h188v109.8h-188z"/><path class="st3" d="M168.4 109.5c2.7-2.1 5-5.3 5.5-9 .7-5.6-3.7-11.2-8.2-13-13.8-5.5-28.2-10.9-42.6-16.2-3.9-1.4-10.1-.9-13.9 2.8-3.8 3.8-4.3 10-2.9 13.9 5.4 14.9 10.6 28.7 16 42.2 1.6 4.2 7.2 9.5 13.3 8.6 3.8-.5 6.9-3 9-5.6 3.8 3.9 7.5 7.6 11.3 11.3.7.7 5.4 5.1 10.7 5.1 1.7 0 3.4-.5 5.1-1.6 3.6-2.5 8.1-6.1 11.2-10.9 4.5-7.1-2.8-15.5-4.4-17.2-3.2-3.5-6.6-6.9-10.1-10.4z"/><path class="st12" d="M178.4 201.9c2.8 9.4 5.3 18.2 8 26.9.2.7 1.6 1.5 2.5 1.6 2.5.2 5.1 0 7.6.1 3.3.2 5.2 1.8 5.2 5.3v6.9c-.1 3.5-1.9 5.1-5.3 5.1H93.5c-3.4 0-5.2-1.7-5.2-5.2v-6.1c.1-4.4 1.5-5.8 6-6 9.1-.4 9.1-.4 11.6-9 1.9-6.3 3.7-12.7 5.7-19.6H35.2c-9.2 0-12.7-3.5-12.7-12.7V30.8c0-8.7 3.6-12.4 12.3-12.4h220.4c8.6 0 12.3 3.7 12.3 12.4v158.8c0 8.6-3.7 12.3-12.4 12.3h-76.7zM42.5 165.2h204.8V38.5H42.5v126.7z"/><path class="st12" d="M153.4 102.6c6.7 6.7 13.1 12.8 19.1 19.2 1.8 1.9 4.1 5.7 3.4 6.9-2.2 3.4-5.6 6.2-8.9 8.6-.7.5-3.7-1.3-5-2.6-6.6-6.5-13.1-13.2-20.3-20.4-1 3.4-1.4 6.2-2.6 8.5-.9 1.7-2.8 3.7-4.5 3.9-1.3.2-3.7-1.8-4.4-3.4-5.5-13.9-10.8-27.9-15.9-41.9-.5-1.5-.1-4.1.9-5.1s3.6-1.4 5.1-.9c14.2 5.2 28.3 10.6 42.4 16.1 1.4.6 3.1 2.9 3 4.1-.2 1.6-1.9 3.4-3.5 4.3-2.6 1.2-5.4 1.7-8.8 2.7z"/></svg>