<svg id="Capa_1" xmlns="http://www.w3.org/2000/svg" viewBox="0 0 290 264.7"><style>.st0{fill:#fff}.st0,.st1{clip-path:url(#SVGID_2_)}.st2{fill:#229ed7}.st3{fill:#272425}.st4{fill:#cb2228}.st5{opacity:.1;clip-path:url(#SVGID_2_)}.st6{fill-rule:evenodd;clip-rule:evenodd}.st7{opacity:.15;clip-path:url(#SVGID_2_)}.st8,.st9{clip-path:url(#SVGID_4_)}.st9{opacity:.1}.st10,.st11{clip-path:url(#SVGID_6_)}.st10{fill:#229ed7}.st11{opacity:.1}.st12{fill:#fff}.st13{fill:#262324}.st14{opacity:.15}.st15{clip-path:url(#SVGID_8_)}.st16{fill:#333233}.st17{fill:#1d8dc6}.st18{fill:#221d1f}.st19,.st20{fill-rule:evenodd;clip-rule:evenodd;fill:#329ac6}.st20{fill:#1d8dc6}.st21{opacity:.1}.st22{clip-path:url(#SVGID_10_)}.st23{opacity:.25}.st24{fill:#211915}.st25{fill:#2b2a26}.st26{fill:#e8dc3c}.st27{fill:#e7dc3c}.st28{fill:#e8dc3f}.st29{fill:#e7dc42}.st30{fill:#30302c}.st31{fill:#e7dd43}.st32{fill:#343430}.st33{fill:#2e2e2b}.st34{fill:#31312e}.st35{fill:#2f2f2c}.st36{fill:#30302d}.st37{fill:#2e2d2a}.st38{fill:#e7dd4d}.st39{fill:#333230}.st40{fill:#2b2a28}.st41{fill:#363532}.st42{fill:#e6dc57}.st43{fill:#3a3936}.st44{fill:#252523}.st45{fill:#f6f6f4}.st46{fill:#f5f5f2}.st47{fill:#f2f2f0}.st48{fill:#e1e2e0}.st49{fill:#eeeeed}.st50{fill:#dededd}.st51{fill:#e6e6e4}.st52{clip-path:url(#SVGID_12_)}.st53{clip-path:url(#SVGID_14_)}.st54{fill:#484848}.st55{fill:#ffe6a4}.st56{fill:#6e1c2a}.st57{fill:#551416}.st58{fill:#f1cd33}.st59{fill:#434244}.st60{fill:#060609}.st61{clip-path:url(#SVGID_16_)}.st62{fill:#0e0d0d}.st63{fill:#ecd0c3}.st64{clip-path:url(#SVGID_16_);fill:#0e0d0d}.st65{opacity:.14}.st66{clip-path:url(#SVGID_18_)}.st67{clip-path:url(#SVGID_20_)}.st68{clip-path:url(#SVGID_22_)}.st69,.st70{clip-path:url(#SVGID_24_)}.st70{fill:#0e0d0d}.st71{clip-path:url(#SVGID_26_)}.st72{fill:#aa6502}.st73{fill:#e88f09}.st74{opacity:.3}.st75{fill:none}.st76{fill:#fff8bb}.st77{fill:#fffce6}.st78{fill:#212f44}.st79{fill:#081c35}.st80{fill:#415c84}.st81{fill:#547eaf}.st82{fill:#00a79d}.st83{fill:#00776b}.st84{fill:#08f7e0}.st85{fill:#71ffee}.st86{fill:#c64320}.st87{fill:#f66e44}.st88{fill:#020202}.st89{clip-path:url(#SVGID_28_)}.st90{fill:#fff2be}.st91{fill:#fffcee}.st92{opacity:.1;clip-path:url(#SVGID_26_)}.st93{clip-path:url(#SVGID_30_)}.st94{clip-path:url(#SVGID_32_)}.st95{opacity:.1;clip-path:url(#SVGID_30_)}.st96{fill:#fc0202}.st97{fill:#fef6f6}.st98,.st99{fill:none;stroke-miterlimit:10}.st98{opacity:.8;stroke:#272425}.st99{stroke:#211915;stroke-width:3}.st100{opacity:.18}</style><path class="st3" d="M287 60.1c-1.3-7.5-6.2-13.5-13.1-16.1-7-2.6-14.7-1.2-20.7 3.8-3.4 2.8-7.1 6-11.3 9.5.6-2.5.8-5.1.8-7.6 0-19.5-15.7-35.4-35.1-35.4-19.5 0-35.4 15.8-35.4 35.2 0 8.8 3.1 17.2 8.8 23.6-.4 0-.8.1-1.1.1-.7-2.6-2.3-4.8-4.7-6.1-.3-.2-.9-.5-1.8-.9-14-5.6-29.3-7-45.5-4-11.4 2.1-21.6 6.6-31.5 11l-.1.1c-3 1.3-5.9 2.6-8.9 4-13.1 5.9-25.5 11.5-38.7 15.2-12.4 3.4-23.9 4.4-35.1 2.9-3.1-.4-6.2.7-8.4 2.9-2.2 2.3-3.1 5.4-2.5 8.5.1.3.1.5.1.8.1.7.2 1.4.4 2.2 3.3 14.1 8.9 27.4 16.5 39.3 10.4 16.4 24 28.6 40.3 36.2.1 0 .2.1.2.1-8.9 8.5-17.8 17.1-26.7 25.6-9.3 9-9.9 23.2-1.3 32.4 4.3 4.6 10.1 7.1 16.5 7.1 5.7 0 11.2-2.1 15.7-5.9l12.2-10.5c10.2-8.8 20.3-17.6 30.5-26.3-2.3 3.5-3.6 7.4-3.8 11.6-.4 9.5 4.8 18.2 13.3 22.1 3.2 1.5 6.6 2.3 10 2.3 5.9 0 11.6-2.4 16.1-6.7 12.4-12.1 23.7-23.1 34.5-33.8 9.5-9.4 10-23.3 1.2-33.7-4.5-5.3-9-10.7-13.5-16.1l.4-.3c14.9-12 29.7-23.9 44.5-35.8 6-1 12-1.9 17.9-2.9l9.1-1.4c3.7-.6 8.9-1.4 13.4-5.7 4-3.8 7.9-7.5 11.9-11.2l.8-.7c6-5.7 12.1-11.4 18.1-17.1 5-5.1 7.2-11.5 6-18.3z"/><path class="st12" d="M151.1 146.1c6.7 8 13.3 16 19.9 23.8 5.4 6.5 5.3 14.6-.6 20.5-11.4 11.3-22.9 22.6-34.4 33.8-4.3 4.1-9.9 5-15.1 2.5-4.9-2.3-7.9-7.2-7.6-12.9.1-3.4 1.6-6.2 3.8-8.7 6.7-7.4 13.4-14.7 20-22.1.7-.8 1.2-1.6 2-2.6-2.9-3-5.6-5.8-8.4-8.7-4.9-5.1-9.9-10.1-14.7-15.2-4.8-5.1-7.8-11.1-7.4-18.2.5-8.2 4.2-14.9 10.4-20.1 12.6-10.5 25.4-20.7 38.2-30.9 6-4.7 12.7-8.3 20.2-9.8 4.3-.9 8.8-1 13.2-1.3l31.2-2.4c2.4-.2 4.7-.5 7.1-.5 2 0 3.4-.8 4.8-2 8.6-7.3 17.2-14.7 25.9-21.9 6.8-5.7 16.4-2.2 17.8 6.4.6 3.6-.5 6.8-3.1 9.3-10.2 9.7-20.5 19.4-30.7 29.1-2.3 2.2-5.3 2.7-8.3 3.1-9.3 1.5-18.7 2.9-28 4.5-.9.1-1.9.5-2.6 1.1-17.8 14.3-35.5 28.7-53.6 43.2z"/><path class="st12" d="M12.4 99.2c13.6 1.8 26.4.3 39.1-3.2 17-4.7 32.8-12.5 48.9-19.6 9.5-4.2 19.1-8.4 29.4-10.4 13.6-2.5 27-1.8 40 3.4.3.1.5.3.7.4-3.5 1.3-7.1 2.1-10.3 3.8-5.2 2.8-10.5 5.6-15.1 9.2-12.4 9.6-24.5 19.5-36.5 29.6-8 6.7-12.9 15.5-12.7 26.2.1 3.6-1.1 5.5-3.4 7.7-8.3 7.8-16.5 15.7-24.7 23.6-1.1 1.1-2 1.3-3.5.6-15.4-7.1-27.1-18.3-36.2-32.5-7.1-11.3-12.1-23.4-15.2-36.3-.2-.8-.3-1.5-.5-2.5zm92.6 51.2c4.5 9.7 13.1 15.6 19.6 23.4-5.9 5.1-11.7 10.3-17.6 15.4-16.3 14.1-32.5 28.1-48.8 42.1-5.7 4.9-13.7 4.7-18.6-.5-5-5.3-4.6-13.4.9-18.7 13.1-12.6 26.2-25.1 39.2-37.6 7.4-7.1 14.8-14.2 22.3-21.3.9-.8 1.8-1.7 3-2.8zM233 43.8c0 14.1-11.6 25.6-25.5 25.5-14.2-.2-25.5-11.5-25.5-25.7s11.4-25.5 25.7-25.5c14.1.1 25.4 11.5 25.3 25.7z"/></svg>