<svg id="Capa_1" xmlns="http://www.w3.org/2000/svg" viewBox="0 0 290 264.7"><style>.st0{fill:#fff}.st0,.st1{clip-path:url(#SVGID_2_)}.st2{fill:#229ed7}.st3{fill:#272425}.st4{fill:#cb2228}.st5{opacity:.1;clip-path:url(#SVGID_2_)}.st6{fill-rule:evenodd;clip-rule:evenodd}.st7{opacity:.15;clip-path:url(#SVGID_2_)}.st8,.st9{clip-path:url(#SVGID_4_)}.st9{opacity:.1}.st10,.st11{clip-path:url(#SVGID_6_)}.st10{fill:#229ed7}.st11{opacity:.1}.st12{fill:#fff}.st13{fill:#262324}.st14{opacity:.15}.st15{clip-path:url(#SVGID_8_)}.st16{fill:#333233}.st17{fill:#1d8dc6}.st18{fill:#221d1f}.st19,.st20{fill-rule:evenodd;clip-rule:evenodd;fill:#329ac6}.st20{fill:#1d8dc6}.st21{opacity:.1}.st22{clip-path:url(#SVGID_10_)}.st23{opacity:.25}.st24{fill:#211915}.st25{fill:#2b2a26}.st26{fill:#e8dc3c}.st27{fill:#e7dc3c}.st28{fill:#e8dc3f}.st29{fill:#e7dc42}.st30{fill:#30302c}.st31{fill:#e7dd43}.st32{fill:#343430}.st33{fill:#2e2e2b}.st34{fill:#31312e}.st35{fill:#2f2f2c}.st36{fill:#30302d}.st37{fill:#2e2d2a}.st38{fill:#e7dd4d}.st39{fill:#333230}.st40{fill:#2b2a28}.st41{fill:#363532}.st42{fill:#e6dc57}.st43{fill:#3a3936}.st44{fill:#252523}.st45{fill:#f6f6f4}.st46{fill:#f5f5f2}.st47{fill:#f2f2f0}.st48{fill:#e1e2e0}.st49{fill:#eeeeed}.st50{fill:#dededd}.st51{fill:#e6e6e4}.st52{clip-path:url(#SVGID_12_)}.st53{clip-path:url(#SVGID_14_)}.st54{fill:#484848}.st55{fill:#ffe6a4}.st56{fill:#6e1c2a}.st57{fill:#551416}.st58{fill:#f1cd33}.st59{fill:#434244}.st60{fill:#060609}.st61{clip-path:url(#SVGID_16_)}.st62{fill:#0e0d0d}.st63{fill:#ecd0c3}.st64{clip-path:url(#SVGID_16_);fill:#0e0d0d}.st65{opacity:.14}.st66{clip-path:url(#SVGID_18_)}.st67{clip-path:url(#SVGID_20_)}.st68{clip-path:url(#SVGID_22_)}.st69,.st70{clip-path:url(#SVGID_24_)}.st70{fill:#0e0d0d}.st71{clip-path:url(#SVGID_26_)}.st72{fill:#aa6502}.st73{fill:#e88f09}.st74{opacity:.3}.st75{fill:none}.st76{fill:#fff8bb}.st77{fill:#fffce6}.st78{fill:#212f44}.st79{fill:#081c35}.st80{fill:#415c84}.st81{fill:#547eaf}.st82{fill:#00a79d}.st83{fill:#00776b}.st84{fill:#08f7e0}.st85{fill:#71ffee}.st86{fill:#c64320}.st87{fill:#f66e44}.st88{fill:#020202}.st89{clip-path:url(#SVGID_28_)}.st90{fill:#fff2be}.st91{fill:#fffcee}.st92{opacity:.1;clip-path:url(#SVGID_26_)}.st93{clip-path:url(#SVGID_30_)}.st94{clip-path:url(#SVGID_32_)}.st95{opacity:.1;clip-path:url(#SVGID_30_)}.st96{fill:#fc0202}.st97{fill:#fef6f6}.st98,.st99{fill:none;stroke-miterlimit:10}.st98{opacity:.8;stroke:#272425}.st99{stroke:#211915;stroke-width:3}.st100{opacity:.18}</style><path class="st3" d="M221.1 32.5c0-17-11-28-28-28h-96c-17.7 0-28.2 10.6-28.2 28.4v199.7c0 16.8 10.8 27.6 27.5 27.6h96.7c17.2 0 27.9-10.7 27.9-28 .1-66.6.1-133.1.1-199.7zm-101.5-5c0-1.4 1-2.6 2.3-2.8-.2.9-.4 1.8-.4 2.8 0 1 .1 1.9.4 2.8-1.3-.2-2.3-1.4-2.3-2.8zm13.7 2.8c.2-.9.4-1.8.4-2.8 0-1-.1-1.9-.4-2.8.3 0 .5.1.7.3-.2.8-.3 1.7-.3 2.6 0 .9.1 1.7.3 2.6-.2 0-.4.1-.7.1zm11.8.1s-.1 0 0 0c-.5 0-1-.1-1.4-.3.2-.8.3-1.7.3-2.6 0-.9-.1-1.7-.3-2.6.4-.2.8-.3 1.3-.3h.1c-.2.9-.4 1.9-.4 2.9s.2 2 .4 2.9zm10.9 0h-.1c.2-.7.3-1.4.4-2.1 0 .7.2 1.4.3 2-.2.1-.4.1-.6.1zm0-5.7c.2 0 .4 0 .6.1-.2.6-.3 1.3-.3 2 0-.7-.2-1.4-.4-2.1h.1zm11.4 0c1.6 0 2.9 1.3 2.9 2.9 0 1.6-1.3 2.9-2.9 2.9-.2 0-.4 0-.6-.1.2-.9.4-1.8.4-2.8 0-1-.1-1.9-.4-2.8.2-.1.4-.1.6-.1z"/><path class="st12" d="M212.7 28.3c0-12.5-7.2-19.6-19.6-19.6H97.2c-13.1 0-19.9 6.8-19.9 20.1v199.7c0 12.2 7 19.2 19.2 19.2h96.7c12.7 0 19.6-6.9 19.6-19.7-.1-66.6-.1-133.1-.1-199.7zm-45.3-7.8c1.6 0 2.9 1.3 2.9 2.9 0 1.6-1.3 2.9-2.9 2.9-1.6 0-2.9-1.3-2.9-2.9 0-1.6 1.3-2.9 2.9-2.9zm-11.4 0c1.6 0 2.9 1.3 2.9 2.9 0 1.6-1.3 2.9-2.9 2.9-1.6 0-2.9-1.3-2.9-2.9 0-1.6 1.3-2.9 2.9-2.9zm-11 0c1.6 0 2.9 1.3 2.9 2.9 0 1.6-1.3 2.9-2.9 2.9-1.6 0-2.9-1.3-2.9-2.9 0-1.6 1.3-2.9 2.9-2.9zm-12.2 0c1.6 0 2.9 1.3 2.9 2.9 0 1.6-1.3 2.9-2.9 2.9-1.6 0-2.9-1.3-2.9-2.9 0-1.6 1.3-2.9 2.9-2.9zm-10.3 0c1.6 0 2.9 1.3 2.9 2.9 0 1.6-1.3 2.9-2.9 2.9-1.6 0-2.9-1.3-2.9-2.9 0-1.6 1.3-2.9 2.9-2.9zm39.9 202.6h-34.9c-2.3 0-4.2-1.9-4.2-4.2 0-2.3 1.9-4.2 4.2-4.2h34.9c2.3 0 4.2 1.9 4.2 4.2.1 2.3-1.8 4.2-4.2 4.2zm37-31H90.7v-154h108.7v154z"/><path class="st12" d="M95.1 42.2h99.3v144.6H95.1z"/><path class="st3" d="M156.2 140.8h-20.5c0-1.9.1-3.8 0-5.6-.1-1.1-.3-2.3-.9-3.2-2-3.1-4.1-6.2-6.3-9.1-7.4-9.9-6.3-22.8 2.9-30.7 6.5-5.7 14.2-7.1 22.3-4.1 8.1 3 12.9 9 14.4 17.4 1.1 6.1-.4 11.7-4.1 16.8-2.4 3.3-4.8 6.8-7 10.2-.5.7-.7 1.7-.7 2.6-.1 1.7-.1 3.6-.1 5.7zm-.9 11.8c.1 2.8-2 4.5-4 5.2-.5.2-1 .6-1.2 1.1-.8 1.7-2.4 2.8-4.1 2.7-1.9-.1-3.1-1.1-4-2.7-.2-.5-.8-.9-1.2-1.1-2.5-.8-4-2.6-4-5.2h18.5zm-9.3-8.3h7.9c1.7 0 2.6.8 2.7 2.2 0 1.5-1 2.4-2.6 2.4h-15.8c-1.7 0-2.7-1-2.7-2.4s1-2.2 2.6-2.3c2.7.1 5.3.1 7.9.1zm-3.1-69.4v-3.3c.1-2 1.3-3.3 3.1-3.4 1.8 0 3.1 1.3 3.2 3.3.1 2.3.1 4.6 0 6.8-.1 2-1.4 3.3-3.2 3.3-1.7 0-3-1.3-3.1-3.2v-3.5zM181 94.1c2.1 0 3.3.9 3.7 2.3.4 1.4-.3 3-1.7 3.5-2.5.9-5 1.7-7.6 2.5-1.5.4-2.9-.4-3.4-1.8-.6-1.3-.2-3.1 1.1-3.7 2.8-1.1 5.7-2 7.9-2.8zm-60.7 4.7c0 2.4-1.7 4.1-3.5 3.6-2.7-.7-5.3-1.5-7.9-2.5-1.4-.5-2-2.3-1.5-3.7.5-1.5 2-2.4 3.6-2 2.5.7 5 1.5 7.4 2.5 1 .4 1.5 1.6 1.9 2.1zm11-14.8c0 1.6-.7 2.6-1.9 3.1-1.3.6-2.5.3-3.3-.7-1.7-2.1-3.3-4.3-4.8-6.6-.8-1.2-.3-2.9.8-3.8 1.2-.9 3-1 4 .2 1.7 2.1 3.3 4.4 4.9 6.7.2.4.2.9.3 1.1zm29.5-.2c.1-.3.3-1 .7-1.6l3.9-5.4c1.2-1.6 3-1.9 4.5-.9 1.4 1 1.7 2.9.6 4.5-1.4 1.9-2.8 3.9-4.2 5.7-.8 1.1-2 1.5-3.4 1-1.3-.5-2.1-1.4-2.1-3.3zM111 123.4c-2.1 0-3.3-.9-3.6-2.3-.3-1.3.2-2.8 1.5-3.3 2.6-1 5.2-1.9 7.9-2.6 1.7-.4 3.1.6 3.5 2.3.4 1.5-.3 3-2 3.6-2.7.9-5.3 1.7-7.3 2.3zm70.5 0c-.3-.1-.8-.1-1.3-.3-2.1-.7-4.2-1.3-6.2-2-1.8-.6-2.5-2.2-2-3.8.5-1.7 2-2.6 3.8-2.1 2.5.7 4.9 1.5 7.3 2.4 1.4.5 2.1 2.1 1.7 3.5-.4 1.4-1.6 2.3-3.3 2.3zm-60.6 15.4c.1-.3.3-1.1.7-1.6 1.2-1.8 2.5-3.6 3.8-5.3 1.3-1.7 3.1-2.1 4.6-1 1.5 1.1 1.7 3 .4 4.8-1.3 1.8-2.6 3.6-4 5.4-.9 1.1-2 1.6-3.5 1.1-1.2-.7-2-1.6-2-3.4zm48.4 3.2c-1.3.6-2.5.3-3.3-.7-1.7-2.1-3.3-4.4-4.9-6.7-.8-1.2-.2-2.9.9-3.8 1.2-.9 2.9-1 3.8.2 1.8 2.2 3.4 4.6 5.1 6.9.2.3.2.8.3 1 0 1.6-.7 2.5-1.9 3.1"/></svg>