<svg id="Capa_1" xmlns="http://www.w3.org/2000/svg" viewBox="0 0 290 274"><style>.st0{fill:#fff}.st0,.st1{clip-path:url(#SVGID_2_)}.st2{fill:#229ed7}.st3{fill:#272425}.st4{fill:#cb2228}.st5{opacity:.1;clip-path:url(#SVGID_2_)}.st6{fill-rule:evenodd;clip-rule:evenodd}.st7{opacity:.15;clip-path:url(#SVGID_2_)}.st8,.st9{clip-path:url(#SVGID_4_)}.st9{opacity:.1}.st10,.st11{clip-path:url(#SVGID_6_)}.st10{fill:#229ed7}.st11{opacity:.1}.st12{fill:#fff}.st13{fill:#262324}.st14{opacity:.15}.st15{clip-path:url(#SVGID_8_)}.st16{fill:#333233}.st17{fill:#1d8dc6}.st18{fill:#221d1f}.st19,.st20{fill-rule:evenodd;clip-rule:evenodd;fill:#329ac6}.st20{fill:#1d8dc6}.st21{opacity:.1}.st22{clip-path:url(#SVGID_10_)}.st23{opacity:.25}.st24{fill:#211915}.st25{fill:#2b2a26}.st26{fill:#e8dc3c}.st27{fill:#e7dc3c}.st28{fill:#e8dc3f}.st29{fill:#e7dc42}.st30{fill:#30302c}.st31{fill:#e7dd43}.st32{fill:#343430}.st33{fill:#2e2e2b}.st34{fill:#31312e}.st35{fill:#2f2f2c}.st36{fill:#30302d}.st37{fill:#2e2d2a}.st38{fill:#e7dd4d}.st39{fill:#333230}.st40{fill:#2b2a28}.st41{fill:#363532}.st42{fill:#e6dc57}.st43{fill:#3a3936}.st44{fill:#252523}.st45{fill:#f6f6f4}.st46{fill:#f5f5f2}.st47{fill:#f2f2f0}.st48{fill:#e1e2e0}.st49{fill:#eeeeed}.st50{fill:#dededd}.st51{fill:#e6e6e4}.st52{clip-path:url(#SVGID_12_)}.st53{clip-path:url(#SVGID_14_)}.st54{fill:#484848}.st55{fill:#ffe6a4}.st56{fill:#6e1c2a}.st57{fill:#551416}.st58{fill:#f1cd33}.st59{fill:#434244}.st60{fill:#060609}.st61{clip-path:url(#SVGID_16_)}.st62{fill:#0e0d0d}.st63{fill:#ecd0c3}.st64{clip-path:url(#SVGID_16_);fill:#0e0d0d}.st65{opacity:.14}.st66{clip-path:url(#SVGID_18_)}.st67{clip-path:url(#SVGID_20_)}.st68{clip-path:url(#SVGID_22_)}.st69,.st70{clip-path:url(#SVGID_24_)}.st70{fill:#0e0d0d}.st71{clip-path:url(#SVGID_26_)}.st72{fill:#aa6502}.st73{fill:#e88f09}.st74{opacity:.3}.st75{fill:none}.st76{fill:#fff8bb}.st77{fill:#fffce6}.st78{fill:#212f44}.st79{fill:#081c35}.st80{fill:#415c84}.st81{fill:#547eaf}.st82{fill:#00a79d}.st83{fill:#00776b}.st84{fill:#08f7e0}.st85{fill:#71ffee}.st86{fill:#c64320}.st87{fill:#f66e44}.st88{fill:#020202}.st89{clip-path:url(#SVGID_28_)}.st90{fill:#fff2be}.st91{fill:#fffcee}.st92{opacity:.1;clip-path:url(#SVGID_26_)}.st93{clip-path:url(#SVGID_30_)}.st94{clip-path:url(#SVGID_32_)}.st95{opacity:.1;clip-path:url(#SVGID_30_)}.st96{fill:#fc0202}.st97{fill:#fef6f6}.st98,.st99{fill:none;stroke-miterlimit:10}.st98{opacity:.8;stroke:#272425}.st99{stroke:#211915;stroke-width:3}.st100{opacity:.18}</style><path class="st3" d="M267.8 192.7V76.1c0-19.8-13-33.2-32.4-33.2-63.7-.1-122.9-.1-181.1 0-18.9 0-32.2 13.4-32.2 32.5v117.2c-9.6 1.2-16.7 9.1-16.9 18.7-.1 10.4 7.4 18.7 17.9 19.7 1.2.1 2.3.1 3.4.1h239.1c10.9-.6 18.9-8.5 19.1-19 .2-9.8-7.1-17.9-16.9-19.4z"/><path class="st12" d="M94.8 106.5c-.8 0-1.6.7-1.6 1.5s.7 1.5 1.5 1.5 1.5-.7 1.5-1.5-.6-1.4-1.4-1.5zm14.6 0c-.8 0-1.5.7-1.5 1.5 0 .9.7 1.5 1.5 1.5s1.5-.7 1.5-1.5-.7-1.5-1.5-1.5z"/><path class="st12" d="M264.9 198.9c-2.6-.1-5.3 0-8.3 0V71.4c0-13.5-8-21.9-21.1-22-60.4-.1-120.7-.1-181.1 0-12.8 0-20.9 8.4-20.9 21.2v128.2c-3.4 0-6.3-.2-9.2 0-4.4.3-7.6 3.7-7.7 7.8-.1 4.4 3 7.8 7.6 8.2 1.5.1 2.9.1 4.4.1H265c5-.3 8.4-3.5 8.4-7.9.1-4.4-3.5-8-8.5-8.1zm-153-.2H73.7v-21.4h38.2v21.4zm-34.2-79.3c0-2.4 2-4 4.4-3.4 1.4.3 2.2 1.3 2.5 2.6.1.3.1.5.1.8v14.5c0 2-1.2 3.4-3 3.6-2.3.2-3.9-1.2-4-3.5v-7.3c0-2.4-.1-4.9 0-7.3zm36.4 23.6c-.9-.1-1.7 0-2.7 0v7.8c0 2.2-1.4 3.6-3.4 3.7-2.1 0-3.5-1.5-3.5-3.6v-7.7h-4.7v7.8c0 2.1-1.5 3.6-3.5 3.5-2 0-3.4-1.5-3.4-3.6V143h-3.3c-1.8 0-3.1-1.3-3.1-3v-23.1c0-.1 0-.2.1-.3h31.5v1c0 7.2-.1 14.5 0 21.7-.2 2.2-1.7 3.9-4 3.7zm-27.9-28.1c-.2-6 2.9-10 8-12.8-.7-1.1-1.5-2.3-2.2-3.4-.1-.2-.3-.4-.4-.6 0-.3.1-.5.1-.8.3.1.7.1.8.2.8 1.1 1.4 2.2 2.2 3.3.2.3.4.5.6.8 4.5-1.7 9.1-1.8 13.7 0 .9-1.3 1.7-2.6 2.5-3.9.2-.3.5-.9.9-.4.2.2.2.8 0 1.1-.7 1.3-1.6 2.5-2.4 3.7 5 2.8 8.1 6.7 8 12.8H86.2zm38 22.4c-1.4.5-2.7.2-3.8-.8-.8-.8-1-1.7-1-2.8v-14.4c0-1.9 1.2-3.1 3-3.4 1.6-.3 3.2.7 3.7 2.3.1.4.2.9.2 1.4v14.2c.1 1.8-.6 3-2.1 3.5zm116 61.3H128.5v-7.2c1.8-.1 3.5-.2 5.2-.2h88.7c7.8 0 10.4-2.5 10.4-10.3V83.7c0-7.9-2.6-10.6-10.6-10.6H68c-8.2 0-10.7 2.5-10.7 10.9v114.6h-7.6V72.2c0-6 .7-6.7 6.6-6.7h177.9c5.2 0 6.2.9 6.2 5.9v124.5c-.1.8-.1 1.6-.2 2.7zm-72.9-71.1c1.6-.6 3.2-1.1 4.8-1.6 1-.3 1.9.4 2.1 1.4.2.9-.2 1.8-1.2 2.2-1.6.6-3.2 1.1-4.4 1.5-1.3 0-2-.6-2.2-1.4-.2-.9.1-1.8.9-2.1zm-.9-13.1c.3-.9 1.2-1.5 2.2-1.2 1.5.4 3.1.9 4.5 1.5.5.2.9 1 1.1 1.3 0 1.5-1.1 2.5-2.1 2.2-1.6-.4-3.2-.9-4.8-1.5-.9-.4-1.2-1.4-.9-2.3zm21.6-15c.1-1.2.8-2 1.9-2 1.1 0 1.9.8 1.9 2v4.1c0 1.2-.9 2-1.9 2-1 0-1.8-.8-1.9-2v-2.1c0-.6-.1-1.3 0-2zm6.5 10c4.9 1.8 7.8 5.5 8.7 10.6.6 3.7-.3 7.1-2.5 10.2-1.5 2-2.9 4.1-4.3 6.2-.3.4-.4 1-.4 1.6-.1 1.1 0 2.3 0 3.5h-12.5c0-1.2.1-2.3 0-3.4-.1-.7-.2-1.4-.6-2-1.2-1.9-2.5-3.7-3.8-5.5-4.5-6-3.8-13.8 1.8-18.7 4-3.4 8.7-4.3 13.6-2.5zm10.2-4.6c-.8 1.2-1.7 2.4-2.6 3.5-.5.7-1.2.9-2.1.6-.8-.3-1.2-.9-1.2-2 .1-.2.2-.6.4-1l2.4-3.3c.7-1 1.8-1.2 2.7-.6.9.7 1.1 1.9.4 2.8zm.4 35.6c0 1-.4 1.5-1.2 1.9-.8.4-1.5.2-2-.4-1-1.3-2-2.7-3-4.1-.5-.7-.1-1.8.5-2.3.7-.5 1.8-.6 2.3.1 1.1 1.3 2.1 2.8 3.1 4.2.3.2.3.5.3.6zm-10.4 6.1h-9.6c-1 0-1.6-.6-1.6-1.5s.6-1.4 1.6-1.4h9.6c1 0 1.6.5 1.6 1.4 0 .9-.6 1.5-1.6 1.5zm.8 2.2c.1 1.7-1.2 2.8-2.4 3.1-.3.1-.6.4-.8.6-.5 1-1.4 1.7-2.5 1.6-1.1 0-1.9-.7-2.4-1.7-.1-.3-.5-.5-.8-.6-1.5-.5-2.4-1.6-2.4-3.1 3.8.1 7.5.1 11.3.1zm-15.1-10.4l-2.4 3.3c-.5.7-1.2 1-2.1.7-.8-.3-1.2-.9-1.3-2 .1-.2.2-.6.4-1 .8-1.1 1.5-2.2 2.3-3.2.8-1 1.9-1.3 2.8-.6.9.6 1 1.8.3 2.8zm-.7-29.4c-.8.3-1.5.2-2-.4-1-1.3-2-2.6-2.9-4-.5-.7-.2-1.8.5-2.3.7-.6 1.8-.6 2.4.1 1.1 1.3 2 2.7 3 4.1.2.2.2.6.2.7 0 .9-.4 1.5-1.2 1.8zm32.7 7.8c-1.5.6-3.1 1.1-4.6 1.5-.9.2-1.7-.3-2.1-1.1-.3-.8-.1-1.9.7-2.2 1.7-.7 3.4-1.2 4.8-1.7 1.3 0 2 .6 2.2 1.4.2.8-.2 1.8-1 2.1zm1 12.9c-.2.8-.9 1.4-2 1.4-.2 0-.5-.1-.8-.2-1.3-.4-2.5-.8-3.8-1.2-1.1-.4-1.5-1.3-1.2-2.3.3-1 1.2-1.6 2.3-1.3 1.5.4 3 .9 4.4 1.5.9.3 1.3 1.2 1.1 2.1z"/></svg>