<svg id="Capa_1" xmlns="http://www.w3.org/2000/svg" xmlns:xlink="http://www.w3.org/1999/xlink" viewBox="0 0 727.4 1039.8"><style>.st0{fill:#fff}.st1{fill:#272425}.st2{opacity:.43}.st3{clip-path:url(#SVGID_2_)}.st4{opacity:.4}.st5{fill:#211915}.st6{clip-path:url(#SVGID_4_)}.st7{opacity:.2}.st8{fill:#cb2228}.st9{fill:#e2a16c}</style><title>premios</title><g id="Capa_1_1_"><image width="1531" height="649" xlink:href="94D8FBC1.png" transform="matrix(.39 0 0 .39 72.78 782.57)" overflow="visible" opacity=".75"/><path class="st0" d="M161.7 799.1l458.7 8.6 5.1 153.2-534.9 33z"/><path class="st1" d="M158.7 797.9l.8-2.3 460.9 8.6 3.1.1 5.3 159.9-543.1 33.6 73-199.9zm453.7 15.3l-448.5-8.5L100 987.2l514.8-32.1-2.4-141.9z"/><path class="st1" d="M186.5 864.3c.1-.9.1-1.8.1-2.6v-1.9l.2-3.4v-3.5c-.1-.8.1-1.5.3-2.2.2-.7.6-1.4 1.3-1.8 1-.5 2.2-.4 3.2.2 1 .6 1.8 1.3 2.5 2.3l1.1 1.4c.4.4.7.9 1.2 1.3l2.7 2.2c.9.8 1.7 1.5 2.4 2.2.4.5.9.9 1.4 1.3l4.1 3.7c.4.5.9.9 1.5 1.2v-5.9l-.3-8.8c0-.9.2-1.9.8-2.6.3-.5.8-.8 1.3-1.1.5-.3 1.1-.1 1.4.3.8 1 1.2 2.1 1.2 3.3l.5 4c.2 1.3.3 2.7.3 4v4.2c.1 1.5.2 2.8.3 4v5.1l.1 2.4c0 .5 0 .9-.1 1.3-.1.5-.3 1.1-.6 1.6-.2.5-.6 1-1.1 1.2-1.1.4-2.1-.1-2.9-1.5l-.9-1.5c-.3-.7-.6-1.2-.8-1.5-.2-.4-.4-.8-.7-1.2l-.9-1.2c-.8-1-1.6-1.9-2.5-2.8l-3.5-3.4-.3-.3-1.6-1.4c-.9-.8-1.8-1.6-2.8-2.3l-.6-.5-.7-.6c-.7-.5-1.2-.9-1.5-1.1l-.7 5.3c-.1 1.1-.2 2.5-.4 4l-.6 5.4v1.2c0 .4-.1.8-.1 1.3l-.1.8c-.1.3-.1.6-.3.9-.4.9-1.3 1.4-2.2 1.3-.8 0-1.5-.4-1.9-1-.5-.9-.6-1.9-.4-2.9l.4-3.7c.2-1.5.3-2.8.4-3.7-.3-1.3-.2-2.2-.2-3zm32.8-12.1c.1-.8.2-1.5.5-2.3.5-2 1.2-3 2.1-3 .5 0 .9.2 1.3.6.6.6 1 1.4 1.2 2.3.2.8.2 1.7.1 2.6-.1.9-.2 2-.2 3.3v5.2c0 .9 0 1.9.1 3l.6 6c.1 1.1.2 2.1.2 3l.1 1.7c0 .8-.2 1.7-.8 2.3-.3.5-1 .7-1.6.5-.6-.3-1.1-.7-1.5-1.3-.8-1-1.3-2.1-1.5-3.3-.3-1.3-.4-2.5-.4-3.8l.1-2.2v-5l-.2-5.2V854c-.1-.7-.1-1.2-.1-1.8zm11.4 12.1c.1-.9.1-1.8.1-2.6v-1.9l.2-3.4v-3.5c-.1-.8.1-1.5.3-2.2.2-.7.6-1.4 1.3-1.8 1-.5 2.2-.4 3.2.2 1 .6 1.8 1.3 2.5 2.3l1.1 1.4c.4.5.8.9 1.2 1.3l2.6 2.2c.9.8 1.7 1.5 2.4 2.2.4.5.9.9 1.4 1.3l4.1 3.7c.4.5.9.9 1.5 1.2v-5.9l-.3-8.8c0-.9.2-1.9.8-2.6.3-.5.8-.8 1.3-1.1.5-.3 1.1-.1 1.4.3.8 1 1.2 2.1 1.2 3.3l.5 4c.2 1.3.3 2.7.3 4v4.2c.1 1.5.2 2.8.3 4v5.1l.1 2.4c0 .5 0 .9-.1 1.3-.1.5-.3 1.1-.6 1.6-.2.5-.6 1-1.1 1.2-1.1.4-2.1-.1-2.9-1.5l-.9-1.5c-.3-.7-.6-1.2-.8-1.5-.2-.4-.4-.8-.8-1.2l-.9-1.2c-.8-1-1.6-1.9-2.5-2.8l-3.5-3.4-.3-.3-1.5-1.5c-.9-.8-1.8-1.6-2.8-2.3l-.6-.5-.8-.6c-.7-.5-1.2-.9-1.5-1.1l-.7 5.3c-.1 1.1-.2 2.5-.4 4l-.6 5.4v1.2c0 .4-.1.8-.1 1.3l-.1.8c-.1.3-.1.6-.3.9-.4.9-1.3 1.4-2.2 1.3-.8 0-1.5-.4-1.9-1-.5-.9-.6-1.9-.4-2.9l.4-3.7c.2-1.5.3-2.8.4-3.7-.2-1.3-.1-2.2 0-2.9zm11.2-26.2c.4.1.9.4 1.2.7l1 1c.3.4.6.7 1 1 .4.3.9.4 1.4.5 1 .2 2-.2 2.7-.9.3-.3.5-.6.6-1v-.3c0-.1 0-.2-.1-.3l-.1-.3v-.3c.1-.4.5-.7.9-.7.4-.1.9-.1 1.3 0 .9.2 1.5.8 1.7 1.7.2 1 0 2-.6 2.8-.5.9-1.2 1.6-2 2.2-1.3.8-2.8 1.2-4.4 1.2-.8 0-1.6-.1-2.4-.4-.9-.3-1.7-.8-2.4-1.5-.5-.6-1.4-1-2.2-.8-.8.2-1.3.8-1.4 1.9 0 .4-.3.8-.6.9-.5.2-1 .2-1.5.1-.9-.2-1.6-1.1-1.5-2 0-.4.1-.9.3-1.3.8-1.6 2.1-2.8 3.7-3.5 1-.8 2.2-1 3.4-.7zm51.8 19.4c.5 1.5.8 3 .8 4.6 0 .7-.1 1.3-.2 2-.2 1-.4 1.9-.7 2.8-.3.9-.9 1.7-1.5 2.4-.4.4-.8.8-1.3 1.1l-2.6 1.8c-.1.1-.2.1-.2.2-.2.1-.3.2-.5.3-.6.5-1.3.9-2 1.3-3.1 1.8-6.6 2.9-10.1 3.1-1.3-.1-2.6-.3-3.8-.7-1.3-.3-2.5-.8-3.6-1.5-3.8-2.6-6.1-6.9-6-11.5 0-1.7.4-3.4 1.1-4.9l1.1-2.2c.4-.7.8-1.4 1.4-2 .5-.6 1.1-1.1 1.8-1.6.6-.4 1.2-.8 2-1.3 2.2-1.3 4.7-2.1 7.3-2.4l1.1-.1h1.9l3.8.5c1.2 0 2.3.2 3.5.4.8.2 1.6.4 2.4.8.8.3 1.5.8 2 1.4.6.9 1.2 1.8 1.5 2.8.2.4.4.9.6 1.5.1.1.1.2.1.4l.1.8zm-6.6 8.8c1.2-1 1.9-2.6 1.8-4.1 0-1-.2-1.9-.5-2.8l-.4-.9c-.1-.3-.2-.6-.4-.9-.3-.6-.6-1.2-1.1-1.7-.5-.4-1-.7-1.6-.8l-1.8-.4c-.6-.2-1.2-.3-1.9-.3h-1.9c-1.3-.1-2.5 0-3.8.2-1.2.2-2.4.5-3.5 1.1-1.1.5-2.1 1.4-2.8 2.4-1.2 1.6-1.8 3.5-1.9 5.5 0 1.7.8 3.3 2 4.4 1 1.1 2.2 2.1 3.4 3 .7.5 1.6.7 2.5.7.9 0 1.8-.1 2.6-.3 1.9-.3 3.8-.9 5.4-1.9.7-.4 1.4-.9 2-1.4l1.9-1.8zm19.1-9l-1 1.6c-.5.8-.8 1.7-.7 2.6.8.6 1.8.9 2.8.8.5 0 1.1 0 1.6-.1 1.1-.2 2.1-.3 3-.3 1.2-.1 2.3-.1 3.4-.1 1.5 0 2.9.1 4.4.3 1.4.2 2.7.5 4 1 2.4.8 4.2 2.7 4.8 5.2.3 1.8-.2 3.6-1.4 5-1.1 1.6-2.6 2.8-4.4 3.6-.9.4-1.9.8-2.8 1-.4.1-.9.3-1.5.4l-1.5.4c-2.1.3-4.2.5-6.3.4-2 .1-3.9-.1-5.9-.6-1.9-.4-3.8-1.2-5.4-2.4-.8-.4-1.4-1.3-1.4-2.2 0-.6.4-1.2 1-1.4.4-.2.9-.3 1.3-.3.7 0 1.4.2 2 .4l1 .3c.3.1.7.1 1 .2.9.1 1.9.2 3 .2l4.8.1h2.7c.8 0 1.6-.1 2.4-.3 1.3-.2 2.5-.6 3.6-1.2 1.6-.7 2.3-1.5 2.3-2.1 0-.7-.6-1.2-1.7-1.7a9.6 9.6 0 0 0-3.3-.6c-.6-.1-1.2-.1-1.9-.1h-4.3l-4.2.3h-.5c-.8.1-1.3.1-1.7.2-.2 0-.5.1-.7.2h-.3l-.3.1c-.5.1-1 .2-1.5.1-1.6-.2-3.2-.9-4.3-2.1-.6-.7-.8-1.5-.7-2.4 0-.7.1-1.3.3-1.9.3-.8.7-1.6 1.2-2.3l.5-.9c0-.1.1-.2.2-.3.3-.5.5-.9.6-1.2 1.4-2.6 3-5.1 4.8-7.5.2-.2.5-.6.9-1s.9-.9 1.5-1.4c1.1-1 2.4-1.8 3.9-2.2 1-.3 2-.3 2.9 0 .9.7 1.5 1.6 1.8 2.7l.8 2.6c.2.7.5 1.7.7 2.7.2.7.2 1.4.2 2.1.2 1.1-.5 2.1-1.6 2.3h-.2c-1 .1-1.9-.7-2.8-2.4-.2-.3-.3-.7-.4-1-.1-.2-.1-.3-.1-.5l-.4-1.3c-.1-.3-.2-.6-.3-.8-.2-.4-.8-.1-1.9.7-.8.7-1.6 1.4-2.2 2.3-.5.6-1.1 1.6-1.8 2.8zm67.5-4.3c-.6 1.2-1.4 2.4-2.2 3.5l-2.9 3.6c-.6.7-1.1 1.4-1.5 1.9-.5.7-1 1.3-1.4 1.9-1 1.5-2.1 3-3.3 4.6l-4.8 6.7-.6.7c-.2.3-.5.6-.8.8-.5.5-1.1.9-1.8.9-.5 0-.9-.2-1.2-.6-.3-.4-.5-.8-.4-1.3 0-.4.1-.9.2-1.3l.3-1.2c.2-.6.6-1.3.9-1.9.1-.2.2-.3.3-.5l.8-1.3c.6-.9 1.3-2 2-3.1l2.2-3c-1.7-1-3.4-2.2-4.9-3.5-2.3-2-4.4-4.3-6-6.8l-.5-.8c-.2-.2-.4-.5-.5-.7-.3-.5-.5-1.1-.5-1.7 0-1.6.6-2.3 1.7-2.4.6 0 1.1.2 1.6.6l.6.6.3.3 2.8 3.1c.8.9 1.8 1.8 2.8 2.7.8.7 1.9 1.5 3.1 2.5.3.2.7.6 1.3 1l1.3 1 4.1-5.2c.7-.9 1.4-1.8 2-2.6l2.4-3.3.6-.7c.4-.4 1-.7 1.5-.7 1.3 0 1.9.8 1.7 2.4-.2 1.3-.6 2.6-1.2 3.8zm22.7 11.3c.1-.9.1-1.8.1-2.6v-1.9l.2-3.4v-3.5c-.1-.8.1-1.5.3-2.2.2-.7.6-1.4 1.3-1.8 1-.5 2.2-.4 3.2.2 1 .6 1.8 1.3 2.5 2.3l1.1 1.4c.4.4.7.9 1.2 1.3l2.6 2.2c.9.8 1.7 1.5 2.4 2.2.4.5.9.9 1.4 1.3l4.1 3.7c.4.5.9.9 1.5 1.2v-5.9l-.3-8.8c0-.9.2-1.9.8-2.6.3-.5.8-.8 1.3-1.1.5-.3 1.1-.1 1.4.3.8 1 1.2 2.1 1.2 3.3l.5 4c.2 1.3.3 2.7.3 4v4.2c.1 1.5.2 2.8.3 4v5.1l.1 2.4c0 .5 0 .9-.1 1.3-.1.5-.3 1.1-.6 1.6-.2.5-.6 1-1.1 1.2-1.1.4-2.1-.1-2.9-1.5l-.9-1.5c-.3-.7-.6-1.2-.8-1.5-.2-.4-.4-.8-.8-1.2l-.9-1.2c-.8-1-1.6-1.9-2.5-2.8l-3.5-3.4-.3-.3-1.5-1.5c-.9-.8-1.8-1.6-2.8-2.3l-.6-.5-.8-.6c-.7-.5-1.2-.9-1.5-1.1l-.7 5.3c-.1 1.1-.2 2.5-.4 4l-.6 5.4v1.2c0 .4-.1.8-.1 1.3l-.5.5c-.1.3-.1.6-.3.9-.4.9-1.3 1.4-2.2 1.3-.8 0-1.5-.4-1.9-1-.5-.9-.6-1.9-.4-2.9l.4-3.7c.2-1.5.3-2.8.4-3.7.2-1 .3-1.9.4-2.6zm32.4-12.1c.1-.8.2-1.5.5-2.3.5-2 1.2-3 2.1-3 .5 0 .9.2 1.3.6.6.6 1 1.4 1.2 2.3.2.8.2 1.7.1 2.6-.1.9-.2 2-.2 3.3v5.2c0 .9 0 1.9.1 3l.6 6c.1 1.1.2 2.1.2 3l.1 1.7c0 .8-.2 1.7-.8 2.3-.3.5-1 .7-1.6.5-.6-.3-1.1-.7-1.5-1.3-.8-1-1.3-2.1-1.5-3.3-.3-1.3-.4-2.5-.4-3.8l.1-2.2v-5l-.2-5.2V854c-.1-.7-.2-1.2-.1-1.8zm11.4 12.1c.1-.9.1-1.8.1-2.6v-1.9l.2-3.4v-3.5c-.1-.8.1-1.5.3-2.2.2-.7.6-1.4 1.3-1.8 1-.5 2.2-.4 3.2.2 1 .6 1.8 1.3 2.5 2.3l1.1 1.4c.4.5.8.9 1.2 1.3l2.6 2.2c.9.8 1.7 1.5 2.4 2.2.4.5.9.9 1.4 1.3l4.1 3.7c.4.5.9.9 1.5 1.2v-5.9l-.3-8.8c0-.9.2-1.9.8-2.6.3-.5.8-.8 1.3-1.1.5-.3 1.1-.1 1.4.3.8 1 1.2 2.1 1.2 3.3l.5 4c.2 1.3.3 2.7.3 4v4.2c.1 1.5.2 2.8.3 4v5.1l.1 2.4c0 .5 0 .9-.1 1.3-.1.5-.3 1.1-.6 1.6-.2.5-.6 1-1.1 1.2-1.1.4-2.1-.1-2.9-1.5l-.9-1.5c-.3-.7-.6-1.2-.8-1.5-.2-.4-.4-.8-.7-1.2l-.9-1.2c-.8-1-1.6-1.9-2.5-2.8l-3.5-3.4-.3-.3-1.5-1.5c-.9-.8-1.8-1.6-2.8-2.3l-.6-.5-.7-.6c-.7-.5-1.2-.9-1.5-1.1l-.7 5.3c-.1 1.1-.2 2.5-.4 4l-.6 5.4v1.2c0 .4-.1.8-.1 1.3l-.1.8c-.1.3-.1.6-.3.9-.4.9-1.3 1.4-2.2 1.3-.8 0-1.5-.4-1.9-1-.5-.9-.6-1.9-.4-2.9l.4-3.7c.2-1.5.3-2.8.4-3.7-.3-1.3-.2-2.2-.2-2.9zm11.2-26.2c.4.1.9.4 1.2.7l1 1c.3.4.6.7 1 1 .4.3.9.4 1.4.5 1 .2 2-.2 2.7-.9.3-.3.5-.6.6-1v-.3c0-.1 0-.2-.1-.3l-.1-.3v-.3c.1-.4.5-.7.9-.7.4-.1.9-.1 1.3 0 .9.2 1.5.8 1.7 1.7.2 1 0 2-.6 2.8-.5.9-1.2 1.6-2 2.2-1.3.8-2.8 1.2-4.4 1.2-.8 0-1.6-.1-2.4-.4-.9-.3-1.7-.8-2.4-1.5-.6-.6-1.4-1-2.2-.8-.8.2-1.3.8-1.4 1.9 0 .4-.2.8-.6.9-.5.2-1 .2-1.5.1-.9-.2-1.6-1.1-1.5-2 0-.4.1-.9.3-1.3.8-1.6 2.1-2.8 3.7-3.5 1-.8 2.2-1 3.4-.7zm48.5 38.6c-.7-.1-1.3-.5-1.6-1.2l-.3-.4c-.1-.1-.1-.3-.2-.5l-.1-.2c0-.1-.1-.2-.1-.2l-.2-.4c-.5-.8-1-1.7-1.4-2.6-.1-.1-.1-.2-.2-.3l-.5-1-.7-1.3c-1.2.5-2.5 1-3.7 1.3-1.3.3-2.6.7-4.1.9-1.9.4-3.9.7-5.9.7h-3.6c-.7 1.2-1.2 2.3-1.7 3.4s-.8 1.8-.9 2.3c-.2.7-.7 1.3-1.4 1.7-.7.3-1.4.1-1.9-.5-.3-.4-.5-.8-.5-1.3v-1.4c.1-1.1.3-2.1.6-3.1.2-.5.3-1 .6-1.5l.6-1.4c.4-.9.9-2 1.6-3.3l.9-1.6.8-1.6c.4-.9.9-1.8 1.5-2.7l.8-1.3c.3-.4.6-.9.8-1.3 1.5-2.5 3.2-5.2 5.1-8 .4-.7.9-1.3 1.5-1.9.6-.5 1.4-.8 2.2-.7.8.1 1.6.6 2.1 1.3.3.3.5.7.7 1.1l2.6 4.8c.6 1.2 1.2 2.5 1.7 3.8.2.5.4 1 .7 1.4l.8 1.4c.6 1.1 1 1.9 1.3 2.5.7 1.3 1.3 2.7 2 4.4.4 1.2.9 2.4 1.4 3.6.4.8.6 1.6.6 2.4.4 1.8-.3 2.8-1.9 2.7zM490 865c.9-.2 1.7-.5 2.5-.8l-.8-1.6c-.6-1.3-1.3-2.5-2-3.8-.7-1.1-1.5-2.3-2.4-3.7-.8.7-1.5 1.6-2.1 2.5l-1.8 2.8c-1.2 2-2.3 3.9-3.3 5.8.7 0 1.4 0 2.1-.1.3-.1.8-.1 1.3-.2l1.3-.1c1.1-.1 1.9-.2 2.6-.4.8 0 1.7-.2 2.6-.4zm23.1-7.7l-1 1.6c-.5.8-.8 1.7-.8 2.6.8.6 1.8.9 2.8.8.5 0 1.1 0 1.6-.1 1.1-.2 2.1-.3 3-.3 1.2-.1 2.3-.1 3.3-.1 1.5 0 2.9.1 4.4.3 1.4.2 2.7.5 4 1 2.4.8 4.2 2.7 4.8 5.2.3 1.8-.2 3.6-1.4 5-1.1 1.6-2.6 2.8-4.4 3.6-.9.4-1.9.7-2.8 1-.4.1-.9.3-1.5.4l-1.5.4c-2.1.3-4.2.5-6.3.4-2 .1-3.9-.1-5.9-.6-1.9-.4-3.8-1.2-5.4-2.4-.8-.4-1.4-1.3-1.4-2.2 0-.6.4-1.2 1-1.4.4-.2.9-.3 1.3-.3.7 0 1.4.2 2 .4l1 .3c.3.1.7.1 1 .2.9.1 1.9.2 3 .2l4.8.1h2.7c.8 0 1.6-.1 2.4-.3 1.3-.2 2.5-.6 3.6-1.2 1.6-.7 2.3-1.5 2.3-2.1 0-.7-.6-1.2-1.7-1.7-1.1-.4-2.2-.5-3.3-.6-.6-.1-1.2-.1-1.9-.1h-4.3l-4.2.3h-.5c-.8.1-1.3.1-1.7.2-.2 0-.5.1-.7.2h-.3l-.3.1c-.5.1-1 .2-1.5.1-1.6-.2-3.2-.9-4.3-2.1-.6-.7-.8-1.5-.7-2.4 0-.7.1-1.3.3-1.9.3-.8.7-1.6 1.2-2.3l.5-.9c0-.1.1-.2.2-.3.3-.5.5-.8.6-1.2 1.4-2.6 3-5.1 4.8-7.5.2-.2.5-.6.9-1s.9-.9 1.5-1.4c1.1-1 2.4-1.8 3.9-2.2 1-.3 2-.3 2.9 0 .9.7 1.5 1.6 1.8 2.7l.8 2.6c.2.7.5 1.7.7 2.7.2.7.2 1.4.2 2.1.2 1.1-.5 2.1-1.6 2.3h-.2c-1 .1-1.9-.7-2.8-2.4-.2-.3-.3-.7-.4-1-.1-.2-.1-.3-.1-.5l-.4-1.3c-.1-.3-.2-.6-.3-.8-.2-.4-.8-.1-1.9.7-.8.7-1.6 1.4-2.2 2.3-.3.6-.9 1.6-1.6 2.8zm-320.8 53.5c0 .7-.1 1.3-.1 2l-.3 2.1c-.3 2-1.1 3.9-2.3 5.5-1.1 1.7-2.5 3.2-4 4.5-.8.7-1.8 1.5-3.1 2.4-.9.7-2 1.4-3.3 2.2-2.7 1.7-5.8 2.9-8.9 3.5-1.2.3-2.4.4-3.6.5-.6 0-1.3-.1-1.9-.2-.7-.2-1.3-.8-1.5-1.5-.2-.8-.4-1.6-.3-2.4v-2.9c-.1-1.2-.1-2.1-.1-2.7l.1-5.1c0-1.6-.1-3.2-.3-4.8-.2-1-.4-1.9-.8-2.8l-.5-1.3-.4-1.3c-.2-.9 0-1.9.6-2.6.7-.6 1.6-1.1 2.5-1.3 2.5-.6 5-1 7.5-1.2 2.9-.3 5.4-.4 7.7-.4h3c1.2 0 2.3.1 3.3.2 1.9.2 3.7 1.2 4.9 2.7 1.2 1.3 1.8 3.1 1.8 4.9zm-5.5.9c0-.4-.1-.9-.2-1.3-.4-1.1-1.4-1.8-3.1-2.1-.7-.1-1.5-.2-2.2-.1l-4-.1h-3.1c-.9 0-1.7.1-2.6.2l-2.5.3c-.2 0-.3 0-.5.1l-1.5.3c.3 1 .5 1.7.6 2.3l.2 1.1v13.5c0 .5 0 1 .1 1.5.4 0 .9 0 1.3-.1l1-.2h.3c1.4-.3 2.8-.7 4.1-1.3 1.4-.7 2.8-1.5 4.1-2.5 2.4-1.6 4.4-3.6 6.1-5.9.7-1.1 1.2-2.3 1.5-3.5.3-.7.4-1.5.4-2.2zm31.1 20c-1.2.2-2.6.5-4.2.7l-4.3.6c-1.7.2-3.1.4-4.3.7-1.5.3-3.1.4-4.6.3-1 0-2-.4-2.6-1.2-.6-.9-1-1.9-1.2-2.9-.1-.4-.2-.9-.3-1.5l-.2-1.6c-.2-1.6-.4-3.2-.4-4.8 0-1.5 0-3.1.1-4.8l.3-7.1.2-1.6v-.6c0-1.2.4-2.3 1.1-3.3.4-.4.9-.6 1.4-.7l1.7-.1c1.8-.2 3.5-.3 5.4-.4 2.5-.1 5-.1 7.5 0h4l1.6.1c.5 0 1.1.1 1.6.3.5.2.9.4 1.3.8.4.3.4.9.2 1.3l-.8 1.2c-.2.4-.6.7-1 .8-.8.2-1.7.2-2.6.2h-2.6l-4.8.2c-1.6.1-3.1.3-4.7.5l-1.3.2c-.4 0-.8.1-1.3.2-.8.2-1.5.8-1.7 1.6-.2.9-.3 1.7-.4 2.6v2.6h1c1.3-.2 2.5-.4 3.5-.5l6.8-.6c.9-.1 1.7 0 2.6.1.9.1 1.7.4 2.4.9.7.6.7 1.3-.2 2-.4.3-.8.5-1.2.7-.3.2-.7.3-1 .4l-1.5.3-1.1.1h-.4l-6.6.9c-.7.1-1.4.3-2.2.5-.6.2-1.3.4-2.1.7v5.7c0 .2.1.4.1.7 0 .2.1.4.3.5.5.3 1 .4 1.5.3l8.8-1.1.7-.1h.2c.7-.1 1.3-.2 2-.2l5-.3.6-.1c.6-.1 1.2 0 1.9.1 1.1.2 1.6.8 1.4 1.8-.2.9-.8 1.6-1.6 1.8-1.1.4-2.5.8-4 1.1zm48.3.5c-.2.1-.4.1-.6.2h-.7l-4.2.7c-1 .2-2.1.4-3.3.5-1 .1-2 .2-3.3.4l-6.6.6c-1 .1-2 0-2.9-.3-1.2-.4-1.9-1.1-1.9-2 0-.6.4-1.1.9-1.3.3-.1.5-.3.8-.4l.7-.3c.6-.2 1.3-.4 2-.5.5-.1 1.2-.2 2-.3.6-.1 1.4-.2 2.3-.3l2.4-.4c.1-.7.1-1.3 0-2v-2l.1-4.1v-2c0-.7 0-1.5.1-2.3 0-.6.1-1.4.2-2.2l.5-4.5c-.4.4-.9.7-1.4 1l-.4.2-4.2 2.7c-.9.6-1.9.9-3 1-1.1 0-1.6-.6-1.4-1.9.2-1.1.8-2.2 1.6-2.9.4-.4.9-.8 1.4-1.1l1.4-1c.7-.5 1.6-1.2 2.7-2.1l1-.8.3-.3 1.4-1.1c.6-.4 1.2-.8 1.9-1.2.6-.3 1.4-.5 2.1-.6.5 0 .9.1 1.4.3.8.4 1.2 1.1 1 2.3-.1.7-.2 1.4-.2 2.2l-.2 2.2c-.1.8-.2 1.6-.2 2.6l-.1 2.6c0 .5-.1 1.1-.2 1.9v.8l-.3 4.4v3.4c0 .5 0 1.2-.1 2v2h1.4l2.9-.1h2.7c.4.1.8.4 1 .7.6.7.7 1.6.3 2.5-.3.4-.8.7-1.3.8zm34.6-17.4c-.1 2.8-.8 5.4-2.2 7.8-.9 1.6-1.9 3.1-3.2 4.5-1.2 1.4-2.7 2.5-4.3 3.4-1.6.7-3.4 1.2-5.2 1.3-1.9.3-3.9.5-5.8.5h-1.5c-3.1-.4-5.9-1.9-7.9-4.2-2.2-2.2-3.4-5.2-3.4-8.3 0-.6 0-1.1.1-1.7.9-5.3 3.5-9.2 7.9-11.6 3.4-1.8 7.9-2.7 13.6-2.7 2.8 0 4.8.4 5.9 1.2 4.1 2.4 6 5.7 6 9.8zm-5.9 1.9c0-.7-.1-1.4-.3-2.1-.1-.4-.2-.7-.3-1.1-.1-.3-.2-.7-.3-1.1-.4-1.3-1.5-2.3-2.8-2.7-.3-.1-.6-.2-1-.3l-1-.1c-1.2 0-2.4 0-3.6.1-1.2 0-2.4.2-3.5.4-.4.1-.8.2-1.1.4l-1.1.4c-.7.2-1.4.5-2.1.8-.7.3-1.3.7-1.9 1.2-2 1.7-3.1 4.4-2.6 7 .2 1.4.6 2.7 1.2 4 .5 1.2 1.5 2.1 2.7 2.6 1.4.4 2.8.7 4.2.6 2.2 0 4.4-.3 6.5-1.1.8-.3 1.6-.7 2.4-1.1.8-.4 1.4-1 2-1.6.8-1.2 1.5-2.4 2.1-3.7.3-.8.5-1.7.5-2.6zm54.7 15.8c-.7-.1-1.3-.5-1.6-1.2l-.3-.4c-.1-.1-.1-.3-.2-.5l-.1-.2c0-.1-.1-.2-.1-.2l-.2-.4c-.5-.8-1-1.7-1.4-2.6-.1-.1-.1-.2-.2-.3l-.5-1-.7-1.3c-1.2.5-2.5 1-3.7 1.3-1.3.3-2.6.7-4.1.9-1.9.4-3.9.7-5.9.7h-3.4c-.7 1.2-1.2 2.3-1.7 3.4s-.8 1.8-.9 2.3c-.2.7-.7 1.4-1.4 1.7-.7.3-1.4.1-1.9-.5-.3-.4-.5-.8-.5-1.3v-1.4c.1-1.1.3-2.1.6-3.1.2-.5.3-1 .6-1.5l.6-1.4c.4-.9.9-2 1.6-3.3l.9-1.6.8-1.6c.4-.9.9-1.8 1.5-2.7l.8-1.3c.3-.4.6-.9.8-1.3 1.5-2.5 3.2-5.2 5.1-8 .4-.7.9-1.3 1.5-1.9.6-.5 1.4-.8 2.2-.7.8.1 1.6.6 2.1 1.3.3.3.5.7.7 1.1l2.6 4.8c.7 1.2 1.2 2.5 1.7 3.8.2.5.4 1 .7 1.4l.8 1.4c.6 1.1 1 1.9 1.3 2.5.7 1.3 1.3 2.7 2 4.4.4 1.2.9 2.4 1.4 3.6.4.8.6 1.6.6 2.4.3 1.8-.4 2.8-2.1 2.7zm-9.9-11.7c.9-.2 1.7-.5 2.5-.8l-.8-1.6c-.6-1.3-1.3-2.5-2-3.8-.7-1.1-1.5-2.3-2.4-3.7-.8.7-1.5 1.6-2.1 2.5l-1.8 2.8c-1.2 2-2.3 3.9-3.3 5.8.7 0 1.4 0 2.1-.1.3-.1.8-.1 1.3-.2l1.3-.1c1.1-.1 1.9-.2 2.6-.4.9 0 1.8-.2 2.6-.4zm54.4 11.4c-.2.1-.4.1-.6.2h-.7l-4.2.7c-1 .2-2.1.4-3.3.5-1 .1-2 .2-3.3.4l-6.6.6c-1 .1-2 0-2.9-.3-1.2-.4-1.9-1.1-1.9-2 0-.6.4-1.1.9-1.3.3-.1.5-.3.8-.4l.7-.3c.6-.2 1.3-.4 2-.5.5-.1 1.2-.2 2-.3.6-.1 1.4-.2 2.3-.3l2.4-.4c.1-.7.1-1.3 0-2v-2l.1-4.1v-2c0-.7 0-1.5.1-2.3 0-.6.1-1.4.2-2.2l.5-4.5c-.4.4-.9.7-1.4 1l-.4.2-4.2 2.7c-.9.6-1.9.9-3 1-1.1 0-1.6-.6-1.4-1.9.2-1.1.8-2.2 1.6-2.9.4-.4.9-.8 1.4-1.1l1.4-1c.7-.5 1.6-1.2 2.7-2.1l1-.8.3-.3 1.4-1.1c.6-.5 1.2-.8 1.9-1.2.6-.3 1.4-.5 2.1-.6.5 0 .9.1 1.4.3.8.4 1.2 1.1 1 2.3-.1.7-.2 1.4-.2 2.2l-.2 2.2c-.1.8-.2 1.6-.2 2.6l-.1 2.6c0 .5-.1 1.1-.2 1.9v.8l-.3 4.4v3.4c0 .5 0 1.2-.1 2v2h1.4l2.9-.1h2.7c.4.1.8.4 1 .7.6.7.7 1.6.3 2.5-.3.4-.7.7-1.3.8zm27.1-9.8c-.3.1-.6.2-.8.2l-.8.2.2 2.7c.1.7.1 1.2.1 1.7 0 1-.1 2-.5 3l-.6 2c-.3.6-.8 1.1-1.4 1.3-.6.2-1.1-.2-1.7-1-.4-.6-.7-1.3-.8-2-.1-.7-.1-1.3-.1-2l.1-2c0-.6 0-1.4-.1-2.6-1.5.3-3 .5-4.6.7-1.5.2-3.1.3-4.6.3h-4.1c-1.1 0-2.1-.2-3.1-.5l-1.4-.3c-.4-.1-.9-.3-1.2-.7-.6-.7-.9-1.6-.7-2.5.1-.5.1-1.1.2-1.7l.6-4.9c0-.4.1-.7.1-1.1.2-1.5.5-2.9.9-4.3l.4-1.3c.2-.5.3-.9.6-1.4.4-.9 1-1.6 1.7-2.1.4-.3 1-.4 1.5-.4 1.6 0 2.3.6 2 1.9-.2.9-.5 2-.8 3.3l-1.3 5.2-.5 3.1v.7c0 .2 0 .4.1.5.2.4.5.6.9.7l1.2.1c1.5.2 2.9.2 4.4.2 1 0 2.1-.1 3.1-.2.8-.1 1.8-.3 3.1-.5l.5-.1c.2-.1.3-.1.5-.1l-.2-3.3c-.1-1.2-.2-2.3-.3-3.3l-.1-.8v-.3l-.1-.5c0-.2-.1-.3-.1-.5-.1-.7-.2-1.3-.2-2v-1.7c0-.6.1-1.2.2-1.8.2-1.2.9-2.1 2-2.7.7-.3 1.5.1 2.1 1.2.2.3.4.7.5 1.1l.2 1v.3c.1.7.2 1.6.2 2.6.1.6.1 1.5.2 2.6.1 1.2.1 2 .1 2.6.1 1 .2 1.8.3 2.6v.4l.1.8v.4c.2 0 .3 0 .5-.1l1.1-.2c.2-.1.4-.1.6-.1.4 0 .8 0 1.2.1.4.1.8.2 1.2.5.4.3.7.8.6 1.3-.1 1.1-.7 2-1.6 2.6-.5.7-1.1.9-1.6 1.1zm51.4 10.1c-.7-.1-1.3-.5-1.6-1.2l-.3-.4c-.1-.1-.1-.3-.2-.5l-.1-.2c0-.1-.1-.2-.1-.2l-.2-.4c-.5-.8-1-1.7-1.4-2.6-.1-.1-.1-.2-.2-.3l-.5-1-.7-1.3c-1.2.5-2.5 1-3.7 1.3-1.3.3-2.6.7-4.1.9-1.9.4-3.9.7-5.9.7h-3.4c-.7 1.2-1.2 2.3-1.7 3.4s-.8 1.8-.9 2.3c-.2.7-.7 1.4-1.4 1.7-.7.3-1.4.1-1.9-.5-.3-.4-.5-.8-.5-1.3v-1.4c.1-1.1.3-2.1.6-3.1.2-.5.3-1 .6-1.5l.6-1.4c.4-.9.9-2 1.6-3.3l.9-1.6.8-1.6c.4-.9.9-1.8 1.5-2.7l.8-1.3c.3-.4.6-.9.8-1.3 1.5-2.5 3.2-5.2 5.1-8 .4-.7.9-1.3 1.5-1.9.6-.5 1.4-.8 2.2-.7.8.1 1.6.6 2.1 1.3.3.3.5.7.7 1.1l2.6 4.8c.7 1.2 1.2 2.5 1.7 3.8.2.5.4 1 .7 1.4l.8 1.4c.6 1.1 1 1.9 1.3 2.5.7 1.3 1.3 2.7 2 4.4.4 1.2.9 2.4 1.4 3.6.4.8.6 1.6.6 2.4.2 1.8-.5 2.8-2.1 2.7zm-9.9-11.7c.9-.2 1.7-.5 2.5-.8l-.8-1.6c-.6-1.3-1.3-2.5-2-3.8-.7-1.1-1.5-2.3-2.4-3.7-.8.7-1.5 1.6-2.1 2.5l-1.8 2.8c-1.2 2-2.3 3.9-3.3 5.8.7 0 1.4 0 2.1-.1.3-.1.8-.1 1.3-.2l1.3-.1c1.1-.1 1.9-.2 2.6-.4.9 0 1.7-.2 2.6-.4zm16.2-.7c.1-.9.1-1.8.1-2.6v-1.9l.2-3.4v-3.5c-.1-.8.1-1.5.3-2.2.2-.7.6-1.4 1.3-1.8 1-.5 2.2-.4 3.2.2 1 .6 1.8 1.3 2.5 2.3l1.1 1.4c.4.4.7.9 1.2 1.3l2.6 2.2c.9.8 1.7 1.5 2.4 2.2.4.5.9.9 1.4 1.3l4.1 3.7c.4.5.9.9 1.5 1.2v-5.9l-.3-8.8c0-.9.2-1.9.8-2.6.3-.5.8-.8 1.3-1.1.5-.3 1.1-.1 1.4.3.8 1 1.2 2.1 1.2 3.3l.5 4c.2 1.3.3 2.7.3 4v4.2c.1 1.5.2 2.8.3 4v5.1l.1 2.4c0 .5 0 .9-.1 1.3-.1.5-.3 1.1-.6 1.6-.2.5-.6 1-1.1 1.2-1.1.4-2.1-.1-2.9-1.5l-.9-1.5c-.3-.7-.6-1.2-.8-1.5-.2-.4-.4-.8-.8-1.2l-.9-1.2c-.8-1-1.6-1.9-2.5-2.8l-3.5-3.4-.3-.3-1.5-1.5c-.9-.8-1.8-1.6-2.8-2.3l-.6-.5-.8-.6c-.7-.5-1.2-.9-1.5-1.1l-.7 5.3c-.1 1.1-.2 2.5-.4 4l-.6 5.4v1.2c0 .4-.1.8-.1 1.3l-.1.8c-.1.3-.1.6-.3.9-.4.9-1.3 1.4-2.2 1.3-.8 0-1.5-.4-1.9-1-.5-.9-.6-1.9-.4-2.9l.4-3.7c.2-1.5.3-2.8.4-3.7s-.1-2.1 0-2.9zm11.2-26.2c.4.1.9.4 1.2.7l1 1c.3.4.6.7 1 1 .4.3.9.4 1.4.5 1 .2 2-.2 2.7-.9.3-.3.5-.6.6-1v-.3c0-.1 0-.2-.1-.3l-.1-.3v-.3c.1-.4.5-.7.9-.7.4-.1.9-.1 1.3 0 .9.2 1.5.8 1.7 1.7.2 1 0 2-.6 2.8-.5.9-1.2 1.6-2 2.2-1.3.8-2.8 1.2-4.4 1.2-.8 0-1.6-.1-2.4-.4-.9-.3-1.7-.8-2.4-1.5-.5-.6-1.4-1-2.2-.8-.8.2-1.3.8-1.4 1.9 0 .4-.3.8-.6.9-.5.2-1 .2-1.5.1-.9-.2-1.6-1.1-1.5-2 0-.4.1-.9.3-1.3.8-1.6 2.1-2.8 3.7-3.5 1-.7 2.2-.9 3.4-.7zm51.8 19.4c.5 1.5.8 3 .8 4.6 0 .7-.1 1.3-.2 2-.2 1-.4 1.9-.7 2.8-.3.9-.9 1.7-1.5 2.4-.4.4-.8.8-1.3 1.1l-2.7 1.8c-.1.1-.2.1-.2.2-.2.1-.3.2-.5.3-.6.5-1.3.9-2 1.3-3.1 1.8-6.6 2.9-10.1 3.1-1.3-.1-2.6-.3-3.8-.7-1.3-.3-2.5-.8-3.6-1.5-3.8-2.6-6.1-6.9-6-11.5 0-1.7.4-3.4 1.1-4.9l1.1-2.2c.4-.7.8-1.4 1.4-2 .5-.6 1.1-1.1 1.8-1.6.6-.4 1.2-.8 2-1.3 2.2-1.3 4.7-2.1 7.3-2.4l1.1-.1h1.9l3.8.5c1.2 0 2.3.2 3.5.4.8.2 1.6.4 2.4.8.8.3 1.5.8 2 1.4.6.9 1.2 1.8 1.5 2.8.2.4.4.9.6 1.5.1.1.1.2.1.4l.2.8zm-6.6 8.8c1.2-1 1.9-2.6 1.8-4.1 0-1-.2-1.9-.5-2.8l-.4-.9c-.1-.3-.2-.6-.4-.9-.3-.6-.6-1.2-1.1-1.7-.5-.4-1-.7-1.6-.8l-1.8-.4c-.6-.2-1.2-.3-1.9-.3h-1.9c-1.3-.1-2.5 0-3.8.2-1.2.2-2.4.5-3.5 1.1-1.1.5-2.1 1.4-2.8 2.4-1.2 1.6-1.8 3.5-1.9 5.5 0 1.7.8 3.3 2 4.4 1 1.1 2.2 2.1 3.4 3 .7.5 1.6.7 2.5.7.9 0 1.8-.1 2.7-.3 1.9-.3 3.8-.9 5.4-1.9.7-.4 1.4-.9 2-1.4l1.8-1.8zm19.1-9l-1 1.6c-.5.8-.8 1.7-.8 2.6.8.6 1.8.9 2.8.8.5 0 1.1 0 1.6-.1 1.1-.2 2.1-.3 3-.3 1.2-.1 2.3-.1 3.3-.1 1.5 0 2.9.1 4.4.3 1.4.2 2.7.5 4 1 2.4.8 4.2 2.7 4.8 5.2.3 1.8-.2 3.6-1.4 5-1.1 1.6-2.6 2.8-4.4 3.6-.9.4-1.9.7-2.8 1-.4.1-.9.3-1.5.4l-1.5.4c-2.1.3-4.2.5-6.3.4-2 .1-3.9-.1-5.9-.6-1.9-.4-3.8-1.2-5.4-2.4-.8-.4-1.4-1.3-1.4-2.2 0-.6.4-1.2 1-1.4.4-.2.9-.3 1.3-.3.7 0 1.4.2 2 .4l1 .3c.3.1.7.1 1 .2.9.1 1.9.2 3 .2l4.8.1h2.7c.8 0 1.6-.1 2.4-.3 1.3-.2 2.5-.6 3.6-1.2 1.6-.7 2.3-1.5 2.3-2.1s-.6-1.2-1.7-1.6c-1.1-.4-2.2-.5-3.3-.6-.6-.1-1.2-.1-1.9-.1h-4.3l-4.2.3h-.5c-.8.1-1.3.1-1.7.2-.2 0-.5.1-.7.2h-.3l-.3.1c-.5.1-1 .2-1.5.1-1.6-.2-3.2-.9-4.3-2.1-.6-.7-.8-1.5-.7-2.4 0-.7.1-1.3.3-1.9.3-.8.7-1.6 1.2-2.3l.5-.9c0-.1.1-.2.2-.3.3-.5.5-.8.7-1.2 1.4-2.6 3-5.1 4.8-7.5.2-.2.5-.6.9-1s.9-.9 1.5-1.4c1.1-1 2.4-1.8 3.9-2.2 1-.3 2-.3 2.9 0 .9.7 1.5 1.6 1.8 2.7l.8 2.6c.2.7.5 1.7.7 2.7.2.7.2 1.4.2 2.1.2 1.1-.5 2.1-1.6 2.3h-.2c-1 .1-1.9-.7-2.8-2.4-.2-.3-.3-.7-.4-1-.1-.2-.1-.3-.1-.5l-.4-1.3c-.1-.3-.2-.6-.3-.8-.2-.4-.8-.1-1.9.7-.8.7-1.6 1.4-2.2 2.3-.4.6-1 1.6-1.7 2.7z"/><g class="st2"><defs><path id="SVGID_1_" d="M182 94.7h465.4V763H182z"/></defs><clipPath id="SVGID_2_"><use xlink:href="#SVGID_1_" overflow="visible"/></clipPath><g class="st3"><g class="st4"><path class="st5" d="M407.4 707.2L374.3 40.3h66.2z"/><path class="st5" d="M440.5 40.3l-32.7 669.5-33.5-669.5"/><path class="st5" d="M272.4 56.8l136.3 655.4L208.4 74.4"/><path class="st5" d="M114.1 117.6l296.2 596.7L56.8 151.7"/><path class="st5" d="M-23.5 218.6l435.8 497.3-482.6-449"/><path class="st5" d="M-131.1 352.9l545.7 364L-164.2 412"/><path class="st5" d="M-201.3 511.3l618.5 206-635.7-140"/><path class="st5" d="M-229.4 683.1l649.1 33.8-649.1 34.5"/><path class="st5" d="M-213.4 856.5L422 715.9l-618.3 206.6"/><path class="st5" d="M-154.5 1019.8L424 714.3l-545.4 364.6"/><path class="st5" d="M-56.6 1161.7l482.2-449.5L-9.7 1210"/><path class="st5" d="M73.6 1272.7l353-562.9L131 1306.9"/><path class="st5" d="M227.2 1345.2l199.7-638-135.7 655.6"/><path class="st5" d="M393.8 1374.1l32.8-669.5 33.4 669.5"/><path class="st5" d="M561.9 1357.6L425.6 702.2l200.3 637.7"/><path class="st5" d="M720.2 1296.8L424 700.1l353.5 562.6"/><path class="st5" d="M857.8 1195.8L422 698.5l482.7 449"/><path class="st5" d="M965.4 1061.5l-545.7-364 578.8 304.9"/><path class="st5" d="M1035.6 903.1l-618.4-206 635.6 140"/><path class="st5" d="M1063.7 731.3l-649.1-33.8 649.1-34.5"/><path class="st5" d="M1047.7 557.9L412.3 698.5l618.3-206.6"/><path class="st5" d="M988.8 394.6L410.3 700.1l545.4-364.6"/><path class="st5" d="M890.9 252.7L408.7 702.2l435.4-497.8"/><path class="st5" d="M760.7 141.7L407.8 704.6l295.5-597.1"/><path class="st5" d="M607.1 69.3L407.4 707.2 543.1 51.6"/></g></g></g><path class="st0" d="M651.7 762.9l-557 .1L56.9 27.5 676 39.7z"/><path class="st1" d="M88.6 769.4L50.1 21l632.5 12.4-24.6 736H88.6zM63.7 34.1l37.2 722.4h544.7L669.3 46 63.7 34.1z"/><g class="st2"><defs><path id="SVGID_3_" d="M643.5 756.2H84L56.9 27.5 676 39.7z"/></defs><clipPath id="SVGID_4_"><use xlink:href="#SVGID_3_" overflow="visible"/></clipPath><g class="st6"><g class="st7"><path class="st5" d="M352.3 718.3L312.5-48.6h79.6z"/><path class="st5" d="M392.1-48.6l-39.4 769.9-40.2-769.9"/><path class="st5" d="M189.9-29.6l163.9 753.7L113-9.3"/><path class="st5" d="M-.3 40.3l356 686.2-425-646.9"/><path class="st5" d="M-165.8 156.4l523.9 571.9L-222.1 212"/><path class="st5" d="M-295.1 310.9l656 418.6L-335 378.9"/><path class="st5" d="M-379.6 493.1L364 729.9l-764.2-161"/><path class="st5" d="M-413.3 690.6L367 729.5l-780.3 39.7"/><path class="st5" d="M-394.1 890.1l763.9-161.8-743.3 237.6"/><path class="st5" d="M-323.2 1077.8l695.5-351.3-655.7 419.3"/><path class="st5" d="M-205.5 1241l579.6-516.9-523.4 572.5"/><path class="st5" d="M-49 1368.7l424.3-647.4-355.4 686.6"/><path class="st5" d="M135.6 1452l240.1-733.7-163.2 754"/><path class="st5" d="M335.9 1485.3l39.4-769.9 40.2 769.9"/><path class="st5" d="M538 1466.3L374.1 712.6 614.9 1446"/><path class="st5" d="M728.3 1396.4l-356-686.2 424.9 646.9"/><path class="st5" d="M893.7 1280.2L369.8 708.3 950 1224.7"/><path class="st5" d="M1023.1 1125.8L367 707.2l695.9 350.6"/><path class="st5" d="M1107.5 943.6L364 706.8l764.1 161"/><path class="st5" d="M1141.3 746.1l-780.4-38.9 780.4-39.7"/><path class="st5" d="M1122 546.6L358.1 708.3l743.3-237.5"/><path class="st5" d="M1051.2 358.9L355.7 710.2l655.7-419.3"/><path class="st5" d="M933.5 195.6l-579.7 517 523.4-572.5"/><path class="st5" d="M776.9 68L352.6 715.4 708 28.8"/><path class="st5" d="M592.3-15.3l-240 733.6L515.4-35.6"/></g></g></g><path class="st8" d="M187.8 538.3s-39.1-112.2 19.9-167.1h95s-3.4 66.5 90.3 80.1c0 0 14.9 57.7-124.2 61.1 0-.1-48.7 7.8-81 25.9zm252.6 17.4S403.8 423.4 479.1 382l39.4 4.8s32.5 101.1 96.4 94.3c0 0 3.4 50.2-99.8 46.1 0 0-43.5 1.3-74.7 28.5z"/><path class="st8" d="M272 375.8c-9.2.9-14.6-4.9-20-10.1-6.3-6.2-9.5-14.2-10.9-22.8-.2-1.3.1-3-1.5-3.4-2.2-.4-2.4 1.6-2.8 3-1 3.2-1.8 6.5-2.8 9.8-4.7 16.8-13.6 21.4-31.1 15.6 6.9-8.3 10.1-18.4 15-27.6 4.1-7.7 12.3-10.9 18.3-16.4 2.7-2.5 8.5-1.4 10.6 2.8 1.9 3.7 4.6 5.7 7.7 8 4.5 3.3 6.9 8.1 8.3 13.5 2.5 9.3 2.9 19.2 9.2 27.6zm252.4 33.6c-16.8 5.1-22.4 1.2-27.2-14-1-3.3-.3-8.8-4.1-9-3.1-.1-2.3 5.5-3.3 8.5-3 8.9-14 22.1-24.5 21.3 3.5-6.3 5.3-13 6.4-20.2.8-5.4 2.6-11.2 8.4-14.6 2.5-1.5 4.1-4.5 6.1-7 3.4-4.1 7.7-4.4 11.4-1.5 6.8 5.3 14 10.3 16.9 19.2 2.1 6.3 5.5 12.2 9.9 17.3z"/><path class="st9" d="M149.9 418.1l-1.7-1.5c1.2-.1 1.6.6 1.7 1.5z"/><path class="st1" d="M148.6 416.7c-.1-.1-.2-.1-.3 0h.3z"/><path class="st1" d="M653.9 667.9h-69.3c-1.3-.2-2.3-1.2-2.7-2.5-3.4-9.4-11.6-11.3-20.3-11.6-6.2-.2-11.9.7-16.4-6.1-2.5-3.7-9-4.8-13.7-6.9-1.4-.6-3.2-.5-3.7-2.5-3.5-16.5-5.1-33.1-3.3-49.9.3-2.8.7-5.3-.4-7.9-2.1-5.3-2.1-9.5 4.6-11.2 3.2-.9 1.9-3.5 1.4-5.6-2-10.4-4.1-20.8-4.9-31.4-1.1-9.8-2.2-19.7-3.4-29.5-.3-1.7-.3-3.5.1-5.2 3.4-1.9 12.4-7.9 11-17.8 2-1.7 4.2-3.2 6.5-4.5 7.2-4.6 12.5-8.7 19.6-13.4 2.7-2.7 7.2-6 9.9-8.6 4.8-4.5 7-9.1 1-14.4l-17.3-19.4-17.8-17.6-20.3-18.7c-4.5-3-5.8-9.6-12.5-10.7-1.5-.2.7-3.5 3.1-4.1 7.1-1.5 21-8.6 21.6-8.8 12.6-9.6 23.2-20.8 27.8-36.4.7-2.3 1.9-2.9 4.4-2.9 13.2 0 21.2-10.5 17.8-23.2-1.6-6-1.6-6 1.4-12.8 4.1 9.4 8.9 17.8 17.1 23.5 14.5 6.2 30.8 1.9 37.2-9.9-15.9-.5-19.2-6-20-22.4-.4-8.5 1.1-16.5 3.2-24.5 2.5-9.8 5.4-19.5 7.1-29.5 1.9-12-.4-23.2-5-34.2-7.7-12.4-17.8-21.5-32.5-24.6-12-1.2-23.3.8-33.4 7.9-12.3 8.7-17.3 20.2-13 35.7-6.2-1.8-31-6.4-37.2-6.2-6.6.2-40 1.8-51.1 6.9 4-11.9 1.7-21.7-5.3-30.6-7.6-7.3-16.5-12.5-27-13.9-.4-.1-6.9-.6-9.7-.4-22.8 1.1-34.7 17.6-41.1 38.2-1.2 8.7-1.1 17.6.3 26.3 4 16.8 10.9 32.9 10.1 50.6-.2 5.4-1.9 10.3-4.2 15.4-4 8.9-13 4.6-16 6.3 1 3.2 4.1 4.4 6.4 6.4 8.7 7.6 20.1 8 30.9 2.2 9.8-7.1 14.7-17.4 18.5-28.5 3.5 5.8 3.4 7.5-.7 12.1-4.3 4.9-5.1 12.3-2.6 18.4.1.3.3.7.5 1 1 2.1 2.5 4 4.3 5.6.7.6 1.5 1.2 2.3 1.7 5.7 5 10.6 4.7 13.9 3.3 2.5 1.9 4.1 5.2 5.2 9.6 1.4 5.7 6 10 9.3 14.7 6.2 5.8 13 11.1 20.3 15.6 5 2 9.9 4.1 14.9 6 1.7.7 3.3 1.2 3.1 3.6-.3 3.1-13.3 9.4-16.8 10.6-7.8 2.7-20.3 16.4-21.5 16.4-4.6 3.2-17.5 14.3-19.7 16.2-7.3 6.4-14.9 12.4-22.4 18.5-.3.2-.5.4-.8.6-.2.2-.3.3-.4.5-1.3 2.1 1.2 4.3 1.2 4.3l2.9 3.3c3.4 4.6 36.7 31.4 40.9 34.4 1.2.9 2.9 2.2 3 3.4.8 6.3 2.6 11.6 8.9 14.8 2.2 1.1.8 4.6.5 7-2.3 16.7-5 33.3-6.2 50.2-.4 3.1-.4 6.3-1.1 9.4-1.3 5.1-1.2 9.3 4.6 11.4 2.4.9 1.7 2.8 1.1 4.6-1.8 5.3-1 10.5-.7 16 .8 15.2-.1 30.5-3.9 45.3-1.1 4.3-7.9 5.8-12.3 7.8-3 1.3-5.5 1.8-7.2 5.1s-5.3 3.6-8.9 3.3c-5.9-.5-11.8-.1-17.3 2.4-2.5 1.1-5.6 2.5-6.1 5-1.1 5-3.8 6.2-7.1 6.5H389c-10.5 0-21-.1-31.4 0h-6.4c-2-.1-3.2-.8-4.1-3.9-2.7-9.2-11.1-11.1-19.3-12.3-3.5-.5-7.2-.1-10.8-.1-4.3 0-8-1-10-5.4-.4-1-1.3-2.6-1.9-2.5-7 .2-10.5-6.7-16.6-8-1.4-.2-2.5-1.2-2.9-2.5-4.4-13.1-4.5-26.7-5.1-40.2-.2-3.9 3.3-3.9 5.6-4.8 8.9-3.3 8.7-3.2 6.4-11.8-5.5-21-12.2-95.6-13-109.9 0-.9.1-2.3.6-2.5 7.1-3.8 9-10.5 10.8-17.6.6-2.4 4.6-4.1 7.2-5.8 10.2-6.8 20.9-12.8 29.9-21.2l15.5-19c2-4.2-1.7-5.9-3.7-8.4-4.4-3.6-16.6-13.5-17.8-15.6-.8-1-.4-2 .1-3 1.2-4.8-25.7-20.2-35.4-27-8.6-5.6-18.5-9.1-25.7-16.9-2-1.9-4.5-3.1-7.2-3.3-3.3-.2-4.2-1.3-4-4.4.2-2.7.5-4.8 3.8-5.2 8.8-1.2 16.9-4.7 24.9-8.3 9.9-6.1 18.3-14.4 24.6-24.1 3.5-7.5 7.4-14.9 9.1-23 .4-1.6.7-3 3-2.4 7.1 1.9 12.5-1.6 17.5-6 7.9-11.9 6.9-23.3-1.3-31.3-1.7-1.5-4-2.3-6.3-2.1-7.5.7-6.2-3.3-5.3-8.1 2.2-11.6 2.8-23.3.7-35-3.5-19.7-18.4-33.1-38.1-35.7-1.4-.2 4.2-3.1 12.9-1.8-3-4.4-7.7-5-11.9-5-2.9 0-5.8 1.6-8.1 3.4-.9.6-1.7 2.2-2.5 1.4-1.3-1.2 5.1-9.1 8.4-11.1 1.4-1.1 2.7-2.2 3.9-3.4 1.6-1.8-14.2 2-17.3 8.7-1.5 3.2-2.2 1.8-3.6.3-6.4-6.9-14.7-7.5-25.1-7.8 7 4.9 13.5 7.5 17.7 13.8-5.8-1.6-32.5-11.9-44-5.5 3.6.1 7.6 1.5 13.2 4.6-10.9-1.4-21.2-1-31.5-.7-15.1 2.3-28.3 8.3-39 19.3-5.1 7-9 14.6-10.7 23.1-.4 1.9-2.7 5.1 2.5 4.9 2.5-.1 1.2 2.5 1.1 3.7-.9 9.3.7 18.6 4.6 27.1.7 1.6 2.2 3.5-.2 4.6-8.9 4.2-9.8 12.2-10 20.6 1.5 8.3 5.5 16.2 13.7 18 6.3 1.4 9 2.3 10.5 9.2 4.9 22.9 21.9 35.3 41.9 44.5 2.9 1.3 5.9 2.3 8.8 3.4l8.6 1.9c3.4.8 2.6 3.8 3 6 .6 3.3-21.3 21-28.9 27.4-6.7 6.4-13.1 13.2-20.7 18.8-2.7 2.6-5.3 5.4-8.1 7.9-4 3.7-8.2 7.2-10.5 12.3-3.7 4.2-7.1 8.7-11.1 12.5-5.1 4.7-6.1 9.2-1.2 14.4.8.1 1.2.6 1.4 1.5v-.3c8.8 8.9 19.2 15.4 29.5 22.2 2.2 1.5 4.3 3.2 6.6 4.6 3.9 2.4 7.4 4.7 8 10 .6 2.7 2.3 4.9 4.6 6.3 5.6 3 5.2 7.7 4.8 12.7-.5 7.4-2.5 15.2-1.1 22.3 2.8 13.7-2.6 26-4.1 39-1.6 13.8-4.7 27.5-9.3 40.6-1.6 4.5-1.2 7.5 3.8 8.5 9.5 2 10.9 8 10.2 16.8-.8 10.7-2.3 21.4-4.3 32-.1.8-.8 2.3-1.1 2.3-6.3 0-9.1 7.4-15.5 7.2-2.1-.2-4.1 1-5 2.9-2.3 6.1-7 6.7-12.6 6.4-5.9-.5-11.8.3-17.3 2.2-5.2 1.9-9.1 4.9-10.9 10.3-.8 2.3-1.7 3.6-4 3.9H90.6c-17.1-.1 4.9 38.1 4.9 38.1h558.1l.3-38.4zm-436-327.6c4.1-7.7 12.3-10.9 18.3-16.4 2.7-2.5 8.5-1.4 10.6 2.8 1.9 3.7 4.6 5.7 7.7 8 4.5 3.3 6.9 8.1 8.3 13.5 2.5 9.3 2.8 19.2 9.2 27.6-9.2.9-14.6-4.9-20-10.1-6.3-6.2-9.5-14.2-10.9-22.8-.2-1.3.1-3-1.5-3.4-2.2-.4-2.4 1.6-2.8 3-1 3.2-1.8 6.5-2.8 9.8-4.7 16.8-13.6 21.4-31.1 15.6 6.9-8.3 10.1-18.4 15-27.6zm-22.2 94.8c-2.2 2.3-4.2-2-5.9-3.7-6.6-6.6-12.9-13.4-19.1-20.3-1.2-1.4-5.3-2.9-1.7-5.7 2.4-2 4.7-5.1 8.7-2.3 2.7 1.9 6 3 8.9 4.8 3.1 1.9 4.9 1 6.6-1.9 2.6-4.4 5.5-8.7 8.9-14 2.3 11.8.7 22.6 1.8 33.4.7 5.9-5.3 6.7-8.2 9.7zm71.7 231.5c-.1.7-.6 1.2-1.3 1.2H220c-1.8 0-3.5.1-3.9-2.6-1.6-11.2-9.5-22.1-1.9-33.8-2.6-12.3 5.7-22.1 7.4-33.5.2-1.5-.3-4 2.8-3.4l9.3.8 6.9-45.4c.2-1.6.6-3.1 1.2-4.5 2.2 4.5 1.5 9.5 2 14.2 1.2 10.1 2.8 20.1 2.6 30.3-.1 5.8 3.2 6.8 7.7 5.5 5.9-1.6 8.6.2 9.3 6.3.6 3.8 1.8 7.5 3.4 10.9 4.5 10.5 4.7 22 5.9 33 .6 6.5-4 13.8-5.3 21zm9.8-245.5c.4-13.9-.6-27.9 2-42.4 5.8 4.1 9.6 9.9 13.7 15.1 3.4 4.3 8.3 9 12.4 5.1 5.2-5.1 6.2-9 11.3-5.4 2.2 1.5 4.9 2.3 5.7 3.9l-9.1 10.5c-6.8 6.7-13.5 13.6-20.6 20-1.7 1.6-3.8 5.9-6.2 3.4-3.1-3.1-9.4-3.3-9.2-10.2zm194.4-25.2c.8-5.4 2.6-11.2 8.4-14.6 2.5-1.5 4.1-4.5 6.1-7 3.4-4.1 7.7-4.4 11.4-1.5 6.8 5.3 14 10.3 16.9 19.2 2.2 6.4 5.5 12.2 9.9 17.3-16.8 5.1-22.4 1.2-27.2-14-1-3.3-.3-8.8-4.1-9-3.1-.1-2.3 5.5-3.3 8.5-3 8.9-14 22.1-24.5 21.3 3.6-6.3 5.4-13 6.4-20.2zm-14.9 68.5c-2.5 1.1-5.4.6-7.5-1.2-4.6-4-17.4-16.5-19.3-18.6-8.7-9.6-8.9-9.8 2.1-17 4.4-2.9 22.7-17.9 25.4-16.5 3.9 2 1.8 9.3 2.1 14.4.7 10.6.6 21.2 1.5 31.8.4 5-1 5.5-4.3 7.1zm60.9 182c-2.3 4.8-6.7 14.8-7.7 21.2-.4.1-.8.2-1.3.2h-3.9c-1 0-2.2-.1-3.5-.2-9.5 0-18.9.1-28.4.1-.3 0-.6 0-.8.1-1.3-6.4-4.6-14.1-7.1-19.1-.5-3.1-.4-6.3.2-9.3 2.2-11.6 6.4-22.5 8.6-34 .7-4.2.4-8.6-1.1-12.6-1.8-5.5 2.5-12.6 8.3-14.3 4.3-.6 8.7-.9 13-.9 11.5.8 12.9 4.1 15.1 10.2 1.3 5.6-2.7 10.7-1.5 16.2.9 4.2 2 8.2 3 12.4l3.2 9.1c2.1 3.6 4 13.9 3.9 20.9zm2.7-185c1.6-15 1.6-30.1 1.5-46.6 9.8 10.8 20.6 18.4 31 26.4 2.7 2 1 3.4-.3 4.9-6.5 7-13 13.9-19.6 20.7-1.5 1.6-3.2 5.1-5.7 2.8s-7.5-2.8-6.9-8.2z"/></g></svg>