<svg id="Capa_1" xmlns="http://www.w3.org/2000/svg" xmlns:xlink="http://www.w3.org/1999/xlink" viewBox="0 0 727.4 1039.8"><style>.st0{fill:#fff}.st1{fill:#272425}.st2{opacity:.43}.st3{clip-path:url(#SVGID_2_)}.st4{opacity:.4}.st5{fill:#211915}.st6{clip-path:url(#SVGID_4_)}.st7{opacity:.2}.st8{fill:#262324}.st9{fill:#cb2228}</style><title>premios</title><g id="Capa_1_1_"><image width="1530" height="650" xlink:href="4BEA4B7E.png" transform="matrix(.3802 0 0 .3794 71.54 783.97)" overflow="visible" opacity=".75"/><path class="st0" d="M160.2 800.3l456.1 8.6 5.1 152.3-531.9 32.9z"/><path class="st1" d="M157.2 799.1l.8-2.3 458.3 8.6 3.1.1 5.3 159-540.1 33.4 72.6-198.8zm451.2 15.2l-446-8.4-63.5 181.5 511.9-32-2.4-141.1z"/><g class="st2"><defs><path id="SVGID_1_" d="M180.4 99.8h462.8v664.5H180.4z"/></defs><clipPath id="SVGID_2_"><use xlink:href="#SVGID_1_" overflow="visible"/></clipPath><g class="st3"><g class="st4"><path class="st5" d="M404.5 708.9L371.6 45.7h65.9z"/><path class="st5" d="M437.5 45.7l-32.6 665.8-33.3-665.8"/><path class="st5" d="M270.3 62.1l135.5 651.8L206.7 79.7"/><path class="st5" d="M112.9 122.6L407.4 716 55.8 156.6"/><path class="st5" d="M-24 223l433.4 494.6L-70.5 271"/><path class="st5" d="M-131 356.6l542.7 362-575.6-303.2"/><path class="st5" d="M-200.8 514.1l615 204.8-632.1-139.2"/><path class="st5" d="M-228.7 685l645.4 33.6-645.4 34.3"/><path class="st5" d="M-212.8 857.4l631.9-139.8L-195.8 923"/><path class="st5" d="M-154.2 1019.8L421.1 716l-542.4 362.6"/><path class="st5" d="M-56.8 1160.9l479.4-447-432.9 495"/><path class="st5" d="M72.6 1271.3l351-559.8-294 593.7"/><path class="st5" d="M225.4 1343.3l198.5-634.4-134.9 652"/><path class="st5" d="M391 1372.1l32.6-665.8 33.2 665.8"/><path class="st5" d="M558.2 1355.7L422.6 703.9l199.2 634.2"/><path class="st5" d="M715.6 1295.3L421.1 701.8l351.5 559.5"/><path class="st5" d="M852.4 1194.8L419.1 700.3 899 1146.8"/><path class="st5" d="M959.4 1061.3l-542.7-362 575.6 303.2"/><path class="st5" d="M1029.2 903.7l-615-204.8 632.1 139.2"/><path class="st5" d="M1057.2 732.9l-645.5-33.6 645.5-34.3"/><path class="st5" d="M1041.3 560.4L409.4 700.3l614.8-205.5"/><path class="st5" d="M982.7 398.1L407.4 701.8l542.3-362.5"/><path class="st5" d="M885.3 256.9l-479.5 447 432.9-495"/><path class="st5" d="M755.8 146.6L404.9 706.3l293.9-593.7"/><path class="st5" d="M603.1 74.5L404.5 708.9 539.5 57"/></g></g></g><path class="st0" d="M647.5 764.3l-553.9.1L56 33.1l615.6 12z"/><path class="st1" d="M87.5 770.8L49.2 26.5l629 12.3-24.5 731.9-566.2.1zM62.7 39.6l37 718.4h541.6L665 51.4 62.7 39.6z"/><g class="st2"><defs><path id="SVGID_3_" d="M639.3 757.6H82.9L56 33.1l615.6 12.1z"/></defs><clipPath id="SVGID_4_"><use xlink:href="#SVGID_3_" overflow="visible"/></clipPath><g class="st6"><g class="st7"><path class="st5" d="M349.7 720L310.1-42.6h79.2z"/><path class="st5" d="M389.3-42.6L350.1 723l-40-765.6"/><path class="st5" d="M188.3-23.8l163 749.6L111.8-3.6"/><path class="st5" d="M-1 45.8l354.1 682.3L-69.5 84.8"/><path class="st5" d="M-165.5 161.2l521 568.8-577-513.5"/><path class="st5" d="M-294.1 314.8l652.4 416.3-692-348.7"/><path class="st5" d="M-378.1 496l739.4 235.5-759.8-160.1"/><path class="st5" d="M-411.6 692.4l775.9 38.7-775.9 39.4"/><path class="st5" d="M-392.5 890.8L367.1 730-372 966.2"/><path class="st5" d="M-322 1077.4l691.6-349.3-652.1 417"/><path class="st5" d="M-205 1239.8l576.4-514L-149 1295"/><path class="st5" d="M-49.3 1366.7L372.6 723 19.2 1405.7"/><path class="st5" d="M134.3 1449.5L373 720l-162.3 749.7"/><path class="st5" d="M333.4 1482.6L372.6 717l39.9 765.7"/><path class="st5" d="M534.4 1463.8l-163-749.5 239.4 729.3"/><path class="st5" d="M723.6 1394.3l-354-682.4 422.6 643.3"/><path class="st5" d="M888.1 1278.8L367.1 710l577 513.6"/><path class="st5" d="M1016.8 1125.2L364.3 708.9l692 348.7"/><path class="st5" d="M1100.7 944L361.3 708.5l759.9 160.1"/><path class="st5" d="M1134.3 747.6l-776-38.7 776-39.4"/><path class="st5" d="M1115.2 549.3L355.5 710.1l739.2-236.3"/><path class="st5" d="M1044.7 362.6L353.1 711.9l652-417"/><path class="st5" d="M927.6 200.2L351.2 714.3 871.7 145"/><path class="st5" d="M772 73.3L350.1 717 703.5 34.3"/><path class="st5" d="M588.4-9.5L349.7 720 511.9-29.7"/></g></g></g><path class="st1" d="M271.3 851l-4.2.6-3.1.4c.2.8.3 1.6.3 2.4l.2 4.3v.3c.1.8.1 1.6 0 2.5-.2 2.2-.5 4.3-1.1 6.5-.4 1.6-.9 3.1-1.5 4.6-.7 1.5-1.6 2.9-2.8 4.1-1 1-2.1 1.7-3.4 2.2-1.3.6-2.7.9-4.1.8-2.5-.1-4.7-1.6-5.7-3.8-.4-1-.6-2.2-.6-3.3 0-.6 0-1.3.1-2.2l.1-1.1v-1.2l.1-1.5c0-.7.1-1.3.2-2 .4-1.5 1.2-2.1 2.4-1.6.8.3 1.3 1.1 1.5 2.5.1.6.2 1.3.2 1.9v2c0 1.2.1 2.3.5 3.5.3.9 1.2 1.4 2.1 1.1h.1c2-.5 3.7-1.7 4.7-3.5.6-1 1-2.1 1.2-3.3l.3-1.8c.1-.5.1-1 .2-1.7l.1-.9v-.9c0-.7 0-1.7-.1-2.9v-.3l-.4-5.7c-.6.1-1.5.2-2.7.4-.9.1-2 .3-3.1.5l-3.2.6-1.8.5c-.6.2-1.2.3-1.8.3-1.3.1-2-.4-2.2-1.3 0-.5.2-1 .5-1.3.1-.2.3-.4.5-.7l.2-.3.2-.2c.8-.9 1.9-1.5 3-1.9.6-.2 1.2-.4 1.8-.5.5-.1 1-.3 1.7-.4 1.5-.3 3-.5 4.4-.7 1.3-.1 2.8-.2 4.5-.3l3.5-.3c1.6-.1 2.8-.2 3.5-.2h2c.6 0 1.2.1 1.8.3.8.2 1.5.7 2 1.3.5.7.2 1.3-.7 2-.5-.2-1 0-1.4.2zm36.3 7.3c.5 1.5.8 3 .8 4.6 0 .7-.1 1.3-.2 2-.2.9-.4 1.9-.7 2.8-.3.9-.9 1.7-1.5 2.3-.4.4-.8.8-1.3 1.1l-2.6 1.8c-.1 0-.2.1-.2.2-.2.1-.3.2-.5.3-.6.5-1.3.9-2 1.3-3.1 1.8-6.5 2.9-10.1 3.1-1.3-.1-2.5-.3-3.8-.7-1.3-.3-2.5-.8-3.6-1.5-3.8-2.5-6.1-6.8-6-11.4 0-1.7.4-3.4 1.1-4.9l1.1-2.2c.4-.7.8-1.4 1.4-2 .5-.6 1.1-1.1 1.8-1.6.6-.4 1.2-.8 2-1.3 2.2-1.3 4.7-2.1 7.2-2.4l1.1-.1h1.9l3.8.5c1.2 0 2.3.2 3.5.4.8.1 1.6.3 2.3.6.8.3 1.5.8 2 1.4.6.9 1.2 1.8 1.5 2.8.2.4.4.9.6 1.5.1.1.1.2.1.4l.3 1zM301 867c1.2-1 1.9-2.6 1.8-4.1 0-1-.2-1.9-.5-2.8l-.4-.9c-.1-.3-.2-.6-.4-.9-.3-.6-.6-1.2-1.1-1.7-.5-.4-1-.7-1.6-.8l-1.8-.4c-.6-.2-1.2-.3-1.9-.3h-1.9c-1.3-.1-2.5 0-3.8.2-1.2.2-2.4.5-3.5 1.1-1.1.5-2.1 1.3-2.8 2.4-1.2 1.6-1.8 3.5-1.9 5.5 0 1.7.7 3.3 2 4.4 1 1.1 2.2 2.1 3.4 3 .7.5 1.6.7 2.5.7.9 0 1.8-.1 2.6-.3 1.9-.3 3.7-.9 5.4-1.9.7-.4 1.4-.9 2-1.4l1.9-1.8zm-4.1-28.3l-.7 1.5c-.2.4-.4.8-.6 1.3l-.5 1.3c-.2.4-.4.9-.6 1.3-.2.4-.4.9-.7 1.3-.6.9-1.7 1.2-2.7.7-.4-.2-.7-.6-.7-1.1-.1-.4-.1-.9 0-1.3.1-.6.2-1.2.4-1.8.2-.6.4-1.3.6-1.9l.4-1.2c.2-.4.3-.8.6-1.2.5-.9 1.3-1.5 2.3-1.6 1.3-.1 2.1.3 2.4 1.2.1.5 0 1-.2 1.5zm14.9 16.5c-.2-1.1-.4-2.1-.5-3.2v-1.3c.1-.4.3-.8.6-1.1.5-.3 1.1-.5 1.7-.5.5 0 .9.1 1.3.4.5.6.9 1.3 1.2 2 .1.5.3 1 .5 1.7l.6 1.7c.9 3.1 1.9 6.2 3 9.2l.8 2.1c.3.8.6 1.5.9 2.1l1.3 2.3.6.9c.1-.2.2-.4.3-.7l.8-1.7c.1-.1.1-.3.2-.4l.9-1.8c.4-.7.7-1.3.9-1.8l4.2-9.4c.4-.8.8-1.7 1.2-2.5.3-.5.5-1 .7-1.5 0-.1.1-.1.1-.2l.2-.6c.2-.3.3-.5.4-.7 0-.1.1-.2.1-.3l.1-.3.3-.6c.2-.4.4-.7.7-1.1.5-.7 1.4-1 2.2-1 .8-.1 1.6.5 1.7 1.3v.4c0 .6-.1 1.1-.3 1.7l-.5 1.4-.5 1.3c0 .1 0 .1-.1.2-.4 1.3-.8 2.3-1.1 3L334 862c-.5 1.1-.9 2.1-1.3 2.9-.5 1-.9 1.9-1.3 2.7-.3.6-.6 1.3-1 2.2l-.9 2.2c-.2.5-.4 1.1-.8 1.8l-.9 1.8-.5 1.2c-.1.4-.4.7-.6 1-.6.7-1.5 1-2.4 1-.8-.1-1.5-.4-2.1-.9-.3-.2-.6-.5-.8-.8l-.4-.4-.4-.5c-.7-.9-1.3-1.8-1.9-2.7l-.8-1.4c-.1-.2-.2-.5-.4-.7-.1-.1-.2-.2-.2-.3l-.2-.4c-.3-.5-.6-1.2-1-2.1l-.4-1.1c-.1-.4-.3-.8-.4-1.1-.6-1.4-1.1-2.8-1.5-4.3-.1-.7-.3-1.3-.6-2-.1-.1-.1-.3-.2-.5l-.5-1.5c-.2-1-.5-2.1-.7-2.9zm52.7 21.4c-1.2.2-2.6.5-4.2.7l-4.3.6c-1.7.2-3.1.4-4.3.7-1.5.3-3.1.4-4.6.3-1 0-2-.4-2.6-1.2-.6-.9-1-1.9-1.2-2.9-.1-.4-.2-.9-.3-1.5l-.2-1.6c-.2-1.6-.4-3.2-.4-4.8 0-1.5 0-3.1.1-4.8l.3-7 .2-1.6v-.6c0-1.2.4-2.3 1.1-3.3.4-.4.9-.6 1.4-.7l1.7-.1c1.8-.2 3.5-.3 5.3-.4 2.5-.1 5-.1 7.5 0h4l1.6.1c.5 0 1.1.1 1.6.3.5.2.9.4 1.3.8.4.3.5.9.2 1.3l-.8 1.2c-.2.4-.6.7-1 .8-.8.2-1.7.2-2.5.2h-2.7l-4.8.2c-1.6.1-3.1.3-4.7.5l-1.2.2c-.4 0-.8.1-1.3.2-.8.2-1.5.8-1.7 1.6-.2.9-.3 1.7-.4 2.6v2.5h1c1.3-.2 2.5-.4 3.5-.5l6.8-.6c.9-.1 1.7 0 2.5.1.9.1 1.7.4 2.4.9.7.6.7 1.2-.2 2-.4.3-.8.5-1.2.7-.3.2-.7.3-1 .4l-1.5.3-1.1.1h-.4l-6.6.9c-.7.1-1.4.3-2.2.5-.6.2-1.3.4-2.1.7v5.7c0 .2.1.4.1.7 0 .2.1.4.3.5.5.3 1 .4 1.5.3l8.8-1.1.7-.1h.2c.7-.1 1.3-.2 2-.2l5-.3.6-.1c.6-.1 1.2 0 1.9.1 1.1.2 1.6.8 1.4 1.8-.2.9-.8 1.6-1.6 1.8-1.1.5-2.5.8-3.9 1.1zm10.1-11.5c.1-.9.1-1.8.1-2.6v-1.9l.2-3.4v-3.5c-.1-.8.1-1.5.3-2.2.2-.7.6-1.4 1.3-1.8 1-.5 2.2-.4 3.1.2 1 .6 1.8 1.3 2.5 2.3l1.1 1.4c.4.4.7.9 1.2 1.3l2.6 2.2c.9.8 1.7 1.6 2.4 2.2.4.5.9.9 1.4 1.3l4.1 3.7c.4.5.9.9 1.5 1.2v-5.9l-.3-8.8c0-.9.2-1.8.8-2.6.3-.5.8-.8 1.3-1.1.5-.3 1.1-.2 1.4.3.8.9 1.2 2.1 1.2 3.3l.5 4c.2 1.3.3 2.7.3 4v4.2c.1 1.5.2 2.8.3 4v5.2l.1 2.4c0 .5 0 .9-.1 1.3-.1.5-.3 1.1-.6 1.6-.2.5-.6 1-1.1 1.2-1.1.4-2.1-.1-2.9-1.5l-.9-1.5c-.3-.7-.6-1.2-.8-1.5-.2-.4-.4-.8-.7-1.2l-.9-1.2c-.8-1-1.6-1.9-2.5-2.8l-3.5-3.4-.3-.3-1.5-1.6c-.9-.8-1.8-1.6-2.8-2.3l-.6-.5-.7-.6c-.7-.5-1.2-.9-1.5-1.1l-.7 5.2c-.1 1.1-.2 2.5-.4 3.9l-.6 5.4v1.2c0 .4-.1.8-.1 1.3l-.1.8c-.1.3-.1.6-.3.9-.4.9-1.3 1.4-2.2 1.3-.8 0-1.5-.4-1.9-1-.5-.9-.6-1.9-.4-2.9l.4-3.7c.2-1.5.3-2.8.4-3.7-.3-1.1-.2-1.9-.1-2.7zm53.7 11.5c-1.2.2-2.6.5-4.2.7l-4.3.6c-1.7.2-3.1.4-4.3.7-1.5.3-3.1.4-4.6.3-1 0-2-.4-2.6-1.2-.6-.9-1-1.9-1.2-2.9-.1-.4-.2-.9-.3-1.5l-.2-1.6c-.2-1.6-.4-3.2-.4-4.8 0-1.5 0-3.1.1-4.8l.3-7 .2-1.6v-.6c0-1.2.4-2.3 1.1-3.3.4-.4.9-.6 1.4-.7l1.7-.1c1.8-.2 3.5-.3 5.3-.4 2.5-.1 5-.1 7.5 0h4l1.6.1c.5 0 1.1.1 1.6.3.5.2.9.4 1.3.8.4.3.5.9.2 1.3l-.8 1.2c-.2.4-.6.7-1 .8-.8.2-1.7.2-2.5.2h-2.6l-4.8.2c-1.6.1-3.1.3-4.7.5l-1.3.2c-.4 0-.8.1-1.3.2-.8.2-1.5.8-1.7 1.6-.2.9-.3 1.7-.4 2.6v2.5h1c1.3-.2 2.5-.4 3.5-.5l6.8-.6c.9-.1 1.7 0 2.5.1.9.1 1.7.4 2.4.9.7.6.7 1.2-.2 2-.4.3-.8.5-1.2.7-.3.2-.7.3-1 .4l-1.5.3-1.1.1h-.4l-6.6.9c-.7.1-1.4.3-2.2.5-.6.2-1.3.4-2.1.7v5.7c0 .2.1.4.1.7 0 .2.1.4.3.5.5.3 1 .4 1.5.3l8.8-1.1.7-.1h.2c.7-.1 1.3-.2 2-.2l5-.3.6-.1c.6-.1 1.2 0 1.9.1 1.1.2 1.6.8 1.4 1.8-.2.9-.8 1.6-1.6 1.8-1 .4-2.4.8-3.9 1.1zm17-18.5l-1 1.6c-.5.8-.8 1.7-.7 2.6.8.6 1.8.9 2.8.8.6 0 1.1-.1 1.7-.2 1.1-.2 2.1-.3 3-.3 1.2-.1 2.3-.1 3.3-.1 1.5 0 2.9.1 4.4.3 1.3.2 2.7.5 3.9 1 2.4.8 4.1 2.7 4.7 5.2.3 1.8-.2 3.6-1.4 5-1.1 1.6-2.6 2.8-4.4 3.6-.9.4-1.9.7-2.8 1-.4.1-.9.3-1.5.4l-1.5.4c-2.1.3-4.2.5-6.3.4-2 .1-3.9-.1-5.8-.6-1.9-.4-3.8-1.2-5.4-2.4-.8-.4-1.4-1.3-1.4-2.2 0-.6.4-1.2 1-1.4.4-.2.9-.3 1.3-.3.7 0 1.4.2 2 .4l1 .3c.3.1.7.1 1 .2.9.1 1.9.2 3 .2l4.8.1h2.7c.8 0 1.6-.1 2.4-.3 1.3-.2 2.5-.6 3.6-1.2 1.5-.7 2.3-1.4 2.3-2.1 0-.7-.6-1.2-1.7-1.6a9.6 9.6 0 0 0-3.3-.6c-.6-.1-1.2-.1-1.9-.1h-4.3l-4.2.3h-.5c-.8.1-1.3.1-1.7.2-.2 0-.5.1-.7.2h-.3l-.3.1c-.5.1-1 .1-1.5.1-1.6-.2-3.1-.9-4.3-2.1-.6-.7-.8-1.5-.7-2.4 0-.6.1-1.3.3-1.9.3-.8.7-1.6 1.2-2.3l.5-.9c0-.1.1-.2.2-.3.3-.5.5-.9.6-1.2 1.4-2.6 3-5.1 4.8-7.5.2-.2.5-.6.9-1s.9-.9 1.5-1.4c1.1-1 2.4-1.8 3.9-2.2 1-.3 2-.3 2.9 0 .9.7 1.5 1.6 1.8 2.7l.8 2.6c.2.7.5 1.7.7 2.7.2.7.2 1.4.2 2.1.2 1.1-.6 2.1-1.7 2.3h-.2c-1 .1-1.9-.7-2.8-2.4-.2-.3-.3-.7-.4-1-.1-.1-.1-.3-.1-.5l-.4-1.3c-.1-.3-.2-.6-.3-.8-.2-.4-.8-.1-1.9.7-.8.7-1.6 1.4-2.2 2.3-.3.7-.9 1.7-1.6 2.8zm-257.8 53.3c0 .7-.1 1.3-.1 2l-.3 2.1c-.3 2-1.1 3.9-2.3 5.5-1.1 1.7-2.5 3.2-4 4.5-.8.7-1.8 1.5-3.1 2.4-.9.7-2 1.4-3.3 2.2-2.7 1.7-5.8 2.9-8.9 3.5-1.2.3-2.4.4-3.6.5-.6 0-1.3-.1-1.9-.2-.7-.2-1.3-.8-1.5-1.5-.2-.8-.4-1.6-.3-2.4v-2.9c-.1-1.2-.1-2.1-.1-2.7l.1-5.1c0-1.6-.1-3.2-.3-4.8-.2-1-.4-1.9-.8-2.8l-.5-1.3-.4-1.3c-.2-.9 0-1.9.6-2.5.7-.6 1.6-1.1 2.5-1.3 2.5-.6 5-1 7.5-1.2 2.8-.3 5.4-.4 7.7-.4h3c1.2 0 2.3.1 3.3.2 1.9.2 3.7 1.2 4.9 2.7 1.2 1.3 1.8 3 1.8 4.8zm-5.5.9c0-.4-.1-.9-.2-1.3-.4-1.1-1.4-1.8-3.1-2.1-.7-.1-1.5-.2-2.2-.1l-4-.1h-3.1c-.9 0-1.7.1-2.6.2l-2.5.3c-.2 0-.3 0-.5.1l-1.5.3c.3 1 .5 1.7.6 2.3l.2 1.1v13.5c0 .5 0 1 .1 1.5.4 0 .9 0 1.3-.1l1-.2h.3c1.4-.3 2.8-.7 4.1-1.3 1.4-.7 2.8-1.5 4.1-2.5 2.4-1.6 4.4-3.6 6.1-5.9.7-1.1 1.2-2.2 1.5-3.5.3-.7.4-1.4.4-2.2zm31.1 20c-1.2.2-2.6.5-4.2.7l-4.3.6c-1.7.2-3.1.4-4.3.7-1.5.3-3.1.4-4.6.3-1 0-2-.4-2.6-1.2-.6-.9-1-1.9-1.2-2.9-.1-.4-.2-.9-.3-1.5l-.2-1.6c-.2-1.6-.4-3.2-.4-4.8 0-1.5 0-3.1.1-4.8l.3-7 .2-1.6v-.6c0-1.2.4-2.3 1.1-3.3.4-.4.9-.6 1.4-.7l1.7-.1c1.8-.2 3.5-.3 5.3-.4 2.5-.1 5-.1 7.5 0h3.9l1.6.1c.5 0 1.1.1 1.6.3.5.2.9.4 1.3.8.4.3.5.9.2 1.3l-.8 1.2c-.2.4-.6.7-1 .8-.8.2-1.7.2-2.6.2h-2.6l-4.8.2c-1.6.1-3.1.3-4.7.5l-1.3.2c-.4 0-.8.1-1.3.2-.8.2-1.5.8-1.7 1.6-.2.9-.3 1.7-.4 2.6v2.5h1c1.3-.2 2.5-.4 3.5-.5l6.8-.6c.9-.1 1.7 0 2.6.1.9.1 1.7.4 2.4.9.7.6.7 1.2-.2 2-.4.3-.8.5-1.2.7-.3.2-.7.3-1 .4l-1.5.3-1.1.1h-.4l-6.6.9c-.7.1-1.4.3-2.2.5-.6.2-1.3.4-2.1.7v5.7c0 .2.1.4.1.7 0 .2.1.4.3.5.5.3 1 .4 1.5.3l8.8-1.1.7-.1h.2c.7-.1 1.3-.2 2-.2l5-.3.6-.1c.6-.1 1.2 0 1.9.1 1.1.2 1.6.8 1.4 1.8-.2.9-.8 1.6-1.6 1.8-1 .4-2.4.8-3.8 1.1zm48.1.5c-.2.1-.4.1-.6.2h-.7l-4.2.7c-1 .2-2.1.4-3.3.5-1 .1-2 .2-3.3.4l-6.5.6c-1 .1-1.9 0-2.9-.3-1.2-.4-1.9-1.1-1.9-2 0-.6.4-1.1.9-1.3.3-.1.5-.3.8-.4l.7-.3c.6-.2 1.3-.4 1.9-.5.5-.1 1.2-.2 1.9-.3.6-.1 1.4-.2 2.3-.3l2.4-.4c.1-.6.1-1.3 0-2v-2l.1-4.1v-2c0-.7 0-1.5.1-2.3 0-.6.1-1.4.2-2.2l.5-4.5c-.4.4-.9.7-1.4 1l-.4.2-4.2 2.6c-.9.6-1.9.9-3 1-1.1 0-1.6-.6-1.4-1.9.2-1.1.8-2.2 1.6-2.9.4-.4.9-.8 1.4-1.1l1.4-1c.7-.5 1.6-1.2 2.7-2.1l1-.8.3-.3 1.4-1.1c.6-.4 1.2-.8 1.9-1.2.6-.3 1.4-.5 2.1-.6.5 0 .9.1 1.4.3.8.4 1.2 1.1 1 2.3-.1.7-.2 1.4-.2 2.2l-.2 2.2c-.1.8-.2 1.6-.2 2.6l-.1 2.6c0 .5-.1 1.1-.2 1.8v.8l-.3 4.4v3.4c0 .5 0 1.1-.1 2v2h1.4l2.9-.1h2.7c.4.1.8.4 1 .7.6.7.7 1.6.3 2.5-.3.6-.7.9-1.2 1zm18.8-29.4l3.2-.1c.7 0 1.5-.1 2.4-.2l2.4-.3c.6-.1 1.2.1 1.6.6.4.5.6 1.1.4 1.7-.3 1.2-1.3 2-2.9 2.6-.7.2-1.4.4-2.1.5l-4.1.5c-.8.1-1.5.2-2.1.2l-3.9.2c-.4 0-.7.1-1.1.2-.3.1-.5.1-.6.2-.4 1-.7 2-.7 3.1v1.4l.1 1.3c0 .8.3 1.2.8 1.3h2.1l5-.2h4c1.6 0 3.1.4 4.5 1 1.4.7 2.5 1.8 3.1 3.3.5 1.1.7 2.2.7 3.4 0 2.8-1.4 5.4-3.8 6.9-1.1.8-2.2 1.4-3.5 1.8-1.2.4-2.5.8-3.8 1-2.1.3-4.3.5-6.5.5h-2.6c-1.7 0-3.4-.5-4.9-1.3-1.5-.8-2.6-2.2-2.9-3.8-.3-1.4.4-2.2 2.1-2.4.7 0 1.3.2 1.9.6.1.1.3.2.4.3l1.3.9c1.5.8 3.1 1.2 4.7 1.1.7 0 1.3-.1 2-.1l2.5-.3 1.7-.3c.8-.2 1.7-.4 2.5-.7 2-.6 3.2-1.5 3.7-2.5.6-1.4 0-2.5-1.9-3.3-.8-.3-1.6-.5-2.4-.6-.7-.1-1.4-.2-2.1-.2H279c-1.5 0-3 .1-4.5.2-1.3.1-2.7.3-4 .7-.6.2-1.2.2-1.8.1-.6-.1-1.1-.6-1.3-1.2-.2-.7-.2-1.4-.1-2.1l.2-1.6v-.5l.1-3.7c0-.8 0-1.6-.1-2.4-.1-.3-.1-.6-.2-.8l-.1-.5c-.1-.2-.1-.3-.1-.5-.2-.6-.3-1.3-.3-1.9 0-.5.1-1 .4-1.5.4-.6 1.1-1 1.8-1.1.9-.2 1.8-.4 2.8-.5l1.5-.1h3.6l3.1-.9zm60.9 29.7c-.7-.1-1.3-.5-1.6-1.2l-.3-.4c-.1-.1-.1-.3-.2-.5l-.1-.2c0-.1-.1-.2-.1-.2l-.2-.4c-.5-.8-1-1.7-1.4-2.5-.1-.1-.1-.2-.2-.3l-.5-1-.7-1.3c-1.2.5-2.4 1-3.7 1.3-1.3.3-2.6.6-4.1.9-1.9.4-3.9.7-5.8.7h-3.4c-.7 1.2-1.2 2.3-1.7 3.4s-.8 1.8-.9 2.3c-.2.7-.7 1.3-1.4 1.7-.7.3-1.4.1-1.9-.5-.3-.4-.5-.8-.5-1.3v-1.4c.1-1.1.3-2.1.6-3.1.1-.5.3-1 .6-1.5l.6-1.4c.4-.9.9-2 1.6-3.3l.9-1.6.8-1.6c.4-.9.9-1.8 1.5-2.7l.8-1.3c.3-.4.6-.9.8-1.3 1.5-2.5 3.2-5.2 5.1-8 .4-.7.9-1.3 1.5-1.9.6-.5 1.4-.8 2.2-.7.8.1 1.6.6 2.1 1.3.3.3.5.7.7 1.1l2.6 4.7c.6 1.2 1.2 2.5 1.7 3.8.2.5.4 1 .7 1.4l.8 1.4c.6 1.1 1 1.9 1.3 2.5.7 1.3 1.3 2.7 2 4.4.4 1.2.9 2.4 1.4 3.6.4.8.6 1.6.6 2.4.1 1.8-.6 2.8-2.2 2.7zm-9.9-11.6c.9-.2 1.7-.5 2.5-.8l-.8-1.6c-.6-1.3-1.3-2.5-2-3.8-.7-1.1-1.5-2.3-2.4-3.7-.8.7-1.5 1.5-2.1 2.5l-1.8 2.8c-1.2 2-2.3 3.9-3.3 5.8.7 0 1.4 0 2.1-.1.3-.1.8-.1 1.3-.2l1.3-.1c1.1-.1 1.9-.2 2.6-.4.9-.1 1.7-.2 2.6-.4zm54.3 11.3c-.2.1-.4.1-.6.2h-.7l-4.2.7c-1 .2-2.1.4-3.3.5-1 .1-2 .2-3.3.4l-6.5.6c-1 .1-1.9 0-2.9-.3-1.2-.4-1.9-1.1-1.9-2 0-.6.4-1.1.9-1.3.3-.1.5-.3.8-.4l.7-.3c.6-.2 1.3-.4 2-.5.5-.1 1.2-.2 2-.3.6-.1 1.4-.2 2.3-.3l2.4-.4c.1-.6.1-1.3 0-2v-2l.1-4.1v-2c0-.7 0-1.5.1-2.3 0-.6.1-1.4.2-2.2l.5-4.5c-.4.4-.9.7-1.4 1l-.4.2-4.2 2.6c-.9.6-1.9.9-3 1-1.1 0-1.6-.6-1.4-1.9.2-1.1.8-2.2 1.6-2.9.4-.4.9-.8 1.4-1.1l1.4-1c.7-.5 1.6-1.2 2.7-2.1l1-.8.3-.3 1.4-1.1c.6-.4 1.2-.8 1.9-1.2.6-.3 1.4-.5 2.1-.6.5 0 .9.1 1.4.3.8.4 1.2 1.1 1 2.3-.1.7-.2 1.4-.2 2.2l-.2 2.2c-.1.8-.2 1.6-.2 2.6l-.1 2.6c0 .5-.1 1.1-.2 1.8v.8l-.3 4.4v3.4c0 .5 0 1.1-.1 2v2h1.4l2.9-.1h2.7c.4.1.8.4 1 .7.6.7.7 1.6.3 2.5-.5.6-.9.9-1.4 1zm34.8-9.3c0 1.1-.2 2.1-.6 3.1-.6 1.4-1.6 2.6-2.8 3.6-1.2 1-2.5 1.8-3.9 2.3-1.5.6-3 1.1-4.6 1.3-1.3.2-2.9.5-4.6.7-1.2.1-2.3.2-3.5.2-2.3 0-4.6-.4-6.7-1.3-1.3-.4-2.5-1.3-3.4-2.4-.6-.9-1-1.9-1.1-3-.2-1.9.4-3.7 1.6-5.2 1.4-1.5 3-2.8 4.8-3.8l-.5-.2-1.8-.4c-.9-.2-1.7-.7-2.3-1.3-1.2-1.1-1.9-2.7-1.9-4.3.1-1.5.6-3 1.6-4.1.9-1.2 1.9-2.3 3.1-3.2.9-.6 1.9-1.1 2.9-1.5.5-.2 1-.4 1.5-.5l1.6-.4c.9-.2 1.8-.4 2.6-.5l2.7-.2h2.4l2.4.3c2.1.2 4 1.2 5.4 2.7.8 1 1.3 2.3 1.3 3.6 0 1-.2 2-.6 2.9-.4.9-.9 1.8-1.5 2.6l-.4.5-.4.3-.1.1c-.3.3-.6.6-.9 1 1 0 2.1.2 3.1.5s2 .7 2.8 1.3c.9.6 1.4 1.5 1.6 2.5.2 1 .2 1.9.2 2.8zm-5.6 1.7c.5-.6.4-1.5-.1-2.1-1-.9-2.2-1.4-3.6-1.4l-3.1-.4c-.4-.1-.9-.1-1.4-.1h-1.4c-.9-.1-1.8 0-2.7.3-.9.3-1.8.6-2.6 1-.5.2-1 .5-1.4.8-.2.1-.4.3-.6.4l-.8.5c-.1.1-.2.1-.3.2-.1.1-.3.1-.4.2-.3.2-.5.4-.8.6-.5.4-.8.9-1 1.5-.3.8.1 1.6.8 1.9h.1c.5.2.9.3 1.4.4l4.2.5c1.1 0 2.3 0 3.4-.1.5 0 1.1-.1 1.7-.2l1.7-.2c1.9-.3 3.7-1 5.3-2 .6-.4 1.2-1 1.6-1.8zM397 914.8c.8.3 1.6.5 2.4.7l4.6.8c.2-.1.4-.1.6-.2l3.2-1.8c.7-.4 1.4-1 2-1.6.6-.6 1-1.3 1.1-2.2.1-1.1-.6-2-1.6-2.3-.7-.2-1.4-.4-2.2-.4h-1.6c-3-.1-5.9.6-8.6 2-.7.4-1.3.9-1.8 1.6-.6.9-.6 1.6-.1 2.2.5.6 1.2 1 2 1.2zm71.9 18.3c-.7-.1-1.3-.5-1.6-1.2l-.3-.4c-.1-.1-.1-.3-.2-.5l-.1-.2c0-.1-.1-.2-.1-.2l-.2-.4c-.5-.8-1-1.7-1.4-2.5-.1-.1-.1-.2-.2-.3l-.5-1-.7-1.3c-1.2.5-2.4 1-3.7 1.3-1.3.3-2.6.6-4.1.9-1.9.4-3.9.7-5.8.7h-3.4c-.7 1.2-1.2 2.3-1.7 3.4s-.8 1.8-.9 2.3c-.2.7-.7 1.3-1.4 1.7-.7.3-1.4.1-1.9-.5-.3-.4-.5-.8-.5-1.3v-1.4c.1-1.1.3-2.1.6-3.1.1-.5.3-1 .6-1.5l.6-1.4c.4-.9.9-2 1.6-3.3l.9-1.6.8-1.6c.4-.9.9-1.8 1.5-2.7l.8-1.3c.3-.4.6-.9.8-1.3 1.5-2.5 3.2-5.2 5.1-8 .4-.7.9-1.3 1.5-1.9.6-.5 1.4-.8 2.2-.7.8.1 1.6.6 2.1 1.3.3.3.5.7.7 1.1l2.6 4.7c.6 1.2 1.2 2.5 1.7 3.8.2.5.4 1 .7 1.4l.8 1.4c.6 1.1 1 1.9 1.3 2.5.7 1.3 1.3 2.7 2 4.4.4 1.2.9 2.4 1.4 3.6.4.8.6 1.6.6 2.4.2 1.8-.6 2.8-2.2 2.7zm-9.9-11.6c.9-.2 1.7-.5 2.5-.8l-.8-1.6c-.6-1.3-1.3-2.5-2-3.8-.7-1.1-1.5-2.3-2.4-3.7-.8.7-1.5 1.5-2.1 2.5l-1.8 2.8c-1.2 2-2.3 3.9-3.3 5.8.7 0 1.4 0 2.1-.1.3-.1.8-.1 1.3-.2l1.3-.1c1.1-.1 1.9-.2 2.6-.4.9-.1 1.8-.2 2.6-.4zm16.2-.7c.1-.9.1-1.8.1-2.6v-1.9l.2-3.4v-3.5c-.1-.8.1-1.5.3-2.2.2-.7.6-1.4 1.3-1.8 1-.5 2.2-.4 3.1.2 1 .6 1.8 1.3 2.5 2.3l1.1 1.4c.4.4.7.9 1.2 1.3l2.6 2.2c.9.8 1.7 1.5 2.4 2.2.4.5.9.9 1.4 1.3l4.1 3.7c.4.5.9.9 1.5 1.2v-5.9l-.3-8.8c0-.9.2-1.8.8-2.6.3-.4.8-.8 1.3-1.1.5-.3 1.1-.2 1.4.3.8.9 1.2 2.1 1.2 3.3l.5 4c.2 1.3.3 2.7.3 4v4.2c.1 1.5.2 2.8.3 4v5.1l.1 2.4c0 .5 0 .9-.1 1.3-.1.5-.3 1.1-.6 1.6-.2.5-.6 1-1.1 1.2-1.1.4-2.1-.1-2.9-1.5l-.9-1.5c-.3-.7-.6-1.2-.8-1.5-.2-.4-.4-.8-.7-1.2l-.9-1.2c-.8-1-1.6-1.9-2.5-2.8l-3.4-3.3-.3-.3-1.5-1.5c-.9-.8-1.8-1.6-2.8-2.3l-.6-.5-.7-.6c-.7-.5-1.2-.9-1.5-1.1l-.7 5.2c-.1 1.1-.2 2.5-.4 3.9l-.6 5.4v1.2c0 .4-.1.8-.1 1.3l-.1.8c-.1.3-.1.6-.3.9-.4.9-1.3 1.4-2.2 1.3-.8 0-1.5-.4-1.9-1-.5-.9-.6-1.9-.4-2.9l.4-3.7c.2-1.5.3-2.8.4-3.7-.3-1.2-.2-2-.2-2.8zm11.2-26.1c.4.1.9.4 1.2.7l1 1c.3.4.6.7 1 1 .4.3.9.4 1.4.5 1 .2 2-.2 2.7-.9.3-.3.5-.6.6-1v-.3c0-.1 0-.2-.1-.3l-.1-.3v-.3c.1-.4.5-.7.9-.7.4-.1.9-.1 1.3 0 .9.2 1.5.8 1.7 1.7.2 1 0 2-.6 2.8-.5.9-1.2 1.6-2 2.2-1.3.8-2.8 1.2-4.4 1.2-.8 0-1.6-.1-2.4-.4-.9-.3-1.7-.8-2.4-1.5-.5-.6-1.4-1-2.2-.8-.8.2-1.3.8-1.4 1.9 0 .4-.2.8-.6.9-.5.2-1 .2-1.5.1-.9-.2-1.5-1.1-1.5-2 0-.4.1-.9.3-1.3.8-1.6 2.1-2.8 3.7-3.5 1-.8 2.2-1 3.4-.7zM538 914c.5 1.5.8 3 .8 4.6 0 .7-.1 1.3-.2 2-.2.9-.4 1.9-.7 2.8-.3.9-.9 1.7-1.5 2.4-.4.4-.8.8-1.3 1.1l-2.6 1.8c-.1 0-.2.1-.2.2-.2.1-.3.2-.5.3-.6.5-1.3.9-2 1.3-3.1 1.8-6.5 2.9-10.1 3.1-1.3-.1-2.5-.3-3.8-.7-1.3-.3-2.5-.8-3.6-1.5-3.8-2.5-6.1-6.8-6-11.4 0-1.7.4-3.4 1.1-4.9l1.1-2.2c.4-.7.8-1.4 1.4-2 .5-.6 1.1-1.1 1.8-1.6.6-.4 1.2-.8 2-1.3 2.2-1.3 4.7-2.1 7.2-2.4l1.1-.1h1.9l3.8.5c1.2 0 2.3.2 3.5.4.8.2 1.6.4 2.4.7.8.3 1.5.8 2 1.4.6.9 1.2 1.8 1.5 2.8.2.4.4.9.6 1.5.1.1.1.2.1.4l.2.8zm-6.6 8.7c1.2-1 1.9-2.6 1.8-4.1 0-1-.2-1.9-.5-2.8l-.4-.9c-.1-.3-.2-.6-.4-.9-.3-.6-.6-1.2-1.1-1.7-.5-.4-1-.7-1.6-.8l-1.8-.4c-.6-.2-1.2-.3-1.8-.3h-1.9c-1.3-.1-2.5 0-3.8.2-1.2.2-2.4.5-3.5 1.1-1.1.5-2.1 1.3-2.8 2.4-1.2 1.6-1.8 3.5-1.9 5.5 0 1.7.7 3.3 1.9 4.4 1 1.1 2.2 2.1 3.4 3 .7.5 1.6.7 2.5.7.9 0 1.8-.1 2.6-.3 1.9-.3 3.7-.9 5.4-1.9.7-.4 1.4-.9 2-1.4l1.9-1.8zm19.1-8.9l-1 1.6c-.5.8-.8 1.7-.7 2.6.8.6 1.8.9 2.8.8.5 0 1.1 0 1.6-.1 1.1-.2 2.1-.3 3-.3 1.2-.1 2.3-.1 3.3-.1 1.5 0 2.9.1 4.4.3 1.3.2 2.7.5 3.9 1 2.4.8 4.1 2.7 4.7 5.2.3 1.8-.2 3.6-1.4 5-1.1 1.6-2.6 2.8-4.4 3.6-.9.4-1.9.7-2.8 1-.4.1-.9.3-1.5.4l-1.4.2c-2.1.3-4.2.5-6.3.4-2 .1-3.9-.1-5.8-.6-1.9-.4-3.8-1.2-5.4-2.4-.8-.4-1.4-1.3-1.4-2.2 0-.6.4-1.2 1-1.4.4-.2.9-.3 1.3-.3.7 0 1.4.2 2 .4l1 .3c.3.1.7.1 1 .2.9.1 1.9.2 3 .2l4.8.1h2.7c.8 0 1.6-.1 2.4-.3 1.3-.2 2.5-.6 3.6-1.2 1.5-.7 2.3-1.5 2.3-2.1 0-.7-.6-1.2-1.7-1.6a9.6 9.6 0 0 0-3.3-.6c-.6-.1-1.2-.1-1.9-.1H556l-4.2.3h-.5c-.8.1-1.3.1-1.7.2-.2 0-.5.1-.7.2h-.3l-.3.1c-.5.1-1 .1-1.5.1-1.6-.2-3.1-.9-4.3-2.1-.6-.7-.8-1.5-.7-2.4 0-.6.1-1.3.3-1.9.3-.8.7-1.6 1.2-2.3l.5-.9c0-.1.1-.2.2-.3.3-.5.5-.9.7-1.2 1.4-2.6 3-5.1 4.8-7.5.2-.2.5-.6.9-1s.9-.9 1.5-1.4c1.1-1 2.4-1.8 3.9-2.2 1-.3 2-.3 2.9 0 .9.7 1.5 1.6 1.8 2.7l.8 2.6c.2.7.5 1.7.7 2.7.2.7.2 1.4.2 2.1.2 1.1-.6 2.1-1.7 2.3h-.2c-1 .1-1.9-.7-2.8-2.4-.2-.3-.3-.7-.4-1-.1-.1-.1-.3-.1-.5l-.4-1.3c-.1-.3-.2-.6-.3-.8-.2-.4-.8-.1-1.9.7-.8.7-1.6 1.4-2.2 2.3-.4.7-1 1.7-1.7 2.9z"/><path class="st8" d="M92.3 738.4h556l1.3-36.1H89.5z"/><path class="st9" d="M369.5 460.4c-1.6-19.3-4.3-38.5-6.9-57.7-3.6-26.2-15.3-51.9-24.3-76.9-2.5-7-66.5 1.7-98.9 3.8-5.5-.4-11.9-.9-18.8-1.5-3.9-3.5-47.1-24-74.1-4.6-3.4.4-5.6 1.1-6 2.3-.6 1.8-1.3 3.5-1.9 5.3-6.1 7.6-10.6 18.5-12.6 33.7-4.3 12.5-8 25.1-9.8 37.9-2.6 19.2-5.4 38.4-6.9 57.7-2.7 32.8-2.4 65.7-1.4 98.5.5 18 2.4 35.9 5.5 53.5.5 3.1.6 6.6 5.2 7.9 10.6 3 36.6-4.9 40-5.1 8.7-.5 17.4-1.2 26.1-1.9 1.6-.1 27.8-1.4 54.7-2.5 26.9 1.1 53 2.4 54.7 2.5 8.7.7 17.4 1.4 26.1 1.9 3.5.2 29.5 8 40 5.1 4.6-1.3 4.7-4.8 5.2-7.9 3.1-17.7 5-35.6 5.6-53.5 1-32.8 1.2-65.6-1.5-98.5z"/><path class="st8" d="M290.4 276.5l.1.4-.6-.4c-6.5-3.8-24.3.1-37.4 3.8v-5.2c6.3-.8 16.7-3.4 24.1-11.8 5.5-6.2 10-15.8 13.4-24.5 1.2-.6 3-.5 5.5.8 3 1.5 5.4-2.2 6.5-5 2-4.9 2.7-10.1 2.2-15.4-.6-5.1-2.3-8.7-6.4-9.9 1.3-8.7 1.5-15.2 1.1-20.1.4-.9.9-1.8 1.3-2.7 2.9-5.9 6-11.8 9.1-17.6 9.1-17.5 7.1-34-4.3-49.7-1.4-1.9-2.4-5.5-4.9-5.1-3.6.6-1.7 4.6-2.6 7-.7 2-1.2 4.2-2.4 8.3-2.9-16.2-5.9-30.3-20.2-39.9-.2 8.4.1 15.2-5.3 21.2-5.9-8.8-11.7-16.8-20.2-22.3-3.3-2.1-4.9-1.5-5.7 2.1-2.4 11.2-5.4 14.5-16.4 15.5-14.5 1.3-25.9 7-33 21.5-.9-6.1-3-4.6-5.8-2.3-8.2 6.8-12.5 16.1-15.7 26.1-1.9-1.4-.4-3.4-2.9-4.1-5 19.2-9.3 38.2 2.8 56.5.3.5.6 1 1 1.5.2 1.2.3 2.3.5 3.6.3 2 .7 4.1 1.1 6.3-5.5-.4-7.6 2.2-8 9.2-.3 6.4 1.4 12.7 5 18 1.8 2.7 4.5 5 7.5 2.3 1.8-1.6 3.1-2.1 4.2-1.8 1.7 3.2 3.7 6.3 6 9.1 6.4 10.3 16.3 17.2 26 24.3 1.3 1 2.7 1.8 4.2 2.4l.2 1.5c-12.9-3.6-29.7-7.1-36-3.4l-.6.4.1-.4s-64.6 35.1-63.3 101.9v2.1l.1.3c.1 1.2.1 2.4.2 3.6 0 0 2.5 6.2 6.7 15.1.6 1.5 1.2 3.1 1.9 4.7 2.8 7.7 8.6 13.3 14.9 18.3 11.3 9.1 24.4 15.4 38.1 20.3 3.5 1.2 7 1.7 9.9.1l-4.6 20.7c-2.1 8.5-4.4 16.9-6.8 25.4-6.1 22.2-6.4 44 5.9 64.8 5.1 8.7 8.7 17 2.6 26.4-.2.3-.4.6-.6.8-.3.4-.5.7-.6 1.2-8.3 16.9 6.8 73.3 6.8 73.3.1 1.2.4 2.2.5 3.2.4 4.4.1 8.8-.8 13.1 0 0 .1 8.4-16.6 12.9 0 0-38.1 4.4-25.7 22.5 0 0 9.3 4.2 51.4.3 0 0 19.6 2.3 17-10 0 0-3-17.4-.5-50.9.3-3.4 2.3-10.8 2.9-12.8 6.6-21.4 10.6-32.5 10.9-38.3.2-1.2.2-2.4 0-3.6 0-.3-.1-.6-.1-.9-1.2-7.3-3.6-14.3-7.2-20.8-3.1-5.8-2.5-11.2 1.5-16.4 1.7-2.3 3-4.8 3.8-7.5.4-1.4.8-2.9 1-4.4.3-2 .7-4 1-6 2.2-11.5 5.6-30.2 7.6-43.7 1.3 22.6 8.8 50.8 10.6 59.1 1.4 5.5.6 11.3-2.2 16.3-5 9.9-10.4 20.1-7.2 32.3.1 0 11.9 31 11.9 31 10.2 31.8 1.6 65 1.6 65-2.8 14.6 17.8 12.2 17.8 12.2 42.1 3.9 50.7-2.6 50.7-2.6 12.4-18.1-25.7-22.5-25.7-22.5-16.7-4.5-16.6-12.9-16.6-12.9-2.8-14.5 2.8-55.3 2.8-55.3 2.4-19.4-1.9-32.3-1.9-32.3s-.4-19 3.6-25.2c8.2-12.6 11.4-26.1 11.4-40.8 0-21.9-6.1-49.8-11.4-72.9 13.6-4 26.7-9.3 38.3-17.5 6.8-4.7 13.3-10.1 16.7-17.9 6.6-13.2 10.9-23.8 10.9-23.8 5.8-70.9-62.7-108.1-62.7-108.1zm-107 139.3c-5.4 4.8-7 1.6-8.7-2.8-3.8-9.4-6.4-19.2-12.5-27.5-.6-.9-1.2-1.8-1.9-2.7 5.4-5.8 9.6-10.6 12.7-14.7l5.5-5.4c1.4 2.7 2.9 5.3 4.3 8 5.4 8.8 5.7 18.8 6.7 28.5.2 2.2.1 8.6.4 15.1-2.5-.2-4.9.2-6.5 1.5zm129.5-32.4c-.9 1-1.7 2.1-2.6 3.1-6.9 8.2-10.3 18.2-14.9 27.6-2.1 4.4-4 7.6-9.2 2.3-1.6-1.7-4.5-2.2-7.6-2 2.8-12.7 5.6-33.2 9.2-39.2 4.5-8.7 5.6-17.2 7.2-28.4 3.2 4.2 6.1 8 8.9 11.6 3.8 5.9 7.9 11.6 12.3 17 .6 1.1 1.4 2.1 2.3 2.9-2.1 1.6-3.9 3.3-5.6 5.1z"/><path class="st9" d="M619.8 455c-1.5-23.8-9-62.5-13.8-85.9-.1 4.5-32.7-18.5-33-20.1-20.3 19.8-99.3 14-111.5 7.4-2.9 6.6-36.2 31.1-36.3 25.8-4.8 23.4-6.9 47.2-8.3 71-2.8 43.7-2.3 87.6 1.5 131.2 1.2 13.2 1.8 26.6 4.9 39.6 1.1 4.8 2.7 5.1 7 3.8 12.7-3.8 25.7-6.9 38.4-10.6 0 0 50.4-5.2 99.3 1.7v.2c12.8 3.7 25.7 6.8 38.4 10.6 4.3 1.3 5.9 1 7-3.8 3.1-13 3.7-26.4 4.8-39.6 3.9-43.8 4.4-87.6 1.6-131.3z"/><path class="st8" d="M596 693c-5.7-.6-11.2-1.7-16.7-3.2l-.5-.1-1.3-.3c-3.7-1-7.2-2.4-10.5-4.4l-.5-.3c-.4-.2-.7-.5-1-.7-4.8-3.8-5.8-9.9-6-12.5-.2-5.6 0-11.2.7-16.8 2.4-12.6 3.9-25.4 4.3-38.3.1-2.6.7-5.2.7-7.8 0-5.5-.8-11.1-1.4-16.6-.7-7.5-2.1-15.1 2-21.9 2-3.5 3.3-7.3 4-11.3 5.7-27.4 5.8-54.8 2.2-82.3-.2-2.1-.5-4.3-.9-6.5-.3-1.7-.5-3.5-.8-5.2-.2-1.3-.6-2.6-1.2-3.8-1.3-5.1-2.9-10.3-4.6-15.3 0 0 29.3-26.5 37.7-41.6.1 0 7-14.1 6.4-21.8-2.4-30.3-18.5-56.1-28.5-84l-1.2-2.2c-.8-1-1.7-2-2.8-2.8 6.2.2 12.4-.4 18.5-1.8 7.4-35.7-1.2-129.7-11.2-147.2-18.5-32.2-59.4-50.8-109.1-38.5-22.6 5.6-14.3 24.5-14.3 24.5s-13.6 1.1-18.9 10.5c-5.4 9.6-10.6 33.8-14.1 69.9s3.6 72.1 3.6 72.1 17.6 7.8 45.3 3.2c0 0-.6-3.2-1.5-8.3 9.7-1.5 21.4-1.9 30.7-.4l.3 3.8H503c-12.4 1.2-25.8 4.8-33.8 7.2-1.5-.4-9.6 4.5-10.8 5.6-19.6 15.6-26.2 55.3-26.2 55.3-3 11-5.3 22.2-6.8 33.5 0 .8.1 1.5.1 2.3-2 15.8 28.9 47.4 40.7 58.8-1.7 5.1-5.6 18.4-5.5 21.1-.5 2.4-.8 4.5-1 6.2-.2.8-.4 1.7-.4 2.5 0 .7-.1 1.5-.1 2.2v.1c-2 34.9 3.4 68.3 21.9 98.8 1.7 2.5 2.2 5.6 1.3 8.5-1.6 6.2-2.9 14.8-2.6 33 .1 10.5 1.1 21 3 31.4v.4c.8 6.4 2.4 18.7 2.2 23.3-.2 2.6-1.1 8.7-6 12.5-.3.2-.7.5-1 .7l-.5.3c-3.3 2-6.8 3.5-10.5 4.5l-1.3.3-.5.1c-5.5 1.5-11.1 2.6-16.7 3.2-4.8.6-7.2 5.4-7.2 8.9 0 3.9 2.7 4.4 5.4 4.9 14.7 2.4 29-3.3 43.7-2.6 13.8.7 11.2-5.7 10.9-13.1-.1-1.5-.2-3.2-.3-4.8.1-8 2.2-22.7 3-28.3 2.5-14 8.8-41.7 9.1-41.8.9-2.5 3.6-27.6-2.2-36.6-2.5-3.9-2.3-8-1.7-12.3 3.9-27 5.4-54.2 5.9-81.5 0-.6 0-1.2.1-1.8l1.9-.3c-.1 1.3 0 2.6.2 3.9 4.1 26.4 10.2 52.5 18 78.1 2.2 7.1 3 13.3-.3 20.2-3.1 6.6-5.2 13.9-4.8 21.3.2 3.2 7.9 37.1 10.3 51 0 0 3 18 3.2 28-.1 1.7-.2 3.3-.3 4.8-.4 7.4-2.9 13.8 10.9 13.1 14.7-.7 29 5 43.7 2.6 2.6-.4 5.4-1 5.4-4.9-.2-3.2-2.6-8-7.4-8.7zM463.3 212c0 .2.1.5.1.7l-.1-.7zm18.3 199.8c-3 4.5-5.7 9.3-8.1 14.1-5.2-13-18.8-38.7-19.5-40.2-1.1-2.2-2.5-4.3-4-6.3 5.8-5.9 8.9-15.8 11.8-22.4 12.4 6.6 17.3 17.9 21.4 29.6 3 8.3 2.4 17.5-1.6 25.2zm51-130.6l-.3-6.6c.6 0 1.6 0 2.8-.1 6.6.9 13.2 2.2 19.7 3.9-.3.5-.6 1.1-1 1.6-.9 1.4-2 2.6-3.1 3.8-7.5-1.4-14.4-2.2-18.1-2.6zm18.3 133.5c-13.9-25.4 2.6-43.9 21.3-62 1.5 7.2 4.9 13.9 10 19.2 3.1 3.3 3.9 6 .5 9.6-1.2 1.4-15.9 31.1-22.3 47.4-2-2.8-6.9-10.2-9.5-14.2z"/></g></svg>