<svg xmlns="http://www.w3.org/2000/svg" xmlns:xlink="http://www.w3.org/1999/xlink" viewBox="0 0 1366 836.2"><defs><style>.cls-1{fill:none;}.cls-2{isolation:isolate;}.cls-3{clip-path:url(#clip-path);}.cls-4{fill:#1e8dbf;}.cls-5{fill:#bd2025;}.cls-6{fill:#5083b8;}.cls-7{fill:#229ed7;}.cls-8{fill:#c23333;}.cls-9{fill:#cb2228;}.cls-10,.cls-11{fill:#3d3d3d;}.cls-11{mix-blend-mode:hard-light;}</style><clipPath id="clip-path"><rect id="_Rectángulo_" data-name="&lt;Rectángulo&gt;" class="cls-1" width="1366" height="836.18"/></clipPath></defs><title>maqueta plataforma</title><g class="cls-2"><g id="Capa_1" data-name="Capa 1"><g id="_Recortar_grupo_" data-name="&lt;Recortar grupo&gt;"><g class="cls-3"><polygon id="_Trazado_" data-name="&lt;Trazado&gt;" class="cls-4" points="934.2 0 432.6 835.4 1366 836.2 1366 0 934.2 0"/><polygon id="_Trazado_2" data-name="&lt;Trazado&gt;" class="cls-5" points="432.6 835.4 0 836.2 0 0 934.2 0 432.6 835.4"/><path id="_Trazado_compuesto_" data-name="&lt;Trazado compuesto&gt;" class="cls-6" d="M1366,0H1264.1L779.8,341.7,1138.7,0H934.2L432.6,835.4l694,.6L779.8,500.9l442.4,335.2H1366L777.1,466.6l588.9,266V626.8L771.6,440.7l594.4,111V469.4L770.5,420.3,1366,405V299.5L799.5,391.9,1366,217.2V116.8L760.8,378,1366,33ZM535.6,835.4l133.7-366-96.4,366Zm86.6,0,56.6-334.5,19.6,334.5Zm147.8,0L702.4,486.7,838.7,835.4Zm271.7,0H962.6l-236.5-361Z"/><path id="_Trazado_compuesto_2" data-name="&lt;Trazado compuesto&gt;" class="cls-7" d="M1366,0H1264.1L779.8,341.7,1138.7,0H934.2L432.6,835.4l694,.6L779.8,500.9l442.4,335.2H1366L777.1,466.6l588.9,266V626.8L771.6,440.7l594.4,111V469.4L770.5,420.3,1366,405V299.5L799.5,391.9,1366,217.2V116.8L760.8,378,1366,33ZM535.6,835.4l133.7-366-96.4,366Zm86.6,0,56.6-334.5,19.6,334.5Zm147.8,0L702.4,486.7,838.7,835.4Zm271.7,0H962.6l-236.5-361Z"/><path id="_Trazado_compuesto_3" data-name="&lt;Trazado compuesto&gt;" class="cls-8" d="M239.2,0l347,335.3L143.7,0H0L588.9,369.6,0,103.5V209.4L594.4,395.5,0,284.5v82.2l595.5,49.1L0,431.2V536.7l566.5-92.4L0,619V719.3L605.2,458.2,0,803.1v33l102.1-.2L586.2,494.5,227.7,835.8l204.9-.4L934.2,0Zm85.1.8h79.1l236.5,361Zm203,0H596l67.6,348.8ZM667.7.8h76.1L687.3,335.3ZM793.1.8h37.3l-133.7,366Z"/><path id="_Trazado_compuesto_4" data-name="&lt;Trazado compuesto&gt;" class="cls-9" d="M239.2,0l347,335.3L143.7,0H0L588.9,369.6,0,103.5V209.4L594.4,395.5,0,284.5v82.2l595.5,49.1L0,431.2V536.7l566.5-92.4L0,619V719.3L605.2,458.2,0,803.1v33l102.1-.2L586.2,494.5,227.7,835.8l204.9-.4L934.2,0Zm85.1.8h79.1l236.5,361Zm203,0H596l67.6,348.8ZM667.7.8h76.1L687.3,335.3ZM793.1.8h37.3l-133.7,366Z"/><polygon id="_Trazado_3" data-name="&lt;Trazado&gt;" class="cls-10" points="683 417.3 922.3 0 955.1 0 683 417.3"/><polyline id="_Trazado_4" data-name="&lt;Trazado&gt;" class="cls-10" points="410.9 835.4 683 417.3 443.7 835.4"/><g id="_Grupo_" data-name="&lt;Grupo&gt;"><polygon id="_Trazado_5" data-name="&lt;Trazado&gt;" class="cls-11" points="0 682.3 157.8 626.4 0 697.4 0 682.3"/><polygon id="_Trazado_6" data-name="&lt;Trazado&gt;" class="cls-11" points="59.9 836.2 169.4 760.4 82.1 836.2 59.9 836.2"/><polygon id="_Trazado_7" data-name="&lt;Trazado&gt;" class="cls-11" points="0 353.4 92.3 361.8 0 343.7 0 353.4"/><polygon id="_Trazado_8" data-name="&lt;Trazado&gt;" class="cls-11" points="50.4 -0.8 176.2 65.1 69.5 -0.8 50.4 -0.8"/><polygon id="_Trazado_9" data-name="&lt;Trazado&gt;" class="cls-11" points="479.3 -0.8 559 145.5 497.2 -0.8 479.3 -0.8"/><polygon id="_Trazado_10" data-name="&lt;Trazado&gt;" class="cls-11" points="806.6 -0.8 760.7 163.9 819 -0.8 806.6 -0.8"/><polygon id="_Trazado_11" data-name="&lt;Trazado&gt;" class="cls-11" points="844.5 0.8 814.7 92 855.4 -0.8 844.5 0.8"/><polygon id="_Trazado_12" data-name="&lt;Trazado&gt;" class="cls-11" points="0 455.1 239.8 443.4 0 469.4 0 455.1"/><polygon id="_Trazado_13" data-name="&lt;Trazado&gt;" class="cls-11" points="0 836.2 239.8 697.4 32.2 836.2 0 836.2"/><polygon id="_Trazado_14" data-name="&lt;Trazado&gt;" class="cls-11" points="0 779.4 119.9 721.8 0 789.1 0 779.4"/></g><g id="_Grupo_2" data-name="&lt;Grupo&gt;"><polygon id="_Trazado_15" data-name="&lt;Trazado&gt;" class="cls-11" points="1366 153.1 1208.2 209 1366 138 1366 153.1"/><polygon id="_Trazado_16" data-name="&lt;Trazado&gt;" class="cls-11" points="1306 -0.8 1196.6 75 1283.9 -0.8 1306 -0.8"/><polygon id="_Trazado_17" data-name="&lt;Trazado&gt;" class="cls-11" points="1366 482 1273.7 473.6 1366 491.7 1366 482"/><polygon id="_Trazado_18" data-name="&lt;Trazado&gt;" class="cls-11" points="1315.6 836.2 1189.8 770.3 1296.5 836.2 1315.6 836.2"/><polygon id="_Trazado_19" data-name="&lt;Trazado&gt;" class="cls-11" points="886.7 836.2 807 689.9 868.8 836.2 886.7 836.2"/><polygon id="_Trazado_20" data-name="&lt;Trazado&gt;" class="cls-11" points="559.4 836.2 605.3 671.5 546.9 836.2 559.4 836.2"/><polygon id="_Trazado_21" data-name="&lt;Trazado&gt;" class="cls-11" points="521.5 834.6 551.3 743.4 510.6 836.2 521.5 834.6"/><polygon id="_Trazado_22" data-name="&lt;Trazado&gt;" class="cls-11" points="1366 380.3 1126.2 392 1366 366 1366 380.3"/><polygon id="_Trazado_23" data-name="&lt;Trazado&gt;" class="cls-11" points="1366 -0.8 1126.2 138 1333.8 -0.8 1366 -0.8"/><polygon id="_Trazado_24" data-name="&lt;Trazado&gt;" class="cls-11" points="1366 56 1246.1 113.6 1366 46.3 1366 56"/></g></g></g></g></g></svg>